<?xml version="1.0" encoding="UTF-8"?>
<svg width="16px" height="16px" viewBox="0 0 16 16" version="1.1" xmlns="http://www.w3.org/2000/svg" xmlns:xlink="http://www.w3.org/1999/xlink">
    <title></title>
    <g id="-界面合集" stroke="none" stroke-width="1" fill="none" fill-rule="evenodd">
        <g id="资源视图（操作）" transform="translate(-307.000000, -580.000000)">
            <g id="编组-13备份" transform="translate(295.000000, 514.950000)">
                <g id="编组备份" transform="translate(4.000000, 59.050000)">
                    <g id="编组" transform="translate(8.000000, 6.000000)">
                        <g id="anquan" transform="translate(1.500000, 0.500000)" fill="#595757" fill-rule="nonzero">
                            <path d="M6.47140343,15 C6.1930635,15 5.91472357,14.9325361 5.65926089,14.7985585 C3.95776507,13.9025237 0,11.5127808 0,8.67929647 L0,4.01858528 C0,3.11209833 0.618639097,2.34053921 1.5041795,2.14289845 C2.54604781,1.91105064 4.46583077,1.37038914 5.62303857,0.359380636 C6.15398152,-0.104314992 6.94420003,-0.12141852 7.50278633,0.320422602 C8.68763748,1.25636562 10.5588063,1.84263653 11.5682651,2.1077412 C12.4118639,2.33008706 13,3.09404461 13,3.96537431 L13,8.67834627 C13,11.1526566 9.45593195,13.5547519 7.34359877,14.7662518 C7.07193137,14.9220839 6.7716674,15 6.47140343,15 Z M6.58388327,0.950402524 C6.4647309,0.950402524 6.34557853,0.99126095 6.25216307,1.073928 C5.00153982,2.16665335 3.09319548,2.76242622 1.71293445,3.07028971 C1.26587476,3.17006029 0.954172166,3.55964063 0.954172166,4.01858528 L0.954172166,8.67834627 C0.954172166,11.0595374 4.89668573,13.3210037 6.10536736,13.957635 C6.34557853,14.0840111 6.63154421,14.0783099 6.86889573,13.9424319 C8.08424989,13.2459383 12.0477343,10.8077354 12.0477343,8.67834627 L12.0477343,3.96537431 C12.0477343,3.52448338 11.75033,3.13870382 11.3251943,3.0265807 C10.0040328,2.67880898 8.16622672,2.05643062 6.91083737,1.06537624 C6.81814289,0.991098807 6.7028141,0.950543333 6.58388327,0.950402524 L6.58388327,0.950402524 Z" id="形状"></path>
                            <path d="M5.94999267,9.64849635 C5.6449626,9.64849635 5.35613726,9.53637323 5.13022437,9.32828031 L3.48973457,7.81841893 C3.39670894,7.73293101 3.34161776,7.61406764 3.3366108,7.48804289 C3.33160385,7.36201814 3.3770924,7.23918404 3.46304443,7.14663038 C3.54880432,7.05389978 3.66804585,6.99898331 3.79447154,6.99399223 C3.92089723,6.98900115 4.04412212,7.03434544 4.13697023,7.1200249 L5.77746004,8.62988628 C5.84704502,8.69354941 5.92425576,8.69925058 5.96524417,8.69735019 C6.00527937,8.6954498 6.0824901,8.68119686 6.14540255,8.61183256 L8.86112333,5.5664545 C9.03612728,5.37064571 9.33703724,5.35280133 9.53409591,5.52654627 C9.73057861,5.7009706 9.74848234,6.00096931 9.5741311,6.19738462 L6.85841032,9.24276267 C6.64298843,9.48585319 6.33794111,9.631551 6.01290512,9.64659596 C5.99098108,9.64849635 5.97096348,9.64849635 5.94999267,9.64849635 L5.94999267,9.64849635 Z" id="路径"></path>
                        </g>
                        <rect id="矩形" x="0" y="0" width="16" height="16"></rect>
                    </g>
                </g>
            </g>
        </g>
    </g>
</svg>