<?xml version="1.0" encoding="UTF-8"?>
<svg width="16px" height="16px" viewBox="0 0 16 16" version="1.1" xmlns="http://www.w3.org/2000/svg" xmlns:xlink="http://www.w3.org/1999/xlink">
    <title></title>
    <g id="-界面合集" stroke="none" stroke-width="1" fill="none" fill-rule="evenodd">
        <g id="资源视图（操作）" transform="translate(-307.000000, -552.000000)">
            <g id="编组-13备份" transform="translate(295.000000, 514.950000)">
                <g id="编组" transform="translate(4.000000, 31.050000)">
                    <g id="编组备份" transform="translate(8.000000, 6.000000)">
                        <g id="anquan" transform="translate(1.500000, 0.500000)" fill="#595757">
                            <path d="M6.47140343,15 C6.1930635,15 5.91472357,14.9325361 5.65926089,14.7985585 C3.95776507,13.9025237 0,11.5127808 0,8.67929647 L0,4.01858528 C0,3.11209833 0.618639097,2.34053921 1.5041795,2.14289845 C2.54604781,1.91105064 4.46583077,1.37038914 5.62303857,0.359380636 C6.15398152,-0.104314992 6.94420003,-0.12141852 7.50278633,0.320422602 C8.68763748,1.25636562 10.5588063,1.84263653 11.5682651,2.1077412 C12.4118639,2.33008706 13,3.09404461 13,3.96537431 L13,8.67834627 C13,11.1526566 9.45593195,13.5547519 7.34359877,14.7662518 C7.07193137,14.9220839 6.7716674,15 6.47140343,15 Z M6.58388327,0.950402524 C6.4647309,0.950402524 6.34557853,0.99126095 6.25216307,1.073928 C5.00153982,2.16665335 3.09319548,2.76242622 1.71293445,3.07028971 C1.26587476,3.17006029 0.954172166,3.55964063 0.954172166,4.01858528 L0.954172166,8.67834627 C0.954172166,11.0595374 4.89668573,13.3210037 6.10536736,13.957635 C6.34557853,14.0840111 6.63154421,14.0783099 6.86889573,13.9424319 C8.08424989,13.2459383 12.0477343,10.8077354 12.0477343,8.67834627 L12.0477343,3.96537431 C12.0477343,3.52448338 11.75033,3.13870382 11.3251943,3.0265807 C10.0040328,2.67880898 8.16622672,2.05643062 6.91083737,1.06537624 C6.81814289,0.991098807 6.7028141,0.950543333 6.58388327,0.950402524 L6.58388327,0.950402524 Z" id="形状" fill-rule="nonzero"></path>
                            <g id="编组" transform="translate(4.200000, 5.200000)">
                                <path d="M2.48286224,-0.525849113 C2.7559442,-0.526374527 2.97774681,-0.305423787 2.97827222,-0.0323418212 C2.97827325,-0.0318086306 2.97827341,-0.0312754386 2.97827271,-0.0307422474 L2.97169497,4.98667947 C2.97133547,5.26090576 2.74920986,5.48316758 2.47498384,5.48369519 C2.20190188,5.48422061 1.98009927,5.26326987 1.97957386,4.9901879 C1.97957283,4.98965471 1.97957267,4.98912152 1.97957337,4.98858833 L1.98615111,-0.0288333867 C1.98651061,-0.303059678 2.20863622,-0.525321497 2.48286224,-0.525849113 Z" id="矩形" transform="translate(2.478923, 2.478923) rotate(45.000000) translate(-2.478923, -2.478923) "></path>
                                <path d="M2.47498384,-0.525849113 C2.74920986,-0.525321497 2.97133547,-0.303059678 2.97169497,-0.0288333867 L2.97827271,4.98858833 C2.97863072,5.26167056 2.75754405,5.48333768 2.48446181,5.48369568 C2.48392862,5.48369638 2.48339543,5.48369622 2.48286224,5.48369519 C2.20863622,5.48316758 1.98651061,5.26090576 1.98615111,4.98667947 L1.97957337,-0.0307422474 C1.97921536,-0.303824484 2.20030203,-0.525491598 2.47338427,-0.525849603 C2.47391746,-0.525850302 2.47445065,-0.525850138 2.47498384,-0.525849113 Z" id="矩形" transform="translate(2.478923, 2.478923) rotate(-45.000000) translate(-2.478923, -2.478923) "></path>
                            </g>
                        </g>
                        <rect id="矩形" x="0" y="0" width="16" height="16"></rect>
                    </g>
                </g>
            </g>
        </g>
    </g>
</svg>