<?xml version="1.0" encoding="UTF-8"?>
<svg width="74px" height="66px" viewBox="0 0 74 66" version="1.1" xmlns="http://www.w3.org/2000/svg" xmlns:xlink="http://www.w3.org/1999/xlink">
    <title>编辑备份</title>
    <defs>
        <filter id="filter-1">
            <feColorMatrix in="SourceGraphic" type="matrix" values="0 0 0 0 0.631373 0 0 0 0 0.525490 0 0 0 0 1.000000 0 0 0 1.000000 0"></feColorMatrix>
        </filter>
    </defs>
    <g id="-界面合集" stroke="none" stroke-width="1" fill="none" fill-rule="evenodd" opacity="0.0960664971">
        <g id="01-首页备份-3" transform="translate(-636.000000, -192.000000)">
            <g id="编辑备份" transform="translate(395.000000, 157.000000)">
                <g id="编辑备份" transform="translate(241.000000, 31.000000)" filter="url(#filter-1)">
                    <g>
                        <path d="M37.0000704,4.93333333 C46.8830271,4.93333333 56.1745321,8.90037206 63.1630074,16.1038052 C70.1513418,23.3070933 74,32.884395 74,43.0714858 C74,52.752958 70.4738111,61.9849592 64.070735,69.0666667 L64.070735,69.0666667 L55.2362607,60.5801084 C59.5488467,55.8104636 61.923943,49.5924426 61.923943,43.0714858 C61.923943,28.9057495 50.7430864,17.3809819 37.0000704,17.3809819 C23.2569136,17.3809819 12.0761978,28.9057495 12.0761978,43.0714858 C12.0761978,49.5924426 14.4511533,55.8104636 18.7637393,60.5801084 L18.7637393,60.5801084 L9.92926501,69.0666667 C3.52618895,61.9849592 -9.23705556e-14,52.752958 -9.23705556e-14,43.0714858 C-9.23705556e-14,32.884395 3.84865817,23.3070933 10.8369926,16.1038052 C17.8254679,8.90037206 27.1169729,4.93333333 37.0000704,4.93333333 Z M47.5704594,30.7047072 C47.5704594,30.7047072 46.8956809,44.976355 43.5153139,50.9922736 C41.1058735,55.2803837 37.8233311,55.749151 34.941236,54.0814075 C32.059141,52.413664 30.8482275,49.3404893 33.0352754,44.9276067 C36.0271592,38.8909411 47.5704594,30.7047072 47.5704594,30.7047072 Z" id="形状结合" fill="#5690FF"></path>
                    </g>
                </g>
            </g>
        </g>
    </g>
</svg>