<?xml version="1.0" encoding="UTF-8"?>
<svg width="12px" height="12px" viewBox="0 0 12 12" version="1.1" xmlns="http://www.w3.org/2000/svg" xmlns:xlink="http://www.w3.org/1999/xlink">
    <title></title>
    <g id="-界面合集" stroke="none" stroke-width="1" fill="none" fill-rule="evenodd">
        <g id="控件设置" transform="translate(-56.000000, -140.000000)">
            <g id="编组" transform="translate(56.000000, 140.000000)">
                <path d="M10.7928932,0.5 L0.5,10.7928932 L0.5,0.5 L10.7928932,0.5 Z" id="路径-8" stroke="#326FFF" fill="#326FFF"></path>
                <g id="ok" fill-rule="nonzero">
                    <rect id="矩形" fill="#000000" opacity="0" x="0" y="0" width="8" height="8"></rect>
                    <path d="M3.18333334,4.31666666 L5.71666666,1.78333334 C5.73333333,1.76666667 5.76666666,1.75 5.8,1.75 C5.83333334,1.75 5.85,1.76666666 5.88333334,1.78333334 L6.66666666,2.56666666 C6.68333333,2.58333333 6.7,2.61666666 6.7,2.65 C6.7,2.68333334 6.68333334,2.7 6.66666666,2.73333334 L3.18333334,6.21666666 C3.16666667,6.23333333 3.13333334,6.25 3.1,6.25 C3.06666666,6.25 3.05,6.23333334 3.01666666,6.21666666 L1.31666666,4.51666666 C1.3,4.5 1.28333334,4.46666666 1.28333334,4.43333334 C1.28333334,4.40000001 1.3,4.38333334 1.31666666,4.35 L2.1,3.56666666 C2.11666666,3.55 2.15,3.53333333 2.18333334,3.53333334 C2.21666667,3.53333334 2.23333334,3.55 2.26666666,3.56666666 L3.03333334,4.33333334 C3.05,4.35 3.08333334,4.36666667 3.11666666,4.36666666 C3.14999999,4.36666666 3.16666666,4.35 3.18333334,4.31666666 Z" id="路径" fill="#FFFFFF"></path>
                </g>
            </g>
        </g>
    </g>
</svg>