<?xml version="1.0" encoding="UTF-8"?>
<svg width="30px" height="30px" viewBox="0 0 30 30" version="1.1" xmlns="http://www.w3.org/2000/svg" xmlns:xlink="http://www.w3.org/1999/xlink">
    <!-- Generator: Sketch 55.2 (78181) - https://sketchapp.com -->
    <title>add-2</title>
    <desc>Created with Sketch.</desc>
    <g id="3.0" stroke="none" stroke-width="1" fill="none" fill-rule="evenodd">
        <g id="06-系统管理员" transform="translate(-1600.000000, -330.000000)" fill="#D9E0ED" fill-rule="nonzero">
            <g id="add-2" transform="translate(1600.000000, 330.000000)">
                <path d="M14.999704,30.0261507 C6.71587207,30.0261507 0.000487454928,23.3094128 0.000487454928,15.0245125 C0.000487454928,6.73961227 6.71587207,0.0233729342 14.999704,0.0233729342 C23.2836071,0.0233729342 29.9989917,6.73961227 29.9989917,15.0245125 C29.9989917,23.3094128 23.2836071,30.0261507 14.999704,30.0261507 Z M14.999704,1.89844419 C7.75127096,1.89844419 1.87541624,7.77515358 1.87541624,15.0245125 C1.87541624,22.2738715 7.75127092,28.1506522 14.999704,28.1506522 C22.2481371,28.1506522 28.1239917,22.2738715 28.1239917,15.0245125 C28.1239917,7.77515355 22.248137,1.89844419 14.999704,1.89844419 Z M20.6244191,15.9622618 L15.9372396,15.9622618 L15.9372396,20.6501536 C15.9372396,21.167675 15.5175103,21.5875468 14.9997752,21.5875468 C14.4820402,21.5875468 14.062382,21.167675 14.062382,20.6501536 L14.062382,15.9622618 L9.3750601,15.9622618 C8.85732505,15.9622618 8.4375957,15.5424613 8.4375957,15.0245125 C8.4375957,14.50692 8.85739626,14.0871194 9.3750601,14.0871194 L14.062382,14.0871194 L14.062382,9.39901393 C14.062382,8.88149256 14.4821114,8.46183444 14.9997752,8.46183444 C15.5175815,8.46183444 15.9372396,8.88142131 15.9372396,9.39901393 L15.9372396,14.0871194 L20.6244191,14.0871194 C21.1422254,14.0871194 21.5618835,14.5069199 21.5618835,15.0245125 C21.5618835,15.5424613 21.1422253,15.9622618 20.6244191,15.9622618 Z" id="形状"></path>
            </g>
        </g>
    </g>
</svg>