<?xml version="1.0" encoding="UTF-8"?>
<svg width="14px" height="14px" viewBox="0 0 14 14" version="1.1" xmlns="http://www.w3.org/2000/svg" xmlns:xlink="http://www.w3.org/1999/xlink">
    <!-- Generator: Sketch 55.2 (78181) - https://sketchapp.com -->
    <title>批量添加备份</title>
    <desc>Created with Sketch.</desc>
    <g id="页面1" stroke="none" stroke-width="1" fill="none" fill-rule="evenodd">
        <g id="02-表单模板" transform="translate(-1562.000000, -511.000000)" fill="#326FFF">
            <g id="添加" transform="translate(1562.000000, 511.000000)">
                <g id="add" transform="translate(0.000000, 0.000000)">
                    <path d="M6.95527675,13.922954 C3.11411138,13.922954 0.000226030056,10.8084411 0.000226030056,6.96678034 C0.000226030056,3.12511957 3.11411138,0.0108378956 6.95527675,0.0108378956 C10.7964751,0.0108378956 13.9103605,3.12511957 13.9103605,6.96678034 C13.9103605,10.8084411 10.7964751,13.922954 6.95527675,13.922954 Z M6.95527675,0.880297686 C3.59421991,0.880297686 0.86961976,3.60529415 0.86961976,6.96678034 C0.86961976,10.3282665 3.59421989,13.053296 6.95527675,13.053296 C10.3163336,13.053296 13.0409337,10.3282666 13.0409337,6.96678034 C13.0409337,3.60529413 10.3163336,0.880297686 6.95527675,0.880297686 Z M10,7.50001085 L7.50002713,7.50001085 L7.50002713,10.0000841 C7.50002713,10.2760805 7.27615934,10.5 7.00001899,10.5 C6.72387865,10.5 6.50004883,10.2760805 6.50004883,10.0000841 L6.50004883,7.50001085 L4,7.50001085 C3.7238678,7.50001085 3.5,7.27612937 3.5,6.99990504 C3.5,6.72387065 3.72390578,6.49998915 4,6.49998915 L6.50004883,6.49998915 L6.50004883,3.99980194 C6.50004883,3.72380552 6.72391663,3.5 7.00001899,3.5 C7.27619732,3.5 7.50002713,3.72376752 7.50002713,3.99980194 L7.50002713,6.49998915 L10,6.49998915 C10.2761702,6.49998915 10.5,6.72387063 10.5,6.99990504 C10.5,7.27612937 10.2761702,7.50001085 10,7.50001085 Z" id="形状" fill-rule="nonzero"></path>
                </g>
            </g>
        </g>
    </g>
</svg>