<?xml version="1.0" encoding="UTF-8"?>
<svg width="12px" height="12px" viewBox="0 0 12 12" version="1.1" xmlns="http://www.w3.org/2000/svg" xmlns:xlink="http://www.w3.org/1999/xlink">
    <title>新增</title>
    <g id="-界面合集" stroke="none" stroke-width="1" fill="none" fill-rule="evenodd">
        <g id="01-仓库定义" transform="translate(-270.000000, -442.000000)" fill-rule="nonzero">
            <g id="编组-4备份" transform="translate(250.000000, 341.000000)">
                <g id="编组-3备份" transform="translate(6.000000, 93.000000)">
                    <g id="新增" transform="translate(14.000000, 8.000000)">
                        <rect id="矩形" fill="#000000" opacity="0" x="0" y="0" width="12" height="12"></rect>
                        <path d="M4,5.33333333 L8,5.33333333 C8.36818984,5.33333333 8.66666667,5.63181016 8.66666667,6 C8.66666667,6.36818984 8.36818984,6.66666667 8,6.66666667 L4,6.66666667 C3.63181016,6.66666667 3.33333333,6.36818984 3.33333333,6 C3.33333333,5.63181016 3.63181016,5.33333333 4,5.33333333 L4,5.33333333 Z M6,3.33333333 C6.36818984,3.33333333 6.66666667,3.63181016 6.66666667,4 L6.66666667,8 C6.66666667,8.36818984 6.36818984,8.66666667 6,8.66666667 C5.63181016,8.66666667 5.33333333,8.36818984 5.33333333,8 L5.33333333,4 C5.33333333,3.63181016 5.63181016,3.33333333 6,3.33333333 Z M6,12 C2.6862915,12 0,9.3137085 0,6 C0,2.6862915 2.6862915,0 6,0 C9.3137085,0 12,2.6862915 12,6 C12,9.3137085 9.3137085,12 6,12 L6,12 Z M6,1.33333333 C3.42267116,1.33333333 1.33333333,3.42267116 1.33333333,6 C1.33333333,8.57732884 3.42267116,10.6666667 6,10.6666667 C8.57732884,10.6666667 10.6666667,8.57732884 10.6666667,6 C10.6666667,4.76232305 10.1750014,3.57533812 9.29983165,2.70016835 C8.42466188,1.82499858 7.23767695,1.33333333 6,1.33333333 Z" id="形状" fill="#7F7F7F"></path>
                    </g>
                </g>
            </g>
        </g>
    </g>
</svg>