<?xml version="1.0" encoding="UTF-8"?>
<svg width="14px" height="12px" viewBox="0 0 14 12" version="1.1" xmlns="http://www.w3.org/2000/svg" xmlns:xlink="http://www.w3.org/1999/xlink">
    <!-- Generator: Sketch 55.2 (78181) - https://sketchapp.com -->
    <title>批量添加</title>
    <desc>Created with Sketch.</desc>
    <g id="页面1" stroke="none" stroke-width="1" fill="none" fill-rule="evenodd">
        <g id="02-表单模板" transform="translate(-1673.000000, -512.000000)" fill="#326FFF">
            <g id="批量添加" transform="translate(1673.000000, 511.000000)">
                <g id="piliangtianjia" transform="translate(0.000000, 1.500000)">
                    <path d="M10.2194437,7.44339305 L7.89850148,7.44339305 C7.64213989,7.44339305 7.43431775,7.65121518 7.43431775,7.90757678 C7.43431775,8.16393837 7.64213989,8.37176051 7.89850148,8.37176051 L10.2194437,8.37176051 L10.2194437,10.6927027 C10.2194437,10.9490708 10.4272711,11.1568982 10.6836392,11.1568982 C10.9400073,11.1568982 11.1478347,10.9490708 11.1478347,10.6927027 L11.1478347,8.37176051 L13.4688005,8.37176051 C13.7251686,8.37176051 13.932996,8.1639331 13.932996,7.90756499 C13.932996,7.65119689 13.7251686,7.44336948 13.4688005,7.44336948 L11.1478347,7.44336948 L11.1478347,5.12242726 C11.1478347,4.86605916 10.9400073,4.65823175 10.6836392,4.65823175 C10.4272711,4.65823175 10.2194437,4.86605916 10.2194437,5.12242726 L10.2194437,7.44336948 L10.2194437,7.44339305 Z M0.597696659,0.944679418 C0.271834591,0.944679418 0.00726023707,0.736725485 0.00726023707,0.48049569 C0.00726023707,0.224265894 0.271834591,0.016288389 0.597696659,0.016288389 L12.4141568,0.016288389 C12.7400189,0.016288389 13.0045932,0.224242322 13.0045932,0.48049569 C13.0045932,0.736749057 12.7400189,0.944679418 12.4141568,0.944679418 L0.597696659,0.944679418 Z M0.471443966,4.65821996 L6.97011045,4.65821996 C7.22647856,4.65821996 7.43430597,4.86604737 7.43430597,5.12241548 C7.43430597,5.37878358 7.22647856,5.58661099 6.97011045,5.58661099 L0.471443966,5.58661099 C0.215075862,5.58661099 0.00724845097,5.37878358 0.00724845097,5.12241548 C0.00724845097,4.86604737 0.215075862,4.65821996 0.471443966,4.65821996 Z M0.471443966,10.228519 L6.97011045,10.228519 C7.22647856,10.228519 7.43430597,10.4363464 7.43430597,10.6927145 C7.43430597,10.9490826 7.22647856,11.15691 6.97011045,11.15691 L0.471443966,11.15691 C0.215075862,11.15691 0.00724845097,10.9490826 0.00724845097,10.6927145 C0.00724845097,10.4363464 0.215075862,10.228519 0.471443966,10.228519 Z" id="形状" fill-rule="nonzero"></path>
                </g>
            </g>
        </g>
    </g>
</svg>