<?xml version="1.0" encoding="UTF-8"?>
<svg width="13px" height="14px" viewBox="0 0 13 14" version="1.1" xmlns="http://www.w3.org/2000/svg" xmlns:xlink="http://www.w3.org/1999/xlink">
    <!-- Generator: Sketch 55.2 (78181) - https://sketchapp.com -->
    <title>头像</title>
    <desc>Created with Sketch.</desc>
    <g id="页面1" stroke="none" stroke-width="1" fill="none" fill-rule="evenodd">
        <g id="02-表单模板" transform="translate(-190.000000, -582.000000)" fill="#919CAE" fill-rule="nonzero">
            <g id="头像" transform="translate(190.000000, 582.000000)">
                <path d="M6.18337034,6.24618097 C4.46157929,6.24618097 3.06116138,4.84576306 3.06116138,3.12438993 C3.06116138,1.40301679 4.46157929,0.0025988806 6.18337034,0.0025988806 C7.90474347,0.0025988806 9.30516138,1.40301679 9.30516138,3.12438993 C9.30516138,4.84576306 7.90474347,6.24618097 6.18337034,6.24618097 Z M6.18337034,0.921583955 C4.96850466,0.921583955 3.98014646,1.90994216 3.98014646,3.12438993 C3.98014646,4.33883769 4.96850466,5.3271959 6.18337034,5.3271959 C7.3978181,5.3271959 8.38617631,4.33883769 8.38617631,3.12438993 C8.38617631,1.90994216 7.3978181,0.921583955 6.18337034,0.921583955 Z M8.46098228,13.9545392 L3.90534049,13.9545392 C1.75268377,13.9545392 0.00122108209,12.3994944 0.00122108209,10.4883899 C0.00122108209,8.57770336 1.75268377,7.02265858 3.90534049,7.02265858 L8.46098228,7.02265858 C10.6132211,7.02265858 12.3651017,8.57770336 12.3651017,10.4883899 C12.3651017,12.3999123 10.613639,13.9545392 8.46098228,13.9545392 Z M3.90534049,7.94164366 C2.25919123,7.94164366 0.919788246,9.08421082 0.919788246,10.4888078 C0.919788246,11.8934049 2.25919123,13.0363899 3.90534049,13.0363899 L8.46098228,13.0363899 C10.1067136,13.0363899 11.4465345,11.8938228 11.4465345,10.4888078 C11.4465345,9.08462873 10.1071315,7.94164366 8.46098228,7.94164366 L3.90534049,7.94164366 Z" id="形状"></path>
            </g>
        </g>
    </g>
</svg>