<?xml version="1.0" encoding="UTF-8"?>
<svg width="34px" height="34px" viewBox="0 0 34 34" version="1.1" xmlns="http://www.w3.org/2000/svg" xmlns:xlink="http://www.w3.org/1999/xlink">
    <title>用户名</title>
    <g id="页面-1" stroke="none" stroke-width="1" fill="none" fill-rule="evenodd">
        <g id="01-首页" transform="translate(-1386.000000, -15.000000)">
            <g id="编组" transform="translate(1386.000000, 15.000000)">
                <circle id="椭圆形" stroke-opacity="0.3" stroke="#FFFFFF" fill-opacity="0.200000003" fill="#BEC8E6" cx="17" cy="17" r="16.5"></circle>
                <path d="M16.9785203,10.125 C18.6959093,10.125 20.0930788,11.5769196 20.0930788,13.3616071 C20.0930788,15.1462946 18.6959093,16.5982143 16.9785203,16.5982143 C15.2611313,16.5982143 13.8639618,15.1462946 13.8639618,13.3616071 C13.8639618,11.5769196 15.2611313,10.125 16.9785203,10.125 M20.647642,18.4507589 C22.1358425,17.2891964 23.1002387,15.4403125 23.1002387,13.3616071 C23.1002387,9.85379464 20.3540573,7 16.9785203,7 C13.6029833,7 10.8568019,9.85379464 10.8568019,13.3616071 C10.8568019,15.4476786 11.8280286,17.3022768 13.3252076,18.4630804 C10.1893842,19.9266071 8,23.2025 8,27 L11.0071599,27 C11.0071599,23.5660268 13.6955609,20.7723214 17,20.7723214 C20.3044391,20.7723214 22.9928401,23.5660268 22.9928401,27 L26,27 C26,23.1915625 23.7979427,19.9079911 20.647642,18.4507589" id="Fill-1" fill-opacity="0.3" fill="#FFFFFF"></path>
            </g>
        </g>
    </g>
</svg>