<?xml version="1.0" encoding="UTF-8"?>
<svg width="16px" height="16px" viewBox="0 0 16 16" version="1.1" xmlns="http://www.w3.org/2000/svg" xmlns:xlink="http://www.w3.org/1999/xlink">
    <title>放大</title>
    <g id="-界面合集" stroke="none" stroke-width="1" fill="none" fill-rule="evenodd">
        <g id="02-标签明细" transform="translate(-360.000000, -472.000000)" fill-rule="nonzero">
            <g id="放大" transform="translate(360.000000, 472.000000)">
                <rect id="矩形" fill="#000000" opacity="0" x="0" y="0" width="16" height="16"></rect>
                <path d="M9.82344118,6.99335762 L8.10242125,6.99335762 L8.10242125,5.03749732 C8.10195446,4.97331564 8.05003983,4.92140101 7.98585815,4.92093421 L7.10820656,4.92093421 C7.04402488,4.92140101 6.99211025,4.97331564 6.99164346,5.03749732 L6.99164346,6.99335762 L5.26890936,6.99335762 C5.20472768,6.99382441 5.15281305,7.04573904 5.15234626,7.10992072 L5.15234626,7.98585815 C5.15234626,8.05013927 5.20548532,8.10242125 5.26976645,8.10242125 L6.99164346,8.10242125 L6.99164346,10.0582816 C6.99164346,10.1225627 7.04392544,10.1748447 7.10820656,10.1748447 L7.98414399,10.1748447 C8.04832567,10.1743779 8.1002403,10.1224632 8.10070709,10.0582816 L8.10070709,8.10242125 L9.82344118,8.10242125 C9.88762286,8.10195446 9.93953748,8.05003983 9.94000428,7.98585815 L9.94000428,7.10906363 C9.93953336,7.04454922 9.88710024,6.99249882 9.82258411,6.99250053 L9.82344118,6.99335762 Z M13.968288,13.181487 L11.837583,11.0507821 C13.6383482,8.84456945 13.474199,5.63273019 11.4578959,3.62159846 C9.29805014,1.46089565 5.790015,1.46089565 3.62074138,3.62159846 C1.46003857,5.79001501 1.46003857,9.29890722 3.62074138,11.4587529 C5.63187311,13.4750561 8.84371237,13.6392052 11.049925,11.8384401 L13.18063,13.9691451 C13.2269124,14.010285 13.3014785,14.010285 13.3409042,13.9691451 L13.968288,13.3417613 C14.0094279,13.3023356 14.0094279,13.2277694 13.968288,13.181487 Z M10.6848082,10.6856653 C8.951556,12.4178711 6.1425087,12.4178711 4.40925648,10.6856653 C2.67705072,8.95241309 2.67705072,6.14336578 4.40925648,4.41011356 C6.1425087,2.67790781 8.951556,2.67790781 10.6848082,4.41011356 C12.417014,6.14336578 12.417014,8.95241309 10.6848082,10.6856653 L10.6848082,10.6856653 Z" id="形状" fill="#FFFFFF"></path>
            </g>
        </g>
    </g>
</svg>