<?xml version="1.0" encoding="UTF-8"?>
<svg width="16px" height="16px" viewBox="0 0 16 16" version="1.1" xmlns="http://www.w3.org/2000/svg" xmlns:xlink="http://www.w3.org/1999/xlink">
    <title>添加</title>
    <g id="-界面合集" stroke="none" stroke-width="1" fill="none" fill-rule="evenodd">
        <g id="01-安灯配置备份-2" transform="translate(-380.000000, -224.000000)" fill-rule="nonzero">
            <g id="添加" transform="translate(380.000000, 224.000000)">
                <rect id="矩形" fill="#000000" opacity="0" x="0" y="0" width="16" height="16"></rect>
                <path d="M8.03816,0.23672 C3.73632,0.23672 0.23648,3.73632 0.23648,8.03824 C0.23648,12.34048 3.73632,15.84 8.03816,15.84 C12.34024,15.84 15.84072,12.34048 15.84072,8.03824 C15.84072,3.73632 12.34024,0.23672 8.03816,0.23672 Z M12.31552,8.9916 L8.9912,8.9916 L8.9912,12.31672 L7.08496,12.31672 L7.08496,8.99168 L3.76016,8.99168 L3.76016,7.08512 L7.08488,7.08512 L7.08488,3.7608 L8.99112,3.7608 L8.99112,7.08512 L12.31552,7.08512 L12.31552,8.9916 L12.31552,8.9916 Z" id="形状" fill="#326FFF"></path>
            </g>
        </g>
    </g>
</svg>