<?xml version="1.0" encoding="UTF-8"?>
<svg width="16px" height="16px" viewBox="0 0 16 16" version="1.1" xmlns="http://www.w3.org/2000/svg" xmlns:xlink="http://www.w3.org/1999/xlink">
    <title>安卓</title>
    <g id="-界面合集" stroke="none" stroke-width="1" fill="none" fill-rule="evenodd">
        <g id="画板备份" transform="translate(-376.000000, -496.000000)" fill-rule="nonzero">
            <g id="编组-10" transform="translate(279.000000, 486.000000)">
                <g id="安卓" transform="translate(97.000000, 10.000000)">
                    <rect id="矩形" fill="#000000" opacity="0" x="0" y="0" width="16" height="16"></rect>
                    <path d="M11.6605511,5.30382222 C11.6825778,5.12106667 11.6610844,5.09957333 11.4804089,5.09957333 C10.3326222,5.09939556 9.18465778,5.09939556 8.03676444,5.09939556 C6.89317333,5.09957333 5.74947556,5.09939556 4.60595556,5.09966222 C4.39688889,5.09966222 4.3968,5.10021333 4.3968,5.30638222 L4.39751111,11.1972444 C4.39751111,11.24048 4.39671111,11.2837156 4.39925333,11.3266667 C4.42046222,11.6850311 4.68042667,11.9335289 5.03941333,11.9376178 C5.22501333,11.9395378 5.41050667,11.9402667 5.59610667,11.9376178 C5.69331556,11.9362489 5.74092444,11.9775822 5.74055111,12.0754311 C5.73836444,12.6450311 5.73699556,13.2145778 5.73445333,13.784 C5.73264,14.1800533 5.89036444,14.4126933 6.23152,14.4821333 C6.45580444,14.5276444 6.68663111,14.5204622 6.91319111,14.4795911 C7.15740444,14.43536 7.38359111,14.1040356 7.37976889,13.8919644 C7.36903111,13.2923911 7.37932444,12.6923733 7.37532444,12.0924444 C7.37448889,11.9725689 7.41745778,11.9343467 7.53415111,11.9362489 C7.86638222,11.9415289 8.19861333,11.9379022 8.53093333,11.9381689 C8.73509333,11.9382578 8.74428444,11.9464533 8.74446222,12.1485156 C8.74510222,12.7223289 8.7432,13.2963022 8.74583111,13.8703822 C8.74737778,14.2038044 8.95783111,14.4553956 9.28360889,14.4933511 C9.45754667,14.5137244 9.63521778,14.5266489 9.81207111,14.5036267 C9.88133333,14.4946133 9.94606222,14.4776711 10.0094044,14.4466489 C10.2794667,14.3147556 10.3787733,14.0843733 10.3800533,13.80112 C10.3825956,13.2358756 10.3801422,12.6706311 10.38096,12.1051911 C10.3811378,11.94608 10.3893333,11.9391644 10.55136,11.9383467 C10.7282133,11.9376356 10.9053333,11.9421689 11.0820978,11.9368 C11.3637333,11.9282489 11.6725689,11.6430756 11.6608178,11.3727289 C11.6511822,11.1475556 11.6712,10.9250844 11.6713778,10.7013511 C11.6730133,9.00970667 11.6715556,7.31806222 11.673832,5.62624 C11.6740089,5.51827556 11.6473422,5.41296 11.6605511,5.30382222 L11.6605511,5.30382222 Z M4.56272,4.68524444 C5.71479111,4.6856 6.86686222,4.68542222 8.01893333,4.6856 C9.17527111,4.68570667 10.3316267,4.68606222 11.4880711,4.68542222 C11.66064,4.68533333 11.6740267,4.66485333 11.6174933,4.50792889 C11.3055644,3.64030222 10.7610667,2.96145778 9.97299556,2.47985778 C9.84894222,2.40394667 9.83847111,2.35096889 9.9192,2.22782222 C10.0088533,2.09075556 10.09888,1.95376 10.1866311,1.81559111 C10.2700329,1.68482673 10.3515348,1.55286027 10.4311111,1.41973333 C10.4679822,1.35729778 10.4667911,1.29539556 10.3993422,1.2496 C10.3304356,1.20264889 10.2764622,1.23168 10.2305956,1.28638222 C10.2085511,1.31278222 10.1916267,1.34336 10.1718756,1.37166222 C9.99075556,1.63408 9.84456889,1.91872 9.65632,2.17694222 C9.60254222,2.25075556 9.55557333,2.26577778 9.47310222,2.22919111 C9.35505778,2.17685333 9.23443556,2.12625778 9.11011556,2.09312 C8.25276444,1.86419556 7.40561778,1.87601778 6.57642667,2.22008889 C6.49941333,2.25203556 6.44734222,2.23928889 6.40309333,2.1664 C6.32046222,2.02993778 6.2328,1.89649778 6.14688,1.76206222 C6.04702222,1.60586667 5.94762667,1.44940444 5.84668444,1.29393778 C5.80526222,1.23022222 5.74755556,1.21184 5.67928889,1.24951111 C5.60684444,1.28938667 5.60529778,1.34835556 5.6416,1.41463111 C5.66435556,1.45623111 5.68439111,1.49955556 5.70997333,1.53925333 C5.85205333,1.76042667 5.99541333,1.98069333 6.13832889,2.20124444 C6.22579556,2.33623111 6.21704889,2.39157333 6.08990222,2.46448 C5.7736,2.64570667 5.48714667,2.86323556 5.23856,3.13203556 C4.86992,3.53034667 4.59358222,3.98264889 4.42019556,4.49672889 C4.36065778,4.6736 4.37130667,4.68524444 4.56272,4.68524444 L4.56272,4.68524444 Z M9.52325333,3.13967452 C9.7064,3.13850667 9.90064,3.32592 9.90636444,3.50942222 C9.91237333,3.69701333 9.72005333,3.89880889 9.53107556,3.90337778 C9.33683556,3.90791111 9.1488,3.72469333 9.14296889,3.52535111 C9.13768889,3.34167111 9.33575111,3.14096 9.52325333,3.13967452 L9.52325333,3.13967452 Z M6.46227556,3.19457778 C6.64403556,3.18600889 6.80760889,3.37662222 6.80652981,3.57504 C6.80542222,3.77464889 6.64286222,3.95096889 6.45671111,3.95424 C6.26202667,3.95779556 6.08035556,3.77493333 6.07969778,3.57477333 C6.06504889,3.33292444 6.25427556,3.20421333 6.46227556,3.19457778 Z M13.7467733,7.14766222 C13.7466844,6.78558222 13.7530667,6.42330667 13.7435022,6.06140444 C13.7369422,5.80855111 13.6297244,5.61495111 13.3886933,5.49233778 C13.1984711,5.39557333 13.0042133,5.41114667 12.8077867,5.41088 C12.3811733,5.41041778 12.1143822,5.67866667 12.1138489,6.10545778 C12.1130133,6.70039111 12.1136711,7.29539556 12.1136711,7.89041778 C12.1134756,8.49834667 12.1138489,9.10609778 12.1132087,9.71404444 C12.1130311,9.96716444 12.2126933,10.1576889 12.4360533,10.2912178 C12.6458667,10.4165511 12.86896,10.3860622 13.0905067,10.3755911 C13.15824,10.3723911 13.2334222,10.3958044 13.2928533,10.3665778 C13.5796622,10.2252267 13.7520533,10.0120533 13.7491378,9.66990222 C13.7417778,8.82938667 13.7468622,7.98862222 13.7467733,7.14766222 L13.7467733,7.14766222 Z M3.24945778,5.41024 C3.15025778,5.41077333 3.05102222,5.4096 2.95173333,5.41041778 C2.51699556,5.41397333 2.20871111,5.75749333 2.25559111,6.19166222 C2.26714667,6.29925333 2.27141333,6.40647111 2.27141333,6.51424 L2.27141333,8.05450667 C2.27141333,8.61968 2.26968889,9.18483556 2.27224889,9.74999111 C2.27333333,9.99585778 2.39256889,10.1686044 2.60492444,10.29376 C2.82366222,10.4226489 3.05804444,10.3959822 3.28613333,10.37568 C3.67180444,10.3415467 3.90663111,10.0662044 3.90391111,9.67982222 C3.90227556,9.44716444 3.88416,9.21459556 3.88552889,8.98204444 C3.89153778,8.01173333 3.86268444,7.04099556 3.90472889,6.07096889 C3.92304,5.65544889 3.53080889,5.40904889 3.24945778,5.41024 L3.24945778,5.41024 Z" id="形状" fill="#FFFFFF"></path>
                </g>
            </g>
        </g>
    </g>
</svg>