<?xml version="1.0" encoding="UTF-8"?>
<svg width="12px" height="12px" viewBox="0 0 12 12" version="1.1" xmlns="http://www.w3.org/2000/svg" xmlns:xlink="http://www.w3.org/1999/xlink">
    <title></title>
    <g id="-界面合集" stroke="none" stroke-width="1" fill="none" fill-rule="evenodd">
        <g id="01-工单派发（自制工单）" transform="translate(-670.000000, -159.000000)">
            <g id="编组-11" transform="translate(670.000000, 159.000000)">
                <circle id="椭圆形" fill="#FFFFFF" cx="6" cy="6" r="6"></circle>
                <path d="M6,0 C9.3137085,0 12,2.6862915 12,6 C12,9.3137085 9.3137085,12 6,12 C2.6862915,12 0,9.3137085 0,6 C0,2.6862915 2.6862915,0 6,0 Z M7.67078056,3.42857143 L6,5.099 L4.32921944,3.42857143 L3.42857143,4.32921944 L5.099,6 L3.42857143,7.67078056 L4.32921944,8.57142857 L6,6.901 L7.67078056,8.57142857 L8.57142857,7.67078056 L6.901,6 L8.57142857,4.32921944 L7.67078056,3.42857143 Z" id="失败" fill="#979797"></path>
            </g>
        </g>
    </g>
</svg>