<?xml version="1.0" encoding="UTF-8"?>
<svg width="12px" height="12px" viewBox="0 0 12 12" version="1.1" xmlns="http://www.w3.org/2000/svg" xmlns:xlink="http://www.w3.org/1999/xlink">
    <title>自动对应</title>
    <g id="-界面合集" stroke="none" stroke-width="1" fill="none" fill-rule="evenodd">
        <g id="主生产计划" transform="translate(-124.000000, -174.000000)" fill-rule="nonzero">
            <g id="编组-5" transform="translate(124.000000, 174.000000)">
                <g id="自动对应" transform="translate(0.000000, 0.000000)">
                    <rect id="矩形" fill="#000000" opacity="0" x="1.95714529e-06" y="6.33939635e-07" width="11.999998" height="11.999998"></rect>
                    <path d="M2.18179797,3.00290171 L4.60351657,2.90543315 C4.7415037,2.90071128 4.86572634,2.82052375 4.92684453,2.69672024 C4.98796272,2.57291672 4.97608237,2.42553911 4.89592222,2.31312428 L3.39640606,0.168816161 C3.32150082,0.0522197589 3.187358,-0.012304047 3.04950966,0.0019561257 C2.91166133,0.0162162984 2.79356758,0.106833543 2.74411653,0.236294388 L1.82191409,2.48556863 C1.77342296,2.603379 1.78808265,2.73775296 1.86083607,2.84233601 C1.9335895,2.94691906 2.05447757,3.00739501 2.18179797,3.00290171 L2.18179797,3.00290171 Z M11.4263151,6.33932799 L11.3888272,6.33932799 C11.2402187,6.3316352 11.1009281,6.26457099 11.002241,6.15319554 C10.9035539,6.04182009 10.8537432,5.89546999 10.8639965,5.74701628 L10.8639965,5.48460096 C10.8608477,3.96628962 10.0606133,2.56116707 8.75637059,1.78384457 C7.4521279,1.00652208 5.83549647,0.971203947 4.49855044,1.69082507 C4.32140619,1.81516492 4.08862361,1.82680517 3.89995887,1.72075754 C3.71129413,1.61470991 3.6002348,1.40979762 3.61437401,1.19383335 C3.62851322,0.977869074 3.76534129,0.789186005 3.96622221,0.708641979 C5.65043374,-0.206015323 7.69185474,-0.166148353 9.33907098,0.813568497 C10.9862872,1.79328535 11.9958408,3.56805032 11.9961312,5.48460096 L11.9961312,5.81449451 C11.9726111,6.11150452 11.7242535,6.34025498 11.4263151,6.33932799 L11.4263151,6.33932799 Z M9.81433524,9.00096635 L7.39261663,9.0984349 C7.2546295,9.10315677 7.13040685,9.1833443 7.06928866,9.30714782 C7.00817047,9.43095134 7.02005083,9.57832896 7.10021098,9.69074379 L8.59972715,11.8275543 C8.67463239,11.9441507 8.80877521,12.0086745 8.94662355,11.9944144 C9.08447189,11.9801542 9.20256563,11.8895369 9.25201668,11.7600761 L10.1742191,9.51080185 C10.2194141,9.39381554 10.203116,9.26197862 10.1307925,9.15952035 C10.058469,9.05706207 9.93970173,8.99755632 9.81433524,9.00096635 L9.81433524,9.00096635 Z M0.569818102,5.66454007 L0.607306003,5.66454007 C0.755914548,5.67223287 0.895205086,5.73929707 0.993892193,5.85067252 C1.0925793,5.96204797 1.14239005,6.10839807 1.13213666,6.25685177 L1.13213666,6.51926711 C1.13528549,8.03757845 1.93551994,9.442701 3.23976262,10.2200235 C4.54400531,10.997346 6.16063674,11.0326641 7.49758277,10.313043 C7.67431107,10.195825 7.90195438,10.1880028 8.08631191,10.2928134 C8.27066944,10.3976239 8.38038127,10.5972385 8.37004768,10.8090548 C8.35971408,11.0208712 8.23109286,11.2088585 8.03740859,11.2952261 C6.35266005,12.2136041 4.3085287,12.175709 2.65897674,11.1955182 C1.00942477,10.2153273 -0.00114743075,8.43806739 9.77740791e-07,6.51926711 L9.77740791e-07,6.18937355 C0.0235220774,5.89236354 0.271879728,5.66361308 0.569818102,5.66454007 Z M5.48823111,3.94759689 C5.58162628,3.64900052 5.85061502,3.43978706 6.16301338,3.42276623 C6.48379924,3.43047693 6.7641175,3.64146917 6.8602884,3.94759689 L8.10488681,7.40398164 C8.13228989,7.48403814 8.14991214,7.56711447 8.15736987,7.6514018 C8.15736987,7.90631956 7.98492552,8.02628084 7.70751502,8.02628085 C7.50079506,8.04286987 7.30809093,7.92051803 7.23516743,7.72637762 L7.06272308,7.13406873 L5.29329401,7.13406873 L5.09085933,7.72637762 C5.01793583,7.92051803 4.8252317,8.04286987 4.61851174,8.02628085 C4.5038644,8.04418933 4.38719798,8.01009898 4.3002309,7.93327806 C4.21326382,7.85645714 4.16503513,7.74489013 4.16865689,7.62890906 C4.15966937,7.57177892 4.15966937,7.51359485 4.16865689,7.45646471 L4.16865689,7.40398164 L5.48823111,3.94759689 Z M6.16301338,4.41994448 L5.56320692,6.26434936 L6.74782468,6.26434936 L6.16301338,4.41994448 Z" id="形状" fill="#949496"></path>
                </g>
            </g>
        </g>
    </g>
</svg>