<?xml version="1.0" encoding="UTF-8"?>
<svg width="13px" height="12px" viewBox="0 0 13 12" version="1.1" xmlns="http://www.w3.org/2000/svg" xmlns:xlink="http://www.w3.org/1999/xlink">
    <title></title>
    <g id="-界面合集" stroke="none" stroke-width="1" fill="none" fill-rule="evenodd">
        <g id="02-生产工单备份" transform="translate(-137.000000, -214.000000)">
            <g id="编组-6" transform="translate(138.013732, 215.000000)">
                <polyline id="路径-8" stroke="#979797" points="8.98626841 2.5 8.98626841 -3.63797881e-12 0 -3.63797881e-12 0 9.694812 8.98626841 9.694812"></polyline>
                <g id="撤回" transform="translate(7.486268, 4.500000) rotate(-180.000000) translate(-7.486268, -4.500000) translate(3.986268, 1.000000)" fill-rule="nonzero">
                    <rect id="矩形" fill="#000000" opacity="0" x="0" y="0" width="7" height="7"></rect>
                    <path d="M3.96903554,0.958064403 C3.94033566,0.957210231 3.91221207,0.958918575 3.88362745,0.959040595 L3.88362745,0.244466513 C3.88362745,0.048617572 3.67661945,-0.0674275017 3.5235534,0.0425163613 L1.10100654,1.78429068 C1.03782647,1.82971796 1,1.90532449 1,1.98617983 C1,2.06703516 1.03782647,2.1426417 1.10100654,2.18806897 L3.52378392,3.92972127 C3.67684997,4.03978715 3.88385798,3.92374207 3.88385798,3.72777111 L3.88385798,3.00514343 C5.05110187,2.99013445 6.02182647,3.85272396 6.06873752,4.96814774 C6.10469883,5.82378188 5.586372,6.58228469 4.81792971,6.93261634 C4.80398318,6.93896161 4.78934509,6.95140808 4.79061295,6.97678913 C4.7916503,6.99753325 4.81159038,7.00363447 4.82934051,6.99802135 C6.05928615,6.61510922 6.96477327,5.48992349 6.99900567,4.13582025 C7.04199786,2.42943296 5.6854961,1.00675208 3.96903554,0.958064403 Z" id="路径" fill="#979797"></path>
                </g>
            </g>
        </g>
    </g>
</svg>