<?xml version="1.0" encoding="UTF-8"?>
<svg width="12px" height="12px" viewBox="0 0 12 12" version="1.1" xmlns="http://www.w3.org/2000/svg" xmlns:xlink="http://www.w3.org/1999/xlink">
    <title>更新日志</title>
    <g id="-界面合集" stroke="none" stroke-width="1" fill="none" fill-rule="evenodd">
        <g id="节拍单价" transform="translate(-266.000000, -174.000000)" fill="#949496" fill-rule="nonzero">
            <g id="更新日志" transform="translate(266.000000, 174.000000)">
                <rect id="矩形" opacity="0" x="0" y="1.68802217e-09" width="12" height="12"></rect>
                <path d="M9.5,7 C10.8807119,7 12,8.11928813 12,9.5 C12,10.8807119 10.8807119,12 9.5,12 C8.11928813,12 7,10.8807119 7,9.5 C6.99214268,9.33253665 7.07701043,9.17431943 7.22086979,9.08823693 C7.36472915,9.00215442 7.54427085,9.00215442 7.6881302,9.08823693 C7.83198956,9.17431943 7.91685731,9.33253665 7.909,9.5 C7.909,10.378685 8.62131496,11.091 9.5,11.091 C10.378685,11.091 11.091,10.378685 11.091,9.5 C11.091,8.62131497 10.378685,7.909 9.5,7.909 C9.25726856,7.89761114 9.06632495,7.69749847 9.06632495,7.4545 C9.06632495,7.21150152 9.25726856,7.01138886 9.5,7 L9.5,7 Z M7.6075,7.03550001 L9.3715,5.977 C9.44882206,5.93066722 9.54509942,5.92954733 9.6234783,5.97406902 C9.70185717,6.0185907 9.75019933,6.10185906 9.75000061,6.192 L9.75000061,8.3085 C9.75000061,8.39855155 9.70160576,8.48165475 9.6232604,8.5260539 C9.54491504,8.57045306 9.44874533,8.5692865 9.3715,8.523 L7.6075,7.46450001 C7.53207869,7.41934834 7.48591241,7.33790363 7.48591241,7.25000001 C7.48591241,7.16209638 7.53207869,7.08065167 7.6075,7.03550001 L7.6075,7.03550001 Z M8,0 C8.10989921,0 8.21674003,0.0361903213 8.304,0.102999998 L8.354,0.146499998 L10.7805,2.57300001 C10.9031073,2.69562124 10.9794372,2.85693876 10.9965,3.0295 L11,3.1035 L11,5.5 C10.9997066,5.76454668 10.7933948,5.98308236 10.5293026,5.99858602 C10.2652104,6.01408967 10.0347454,5.82119518 10.0035,5.5585 L10,5.5 L10,3.207 L7.7925,1 L2,1 L2,11 L6,11 C6.25348741,11.0000334 6.46684197,11.1897536 6.4965,11.4415 L6.5,11.5 C6.49996656,11.7534874 6.31024644,11.966842 6.0585,11.9965 L6,12 L1.75,12 C1.36368904,12 1.04058585,11.7065267 1.0035,11.322 L0.999999996,11.25 L0.999999996,0.750000002 C0.999999996,0.363689048 1.29347328,0.0405858568 1.678,0.0035000056 L1.75,0 L8,0 Z M3.5,6 L6,6 L6,7 L3.5,7 L3.5,6 Z M3.5,4 L8.5,4 L8.5,5 L3.5,5 L3.5,4 Z M3.5,8.00000001 L5.5,8.00000001 L5.5,9.00000001 L3.5,9.00000001 L3.5,8.00000001 Z" id="形状"></path>
            </g>
        </g>
    </g>
</svg>