<?xml version="1.0" encoding="UTF-8"?>
<svg width="12px" height="12px" viewBox="0 0 12 12" version="1.1" xmlns="http://www.w3.org/2000/svg" xmlns:xlink="http://www.w3.org/1999/xlink">
    <title>工作报表</title>
    <g id="-界面合集" stroke="none" stroke-width="1" fill="none" fill-rule="evenodd">
        <g id="01-盘点记录-待处理" transform="translate(-120.000000, -215.000000)" fill-rule="nonzero">
            <g id="工作报表" transform="translate(120.000000, 215.000000)">
                <rect id="矩形" fill="#000000" opacity="0" x="0" y="0" width="12" height="12"></rect>
                <path d="M9.6,11.4 L2.4,11.4 C1.7372583,11.4 1.2,10.8627417 1.2,10.2 L1.2,3.6 L4.2,0.6 L9.6,0.6 C10.2627417,0.6 10.8,1.1372583 10.8,1.8 L10.8,10.2 C10.8,10.8627417 10.2627417,11.4 9.6,11.4 L9.6,11.4 Z M9.6,1.8 L4.2,1.8 L4.2,2.7 C4.2,2.93869484 4.10517884,3.16761336 3.9363961,3.3363961 C3.76761336,3.50517884 3.53869484,3.6 3.3,3.6 L2.4,3.6 L2.4,10.2 L9.6,10.2 L9.6,1.8 Z M8.4,6 L3.6,6 L3.6,4.8 L8.4,4.8 L8.4,6 Z M8.4,8.4 L3.6,8.4 L3.6,7.2 L8.4,7.2 L8.4,8.4 Z" id="形状" fill="#949496"></path>
            </g>
        </g>
    </g>
</svg>