<?xml version="1.0" encoding="UTF-8"?>
<svg width="12px" height="12px" viewBox="0 0 12 12" version="1.1" xmlns="http://www.w3.org/2000/svg" xmlns:xlink="http://www.w3.org/1999/xlink">
    <g id="页面-1" stroke="none" stroke-width="1" fill="none" fill-rule="evenodd">
        <g id="打印模板添加" transform="translate(-161.000000, -620.000000)" fill-rule="nonzero">
            <g id="编组-2备份-24" transform="translate(151.000000, 611.000000)">
                <g id="日期" transform="translate(10.000000, 9.000000)">
                    <rect id="矩形" fill="#000000" opacity="0" x="0" y="0" width="12" height="12"></rect>
                    <path d="M8.94923077,0.983076926 L8.94923077,0 L8.02615385,0 L8.02615385,0.983076926 L4.00153846,0.983076926 L4.00153846,0 L3.07846154,0 L3.07846154,0.983076926 L0,0.983076926 L0,12 L12,12 L12,0.983076926 L8.94923077,0.983076926 Z M3.07846154,1.90615385 L3.07846154,2.76923077 L4.00153846,2.76923077 L4.00153846,1.90615385 L8.02615385,1.90615385 L8.02615385,2.76923077 L8.94923077,2.76923077 L8.94923077,1.90615385 L11.0769231,1.90615385 L11.0769231,9.11076923 L0.923076926,9.11076923 L0.923076926,1.90615385 L3.07846154,1.90615385 Z M0.923076926,11.0769231 L0.923076926,10.0338461 L11.0769231,10.0338461 L11.0769231,11.0769231 L0.923076926,11.0769231 Z" id="形状" fill="#999999"></path>
                    <path d="M2.67230769,4.26923077 L4.44461538,4.26923077 L4.44461538,5.19230769 L2.67230769,5.19230769 L2.67230769,4.26923077 Z M5.11384615,4.26923077 L6.88615385,4.26923077 L6.88615385,5.19230769 L5.11384615,5.19230769 L5.11384615,4.26923077 Z M7.60153846,4.26923077 L9.37384615,4.26923077 L9.37384615,5.19230769 L7.60153846,5.19230769 L7.60153846,4.26923077 Z M2.67230769,6.91384615 L4.44461538,6.91384615 L4.44461538,7.83692307 L2.67230769,7.83692307 L2.67230769,6.91384615 Z M5.11384615,6.91384615 L6.88615385,6.91384615 L6.88615385,7.83692307 L5.11384615,7.83692307 L5.11384615,6.91384615 Z M7.60153846,6.91384615 L9.37384615,6.91384615 L9.37384615,7.83692307 L7.60153846,7.83692307 L7.60153846,6.91384615 Z" id="形状" fill="#999999"></path>
                </g>
            </g>
        </g>
    </g>
</svg>