<?xml version="1.0" encoding="UTF-8"?>
<svg width="18px" height="18px" viewBox="0 0 18 18" version="1.1" xmlns="http://www.w3.org/2000/svg" xmlns:xlink="http://www.w3.org/1999/xlink">
    <title></title>
    <g id="-界面合集" stroke="none" stroke-width="1" fill="none" fill-rule="evenodd">
        <g id="01-保养计划备份-2" transform="translate(-1348.000000, -211.000000)">
            <g id="编组-2" transform="translate(1348.000000, 211.000000)">
                <circle id="椭圆形" stroke-opacity="0.0975196678" stroke="#000000" fill="#FFFFFF" cx="9" cy="9" r="8.5"></circle>
                <path d="M9.1525452,14.2855633 C9.1525452,14.2855633 9.09810848,14.2855633 9.1525452,14.2855633 L8.06381085,13.6867594 L8.06381085,13.6323227 C8.17268428,13.4145758 9.09810848,11.454854 8.98923505,11.5092907 C8.88036161,11.6181641 8.227121,12.3258414 7.73719054,13.0335188 L7.46500695,13.4145758 C7.46500695,13.4145758 6.3762726,12.6524618 5.99521558,12.216968 C6.21296245,11.8903477 7.41057024,10.3661196 7.41057024,10.3661196 L5.39641168,11.5637274 C5.28753825,11.454854 4.63429764,10.7471766 4.41655076,10.3661196 C4.57986092,10.2028095 5.66859527,9.27738526 5.66859527,9.27738526 L4.14436718,9.82175243 L3.6,8.7874548 L3.6,8.73301808 C3.87218359,8.67858136 6.10408901,8.24308762 7.13838665,7.48097357 L7.24726008,7.48097357 L10.350153,10.5838665 C10.350153,10.5838665 10.4045897,10.6383032 10.350153,10.6927399 C10.2412796,10.9649235 9.37029207,12.3802782 9.1525452,14.2855633 Z M13.1808623,5.79343533 L11.2211405,7.75315716 L11.2211405,7.80759388 C11.6566342,8.56970793 11.6566342,9.44069541 11.0033936,10.093936 L10.9489569,10.093936 L7.84606398,6.99104312 L7.84606398,6.9366064 C8.49930459,6.28336579 9.37029207,6.28336579 10.1324061,6.71885953 L10.1868428,6.71885953 L12.1465647,4.75913769 C12.4187483,4.4869541 12.9086787,4.4869541 13.1808623,4.75913769 C13.4530459,5.03132128 13.4530459,5.52125174 13.1808623,5.79343533 L13.1808623,5.79343533 Z" id="形状" fill-opacity="0.248798077" fill="#000000" fill-rule="nonzero"></path>
            </g>
        </g>
    </g>
</svg>