<?xml version="1.0" encoding="UTF-8"?>
<svg width="12px" height="12px" viewBox="0 0 12 12" version="1.1" xmlns="http://www.w3.org/2000/svg" xmlns:xlink="http://www.w3.org/1999/xlink">
    <title></title>
    <g id="-界面合集" stroke="none" stroke-width="1" fill="none" fill-rule="evenodd" fill-opacity="0.5" opacity="0.3">
        <g id="维保任务" transform="translate(-1356.000000, -590.000000)" fill="#000000" fill-rule="nonzero">
            <g id="查看备份-11" transform="translate(1356.000000, 590.000000)">
                <path d="M8.98121212,1.01570102 C10.8432727,2.06291102 12,4.01832083 12,6.11880024 C12,9.36177695 9.30836364,12 6,12 C2.69163636,12 0,9.36177695 0,6.11880024 C0,4.01832083 1.15672727,2.06291102 3.01890909,1.01570102 L3.01890909,1.01570102 L3.56169697,1.94326721 C2.03769697,2.80037782 1.09090909,4.40030178 1.09090909,6.11880024 C1.09090909,8.77211242 3.29309091,10.930691 6,10.930691 C8.70690909,10.930691 10.9090909,8.77211242 10.9090909,6.11880024 C10.9090909,4.40030178 9.96242424,2.80037782 8.43830303,1.94326721 L8.43830303,1.94326721 Z M6.54549091,0 L6.54549091,7.72278757 L5.45458182,7.72278757 L5.45458182,0 L6.54549091,0 Z" id="形状结合"></path>
            </g>
        </g>
    </g>
</svg>