<?xml version="1.0" encoding="UTF-8"?>
<svg width="12px" height="12px" viewBox="0 0 12 12" version="1.1" xmlns="http://www.w3.org/2000/svg" xmlns:xlink="http://www.w3.org/1999/xlink">
    <title>电源</title>
    <g id="-界面合集" stroke="none" stroke-width="1" fill="none" fill-rule="evenodd">
        <g id="02-生产工单备份" transform="translate(-333.000000, -214.000000)" fill-rule="nonzero">
            <g id="电源" transform="translate(333.000000, 214.000000)">
                <rect id="矩形" fill="#000000" opacity="0" x="0" y="0" width="12" height="12"></rect>
                <path d="M6.5778762,0.799114195 L5.42212379,0.799114195 L5.42212379,6.5778762 L6.5778762,6.5778762 L6.5778762,0.799114195 Z M9.37189785,2.05021396 L8.55420824,2.86790357 C9.46147711,3.61047611 10.0451334,4.73443806 10.0451334,5.99998801 C10.0451334,8.2334737 8.23349768,10.0451214 5.99999999,10.0451214 C3.7665023,10.0451214 1.9548666,8.23348569 1.9548666,6 C1.9548666,4.73445005 2.53852288,3.61048809 3.44579175,2.86791555 L2.62810214,2.05021396 C1.51278633,3.00371148 0.799114195,4.41661753 0.799114195,6 C0.799114195,8.87204075 3.12795923,11.2008858 6,11.2008858 C8.87204077,11.2008858 11.2008858,8.87204077 11.2008858,6 C11.2008858,4.41661753 10.4872017,3.00371148 9.37189785,2.05021396 Z" id="形状" fill="#979797"></path>
            </g>
        </g>
    </g>
</svg>