<?xml version="1.0" encoding="UTF-8"?>
<svg width="12px" height="12px" viewBox="0 0 12 12" version="1.1" xmlns="http://www.w3.org/2000/svg" xmlns:xlink="http://www.w3.org/1999/xlink">
    <title>关闭</title>
    <g id="-界面合集" stroke="none" stroke-width="1" fill="none" fill-rule="evenodd">
        <g id="01-生产工单备份-2" transform="translate(-1624.000000, -379.000000)" fill="#000000" fill-rule="nonzero">
            <g id="关闭" transform="translate(1624.000000, 379.000000)">
                <rect id="矩形" opacity="0" x="3.89991328e-09" y="3.90718924e-09" width="12" height="12"></rect>
                <path d="M6,10.8 C7.71487485,10.8 9.29948456,9.88512519 10.156922,8.40000002 C11.0143594,6.91487484 11.0143594,5.08512516 10.156922,3.59999998 C9.29948456,2.11487481 7.71487485,1.20000001 6,1.20000001 C3.34903321,1.20000001 1.20000001,3.34903321 1.20000001,6 C1.20000001,8.65096679 3.34903321,10.8 6,10.8 L6,10.8 Z M6,12 C2.6862,12 0,9.3138 0,6 C0,2.6862 2.6862,0 6,0 C9.3138,0 12,2.6862 12,6 C12,9.3138 9.3138,12 6,12 Z M4.06380001,3.24 L8.688,7.86419999 L7.8396,8.7126 L3.2154,4.0878 L4.06380001,3.24 Z M8.736,4.08180001 L4.1118,8.70659999 L3.2634,7.8582 L7.88759999,3.2334 L8.736,4.08180001 Z" id="形状" fill-opacity="0.15"></path>
            </g>
        </g>
    </g>
</svg>