<?xml version="1.0" encoding="UTF-8"?>
<svg width="30px" height="30px" viewBox="0 0 30 30" version="1.1" xmlns="http://www.w3.org/2000/svg" xmlns:xlink="http://www.w3.org/1999/xlink">
    <title>关闭</title>
    <g id="-界面合集" stroke="none" stroke-width="1" fill="none" fill-rule="evenodd">
        <g id="03-弹窗" transform="translate(-825.000000, -291.000000)" fill-rule="nonzero">
            <g id="关闭" transform="translate(825.000000, 291.000000)">
                <rect id="矩形" fill="#000000" opacity="0" x="0" y="0" width="30" height="30"></rect>
                <path d="M14.980459,3.73045898 C16.5000293,3.73045898 17.9731348,4.02764648 19.3589062,4.61375977 C20.6983301,5.18027344 21.9016406,5.99170898 22.9354102,7.02550781 C23.969209,8.05927734 24.7806152,9.26258789 25.3471582,10.6020117 C25.9332715,11.9877539 26.230459,13.4608887 26.230459,14.980459 C26.230459,16.5000293 25.9332715,17.9731348 25.3471582,19.3589062 C24.7806445,20.6983301 23.969209,21.9016406 22.9354102,22.9354102 C21.9016406,23.969209 20.6983301,24.7806152 19.3589062,25.3471582 C17.9731641,25.9332715 16.5000293,26.230459 14.980459,26.230459 C13.4608887,26.230459 11.9877832,25.9332715 10.6020117,25.3471582 C9.26258789,24.7806445 8.05927734,23.969209 7.02550781,22.9354102 C5.99170898,21.9016406 5.18030273,20.6983301 4.61375977,19.3589062 C4.02764648,17.9731641 3.73045898,16.5000293 3.73045898,14.980459 C3.73045898,13.4608887 4.02764648,11.9877832 4.61375977,10.6020117 C5.18027344,9.26258789 5.99170898,8.05927734 7.02550781,7.02550781 C8.05927734,5.99170898 9.26258789,5.18030273 10.6020117,4.61375977 C11.9877832,4.02764648 13.4608887,3.73045898 14.980459,3.73045898 M14.980459,1.85545898 C7.73170898,1.85545898 1.85545898,7.73170898 1.85545898,14.980459 C1.85545898,22.229209 7.73170898,28.105459 14.980459,28.105459 C22.229209,28.105459 28.105459,22.229209 28.105459,14.980459 C28.105459,7.73170898 22.229209,1.85545898 14.980459,1.85545898 Z" id="形状" fill="#FFFFFF"></path>
                <path d="M16.3258008,15 L20.6433691,10.6824316 C21.0094922,10.3163086 21.0094922,9.72272461 20.6433691,9.35660156 C20.2772754,8.99047852 19.6836621,8.99047852 19.3175684,9.35660156 L15,13.6741992 L10.6824316,9.35663086 C10.3163086,8.99050781 9.72272461,8.99050781 9.35660156,9.35663086 C8.99047852,9.72275391 8.99047852,10.3163379 9.35660156,10.6824609 L13.6741992,15 L9.35663086,19.3175684 C8.99050781,19.6836621 8.99050781,20.2772754 9.35663086,20.6433691 C9.53967773,20.8264453 9.77961914,20.9179688 10.0195312,20.9179688 C10.2594434,20.9179688 10.4993848,20.8264453 10.6824316,20.6433691 L15,16.3258008 L19.3175684,20.6433691 C19.5006152,20.8264453 19.7405566,20.9179688 19.9804687,20.9179688 C20.2203809,20.9179688 20.4603223,20.8264453 20.6433691,20.6433691 C21.0094922,20.2772754 21.0094922,19.6836621 20.6433691,19.3175684 L16.3258008,15 Z" id="路径" fill="#FFFFFF"></path>
            </g>
        </g>
    </g>
</svg>