<?xml version="1.0" encoding="UTF-8"?>
<svg width="16px" height="16px" viewBox="0 0 16 16" version="1.1" xmlns="http://www.w3.org/2000/svg" xmlns:xlink="http://www.w3.org/1999/xlink">
    <title>二维码</title>
    <g id="-界面合集" stroke="none" stroke-width="1" fill="none" fill-rule="evenodd">
        <g id="02-标签明细" transform="translate(-360.000000, -290.000000)" fill="#000000" fill-rule="nonzero">
            <g id="二维码" transform="translate(360.000000, 290.000000)">
                <rect id="矩形" opacity="0" x="0" y="0" width="16" height="16"></rect>
                <path d="M7.61538461,8.38461539 L7.61538461,13 L3,13 L3,8.38461539 L7.61538461,8.38461539 Z M13,11.4615385 L13,13 L11.4615385,13 L11.4615385,11.4615385 L13,11.4615385 Z M9.92307692,11.4615385 L9.92307692,13 L8.38461539,13 L8.38461539,11.4615385 L9.92307692,11.4615385 Z M6.07692308,9.92307692 L4.53846155,9.92307692 L4.53846155,11.4615385 L6.07692308,11.4615385 L6.07692308,9.92307692 Z M9.92307692,8.38461539 L9.92307692,9.92307692 L11.4615385,9.92307692 L11.4615385,8.38461539 L13,8.38461539 L13,10.6923077 L11.4615385,10.6923077 L11.4615385,11.4615385 L9.92307692,11.4615385 L9.92307692,10.6923077 L8.38461539,10.6923077 L8.38461539,8.38461539 L9.92307692,8.38461539 L9.92307692,8.38461539 Z M7.61538461,3 L7.61538461,7.61538461 L3,7.61538461 L3,3 L7.61538461,3 L7.61538461,3 Z M13,3 L13,7.61538461 L8.38461539,7.61538461 L8.38461539,3 L13,3 L13,3 Z M6.07692308,4.53846155 L4.53846155,4.53846155 L4.53846155,6.07692308 L6.07692308,6.07692308 L6.07692308,4.53846155 Z M11.4615385,4.53846155 L9.92307692,4.53846155 L9.92307692,6.07692308 L11.4615385,6.07692308 L11.4615385,4.53846155 Z" id="形状"></path>
            </g>
        </g>
    </g>
</svg>