<?xml version="1.0" encoding="UTF-8"?>
<svg width="14px" height="14px" viewBox="0 0 14 14" version="1.1" xmlns="http://www.w3.org/2000/svg" xmlns:xlink="http://www.w3.org/1999/xlink">
    <title>contacts-fill</title>
    <g id="页面-1" stroke="none" stroke-width="1" fill="none" fill-rule="evenodd">
        <g id="生产工位" transform="translate(-20.000000, -128.000000)" fill-rule="nonzero">
            <g id="左标签栏/工厂建模/下拉" transform="translate(0.000000, 117.000000)">
                <g id="contacts-fill" transform="translate(20.000000, 11.000000)">
                    <rect id="矩形" fill="#000000" opacity="0" x="0" y="0" width="14" height="14"></rect>
                    <path d="M12.6875,3.0625 L10.5,3.0625 L10.5,2.296875 C10.5,2.23671875 10.4507812,2.1875 10.390625,2.1875 L9.625,2.1875 C9.56484375,2.1875 9.515625,2.23671875 9.515625,2.296875 L9.515625,3.0625 L7.4921875,3.0625 L7.4921875,2.296875 C7.4921875,2.23671875 7.44296875,2.1875 7.3828125,2.1875 L6.6171875,2.1875 C6.55703125,2.1875 6.5078125,2.23671875 6.5078125,2.296875 L6.5078125,3.0625 L4.484375,3.0625 L4.484375,2.296875 C4.484375,2.23671875 4.43515625,2.1875 4.375,2.1875 L3.609375,2.1875 C3.54921875,2.1875 3.5,2.23671875 3.5,2.296875 L3.5,3.0625 L1.3125,3.0625 C1.07050781,3.0625 0.875,3.25800781 0.875,3.5 L0.875,11.375 C0.875,11.6169922 1.07050781,11.8125 1.3125,11.8125 L12.6875,11.8125 C12.9294922,11.8125 13.125,11.6169922 13.125,11.375 L13.125,3.5 C13.125,3.25800781 12.9294922,3.0625 12.6875,3.0625 Z M9.03710937,10.0625 L8.43691406,10.0625 C8.37949219,10.0625 8.33300781,10.0173828 8.32890625,9.95996094 C8.27695313,9.26816406 7.7,8.72265625 7,8.72265625 C6.3,8.72265625 5.72304687,9.26953125 5.67109375,9.95996094 C5.66699219,10.0173828 5.62050781,10.0625 5.56308594,10.0625 L4.96289062,10.0625 C4.9,10.0625 4.85078125,10.0105469 4.85351562,9.94765625 C4.89179687,9.21894531 5.29101562,8.58457031 5.8734375,8.22363281 C5.62597656,7.9515625 5.47558594,7.58925781 5.47558594,7.19140625 C5.47558594,6.34511719 6.1578125,5.66015625 6.99863281,5.66015625 C7.83945312,5.66015625 8.52167969,6.34511719 8.52167969,7.19140625 C8.52167969,7.58925781 8.37128906,7.95019531 8.12382812,8.22363281 C8.70761719,8.5859375 9.10546875,9.21894531 9.14375,9.94765625 C9.14921875,10.0105469 9.1,10.0625 9.03710937,10.0625 Z M7,6.48046875 C6.61035156,6.48046875 6.29316406,6.79902344 6.29316406,7.19140625 C6.29316406,7.58378906 6.61035156,7.90234375 7,7.90234375 C7.38964844,7.90234375 7.70683594,7.58378906 7.70683594,7.19140625 C7.70683594,6.79902344 7.38964844,6.48046875 7,6.48046875 Z" id="形状" fill="#FFFFFF"></path>
                </g>
            </g>
        </g>
    </g>
</svg>