<?xml version="1.0" encoding="UTF-8"?>
<svg width="18px" height="18px" viewBox="0 0 18 18" version="1.1" xmlns="http://www.w3.org/2000/svg" xmlns:xlink="http://www.w3.org/1999/xlink">
    <!-- Generator: Sketch 55.2 (78181) - https://sketchapp.com -->
    <title>复制</title>
    <desc>Created with Sketch.</desc>
    <g id="页面1" stroke="none" stroke-width="1" fill="none" fill-rule="evenodd">
        <g id="02-表单模板" transform="translate(-1427.000000, -354.000000)" fill="#AAAAAA" stroke="#AAAAAA">
            <g id="复制" transform="translate(1428.000000, 355.000000)">
                <g id="fuzhi">
                    <path d="M10.9898667,13.9882667 C10.9895839,14.2530589 10.8841244,14.5068935 10.696688,14.6939298 C10.5092516,14.8809661 10.2551922,14.9858831 9.9904,14.9856 L1.99893333,14.9856 C1.73414114,14.985883 1.48008173,14.8809661 1.29264534,14.6939298 C1.10520895,14.5068935 0.99974942,14.2530589 0.999466672,13.9882667 L0.999466672,6.00426667 C0.999466672,5.4528 1.44746667,5.00693334 1.99893333,5.00693333 L2.99733333,5.00693333 L2.99733333,4.00853219 L1.99893333,4.00853219 C1.46897951,4.00796714 0.960537391,4.2180937 0.585603223,4.59262773 C0.210669056,4.96716175 -2.86998664e-07,5.47537921 -2.86998664e-07,6.00533333 L-2.86998664e-07,13.9893333 C-0.000283976422,14.5190915 0.210181977,15.0272026 0.584977696,15.4015981 C0.959773415,15.7759936 1.46810908,15.9859166 1.99786667,15.9850692 L9.98826667,15.9850692 C10.5178394,15.9859163 11.0260131,15.7761396 11.4007781,15.4019749 C11.775543,15.0278102 11.9861333,14.5199734 11.9861333,13.9904 L11.9861333,12.992 L10.9877333,12.992 L10.9877333,13.9893333 L10.9898667,13.9882667 Z M13.9861333,0.0149330428 L5.99466667,0.0149330428 C5.4648976,0.0146503304 4.95672963,0.22490193 4.58202625,0.599405248 C4.20732288,0.973908566 3.9968,1.48196418 3.9968,2.01173333 L3.9968,9.99466667 C3.9968,11.0965333 4.89066667,11.9893333 5.99466667,11.9893333 L13.9872,11.9893333 C15.0912,11.9893333 15.984,11.0954667 15.984,9.99466667 L15.984,2.01173333 C15.9837172,1.48214902 15.7730693,0.974367462 15.3983967,0.600094845 C15.023724,0.225822228 14.5157176,0.0157170255 13.9861333,0.016 L13.9861333,0.0149330428 Z M14.9856,9.99573333 C14.9856,10.2604275 14.8803779,10.5142649 14.6931108,10.7013319 C14.5058438,10.8883989 14.251894,10.9933498 13.9872,10.9930672 L5.99466667,10.9930672 C5.44368186,10.9930672 4.99685533,10.5467178 4.99626667,9.99573333 L4.99626667,2.01173333 C4.99626667,1.46133333 5.44426667,1.0144 5.99466667,1.0144 L13.9872,1.0144 C14.5386667,1.0144 14.9856,1.46133333 14.9856,2.01173333 L14.9856,9.99573333 Z" id="形状" stroke-width="0.3" fill-rule="nonzero"></path>
                </g>
            </g>
        </g>
    </g>
</svg>