<?xml version="1.0" encoding="UTF-8"?>
<svg width="14px" height="15px" viewBox="0 0 14 15" version="1.1" xmlns="http://www.w3.org/2000/svg" xmlns:xlink="http://www.w3.org/1999/xlink">
    <title>创建</title>
    <g id="页面-1" stroke="none" stroke-width="1" fill="none" fill-rule="evenodd">
        <g id="01-销售订单详情" transform="translate(-1346.000000, -412.000000)" fill="#7B7B7C" fill-rule="nonzero">
            <g id="编组-16" transform="translate(40.000000, 216.000000)">
                <g id="编组-4" transform="translate(1.000000, 120.000000)">
                    <g id="创建" transform="translate(1305.000000, 76.000000)">
                        <path d="M6.46771753,1.35933694 L11.3465493,4.17588669 C11.3403795,4.17897163 11.335752,4.18205657 11.3295822,4.18514151 L6.48622717,6.98318162 L1.60739537,4.16663187 L6.46771753,1.35933694 Z M1.13077222,5.03195739 L6.00497661,7.84542221 L6.00497661,13.4183654 L1.13077222,10.6049006 L1.13077222,5.03195739 Z M6.99832712,13.3798036 L6.99215724,13.3828886 L6.99215724,7.82999751 L11.8046628,5.0520095 L11.8046628,7.51687615 C11.8046628,7.78680836 12.0206086,8.00583906 12.2905408,8.01046647 C12.5666429,8.01509388 12.7918435,7.79297824 12.7918435,7.51687615 L12.7918435,4.15583458 C12.7918435,3.97999303 12.6977528,3.81649124 12.5450483,3.72857046 L6.71451269,0.362901481 C6.56180818,0.274980706 6.37362688,0.274980706 6.22092237,0.362901481 L0.390386741,3.72857046 C0.237682236,3.81649124 0.143591582,3.97999303 0.143591582,4.15583458 L0.143591582,10.888715 C0.143591582,11.0645566 0.237682236,11.2280584 0.390386741,11.3159791 L6.22092237,14.6816481 C6.29804586,14.7263797 6.38288169,14.7479743 6.46771753,14.7479743 C6.55255337,14.7479743 6.6373892,14.7263797 6.71451269,14.6816481 L7.49191744,14.2327894 C7.71403308,14.1047644 7.80041139,13.8286623 7.69243851,13.5957494 C7.56904093,13.335072 7.24820722,13.2348115 6.99832712,13.3798036 Z M13.2067678,10.9596686 L11.2354915,10.9596686 L11.2354915,8.98839229 C11.2354915,8.71691761 11.0133759,8.49480197 10.7419012,8.49480197 C10.4704265,8.49480197 10.2483109,8.71691761 10.2483109,8.98839229 L10.2483109,10.9596686 L8.27703454,10.9596686 C8.00555986,10.9596686 7.78344422,11.1817843 7.78344422,11.4532589 C7.78344422,11.7247336 8.00555986,11.9468493 8.27703454,11.9468493 L10.2483109,11.9468493 L10.2483109,13.9181256 C10.2483109,14.1896003 10.4704265,14.4117159 10.7419012,14.4117159 C11.0133759,14.4117159 11.2354915,14.1896003 11.2354915,13.9181256 L11.2354915,11.9468493 L13.2067678,11.9468493 C13.4782425,11.9468493 13.7003582,11.7247336 13.7003582,11.4532589 C13.7003582,11.1802418 13.4782425,10.9596686 13.2067678,10.9596686 Z" id="形状"></path>
                    </g>
                </g>
            </g>
        </g>
    </g>
</svg>