<?xml version="1.0" encoding="UTF-8"?>
<svg width="12px" height="12px" viewBox="0 0 12 12" version="1.1" xmlns="http://www.w3.org/2000/svg" xmlns:xlink="http://www.w3.org/1999/xlink">
    <title>新建</title>
    <defs>
        <filter id="filter-1">
            <feColorMatrix in="SourceGraphic" type="matrix" values="0 0 0 0 0.000000 0 0 0 0 0.000000 0 0 0 0 0.000000 0 0 0 0.299415 0"></feColorMatrix>
        </filter>
    </defs>
    <g id="-界面合集" stroke="none" stroke-width="1" fill="none" fill-rule="evenodd">
        <g id="02-安灯配置-新增人员弹窗" transform="translate(-479.000000, -233.000000)">
            <g id="编组" transform="translate(441.000000, 157.000000)">
                <g id="新建" transform="translate(32.000000, 70.000000)" filter="url(#filter-1)">
                    <g transform="translate(6.000000, 6.000000)">
                        <rect id="矩形" x="0" y="0" width="12" height="12"></rect>
                        <path d="M1.37139512,10.9849242 C1.48764189,9.88367984 1.978633,8.86905523 2.72966428,8.10605662 C3.68013314,8.86905523 4.85174634,9.25151321 6.02490215,9.25151321 C7.18516614,9.25151321 8.34620143,8.87762698 9.29391564,8.13109515 C10.0312838,8.89138689 10.5136803,9.89552239 10.6287151,10.9849242 L1.37139512,10.9849242 Z M3.27640976,3.80303771 C3.27640976,2.26576187 4.49815782,1.01507575 6,1.01507575 C7.50184218,1.01507575 8.72370043,2.26576187 8.72370043,3.80303771 C8.72370043,4.73623069 8.26984218,5.60344374 7.50955524,6.12316252 L6.70023529,6.67615324 L7.61302037,7.021279 C7.92628063,7.1397045 8.22169067,7.29106357 8.49627547,7.47050641 C7.01988637,8.50430467 4.99807403,8.498327 3.53237303,7.45302455 C3.79902439,7.28147675 4.08451765,7.1356442 4.38697963,7.021279 L5.29976471,6.67615324 L4.49055495,6.12316252 C3.73026801,5.60344374 3.27640976,4.73623069 3.27640976,3.80303771 L3.27640976,3.80303771 Z M8.69990014,6.4150532 C9.34592367,5.71645551 9.71537905,4.78664611 9.71537905,3.80303771 C9.71537905,1.70600399 8.04869785,0 6,0 C3.95141234,0 2.28473113,1.70600399 2.28473113,3.80303771 C2.28473113,4.78664611 2.65418651,5.71645551 3.30009986,6.4150532 C1.50945882,7.41636904 0.352941176,9.36475055 0.352941176,11.4924621 L0.352941176,12 L11.6470588,12 L11.6470588,11.4924621 C11.6470588,9.36475055 10.4906514,7.41636904 8.69990014,6.4150532 L8.69990014,6.4150532 Z" id="Fill-4" fill="#999999"></path>
                    </g>
                </g>
            </g>
        </g>
    </g>
</svg>