<?xml version="1.0" encoding="UTF-8"?>
<svg width="12px" height="12px" viewBox="0 0 12 12" version="1.1" xmlns="http://www.w3.org/2000/svg" xmlns:xlink="http://www.w3.org/1999/xlink">
    <title>删 除</title>
    <g id="-界面合集" stroke="none" stroke-width="1" fill="none" fill-rule="evenodd">
        <g id="字段配置下拉备份" transform="translate(-958.000000, -328.000000)" fill="#000000" fill-rule="nonzero">
            <g id="删-除" transform="translate(958.000000, 328.000000)">
                <rect id="矩形" fill-opacity="0.102463942" opacity="0" x="0" y="0" width="12" height="12"></rect>
                <path d="M8.8046875,9.5640625 C8.8046875,9.9 8.53124023,10.1734375 8.1953125,10.1734375 L3.8046875,10.1734375 C3.46875,10.1734375 3.1953125,9.9 3.1953125,9.5640625 L3.1953125,3.0953125 L8.8046875,3.0953125 L8.8046875,9.5640625 L8.8046875,9.5640625 Z M4.4140625,2.0015625 C4.4140625,1.93125 4.46875,1.8765625 4.5390625,1.8765625 L7.46875,1.8765625 C7.5390625,1.8765625 7.59375,1.93125 7.59375,2.0015625 L7.59375,2.36875 L4.4140625,2.36875 L4.4140625,2.0015625 Z M10.6328125,2.36875 L8.3203125,2.36875 L8.3203125,2.0015625 C8.3203125,1.53280273 7.9375,1.15 7.46875,1.15 L4.5390625,1.15 C4.0703125,1.15 3.6875,1.53280273 3.6875,2.0015625 L3.6875,2.36875 L1.3671875,2.36875 C1.1640625,2.36875 1,2.5328125 1,2.7359375 C1,2.9390625 1.1640625,3.103125 1.3671875,3.103125 L2.4609375,3.103125 L2.4609375,9.5640625 C2.4609375,10.30625 3.0625,10.9078125 3.8046875,10.9078125 L8.1953125,10.9078125 C8.9375,10.9078125 9.5390625,10.30625 9.5390625,9.5640625 L9.5390625,3.0953125 L10.6328125,3.0953125 C10.8359375,3.0953125 11,2.93125 11,2.728125 C11,2.525 10.8359375,2.36875 10.6328125,2.36875 Z M6,9.071875 C6.203125,9.071875 6.3671875,8.9078125 6.3671875,8.7046875 L6.3671875,4.7984375 C6.3671875,4.5953125 6.203125,4.43125 6,4.43125 C5.796875,4.43125 5.6328125,4.5953125 5.6328125,4.7984375 L5.6328125,8.7046875 C5.6328125,8.9078125 5.796875,9.071875 6,9.071875 M4.2890625,9.071875 C4.4921875,9.071875 4.65625,8.9078125 4.65625,8.7046875 L4.65625,4.7984375 C4.65625,4.5953125 4.4921875,4.43125 4.2890625,4.43125 C4.0859375,4.43125 3.921875,4.5953125 3.921875,4.7984375 L3.921875,8.7046875 C3.9296875,8.9078125 4.09375,9.071875 4.2890625,9.071875 M7.7109375,9.071875 C7.9140625,9.071875 8.078125,8.9078125 8.078125,8.7046875 L8.078125,4.7984375 C8.078125,4.5953125 7.9140625,4.43125 7.7109375,4.43125 C7.5078125,4.43125 7.34375,4.5953125 7.34375,4.7984375 L7.34375,8.7046875 C7.34375,8.9078125 7.5078125,9.071875 7.7109375,9.071875" id="形状" fill-opacity="0.2"></path>
            </g>
        </g>
    </g>
</svg>