<?xml version="1.0" encoding="UTF-8"?>
<svg width="16px" height="16px" viewBox="0 0 16 16" version="1.1" xmlns="http://www.w3.org/2000/svg" xmlns:xlink="http://www.w3.org/1999/xlink">
    <title>缺陷库</title>
    <g id="-界面合集" stroke="none" stroke-width="1" fill="none" fill-rule="evenodd">
        <g id="01-工资报表" transform="translate(-1384.000000, -325.000000)">
            <g id="缺陷库" transform="translate(1384.000000, 325.000000)">
                <rect id="矩形" x="0" y="0" width="16" height="16"></rect>
                <path d="M13.0525257,13.6384893 L3.86203852,13.6384893 L3.86203854,13.6384893 C3.22243997,13.6423662 2.63057728,13.3006068 2.31422665,12.7447043 L2.3142266,12.7447042 C1.99107841,12.1926852 1.99107841,11.509221 2.31422671,10.9572021 L6.90930404,2.99821607 L6.90930399,2.99821617 C7.2257025,2.44236686 7.81753193,2.10062678 8.45711587,2.10443313 C9.10334043,2.10443313 9.68249111,2.43847266 10.005606,2.99821617 L14.6006834,10.9572022 L14.6006834,10.9572021 C14.9234711,11.5093195 14.9234711,12.1925868 14.6006834,12.7447042 L14.6006834,12.7447042 C14.2842251,13.3006599 13.6922373,13.6424173 13.052539,13.6384893 L13.0525257,13.6384893 Z M8.45744835,3.4663513 L8.45744834,3.4663513 C8.30496005,3.46487823 8.16371281,3.54639198 8.0887122,3.67916934 L3.49330237,11.6381554 L3.49330236,11.6381554 C3.41569737,11.7694075 3.41569737,11.9324987 3.49330239,12.0637511 C3.53007386,12.1277607 3.6400478,12.276549 3.86203853,12.276549 L13.0525257,12.276549 C13.274176,12.276549 13.3841499,12.1277607 13.4209214,12.0637511 L13.4209214,12.0637511 C13.4986736,11.9325393 13.4986736,11.7693665 13.4209214,11.6381554 L8.82618981,3.67916935 L8.82618981,3.67916935 C8.75118907,3.54639199 8.60994196,3.46487791 8.45745367,3.4663513 L8.45744835,3.4663513 Z M7.81905475,5.46667142 L9.1809611,5.46667142 L9.1809611,9.55239046 L7.81905475,9.55239046 L7.81905475,5.46667142 Z M7.81905475,10.2333436 L9.1809611,10.2333436 L9.1809611,11.59525 L7.81905475,11.59525 L7.81905475,10.2333436 Z" id="形状" fill="#7B7B7C" fill-rule="nonzero"></path>
            </g>
        </g>
    </g>
</svg>