<?xml version="1.0" encoding="UTF-8"?>
<svg width="12px" height="12px" viewBox="0 0 12 12" version="1.1" xmlns="http://www.w3.org/2000/svg" xmlns:xlink="http://www.w3.org/1999/xlink">
    <title>删除2备份</title>
    <g id="-界面合集" stroke="none" stroke-width="1" fill="none" fill-rule="evenodd">
        <g id="01-采购订单（2）" transform="translate(-1388.000000, -421.000000)">
            <g id="编组-2" transform="translate(1287.000000, 328.000000)">
                <g id="删除2备份" transform="translate(101.000000, 93.000000)">
                    <rect id="矩形" x="0" y="0" width="12" height="12"></rect>
                    <path d="M1.67799153,12 L10.3220593,12 L10.3220593,2.99453552 L1.67799153,2.99453552 L1.67799153,12 Z M2.69494068,10.9508197 L9.30511017,10.9508197 L9.30511017,4.04371585 L2.69494068,4.04371585 L2.69494068,10.9508197 Z M5.06779661,0 L5.06779661,0.983606557 L1,0.983606557 L1,2.03278689 L11,2.03278689 L11,0.983606557 L6.93228814,0.983606557 L6.93228814,0 L5.06779661,0 Z M4.22036441,9.07103825 L5.23731356,9.07103825 L5.23731356,5.92349727 L4.22036441,5.92349727 L4.22036441,9.07103825 Z M6.76273729,9.07103825 L7.77968644,9.07103825 L7.77968644,5.92349727 L6.76273729,5.92349727 L6.76273729,9.07103825 Z" id="删除" fill-opacity="0.152786" fill="#000000"></path>
                </g>
            </g>
        </g>
    </g>
</svg>