<?xml version="1.0" encoding="UTF-8"?>
<svg width="10px" height="12px" viewBox="0 0 10 12" version="1.1" xmlns="http://www.w3.org/2000/svg" xmlns:xlink="http://www.w3.org/1999/xlink">
    <title>删除</title>
    <g id="WEB-设计总稿" stroke="none" stroke-width="1" fill="none" fill-rule="evenodd">
        <g id="01-发货任务" transform="translate(-1376.000000, -339.000000)">
            <g id="编组-2" transform="translate(1287.000000, 300.000000)">
                <g id="编组-5" transform="translate(88.000000, 39.000000)">
                    <g id="删除"></g>
                    <rect id="矩形" x="0" y="0" width="12" height="12"></rect>
                    <path d="M1.67799153,12 L10.3220593,12 L10.3220593,2.99453552 L1.67799153,2.99453552 L1.67799153,12 Z M2.69494068,10.9508197 L9.30511017,10.9508197 L9.30511017,4.04371585 L2.69494068,4.04371585 L2.69494068,10.9508197 Z M5.06779661,-7.10542736e-15 L5.06779661,0.983606557 L1,0.983606557 L1,2.03278689 L11,2.03278689 L11,0.983606557 L6.93228814,0.983606557 L6.93228814,-7.10542736e-15 L5.06779661,-7.10542736e-15 Z M4.22036441,9.07103825 L5.23731356,9.07103825 L5.23731356,5.92349727 L4.22036441,5.92349727 L4.22036441,9.07103825 Z M6.76273729,9.07103825 L7.77968644,9.07103825 L7.77968644,5.92349727 L6.76273729,5.92349727 L6.76273729,9.07103825 Z" id="删除" fill-opacity="0.5" fill="#000000"></path>
                </g>
            </g>
        </g>
    </g>
</svg>