<?xml version="1.0" encoding="UTF-8"?>
<svg width="16px" height="16px" viewBox="0 0 16 16" version="1.1" xmlns="http://www.w3.org/2000/svg" xmlns:xlink="http://www.w3.org/1999/xlink">
    <!-- Generator: Sketch 55.2 (78181) - https://sketchapp.com -->
    <title>删除备份 6</title>
    <desc>Created with Sketch.</desc>
    <defs>
        <rect id="path-1" x="0" y="0" width="16" height="16"></rect>
    </defs>
    <g id="页面1" stroke="none" stroke-width="1" fill="none" fill-rule="evenodd">
        <g id="02-表单模板" transform="translate(-1836.000000, -299.000000)">
            <g id="删除" transform="translate(1836.000000, 299.000000)">
                <mask id="mask-2" fill="white">
                    <use xlink:href="#path-1"></use>
                </mask>
                <g id="矩形"></g>
                <g id="删除备份-2" stroke-width="1" fill-rule="evenodd" mask="url(#mask-2)" fill="#AFAFAF" stroke="#AFAFAF">
                    <g transform="translate(1.000000, 1.000000)" fill-rule="nonzero" id="形状" stroke-width="0.3">
                        <path d="M13.582142,2.32992681 L10.8660341,2.32992681 L10.8660341,0.389864386 C10.8660341,0.175570951 10.6923049,0.00184165158 10.4780114,0.00184165158 L3.49394378,0.00184165158 C3.27965034,0.00184165158 3.10592104,0.175553861 3.10592104,0.389864386 L3.10592104,2.32994388 L0.38983024,2.32994388 C0.175536804,2.32994388 0.00180750524,2.50367316 0.00180750524,2.71796662 C0.00180750524,2.93226007 0.175519715,3.10598935 0.38983024,3.10598935 L13.582142,3.10598935 C13.7964355,3.10598935 13.9701648,2.93226007 13.9701648,2.71796662 C13.9701648,2.50367316 13.7964184,2.32992681 13.582142,2.32992681 Z M3.88196649,0.777870048 L10.0900058,0.777870048 L10.0900058,2.32992681 L3.88196649,2.32992681 L3.88196649,0.777870048 Z M11.6420625,4.65782414 C11.4277691,4.65782414 11.2540398,4.83153637 11.2540398,5.04584689 L11.2540398,13.1941534 L2.71791538,13.1941534 L2.71791538,5.04584688 C2.71791538,4.83155344 2.54420317,4.65782414 2.32989264,4.65782414 C2.11558212,4.65782414 1.94186991,4.83153635 1.94186991,5.04584688 L1.94186991,13.5821591 C1.94186991,13.7964525 2.11558212,13.9701818 2.32989264,13.9701818 L11.6420454,13.9701818 C11.8563389,13.9701818 12.0300682,13.7964525 12.0300682,13.5821591 L12.0300682,5.04584688 C12.0300682,4.83155344 11.856356,4.65782414 11.6420625,4.65782414 Z M5.82204599,11.2540739 L5.82204599,5.04584689 C5.82204599,4.83155346 5.64833378,4.65782416 5.43402325,4.65782416 C5.21971273,4.65782416 5.04600052,4.83153637 5.04600052,5.04584689 L5.04600052,11.2540739 C5.04600052,11.4683674 5.21971273,11.6420967 5.43402325,11.6420967 C5.64833378,11.6420967 5.82204599,11.4683674 5.82204599,11.2540739 Z M8.92595465,11.2540739 L8.92595465,5.04584689 C8.92595465,4.83155346 8.75222536,4.65782416 8.53793191,4.65782416 C8.32363846,4.65782416 8.14990918,4.83153637 8.14990918,5.04584689 L8.14990918,11.2540739 C8.14990918,11.4683674 8.32363846,11.6420967 8.53793191,11.6420967 C8.75222536,11.6420967 8.92595465,11.4683674 8.92595465,11.2540739 Z"></path>
                    </g>
                </g>
            </g>
        </g>
    </g>
</svg>