<?xml version="1.0" encoding="UTF-8"?>
<svg width="28px" height="28px" viewBox="0 0 28 28" version="1.1" xmlns="http://www.w3.org/2000/svg" xmlns:xlink="http://www.w3.org/1999/xlink">
    <!-- Generator: Sketch 55.2 (78181) - https://sketchapp.com -->
    <title></title>
    <desc>Created with Sketch.</desc>
    <g id="3.0" stroke="none" stroke-width="1" fill="none" fill-rule="evenodd">
        <g id="06-系统管理员" transform="translate(-1452.000000, -269.000000)">
            <g id="编组-4" transform="translate(1452.000000, 269.000000)">
                <g id="编组-2">
                    <circle id="椭圆形" fill="#EF515E" cx="14" cy="14" r="14"></circle>
                    <rect id="矩形" x="7" y="7" width="14" height="14"></rect>
                </g>
                <g id="新增" transform="translate(7.000000, 7.000000)" fill="#FFFFFF" fill-rule="nonzero" stroke="#FFFFFF" stroke-width="0.3">
                    <g id="删除备份-2" transform="translate(1.000000, 1.000000)">
                        <path d="M11.641836,1.99708012 L9.31374355,1.99708012 L9.31374355,0.334169474 C9.31374355,0.150489386 9.16483274,0.0015785585 8.98115263,0.0015785585 L2.99480895,0.0015785585 C2.81112886,0.0015785585 2.66221804,0.150474738 2.66221804,0.334169474 L2.66221804,1.99709476 L0.334140206,1.99709476 C0.150460118,1.99709476 0.00154929021,2.14600557 0.00154929021,2.32968567 C0.00154929021,2.51336577 0.15044547,2.66227659 0.334140206,2.66227659 L11.641836,2.66227659 C11.8255161,2.66227659 11.9744269,2.51336577 11.9744269,2.32968567 C11.9744269,2.14600557 11.8255015,1.99708012 11.641836,1.99708012 Z M3.32739985,0.666745756 L8.64857637,0.666745756 L8.64857637,1.99708012 L3.32739985,1.99708012 L3.32739985,0.666745756 Z M9.97891073,3.99242069 C9.79523065,3.99242069 9.64631982,4.14131689 9.64631982,4.32501162 L9.64631982,11.3092744 L2.32964175,11.3092744 L2.32964175,4.32501161 C2.32964175,4.14133152 2.18074557,3.99242069 1.99705084,3.99242069 C1.8133561,3.99242069 1.66445992,4.14131687 1.66445992,4.32501161 L1.66445992,11.6418506 C1.66445992,11.8255307 1.8133561,11.9744416 1.99705084,11.9744416 L9.97889608,11.9744416 C10.1625762,11.9744416 10.311487,11.8255307 10.311487,11.6418506 L10.311487,4.32501161 C10.311487,4.14133152 10.1625908,3.99242069 9.97891073,3.99242069 Z M4.99032513,9.6463491 L4.99032513,4.32501162 C4.99032513,4.14133154 4.84142895,3.99242071 4.65773422,3.99242071 C4.47403948,3.99242071 4.3251433,4.14131689 4.3251433,4.32501162 L4.3251433,9.6463491 C4.3251433,9.83002919 4.47403948,9.97894002 4.65773422,9.97894002 C4.84142895,9.97894002 4.99032513,9.83002919 4.99032513,9.6463491 Z M7.65081827,9.6463491 L7.65081827,4.32501162 C7.65081827,4.14133154 7.50190746,3.99242071 7.31822735,3.99242071 C7.13454725,3.99242071 6.98563644,4.14131689 6.98563644,4.32501162 L6.98563644,9.6463491 C6.98563644,9.83002919 7.13454725,9.97894002 7.31822735,9.97894002 C7.50190746,9.97894002 7.65081827,9.83002919 7.65081827,9.6463491 Z" id="形状"></path>
                    </g>
                </g>
            </g>
        </g>
    </g>
</svg>