<?xml version="1.0" encoding="UTF-8"?>
<svg width="12px" height="12px" viewBox="0 0 12 12" version="1.1" xmlns="http://www.w3.org/2000/svg" xmlns:xlink="http://www.w3.org/1999/xlink">
    <title></title>
    <g id="-界面合集" stroke="none" stroke-width="1" fill="none" fill-rule="evenodd" opacity="0.699999988">
        <g id="资源视图" transform="translate(-144.000000, -174.000000)" fill="#999999" fill-rule="nonzero">
            <g id="新建" transform="translate(144.000000, 174.000000)">
                <g id="编组" transform="translate(1.000000, 1.000000)">
                    <path d="M8.94168116,0 L1.05833118,0 C0.474735258,0 0,0.533113609 0,1.18829735 L0,8.81191071 C0,9.46730254 0.474735258,10 1.05833118,10 L8.94168116,10 C9.52526473,10 10,9.46730254 10,8.81191071 L10,8.1465452 L10,7.88997596 L10,1.18828349 C10,0.533113609 9.52527709,0 8.94168116,0 Z M9.33573132,7.89277802 L9.33573132,8.1465452 L9.33573132,8.75380255 C9.33573132,9.02958397 9.13585903,9.25405432 8.8899251,9.25405432 L1.11080368,9.25405432 C0.864882098,9.25405432 0.664997467,9.02957011 0.664997467,8.75380256 L0.664997467,1.2466136 C0.664997467,0.97123445 0.864882098,0.746569903 1.11080368,0.746569903 L8.8899251,0.746569903 C9.13585903,0.746569903 9.33573132,0.97123445 9.33573132,1.2466136 L9.33573132,7.89277802 Z" id="形状结合" stroke="#999999" stroke-width="0.5"></path>
                    <path d="M7.16682916,2.81384591 C7.44909004,2.81591143 7.6824954,3.03429937 7.70330013,3.31580005 C7.72410486,3.59730073 7.52534064,3.84762881 7.24645018,3.89116705 L7.16682916,3.89766672 L2.2920729,3.89766672 C2.00966599,3.8960064 1.77587904,3.67774072 1.75485252,3.39611276 C1.733826,3.11448481 1.93261,2.86392311 2.21163942,2.82034559 L2.2920729,2.81384591 L7.16682916,2.81384591 L7.16682916,2.81384591 Z M4.72945103,4.98067507 C5.0117119,4.98274059 5.24511727,5.20112853 5.265922,5.48262921 C5.28672672,5.76412989 5.08796251,6.01445797 4.80907205,6.05799621 L4.72945103,6.06368342 L2.2920729,6.06368342 C2.00966599,6.06202309 1.77587904,5.84375742 1.75485252,5.56212946 C1.733826,5.28050151 1.93261,5.02993981 2.21163942,4.98636229 L2.2920729,4.98067507 L4.72945103,4.98067507 L4.72945103,4.98067507 Z" id="形状"></path>
                </g>
            </g>
        </g>
    </g>
</svg>