<?xml version="1.0" encoding="UTF-8"?>
<svg width="14px" height="14px" viewBox="0 0 14 14" version="1.1" xmlns="http://www.w3.org/2000/svg" xmlns:xlink="http://www.w3.org/1999/xlink">
    <title>detail-fill</title>
    <g id="页面-1" stroke="none" stroke-width="1" fill="none" fill-rule="evenodd">
        <g id="生产工位" transform="translate(-20.000000, -643.000000)" fill-rule="nonzero">
            <g id="左标签栏/生产管理/收起" transform="translate(0.000000, 632.000000)">
                <g id="detail-fill" transform="translate(20.000000, 11.000000)">
                    <rect id="矩形" fill="#000000" opacity="0" x="0" y="0" width="14" height="14"></rect>
                    <path d="M12.03125,1.53125 L1.96875,1.53125 C1.72675781,1.53125 1.53125,1.72675781 1.53125,1.96875 L1.53125,12.03125 C1.53125,12.2732422 1.72675781,12.46875 1.96875,12.46875 L12.03125,12.46875 C12.2732422,12.46875 12.46875,12.2732422 12.46875,12.03125 L12.46875,1.96875 C12.46875,1.72675781 12.2732422,1.53125 12.03125,1.53125 Z M5.1953125,9.515625 C4.89316406,9.515625 4.6484375,9.27089844 4.6484375,8.96875 C4.6484375,8.66660156 4.89316406,8.421875 5.1953125,8.421875 C5.49746094,8.421875 5.7421875,8.66660156 5.7421875,8.96875 C5.7421875,9.27089844 5.49746094,9.515625 5.1953125,9.515625 Z M5.1953125,7.546875 C4.89316406,7.546875 4.6484375,7.30214844 4.6484375,7 C4.6484375,6.69785156 4.89316406,6.453125 5.1953125,6.453125 C5.49746094,6.453125 5.7421875,6.69785156 5.7421875,7 C5.7421875,7.30214844 5.49746094,7.546875 5.1953125,7.546875 Z M5.1953125,5.578125 C4.89316406,5.578125 4.6484375,5.33339844 4.6484375,5.03125 C4.6484375,4.72910156 4.89316406,4.484375 5.1953125,4.484375 C5.49746094,4.484375 5.7421875,4.72910156 5.7421875,5.03125 C5.7421875,5.33339844 5.49746094,5.578125 5.1953125,5.578125 Z M9.3515625,9.296875 C9.3515625,9.35703125 9.30234375,9.40625 9.2421875,9.40625 L6.7265625,9.40625 C6.66640625,9.40625 6.6171875,9.35703125 6.6171875,9.296875 L6.6171875,8.640625 C6.6171875,8.58046875 6.66640625,8.53125 6.7265625,8.53125 L9.2421875,8.53125 C9.30234375,8.53125 9.3515625,8.58046875 9.3515625,8.640625 L9.3515625,9.296875 Z M9.3515625,7.328125 C9.3515625,7.38828125 9.30234375,7.4375 9.2421875,7.4375 L6.7265625,7.4375 C6.66640625,7.4375 6.6171875,7.38828125 6.6171875,7.328125 L6.6171875,6.671875 C6.6171875,6.61171875 6.66640625,6.5625 6.7265625,6.5625 L9.2421875,6.5625 C9.30234375,6.5625 9.3515625,6.61171875 9.3515625,6.671875 L9.3515625,7.328125 Z M9.3515625,5.359375 C9.3515625,5.41953125 9.30234375,5.46875 9.2421875,5.46875 L6.7265625,5.46875 C6.66640625,5.46875 6.6171875,5.41953125 6.6171875,5.359375 L6.6171875,4.703125 C6.6171875,4.64296875 6.66640625,4.59375 6.7265625,4.59375 L9.2421875,4.59375 C9.30234375,4.59375 9.3515625,4.64296875 9.3515625,4.703125 L9.3515625,5.359375 Z" id="形状" fill="#FFFFFF"></path>
                </g>
            </g>
        </g>
    </g>
</svg>