<?xml version="1.0" encoding="UTF-8"?>
<svg width="16px" height="16px" viewBox="0 0 16 16" version="1.1" xmlns="http://www.w3.org/2000/svg" xmlns:xlink="http://www.w3.org/1999/xlink">
    <title></title>
    <g id="-界面合集" stroke="none" stroke-width="1" fill="none" fill-rule="evenodd">
        <g id="其他交互" transform="translate(-413.000000, -87.000000)">
            <g id="编组备份-3" transform="translate(405.000000, 81.000000)">
                <g id="编组" transform="translate(8.000000, 6.000000)">
                    <g id="wenjian" transform="translate(1.500000, 1.000000)" fill="#595757" fill-rule="nonzero">
                        <path d="M10.0284619,14 L2.97153812,14 C1.33335791,14 0,12.6949471 0,11.0915427 L0,2.90845731 C0,1.30505294 1.33335791,0 2.97153812,0 L10.0284619,0 C11.6666421,0 13,1.30505294 13,2.90845731 L13,11.0915427 C13,12.6958853 11.6666421,14 10.0284619,14 Z M2.97153812,0.938212036 C1.86152485,0.938212036 0.958560684,1.82200777 0.958560684,2.90845731 L0.958560684,11.0915427 C0.958560684,12.1779922 1.86152485,13.061788 2.97153812,13.061788 L10.0284619,13.061788 C11.1384752,13.061788 12.0414393,12.1779922 12.0414393,11.0915427 L12.0414393,2.90845731 C12.0414393,1.82200777 11.1384752,0.938212036 10.0284619,0.938212036 L2.97153812,0.938212036 Z" id="形状"></path>
                        <path d="M9.29037015,4.58598043 L3.78343902,4.58598043 C3.51887627,4.58598043 3.30415868,4.37582094 3.30415868,4.11687441 C3.30415868,3.85792789 3.51887627,3.6477684 3.78343902,3.6477684 L9.29037015,3.6477684 C9.5549329,3.6477684 9.76965049,3.85792789 9.76965049,4.11687441 C9.76965049,4.37582094 9.5549329,4.58598043 9.29037015,4.58598043 Z M9.29037015,7.46910602 L3.78343902,7.46910602 C3.51887627,7.46910602 3.30415868,7.25894652 3.30415868,7 C3.30415868,6.74105348 3.51887627,6.53089398 3.78343902,6.53089398 L9.29037015,6.53089398 C9.5549329,6.53089398 9.76965049,6.74105348 9.76965049,7 C9.76965049,7.25894652 9.5549329,7.46910602 9.29037015,7.46910602 Z M5.98621147,10.4544967 L3.78343902,10.4544967 C3.51887627,10.4544967 3.30415868,10.2443372 3.30415868,9.9853907 C3.30415868,9.72644418 3.51887627,9.51628468 3.78343902,9.51628468 L5.98621147,9.51628468 C6.25077422,9.51628468 6.46549182,9.72644418 6.46549182,9.9853907 C6.46549182,10.2443372 6.25077422,10.4544967 5.98621147,10.4544967 Z" id="形状"></path>
                    </g>
                    <rect id="矩形" x="0" y="0" width="16" height="16"></rect>
                </g>
            </g>
        </g>
    </g>
</svg>