<?xml version="1.0" encoding="UTF-8"?>
<svg width="16px" height="16px" viewBox="0 0 16 16" version="1.1" xmlns="http://www.w3.org/2000/svg" xmlns:xlink="http://www.w3.org/1999/xlink">
    <title></title>
    <g id="-界面合集" stroke="none" stroke-width="1" fill="none" fill-rule="evenodd">
        <g id="排程策略" transform="translate(-766.000000, -401.000000)" fill="currentColor" fill-rule="nonzero">
            <g id="编组-2" transform="translate(442.000000, 249.000000)">
                <g id="拖动" transform="translate(324.000000, 152.000000)">
                    <rect id="矩形" opacity="0" x="0" y="0" width="16" height="16"></rect>
                    <path d="M5.33333333,1.33333333 L6.92666667,1.33333333 L6.92666667,2.92666667 L5.33333333,2.92666667 L5.33333333,1.33333333 Z M8.95466667,1.33333333 L10.548,1.33333333 L10.548,2.92666667 L8.95466667,2.92666667 L8.95466667,1.33333333 Z M5.33333333,5.1 L6.92666667,5.1 L6.92666667,6.69333333 L5.33333333,6.69333333 L5.33333333,5.1 Z M8.95466667,5.1 L10.548,5.1 L10.548,6.69333333 L8.95466667,6.69333333 L8.95466667,5.1 Z M5.33333333,8.86533333 L6.92666667,8.86533333 L6.92666667,10.4586667 L5.33333333,10.4586667 L5.33333333,8.86533333 Z M8.95466667,8.86533333 L10.548,8.86533333 L10.548,10.4586667 L8.95466667,10.4586667 L8.95466667,8.86533333 Z M5.33333333,12.6326667 L6.92666667,12.6326667 L6.92666667,14.226 L5.33333333,14.226 L5.33333333,12.6326667 Z M8.95466667,12.6326667 L10.548,12.6326667 L10.548,14.226 L8.95466667,14.226 L8.95466667,12.6326667 Z" id="形状" fill-opacity="1"></path>
                </g>
            </g>
        </g>
    </g>
</svg>