<?xml version="1.0" encoding="UTF-8"?>
<svg width="14px" height="14px" viewBox="0 0 14 14" version="1.1" xmlns="http://www.w3.org/2000/svg" xmlns:xlink="http://www.w3.org/1999/xlink">
    <!-- Generator: Sketch 55.2 (78181) - https://sketchapp.com -->
    <title>duohangwenben</title>
    <desc>Created with Sketch.</desc>
    <g id="页面1" stroke="none" stroke-width="1" fill="none" fill-rule="evenodd">
        <g id="02-表单模板" transform="translate(-190.000000, -151.000000)" fill="#919CAE" fill-rule="nonzero">
            <g id="duohangwenben" transform="translate(190.000000, 151.000000)">
                <path d="M11.4666667,7 L8.53333333,7 C8.21333333,7 8,7.18181818 8,7.45454545 L8,7.54545455 C8,7.81818182 8.21333333,8 8.53333333,8 L11.4666667,8 C11.7866667,8 12,7.81818182 12,7.54545455 L12,7.45454545 C12,7.18181818 11.7333333,7 11.4666667,7 Z M2,4.89473684 L2.57471264,4.15789473 L4.06896552,4.15789473 L4.06896552,9.2631579 L3.03448276,9.2631579 L3.03448276,10 L5.96551724,10 L5.96551724,9.2631579 L4.98850574,9.2631579 L4.98850574,4.15789473 L6.42528736,4.15789473 L7,4.89473684 L7,3 L2,3 L2,4.89473684 Z M11.4666667,9 L8.53333333,9 C8.21333333,9 8,9.18181818 8,9.45454545 L8,9.54545455 C8,9.81818182 8.21333333,10 8.53333333,10 L11.4666667,10 C11.7866667,10 12,9.81818182 12,9.54545455 L12,9.45454545 C12,9.18181818 11.7333333,9 11.4666667,9 Z M11.4666667,4 L8.53333333,4 C8.21333333,4 8,4.18181818 8,4.45454545 L8,4.54545455 C8,4.81818182 8.21333333,5 8.53333333,5 L11.4666667,5 C11.7866667,5 12,4.81818182 12,4.54545455 L12,4.45454545 C12,4.22727272 11.7333333,4 11.4666667,4 Z M12.32,0 L1.68,0 C0.727999994,0 0,0.694656484 0,1.60305344 L0,12.3969466 C0,13.3053435 0.727999994,14 1.68,14 L12.32,14 C13.272,14 14,13.3053435 14,12.3969466 L14,1.60305344 C14,0.694656484 13.272,0 12.32,0 Z M13,12.4570136 C13,12.7828054 12.7714286,13 12.4285714,13 L1.57142857,13 C1.22857142,13 1,12.7828054 1,12.4570136 L1,1.54298644 C1,1.21719458 1.22857142,1 1.57142857,1 L12.4285714,1 C12.7714286,1 13,1.21719456 13,1.54298644 L13,12.4570136 Z" id="形状"></path>
            </g>
        </g>
    </g>
</svg>