<?xml version="1.0" encoding="UTF-8"?>
<svg width="12px" height="12px" viewBox="0 0 12 12" version="1.1" xmlns="http://www.w3.org/2000/svg" xmlns:xlink="http://www.w3.org/1999/xlink">
    <title>修改编辑</title>
    <g id="页面-1" stroke="none" stroke-width="1" fill="none" fill-rule="evenodd">
        <g id="02-高级排程" transform="translate(-942.000000, -362.000000)" fill="#326FFF">
            <g id="编组-3" transform="translate(38.000000, 232.000000)">
                <g id="描述" transform="translate(904.000000, 130.000000)">
                    <path d="M7.88707433,0 L1.14606728,6.55061814 L0,10.7341858 L4.30523969,9.62050797 L11.0463715,3.0700111 L7.88707433,0 Z M6.65402872,2.74163135 L7.88707433,1.54343331 L9.45805005,3.0700111 L8.22500444,4.26820913 L6.65402872,2.74163135 Z M2.76845631,6.51727086 L5.85986798,3.51346927 L7.43084371,5.03992579 L4.33943203,8.0439699 L2.76845631,6.51727086 Z M12,10.9086345 L12,12 L0.391414922,12 L4.38455593,10.9086345 L12,10.9086345 Z M2.07837006,7.38999945 L3.44132159,8.71467462 L2.42765603,8.97684486 L1.80845025,8.37513869 L2.07837006,7.38999945 Z"></path>
                </g>
            </g>
        </g>
    </g>
</svg>