<?xml version="1.0" encoding="UTF-8"?>
<svg width="40px" height="40px" viewBox="0 0 40 40" version="1.1" xmlns="http://www.w3.org/2000/svg" xmlns:xlink="http://www.w3.org/1999/xlink">
    <title></title>
    <defs>
        <circle id="path-1" cx="15" cy="15" r="15"></circle>
        <filter x="-30.0%" y="-20.0%" width="160.0%" height="160.0%" filterUnits="objectBoundingBox" id="filter-2">
            <feOffset dx="0" dy="3" in="SourceAlpha" result="shadowOffsetOuter1"></feOffset>
            <feGaussianBlur stdDeviation="2.5" in="shadowOffsetOuter1" result="shadowBlurOuter1"></feGaussianBlur>
            <feColorMatrix values="0 0 0 0 0   0 0 0 0 0   0 0 0 0 0  0 0 0 0.104567308 0" type="matrix" in="shadowBlurOuter1"></feColorMatrix>
        </filter>
    </defs>
    <g id="-界面合集" stroke="none" stroke-width="1" fill="none" fill-rule="evenodd">
        <g id="系统配置-编码规则备份-2" transform="translate(-602.000000, -202.000000)">
            <g id="编组-4" transform="translate(258.000000, 182.000000)">
                <g id="编组-6" transform="translate(349.000000, 22.000000)">
                    <g id="椭圆形">
                        <use fill="black" fill-opacity="1" filter="url(#filter-2)" xlink:href="#path-1"></use>
                        <use fill="#326FFF" fill-rule="evenodd" xlink:href="#path-1"></use>
                    </g>
                    <g id="bian-ji" transform="translate(5.000000, 5.000000)" fill-rule="nonzero">
                        <rect id="矩形" fill="#000000" opacity="0" x="0" y="0" width="20" height="20"></rect>
                        <path d="M15.4574199,5.36997916 L14.0284487,3.94100801 C13.7809365,3.69349582 13.3983959,3.69349582 13.1508237,3.94100801 L12.0256866,5.06620512 L14.399797,7.44031547 L15.4574199,6.24760412 C15.704992,6.00003197 15.704992,5.61755131 15.4574199,5.36997916 Z M4.39699883,12.6273187 L4.39699883,15.001429 L6.77116914,15.001429 L13.6459081,8.05909592 L11.2717977,5.68500557 L4.39699883,12.6273187 Z M9.42117244,13.8044006 C9.07430762,13.8044006 8.79313824,14.08557 8.79313824,14.4324348 C8.79313824,14.7792996 9.07430762,15.060469 9.42117244,15.060469 C9.76803727,15.060469 10.0492066,14.7792996 10.0492066,14.4324348 C10.0492066,14.08557 9.76803727,13.8044006 9.42117244,13.8044006 Z M11.9333092,13.8044006 C11.5864444,13.8044006 11.305275,14.08557 11.305275,14.4324348 C11.305275,14.7792996 11.5864444,15.060469 11.9333092,15.060469 C12.280174,15.060469 12.5613434,14.7792996 12.5613434,14.4324348 C12.5613634,14.08557 12.280174,13.8044006 11.9333092,13.8044006 Z M14.445466,13.8044006 C14.0986012,13.8044006 13.8174318,14.08557 13.8174318,14.4324348 C13.8174318,14.7792996 14.0986012,15.060469 14.445466,15.060469 C14.7923308,15.060469 15.0735002,14.7792996 15.0735002,14.4324348 C15.0735002,14.08557 14.7923308,13.8044006 14.445466,13.8044006 Z" id="形状" fill="#FFFFFF"></path>
                    </g>
                </g>
            </g>
        </g>
    </g>
</svg>