<?xml version="1.0" encoding="UTF-8"?>
<svg width="80px" height="80px" viewBox="0 0 80 80" version="1.1" xmlns="http://www.w3.org/2000/svg" xmlns:xlink="http://www.w3.org/1999/xlink">
    <title>编组 2</title>
    <defs>
        <filter id="filter-1">
            <feColorMatrix in="SourceGraphic" type="matrix" values="0 0 0 0 0.368627 0 0 0 0 0.815686 0 0 0 0 0.325490 0 0 0 1.000000 0"></feColorMatrix>
        </filter>
    </defs>
    <g id="-界面合集" stroke="none" stroke-width="1" fill="none" fill-rule="evenodd">
        <g id="切图备份" transform="translate(-287.000000, -230.000000)">
            <g id="编组-2" transform="translate(287.000000, 230.000000)">
                <g filter="url(#filter-1)" fill-opacity="0.7" id="形状结合-2">
                    <g transform="translate(-0.000000, -0.000000)">
                        <path d="M4.66569055,52.8648121 C4.97803805,53.6261591 5.1342118,54.2703759 5.62225477,55.3050269 C5.36847242,55.4612005 5.21229867,55.636896 5.36847242,55.8711566 C5.1342118,56.0273304 5.1342118,55.6954612 4.7242557,56.0273304 C4.88042945,56.261591 4.97803805,55.8516349 5.29038555,56.261591 L5.29038555,56.261591 L5.05612492,56.4177648 L5.36847242,56.8277209 C5.53447577,56.6010849 5.53447577,56.2930098 5.36847242,56.0663738 C5.56368961,55.8906784 5.32942898,55.6954612 5.56368961,55.5392874 C5.48560273,55.9297218 5.71986336,56.1835041 6.03221086,56.5739385 L6.03221086,56.5739385 L5.64177648,56.9058077 C6.34455828,56.3396779 6.91068812,57.9795022 6.91068812,58.3894583 C7.47681797,58.6627623 7.55490484,59.6193265 8.51146898,60.3416301 C8.27720836,60.4978038 8.68716445,60.5758907 8.27720836,60.9077599 C8.39107176,61.0193684 8.57330105,61.0193684 8.68716445,60.9077599 C9.87663605,62.6194586 11.1949213,64.2379474 12.6305515,65.7491459 C12.5141725,65.6644927 12.3564961,65.6644927 12.2401171,65.7491459 C12.2010737,65.9053197 12.318204,65.9053197 12.4743777,65.9053197 C12.5498685,65.8768433 12.6331476,65.8768433 12.7086384,65.9053197 L12.7086384,65.9053197 L12.8648121,65.9053197 C13.7432895,66.8228404 14.5046364,67.7013177 15.1488531,68.5017081 C15.5588091,68.579795 15.148853,68.1893606 15.5588091,68.1893606 C18.3894582,70.8247926 21.454368,71.9375305 24.636408,74.045876 C26.432406,74.0458761 28.1307955,75.5685701 30.0829673,75.4123963 C30.5514885,76.1346998 30.8833577,75.56857 31.1957052,75.9785261 C31.6056612,76.1346998 31.9960956,76.1346998 32.4060517,76.1346998 C33.2027523,76.4956222 34.0332197,76.7768041 34.8853099,76.9741338 C35.6740273,77.1082473 36.4832426,77.0547455 37.2474377,76.81796 L37.2474377,76.81796 L37.5597852,77.2083944 C38.4382626,76.5056125 39.2776964,77.6183505 39.9219131,77.0522206 L39.9219131,77.0522206 L40.2342606,77.4621766 L40.8784773,76.8960469 C43.3341303,77.072963 45.8014854,76.8017524 48.160078,76.0956564 C48.2125435,76.1470619 48.2421091,76.2174219 48.2421091,76.2908736 C48.2421091,76.3643253 48.2125435,76.4346853 48.160078,76.4860908 C48.3943387,76.6617863 48.648121,76.0956564 48.8042948,76.329917 C49.0385554,76.1737433 48.648121,76.0956564 49.0385554,75.7637872 C49.3704246,76.2518302 48.9799902,76.5641777 49.136164,76.81796 C49.0092728,76.8960469 48.9067838,76.8960469 48.806735,76.8960469 L48.727,76.898 L48.7899871,76.973843 C49.0946517,77.2751047 49.4945991,76.7421751 49.859049,76.6697789 L49.9365544,76.6617863 C50.0436111,76.727881 50.1040864,76.8488315 50.0927281,76.9741338 C50.1706252,76.9818331 50.2490917,76.9818331 50.3269887,76.9741338 L50.3269887,76.9741338 L50.3269887,76.4860908 C50.658858,76.7203514 50.8150317,76.5641777 50.9712055,76.7203514 L50.9712055,76.7203514 L51.1273792,76.7203514 L52.0058565,76.4860908 C52.1045322,76.8259876 52.1827592,77.17149 52.2401171,77.5207418 C52.318204,77.2083944 52.5524646,77.0522206 52.7086384,77.0522206 L52.7086384,77.0522206 L52.7476818,77.1888727 C52.8257687,77.3840898 52.3572474,77.579307 52.6305515,77.989263 L52.6305515,77.989263 L52.3962909,77.989263 C52.3962909,78.2235237 52.3962909,78.3796974 52.2986823,78.3796974 L52.2986823,78.3796974 L52.0644216,77.8330893 C52.0644216,78.3016105 51.3421181,78.5358712 50.6979014,78.8677404 L50.6979014,78.8677404 L50.5702302,78.9291883 C50.4456907,78.9964372 50.330928,79.0808343 50.2293802,79.1800878 C50.112083,79.0167633 50.112083,78.7968043 50.2293802,78.6334798 C49.8734,78.784892 49.4994167,78.8898698 49.1166423,78.9458273 C49.1752074,79.1996095 49.3509029,78.7896534 49.5851635,79.3557833 C49.1848311,79.5514898 48.7165842,79.5514898 48.3162518,79.3557833 C48.6285994,79.0239141 48.2186433,78.5553929 48.0624695,78.2235237 C47.9076931,78.1939791 47.7487247,78.1939791 47.5939483,78.2235237 L47.5939483,78.2235237 L47.8282089,78.2235237 C47.711021,78.511387 47.711021,78.8336593 47.8282089,79.1215227 C47.398731,79.5900439 47.2425573,79.0239141 46.4421669,79.3557833 C46.1298194,79.4338702 46.8326012,78.8677404 46.8326012,78.8677404 C46.8527434,78.7383749 46.8527434,78.6066715 46.8326012,78.477306 C46.7545144,78.6334798 46.5983406,78.6334798 46.4421669,78.6334798 L46.4421669,78.6334798 L46.3445583,78.477306 L45.9931674,78.477306 L45.9931674,79.3557833 C45.1355334,79.3344892 44.2814634,79.4735239 43.4748658,79.7657394 C43.4109765,79.6752296 43.3528954,79.6224725 43.3053744,79.5852918 L43.2258209,79.525128 C43.1631636,79.4725909 43.1554195,79.4232219 43.2406052,79.1996095 L43.2406052,79.1996095 L42.6744753,79.4338702 C42.4987799,79.0434359 42.420693,78.8872621 42.2645193,78.8872621 C42.2147291,78.8655319 42.1581358,78.8655319 42.1083455,78.8872621 C41.9902983,79.1135605 41.9902983,79.3832673 42.1083455,79.6095656 C41.6007809,79.8438263 41.112738,79.3557833 40.7223036,79.8438263 C40.624695,79.5314788 40.3904344,79.6876525 40.1561737,79.1215227 C40.3126558,79.0629613 40.4882741,79.1298635 40.5661298,79.2776964 C40.5647598,79.1089649 40.510099,78.9449825 40.4099561,78.8091752 L40.4099561,78.8091752 L40.3123475,78.8091752 C40.1041158,78.8482187 40.0347053,78.8612332 40.0115684,78.8944924 L40.005,78.908 L40.0078884,78.8872621 L40.0078884,78.8872621 L40,78.8091752 C39.9023914,78.7115666 39.6681308,78.8091752 39.6681308,78.965349 L39.6681308,78.965349 L39.6681308,79.1215227 C39.4924353,78.965349 39.3362616,78.8091753 39.3362616,78.965349 C39.3362616,79.1215227 39.1800878,79.0629575 39.3362616,79.1215227 C39.4924353,79.1800878 39.9023914,79.1800878 40.0585652,79.5900439 C39.1835573,79.5220966 38.3033631,79.5746455 37.4426549,79.7462177 C37.2864812,79.1800879 37.1303075,79.0239141 36.8960469,79.0239141 C36.808074,79.1464075 36.808074,79.3113768 36.8960469,79.4338702 C36.5446559,79.1215227 36.2127867,79.0434358 35.4904831,79.2776964 C35.4268777,79.0923637 35.3747215,78.9032975 35.3343095,78.7115666 C35.021962,78.5553929 34.6315276,78.5553929 34.2215715,78.5553929 C34.1791888,78.6619565 34.1791888,78.7806985 34.2215715,78.8872621 C32.756663,78.7840389 31.3155343,78.4615946 29.9463152,77.9306979 L29.9463152,77.9306979 L29.8487067,77.7745241 L29.5363592,77.7745241 C29.4972157,77.9017256 29.4972157,78.037757 29.5363592,78.1649585 C29.3020986,78.0868716 29.067838,77.852611 28.8140556,77.852611 L28.8140556,77.852611 L28.9702294,77.6964373 C28.6671308,77.5447642 28.3455729,77.4332033 28.0136652,77.364568 L28.1280298,77.3911659 C28.1608436,77.4504476 28.1658029,77.5125845 28.1429075,77.5727292 C28.2936312,77.5549269 28.5029489,77.4642277 28.6188384,77.748365 C28.4379903,77.6674192 28.2335568,77.6674192 28.0527087,77.748365 L28.0527087,77.748365 L28.052,77.568 L28.0835163,77.5752881 C28.0922153,77.5759529 28.1012513,77.5760431 28.110582,77.5756847 L28.111,77.388 L28.0136652,77.364568 C26.0924942,76.7920178 24.2297626,76.0407752 22.4497971,75.1209828 L21.7862372,74.7681796 C21.6300634,74.6120059 21.5519766,75.0024402 20.9858467,74.7681796 C20.8193379,74.6992794 20.7845501,74.6422004 20.8144307,74.5899888 L20.836,74.563 L20.8101513,74.533919 C20.6617863,74.2928258 19.7205954,74.3512446 20.0452831,73.7384041 L20.1073695,73.63592 C19.931674,73.4016593 19.931674,73.8116154 19.6974134,73.9677891 C19.0336749,73.4797462 18.0575891,72.7574427 17.3352855,72.2889214 C17.1791117,72.0351391 17.5109809,72.0351391 17.1791117,71.6447048 C16.0335733,71.2631977 15.050086,70.5066689 14.3875061,69.4973158 C14.3094192,69.5493737 14.2378396,69.5667263 14.168429,69.5725105 L13.9623664,69.5782948 C13.8929559,69.584079 13.8213762,69.6014316 13.7432894,69.6534895 C12.7086384,68.2869692 11.7911177,68.0527086 10.9126403,66.569058 C11.1469009,66.4128843 11.3225964,66.569058 11.556857,66.4128843 C11.7911177,66.2567106 11.2249878,66.0029283 11.2249878,66.0029283 C11.2249878,66.3347975 11.0688141,66.1786238 10.4245973,66.3347975 C9.68277203,65.534407 8.47242555,64.3826257 8.47242555,63.5822352 C7.9258175,63.2698878 8.08199125,63.0941923 7.35968766,62.6256711 C7.84773062,61.8838458 6.63738414,61.7081503 6.14934117,60.6734993 L6.14934117,60.6734993 L6.79355781,60.1073695 C6.40312352,59.795022 6.24694977,59.9511957 5.99316742,60.1073695 C5.7589068,59.6388483 5.3489507,59.2288922 5.99316742,59.0727184 C5.7589068,58.8970229 5.58321133,59.0727184 5.3489507,59.2288921 C4.35334305,57.5890678 3.94338703,56.1444607 3.06490969,54.6608102 C3.47486578,54.3484627 3.63103953,54.5046364 3.86530016,54.3484627 C4.02147391,54.5827233 3.63103961,54.8169839 3.86530016,54.8169839 C4.0995607,54.8169839 4.5095168,55.1488531 4.89995117,54.8169839 C4.51835813,54.621246 4.14696589,54.4062294 3.78721328,54.1727672 C4.02147391,53.704246 4.17764766,53.5285505 4.02147391,53.2942899 C3.89653491,53.4036115 3.82157151,53.4754514 3.77659347,53.5485407 L3.772,53.556 L3.78775661,53.4670495 C3.9053254,52.9754225 4.33863511,53.4029939 4.27684811,52.9711521 L4.25573453,52.8648121 C4.37326926,52.9670357 4.54815582,52.9670357 4.66569055,52.8648121 Z M44.0409956,78.7896535 L43.9629087,78.7896535 C44.0019521,79.3362616 44.1190824,79.5900439 44.6071254,79.3362616 L44.6071254,79.3362616 L44.6071254,79.0239141 C44.4319218,78.9165164 44.2408593,78.837456 44.0409956,78.7896535 L44.0409956,78.7896535 Z M39.1215227,77.989263 C39.5119571,77.579307 38.965349,77.4621766 38.8091752,77.579307 L38.8091752,77.579307 Z M49.5461201,77.3450463 C49.4680332,77.3450463 49.2337726,77.2669595 49.3118595,77.5012201 C49.3899463,77.7354807 49.5656418,77.7354807 49.7218155,77.7354807 C49.9365545,77.6573938 49.624207,77.3450463 49.5461201,77.3450463 Z M48.4919473,76.9741338 C48.3357736,76.4080039 48.0819912,76.9741338 47.9258175,76.7203514 L47.9258175,76.7203514 L47.9258175,77.1303075 C48.0819912,77.2864813 48.4138604,76.7398731 48.3162518,77.1303075 C48.160078,77.1303074 48.160078,77.3060029 48.160078,77.4621766 L48.160078,77.4621766 L48.5700341,77.3060029 C48.5708201,77.1549644 48.6263016,77.0093253 48.7262079,76.8960469 L48.725,76.898 L48.7066862,76.898939 C48.6730654,76.9018311 48.6389024,76.9076153 48.6033837,76.9191837 Z M54.5241581,75.5295266 C55.090288,75.2952659 54.8365056,76.329917 55.2464617,75.7637872 C55.090288,76.1737433 54.5241581,76.329917 54.7584188,76.8960469 C54.5241581,77.0522206 54.2898975,76.7203514 54.2898975,76.4860908 C54.6069462,76.2781433 54.7092397,75.8604447 54.5241581,75.5295266 Z M52.591508,75.9004392 C52.7672035,75.8223523 52.8257687,76.056613 52.9233773,76.2127867 L52.9233773,76.2127867 L52.7339581,76.2861721 C52.5918824,76.6424072 52.6038968,76.6469841 53.0014641,76.7984383 C52.3572474,76.7984383 52.1229868,76.4860908 52.1229868,76.4860908 C52.3230766,76.3878093 52.5323058,76.3093484 52.7476818,76.2518302 L52.5597522,76.3084173 C52.5617252,76.205959 52.8743106,76.1666063 52.591508,75.9004392 Z M50.9126403,76.1542216 C51.1654183,75.9784009 51.509916,76.0204128 51.7130308,76.2518302 C51.7130308,76.6422645 51.3225964,76.6422645 50.9126403,76.1542216 Z M29.0483162,75.7247438 C28.8921425,75.4904831 28.6383602,75.6466569 28.2479258,76.0370913 L28.2479258,76.0370913 L28.2284041,76.0175695 C28.4040995,76.2713519 28.7945339,76.2713519 29.0483162,75.7247438 Z M54.2035781,75.3343095 C54.2035781,75.7247438 54.3864565,75.9785261 54.0892791,76.1346998 C53.9265438,75.873915 53.9722215,75.5540523 54.2035781,75.3343095 Z M54.7974622,74.807223 C54.9536359,74.6510493 55.5978527,75.295266 54.9536359,75.4514398 C54.7974622,75.1976574 55.0317228,75.0414837 54.7974622,74.807223 Z M54.454,74.454 L54.4915699,74.4845392 C54.8443143,74.7892631 54.6256711,74.9386693 54.4070278,75.1390923 L54.4070278,75.1390923 L54.0946803,74.7291362 L54.454,74.454 Z M59.6193265,72.6012689 C60.2635432,72.3670083 60.0292826,72.6012689 60.2635432,72.6012689 L60.2635432,72.6012689 L60.3416301,72.6793558 C60.169009,72.9182306 60.169009,73.2408714 60.3416301,73.4797463 L60.3416301,73.4797463 L59.7755002,73.7140068 C59.6193265,73.2454856 60.0878477,73.011225 59.6193265,72.6012689 Z M69.5949244,33.5187897 C69.965083,35.6843481 70.1025169,37.8832913 70.0048804,40.0780869 C69.9980268,40.1102622 69.9980268,40.1435202 70.0048804,40.1756955 C70.0956327,40.2497733 70.2137406,40.2814878 70.3293933,40.2628341 L70.28,40.265 L70.2781845,40.2396182 C70.3792534,40.1101868 70.4948574,40.0924387 70.5810997,40.1140972 L70.6100537,40.0780869 L70.6655509,40.1528032 C70.694472,40.1738135 70.7114185,40.1977705 70.7106291,40.215188 L71.0200098,40.6442167 C70.9061464,40.7558252 70.7239171,40.7558252 70.6100537,40.6442167 C70.375793,40.8199121 70.7076623,41.2103465 70.9419229,41.0541727 C70.6881405,41.6203026 71.000488,42.3816496 70.2977062,43.3382138 C70.0439239,43.0844314 69.8877502,43.0063445 69.7315764,42.8501708 L69.7315764,42.8501708 L69.7315764,43.806735 C70.1220108,45.4465593 69.965837,45.7589068 69.3216203,45.7589068 L69.3216203,45.7589068 L69.2825769,45.7589068 C70.0829673,46.0712543 69.6730112,46.7935578 70.0829673,47.3206442 L70.0829673,47.3206442 L69.5168375,47.5549048 C69.9267936,48.3162519 69.1068814,48.6285994 69.5168375,49.6827721 C68.6383602,50.6393363 68.6383602,52.1229869 67.8379698,53.079551 L67.8379698,53.079551 L68.0722304,53.6456808 C67.193753,53.7237677 67.6622743,54.9926794 66.9399707,54.6803319 C66.8610763,54.9012672 66.9740668,55.1446314 67.193753,55.22694 C66.3933626,55.2855051 66.6276232,56.0858955 66.3933626,56.1835041 L66.3933626,56.1835041 L66.1395803,55.6173743 C66.2957541,55.9297218 66.2371889,56.4958516 65.5929722,56.4958516 C65.5148853,56.6910688 65.6124939,56.6715471 65.7296242,56.6325037 L65.8311599,56.5988102 C65.9136861,56.5743369 65.9834066,56.5683609 65.9834066,56.6520254 C65.3292247,57.9816017 64.5164079,59.2270468 63.5627135,60.3611518 C63.1527574,60.4587604 63.1527574,60.204978 63.1527574,60.204978 C63.0746705,60.8101513 62.2352367,61.454368 61.6691069,61.6886286 C60.4119297,63.2276017 58.9078007,64.5470131 57.2181552,65.5929722 C56.8277209,65.6710591 56.8277209,65.4367984 56.8277209,65.4367984 C56.8277209,66.0614934 55.6368961,66.2371888 55.22694,66.7057101 C53.5285505,67.3108834 52.3572474,68.1112738 51.3225964,68.5212298 C50.6421579,68.5045733 49.969186,68.6660865 49.3704246,68.9897511 L49.3704246,68.9897511 L49.272816,68.7554905 C49.1166423,68.7554905 48.9604685,68.579795 48.9604685,68.7554905 C48.9604685,68.9311859 48.9604685,69.0092728 48.8042948,69.0873597 C48.648121,69.1654466 48.4724255,69.0873597 48.3162518,68.9311859 C47.8477306,69.0873597 47.4572962,69.1654466 47.0473402,69.3216203 C45.2318204,69.8877501 43.0063445,69.7315763 41.1908248,70.2000976 C41.1322597,69.965837 40.9565642,70.3562714 40.7223036,69.8096633 C40.4685212,69.8682284 40.8784773,70.0439238 40.3123475,70.2781845 C39.8974314,70.1614485 39.4583518,70.1614485 39.0434358,70.2781845 C38.874851,70.0619833 38.8669337,69.7611279 39.0239141,69.5363592 C38.8756133,69.5502142 38.733888,69.6042048 38.613958,69.692533 C38.6095235,69.6366813 38.5813056,69.5854272 38.5364836,69.5518107 C38.4916617,69.5181942 38.4345567,69.5054562 38.3796974,69.5168375 L38.3796974,69.5168375 L38.3796974,69.6730113 C38.1259151,69.6730113 38.0478282,69.4387506 37.4816984,69.6730113 C37.2474377,69.4387506 37.091264,69.5168375 37.2474377,69.1849683 C37.0912641,69.341142 36.9350903,69.7510981 36.7789166,69.7510981 C36.6406377,69.5802831 36.4345751,69.5653707 36.2186274,69.5778542 L35.9584508,69.59776 C35.7438588,69.6115992 35.542541,69.6014316 35.4123962,69.4387506 C35.1341225,69.3257717 34.8662986,69.1885936 34.6120059,69.0287945 C34.4558321,69.0287945 34.4558321,68.9507077 34.4558321,69.0287945 C34.4558321,69.1068814 34.4558321,69.2630552 34.2996584,69.2630552 C34.2215715,68.9507077 33.9677891,69.1068814 33.7335285,68.5407516 L33.7335285,68.5407516 L33.1673987,68.7945339 C33.2454855,69.0287945 33.421181,68.6383602 33.6554416,69.1849683 C33.2454855,69.0287945 32.523182,68.6774036 32.3279648,68.7945339 C32.1327477,68.9116642 31.9180087,68.9507077 31.761835,68.7945339 C31.6525134,68.6852123 31.619717,68.4993655 31.609878,68.451264 L31.606,68.441 L31.6058175,68.4487652 L31.6056613,68.4821864 C31.6056613,68.6383602 31.4494876,68.6383602 31.4494876,68.6383602 C31.3714007,68.3845778 31.215227,68.7945339 30.9809663,68.2284041 L30.9809663,68.2284041 L30.1805759,67.9941435 C30.0634455,68.0527087 30.0634455,68.1503173 30.0634455,68.1503173 C29.9806597,68.0980191 29.8873276,68.0646863 29.7901416,68.0527087 L29.7901416,68.0527087 L29.7901416,68.3064909 C29.9463152,68.3064909 29.9463152,68.2284041 29.9463152,68.3064909 L29.9463152,68.3064909 L29.9463152,68.579795 L30.0634455,68.579795 C30.0810795,68.6396227 30.0718296,68.7041615 30.0381013,68.7566278 C30.0043729,68.8090941 29.9494992,68.8443033 29.8877502,68.8530991 L29.8877502,68.8530991 L29.8877502,68.7359688 L29.4192289,68.9311859 C29.341142,68.5407516 29.7315764,68.7945339 29.5754027,68.5407516 C29.4192289,68.2869692 29.0092728,68.5407516 29.0092728,68.7750122 C28.8843338,68.8374817 28.859346,68.6500732 28.8543485,68.4426744 L28.853,68.396 L28.8501183,68.4175261 C28.8351407,68.4804093 28.8008457,68.5377584 28.7513438,68.5808384 L28.6969253,68.6188384 C28.3455344,68.2284041 27.4475354,68.2869692 26.7447535,67.3304051 C26.9372575,67.2454523 27.1204388,67.1407773 27.2913616,67.0180576 C26.8618838,66.783797 26.3738409,66.5300147 25.9053197,66.2176672 C25.8272328,66.2697251 25.7556532,66.2870777 25.6862426,66.2928619 L25.48018,66.2986461 C25.4107695,66.3044303 25.3391898,66.3217829 25.261103,66.3738409 C24.2850171,65.3001464 23.2308444,65.5734505 22.3328453,64.0897999 L22.3328453,64.0897999 L22.3504289,64.0034518 C22.4045455,63.5577728 21.7244184,63.8240876 22.3328453,63.2894095 C22.1766716,63.0551488 22.0985847,63.4651049 21.7667155,63.0551488 C21.5324548,63.2113226 21.9228892,63.2894095 21.5324548,63.6212787 C20.8491947,63.1722791 19.7169351,62.2938019 19.8145437,61.4934114 C19.4045876,61.1810639 19.2484138,61.3372377 19.0141532,61.4934114 C18.6041971,61.0834553 19.4826744,61.0834553 19.2484138,60.9272816 C19.0141533,60.7711078 18.8384578,60.9272816 18.6041972,61.0834553 C18.2528062,60.7320644 16.9643728,59.931674 17.1986334,59.3655441 C17.0424598,59.5412397 16.6520254,59.1312836 16.4958516,58.897023 L16.4958516,58.897023 L16.7301123,58.7408492 C16.670501,58.6442106 16.6567337,58.528069 16.6888102,58.4224219 C16.5654687,58.4495431 16.4895215,58.6886142 16.3591996,58.8189361 L16.3591996,58.8189361 L15.636896,57.9404587 C15.8711566,57.7061981 16.2811127,58.0966324 16.4372865,57.9404587 C16.5934602,57.7842851 16.2030259,57.2962421 16.4372865,57.1400684 L16.4372865,57.1400684 L17.1595901,58.0185456 C16.9547443,58.0358961 16.7754026,58.1629298 16.6910688,58.3504148 L16.6910688,58.3504148 L16.711,58.37 L16.7301123,58.3308931 L16.886286,58.5651538 L16.7301123,58.7213275 C16.886286,58.7994144 16.886286,58.9555881 16.886286,58.9555881 C16.8847278,58.7486891 16.9696486,58.5505406 17.1205466,58.40898 C17.3977476,58.7901629 17.7188064,59.1374306 18.0771108,59.443631 L18.0771108,59.443631 L17.920937,58.9555881 L69.0483162,38.1454368 C68.978359,36.8378476 68.841528,35.5346953 68.6383602,34.2410932 C69.2630552,34.2410933 69.0287945,33.772572 69.5949244,33.5187897 Z M65.7881894,68.8921425 C65.867869,69.1764716 65.7375829,69.4777584 65.4758419,69.6144461 L65.4758419,69.6144461 L65.4758419,69.3801855 L64.909712,69.6144461 C64.7535383,69.3801855 64.7535383,69.3801855 64.909712,68.9702294 L64.909712,68.9702294 L64.909712,68.8921425 Z M66.295754,68.5602733 C66.5037257,68.5808573 66.6586105,68.7615562 66.6471449,68.9702294 C66.3909224,69.2142509 66.3558443,69.0541118 66.3274387,68.8615636 L66.3094803,68.7451196 C66.2957541,68.6688628 66.2762323,68.5993167 66.2371889,68.5602733 L66.2371889,68.5602733 Z M68.8530991,39.7657394 L18.7994144,60.068326 C19.216102,60.4272905 19.5663322,60.8568181 19.8340654,61.3372377 C20.464502,61.4199179 21.0402238,61.9184309 21.6104742,62.4533133 L21.9903709,62.8111254 C22.3705377,63.1659971 22.7531364,63.499555 23.1527574,63.6993655 C23.387018,63.9531479 23.387018,63.9531479 23.1527574,64.1093216 C23.6603221,63.9531478 24.2264519,64.6559297 24.6168862,64.6559297 C27.0571402,66.3585505 29.8213687,67.5413213 32.7379209,68.1307955 C32.6598341,68.2869692 32.3474866,68.2869692 32.5036603,68.2869692 L32.9917033,68.2869692 C33.0848375,68.1422887 33.1892796,68.0052084 33.3040508,67.8770132 C34.0653977,68.3455344 34.8657881,68.0331869 35.4123962,68.6774036 C35.6855671,68.4360199 36.0957896,68.4360199 36.3689605,68.6774036 L36.3689605,68.6774036 L37.0912641,68.6774036 L37.0912641,68.5212298 C37.9584312,68.6960563 38.8474384,68.7355678 39.7266959,68.6383602 L39.7266959,68.6383602 L40.3513909,68.6383602 C40.4770979,68.5902949 40.6161184,68.5902949 40.7418253,68.6383602 L40.7418253,68.6383602 L40.897999,68.6383602 C40.897999,68.4821864 40.897999,68.4821864 40.9956076,68.4821864 C41.5617374,68.4821864 42.069302,68.2479258 42.9477794,68.2479258 C42.9934602,68.3049812 42.9934602,68.3860876 42.9477794,68.443143 L42.9477794,68.443143 L43.1039531,68.443143 C43.2796486,68.3650562 42.8696925,68.2088824 42.8696925,67.9746218 C43.5139092,67.9746217 43.9824304,67.7989263 44.4704734,68.2088823 C44.7047341,68.0527087 44.2362128,67.8770132 44.2362128,67.6427526 C44.8062342,67.7201566 45.3841026,67.7201566 45.954124,67.6427526 C45.9836686,67.797529 45.9836686,67.9564974 45.954124,68.1112738 L45.954124,68.1112738 L46.1102977,68.1112738 C46.1360724,67.8666725 46.2465643,67.6387827 46.4226452,67.4670571 C46.7935579,67.6427526 47.2620791,67.4670571 47.8282089,67.2327965 L47.8282089,67.2327965 L47.9843827,67.6427526 L48.2186432,67.6427526 C49.0824903,67.0436077 50.0483416,66.60699 51.0688141,66.3543192 L51.0688141,66.3543192 L51.4058011,66.2684443 C53.1639874,65.7590757 54.3128642,64.4664543 55.6173743,64.2459737 C55.773548,63.9141045 56.1054173,63.113714 56.3396779,63.6798438 C56.6715471,62.9575403 57.5695461,62.5475842 58.0575891,62.079063 C58.545632,61.6105417 58.3113714,62.4890191 58.545632,62.4890191 C58.4285017,61.9814544 59.4241093,60.9272816 59.8145437,61.0834553 C60.068326,60.9272816 59.580283,60.7711079 59.580283,60.5368473 C61.0248902,59.65837 61.7862372,57.8428502 62.977062,57.0424598 C63.2503661,56.3787213 63.5041484,55.4221572 64.3826257,55.3245486 L64.3826257,55.3245486 L64.3826257,55.090288 C66.018407,52.5988137 67.2504378,49.8646276 68.033187,46.988775 C68.2133874,46.9136915 68.6361654,46.7577487 68.8216973,46.7964012 L68.855,46.809 C68.9086264,46.438254 68.4944871,45.8905076 68.2166014,45.209581 L68.1503172,45.0366032 C68.5605075,43.3076185 68.7959504,41.5417963 68.8530991,39.7657394 L68.8530991,39.7657394 Z M68.5993167,66.3738409 L68.8335773,67.0961445 C68.5458634,67.1578633 68.2518581,67.0227797 68.1112738,66.7642752 L68.1112738,66.7642752 L68.5993167,66.3738409 Z M10.6783797,64.6754514 C10.7174231,64.2654953 9.95607609,64.5973645 10.2879453,65.0073206 C10.3178122,64.8179494 10.4870712,64.6825422 10.6783797,64.6949731 L10.6783797,64.6949731 Z M70.8052709,64.1678868 C70.9809663,63.7774524 70.9809663,64.4021473 71.0785749,64.7340166 L71.0785749,64.7340166 L70.5124451,64.9877989 L70.2781845,64.4216691 L70.7662274,64.1483651 Z M70.7662274,62.703758 C71.2737921,62.4694973 71.1566618,62.8599316 71.488531,63.0161054 C71.3323573,63.3284529 71.4104441,63.738409 71.1761835,63.738409 L71.1761835,63.738409 Z M72.4646169,60.3611518 L72.6988775,60.9077599 C72.2303563,61.3958029 72.2303563,61.1615423 72.2303563,60.5173255 L72.2303563,60.5173255 L72.4646169,60.3611518 Z M18.40898,60.204978 C18.2486265,60.166061 18.0812906,60.166061 17.920937,60.204978 L17.920937,60.204978 L17.8428502,60.3611518 C18.2332845,60.4392387 18.40898,61.0053685 18.7994144,60.5954124 L18.7994144,60.5954124 L18.5651537,60.3611518 L18.40898,60.3611518 Z M13.430942,53.0014641 C13.6959423,53.5119699 13.989224,54.0072901 14.3094192,54.4851147 L14.3094192,54.4851147 L14.318,54.551 L14.3288054,54.5518478 L14.3288054,54.5518478 L14.366,54.525 L14.327,54.59 L14.3573983,54.6785106 C14.5226783,55.062912 15.0546736,55.5970985 14.9875286,56.0443408 L14.9536359,56.1639824 C15.6759395,56.0078087 15.5197657,56.8081991 15.6759395,57.0424598 C15.6257408,57.0926584 15.5898846,57.0950488 15.5588092,57.0860563 L15.5145865,57.0685835 C15.4572166,57.0460453 15.3998467,57.0508261 15.2659834,57.3743289 L15.2659834,57.3743289 L14.8950708,56.9643729 L15.3050269,56.6520254 C14.9926794,56.1639824 14.7584188,56.3201562 14.3484627,56.3201562 C13.8994631,55.2464617 13.5090288,54.8365056 12.8648121,53.567594 L12.8648121,53.567594 Z M64.909712,57.1791118 C64.8316252,56.9253295 64.8316252,56.3006345 64.4216691,56.7691557 C64.5973645,57.0424598 64.9877988,57.4328941 64.909712,57.1791118 Z M13.6652025,54.0556369 L13.3138116,54.2118106 L13.3918985,54.2118106 C13.3138116,54.5241581 14.0751586,55.090288 14.3679844,54.5241581 L14.327,54.59 L14.3221396,54.5775654 L14.3221396,54.5775654 L14.318,54.551 L14.288813,54.5504582 C14.1668022,54.5077545 14.0228295,54.1411122 13.7580662,54.0682108 L13.6652025,54.0556369 Z M66.7252318,54.0556369 C66.3933627,54.2898975 66.5690581,54.4460713 66.159102,54.2898975 C66.2371888,54.5241581 66.783797,54.2898975 66.9594924,54.6217667 L66.9594924,54.6217667 Z M1.9521718,40.1756955 C1.9521718,40.1756955 2.02334473,40.2367008 2.09508253,40.2951643 L2.127,40.321 L2.1020986,40.322655 C1.97091265,40.3641972 1.81102977,40.6180967 1.68940946,40.5553734 L1.6398243,40.5075647 C1.56173742,40.8979991 1.9521718,40.8979991 2.20595414,40.7418253 C2.22577057,44.3183765 2.8869643,47.8623748 4.15812594,51.2054661 L4.15812594,51.2054661 L3.74816984,51.6154222 C3.90434359,51.8496827 4.00195219,51.4592484 4.31429969,51.8496827 C4.08003906,52.0058565 4.08003906,52.0058565 4.31429969,52.4158126 C4.1729759,52.494247 3.99515789,52.4519094 3.90434359,52.318204 L3.90434359,52.318204 L4.17764766,52.7476818 C3.96290875,52.7476818 3.68960469,52.7476818 3.68960469,52.6110298 C3.69673421,52.824678 3.6113526,53.0310168 3.45534406,53.1771596 L3.45534406,53.1771596 L3.761,53.579 L3.74816984,53.6041971 C3.71693509,53.6803318 3.71068814,53.7673987 3.70943875,53.9041288 L3.70912641,54.0165934 C3.67206215,53.9990123 3.62906035,53.9990123 3.59199609,54.0165934 C3.43582234,54.1727672 3.43582234,54.1727672 3.59199609,54.4070278 C2.65495367,53.704246 2.81112742,52.532943 2.10834555,51.6544656 L2.10834555,51.6544656 L2.49877992,51.3421181 C2.59638852,50.932162 2.10834555,51.2445095 1.9521718,51.0883358 C1.17130312,48.4138604 0.839433906,45.8174719 0.370912656,42.9477794 L0.370912656,42.9477794 L0.448999531,42.6549537 L0.644216719,42.6549537 C-3.14770432e-12,42.1669107 0.3123475,41.7764763 -3.14770432e-12,41.3665202 C0.540308939,40.8118293 1.21171343,40.4022726 1.9521718,40.1756955 Z M67.2718399,53.2552465 C66.9594924,53.3333333 67.193753,53.97755 66.9594924,53.97755 L66.9594924,53.97755 L67.5256223,53.8213763 Z M12.7281601,52.918445 C12.9624207,52.7880102 13.216203,52.918445 13.3723768,52.918445 L13.3723768,52.918445 L13.383,52.919 L13.336237,52.9439522 C13.1712713,53.0425029 12.9930018,53.2569957 12.7898603,53.0077203 Z M11.2054661,46.6178623 C11.7715959,47.2620791 11.8496828,47.9062957 11.4397267,48.2186432 C11.283553,47.9843827 11.6154222,47.9843827 11.283553,47.5744266 C11.1273792,47.7306002 11.1273792,48.1210345 11.283553,48.374817 C11.4036866,48.5700342 11.5815768,48.2800963 11.6572824,48.1358826 L11.689164,48.0718883 L11.689164,48.0718883 C12.0058565,48.9019034 12.7281601,49.7803806 12.2401171,50.5026842 C13.0405076,50.5612495 12.7281601,51.1273792 13.2942899,51.7715959 L13.2942899,51.7715959 L12.3962909,52.4938995 C11.7520741,52.2596388 12.2401171,51.8496827 11.8496827,51.8496827 L11.8496827,51.8496827 L11.830161,51.7715959 C12.2205954,51.8692045 12.0644216,51.6154222 12.5329429,51.3421181 C12.454856,50.7174231 11.0297705,50.2293802 11.7325524,50.0732064 C11.420205,50.0732065 10.7759883,49.5070766 11.1859444,49.1947291 C11.0747875,49.2941509 10.9066669,49.2941509 10.79551,49.1947291 C11.0136695,48.5529786 10.7427498,47.8469453 10.1512933,47.5158614 L10.1512933,47.5158614 L10.5612494,47.1839922 C10.7174231,47.0278184 10.7174231,47.0278184 10.5612494,46.7740361 C10.7852788,46.7733389 11.005988,46.7198336 11.2054661,46.6178623 Z M2.40117133,49.5265984 C2.1669107,49.682772 2.01073695,49.8389458 2.1669107,50.0732064 C2.53782328,49.760859 2.53782328,50.1512934 2.73304047,49.9170327 L2.73304047,49.9170327 Z M77.9502196,48.3357735 C78.1063934,48.5700341 77.4621766,48.5700341 77.9502196,48.9799902 C77.3840898,48.9799902 77.9502196,49.624207 77.3840898,49.8584676 C77.227916,49.624207 77.3840898,49.4485115 77.3840898,49.2142509 C77.2934761,49.0170736 77.1230292,48.8679326 76.9155686,48.8042948 C77.3840898,48.5700341 77.5207418,48.3357735 77.9502196,48.3357735 Z M76.7593948,48.7652513 C76.7593948,48.7652513 77.306003,49.1752074 76.7593948,49.409468 C76.4470473,48.7652513 76.7593948,48.7652513 76.7593948,48.7652513 Z M10.9712055,47.2425573 C10.8931186,47.0863836 10.6393362,47.2425573 10.6393362,47.2425573 L10.6393362,47.2425573 L10.8931186,47.5744266 L10.9712055,47.6525134 C11.1664227,47.5353831 11.0492923,47.3987311 10.9712055,47.2425573 Z M77.5402635,46.7349927 C77.8476731,46.6099876 78.1991713,46.7471576 78.340654,47.0473402 L78.340654,47.0473402 L77.7745241,47.3011225 C77.6799206,47.1196782 77.6015291,46.930232 77.5402635,46.7349927 Z M31.0395315,28.0136652 L31.6056613,29.6534895 L10.4245973,38.1649585 L10.170815,38.2625671 L10.170815,39.7266959 C10.2044372,39.8079492 10.2044372,39.899225 10.170815,39.9804783 C10.1825299,40.0318771 10.1825299,40.0852532 10.170815,40.136652 C10.3269888,40.136652 10.1512933,39.9804784 10.3269888,40.136652 C10.5026842,40.2928257 10.3269888,40.5270863 10.658858,40.9370424 C10.658858,41.3469985 10.2684236,41.2689116 10.4245973,41.5031723 C10.3438152,41.5390872 10.2515971,41.5390872 10.170815,41.5031723 C10.2115576,41.6367875 10.2115576,41.7795132 10.170815,41.9131284 C10.0146413,42.0693021 9.91703273,41.9131284 9.76085898,41.9131284 C9.77929747,41.9768946 9.77929747,42.0445793 9.76085898,42.1083455 C9.94028733,42.2960083 10.1848021,42.4077865 10.4441191,42.420693 C10.3319853,42.8324381 10.4186391,43.2729284 10.6783797,43.6115178 C10.4441191,43.8457784 10.2879454,43.6115178 9.8779893,43.6115178 L9.8779893,43.6115178 L9.8779893,43.8457784 L9.89751102,43.8457784 L10.0536847,44.1776477 L10.2098584,44.1776477 C10.0536847,44.568082 10.4441191,45.0561249 10.0536847,45.3684724 C10.6002928,45.7003416 11.0102489,45.2903855 11.0102489,45.7003416 L11.0102489,45.7003416 L10.6002928,46.0126891 L10.2684236,45.6222548 C9.62420695,45.7784285 10.1903368,46.0126891 9.8779893,46.3250366 C9.54612008,45.9346023 9.72181555,45.7003416 9.38994633,45.2903855 C9.95607617,45.2122987 9.79990242,44.978038 9.79990242,44.978038 L9.79990242,44.978038 L9.79990242,44.8804295 C9.70229383,45.0366032 9.64372867,45.1342118 9.54612008,45.1342118 C9.61469254,45.0087323 9.64839703,44.8671735 9.64372867,44.7242557 C9.38994633,44.3142997 9.72181555,43.9238653 9.48755492,43.5919961 L9.48755492,43.5919961 L8.99951195,43.7481698 C8.63071479,41.8191442 8.52563852,39.848964 8.68716445,37.8916545 C8.90782746,37.8309366 9.12325867,37.752598 9.33138117,37.6573938 L9.33138117,37.6573938 L9.07759883,37.0912641 L9.48755492,36.7789166 C9.41342641,36.8140788 9.32742281,36.8140788 9.2532943,36.7789166 C9.38924644,36.6909955 9.45246308,36.5250519 9.40946805,36.3689605 L9.40946805,36.3689605 L10.2098584,36.056613 C10.2391457,36.1851101 10.2391457,36.3185502 10.2098584,36.4470473 L10.2098584,36.4470473 L10.3660322,36.4470473 L31.0395315,28.0136652 Z M10.1317716,42.8501708 L10.0536847,42.9477794 C9.95607609,42.9477794 9.76085898,42.9477794 9.72181555,43.0844314 C9.60657821,43.1427194 9.54312981,43.2696162 9.5656418,43.3967789 C9.79990234,43.318692 10.1317716,43.4943875 10.1317716,42.8501708 L10.1317716,42.8501708 Z M9.48755492,41.9716935 L9.23377258,41.9716935 L9.1556857,42.0888238 C9.09712055,42.3230844 9.2532943,42.557345 9.40946805,42.8111273 C9.39038505,42.6935523 9.33590452,42.5845913 9.2532943,42.4987799 C9.60468523,42.5378234 9.60468523,42.5573451 9.60468523,42.284041 L9.60468523,42.284041 L9.48755492,42.284041 C9.33138117,42.1278673 9.48755492,42.1278673 9.48755492,41.9716935 L9.48755492,41.9716935 Z M1.28843336,39.6095656 C1.35724165,39.8980193 1.2202479,40.1961822 0.956564141,40.3318692 C0.566129766,40.1756955 0.722303516,39.7657394 1.28843336,39.6095656 Z M78.626,39.421 L78.6725232,39.4533919 L79.0629575,39.7462177 L78.6920449,39.7462177 C78.6042608,39.8483359 78.4752775,39.9056618 78.340654,39.9023914 C78.340654,39.9023914 78.0087848,39.6681308 78.340654,39.7462177 C78.6725232,39.8243045 78.3992191,39.4143484 78.6725232,39.4143484 L78.626,39.421 Z M79.5510005,38.8872621 C79.5121999,39.0899899 79.5699214,39.2992305 79.7071742,39.4533919 L79.7071742,39.4533919 L79.7657394,39.4533919 C79.6876525,39.6095656 79.5510005,39.7657393 79.5510005,39.6095656 C79.5510005,39.5735255 79.5291685,39.5322874 79.500619,39.4863309 L79.495,39.479 L79.5314788,39.4143484 L79.5314788,39.4143484 L79.478,39.451 L79.4703901,39.4388195 C79.3867941,39.3080231 79.2912559,39.144812 79.4703901,38.9582849 Z M74.7486579,21.4934114 L75.0805271,21.9033675 C75.2367008,21.727672 75.6271352,21.727672 75.8809175,21.5714983 C76.1513049,22.3924129 76.5535049,23.1638456 77.0717423,23.8555393 C76.9155686,24.011713 77.0717423,24.1678868 76.681308,24.1678868 L76.681308,24.1678868 L76.9936555,24.6559297 C76.5251342,24.9682772 76.5251342,24.9682772 76.5251342,25.3782333 C76.6813079,25.2025378 76.9155685,25.3782333 77.3255246,25.0463641 C77.6378721,25.534407 77.4036115,26.0810152 77.9697413,26.3347975 C77.715959,26.4909712 77.8916545,26.7252318 77.4816984,27.0375793 C77.4292329,26.9861738 77.3996673,26.9158138 77.3996673,26.8423621 C77.3996673,26.7689104 77.4292329,26.6985504 77.4816984,26.6471449 L77.4816984,26.6471449 L77.3060029,26.6471449 C76.9148145,26.8476167 76.7445228,27.3159189 76.9155686,27.7208395 C77.0987538,27.5804274 77.3326366,27.5237286 77.5597852,27.5646657 C77.715959,27.7989262 77.4036115,27.7989262 77.715959,28.2088823 C78.0478282,28.0527087 77.6378721,27.5841874 78.0478282,27.2523182 C78.2347383,28.1114612 78.5576597,28.9352404 79.0043923,29.692533 C78.5163495,30.0048804 78.3601757,30.1610541 78.5163495,30.4148365 C78.64539,30.4179272 78.7683505,30.3600634 78.8482187,30.2586627 C78.8356627,30.2879008 78.8243358,30.3174281 78.8142232,30.3471791 L78.815985,30.5643728 C78.7981533,30.5231722 78.7886296,30.4816731 78.7874138,30.4401537 C78.6769273,30.8746516 78.8162818,31.3416011 79.1605661,31.6447048 C78.6725232,32.0546609 78.5163495,32.2889215 78.3601757,31.6447048 C78.1259151,31.8008784 78.3601757,32.0546608 78.1259151,32.2108345 C78.9263055,32.3670083 78.4382625,33.4797462 79.238653,33.1673987 C79.5022308,34.62909 79.6134492,36.1141833 79.5705222,37.5988287 L79.5705222,37.5988287 L79.1605661,37.9306979 C79.3948267,38.0868716 79.5705222,37.9306979 79.8047828,37.7745241 C79.7135522,38.0321631 79.6609249,38.3018777 79.6486091,38.5749146 C79.3167399,38.2430454 78.8482187,39.0434359 78.5163495,39.0434359 C78.5163495,38.965349 78.3601757,38.7310884 78.5163495,38.6334798 C78.3601757,38.3992191 78.2625671,38.8091752 77.9502196,38.3992191 C78.5944363,38.2430454 77.8721327,37.7745241 78.2625671,37.4426549 C77.7940459,36.329917 77.306003,35.3147877 78.3601757,34.8462665 C78.3601757,34.4558321 78.1259151,34.2020498 78.3601757,34.045876 C78.204002,33.8897023 77.9697413,34.045876 77.5597852,34.045876 C77.1498292,33.2454855 77.4816984,32.6403123 77.1498292,31.8399219 C77.5402635,31.4299659 77.715959,31.6837482 77.9502196,31.5275745 C77.7471048,31.2961571 77.4026072,31.2541452 77.1498292,31.4299659 C76.8346023,30.8240377 76.6484795,30.1593134 76.6032211,29.4777941 L76.6032211,29.4777941 L77.0717423,29.4777941 L77.0717423,29.0873597 C77.1970888,29.1373386 77.3368302,29.1373386 77.4621766,29.0873597 L77.4621766,29.0873597 L77.3060029,28.8530991 C77.1888727,28.6188384 77.1303075,28.7359687 77.0326989,28.8530991 C76.8992582,28.7066152 76.7557498,28.5696299 76.6032211,28.443143 C77.1693509,28.2869693 76.193265,27.9746218 76.6032211,27.6427526 L76.6032211,27.6427526 L76.3689605,27.7989263 C75.8983938,26.086965 75.2438557,24.4309838 74.4167887,22.8599316 L74.4167887,22.8599316 L74.8267448,22.5280625 C74.670571,22.2938019 74.4363104,22.4499756 74.1044412,22.0400195 L74.1044412,22.0400195 L74.7486579,21.4934114 Z M0.644216719,36.7008297 C0.78086875,36.8960469 1.17130305,37.0912641 1.13225961,37.1693509 C0.722303516,37.4036116 1.28843336,38.0478282 1.13225961,38.4577843 L1.13225961,38.4577843 L1.19082477,38.4577843 C1.05110811,38.5069457 0.897422275,38.4973037 0.764945613,38.4310653 C0.632468951,38.364827 0.532543857,38.2476635 0.488042969,38.1063934 C0.722303516,38.0087848 0.819912109,38.2625671 0.976085859,38.2625671 C1.13225969,37.852611 0.878477344,37.364568 0.644216719,37.4621766 C0.672102632,37.2091604 0.672102632,36.953846 0.644216719,36.7008297 Z M1.573,37.089 L1.57646305,37.1450624 C1.60884769,37.3384315 1.81019566,37.6378721 1.6398243,37.6378721 C1.71791117,37.8916545 1.87408492,37.4816984 2.10834555,38.0478282 C1.6398243,38.204002 1.40556367,37.7940459 1.15178133,37.7940459 C1.09321617,37.5597853 1.24938992,37.4036116 1.24938992,37.1498292 C1.4104441,37.1742314 1.50073205,37.1571499 1.54923132,37.1178014 L1.573,37.089 Z M39.6486091,-1.38555833e-12 C42.420693,0.15617375 45.0170815,0.644216719 47.8477306,0.956564141 L47.8477306,0.956564141 L48.0819913,1.52269398 C48.7652513,0.956564141 48.9214251,1.52269398 49.4875549,1.28843336 C49.8442428,1.95121782 50.0508444,2.68432034 50.0927281,3.43582234 C49.9951196,3.43582234 49.6827721,3.61151781 49.8389459,3.43582234 C49.9951196,3.26012687 49.6046852,2.79160562 49.8389459,2.79160562 C49.4485115,2.61591016 49.4485115,3.02586625 49.4485115,3.26012687 C45.9832744,2.25853839 42.3674201,1.88174921 38.7701318,2.14738898 L38.7701318,2.14738898 L38.613958,1.58125914 C38.3601757,1.65934602 38.7701318,1.81551977 38.204002,2.06930211 C38.0283065,1.81551977 38.0283065,1.81551977 37.7940459,1.91312836 C37.715959,1.50317227 37.9502196,1.50317227 37.9502196,1.50317227 L37.5402635,1.50317227 C37.6183504,1.34699852 37.6573938,1.15178133 37.7745241,1.15178133 L37.7745241,1.15178133 L37.5402635,0.995607578 L37.2864812,0.761347031 L36.81796,0.917520703 C37.5402635,1.2298682 36.739873,1.5422157 37.3840898,1.6398243 C37.2391021,1.71018988 37.1714529,1.8793128 37.227916,2.03025867 C36.329917,2.18643242 35.7442655,2.03025867 34.6120059,2.18643242 C34.533919,1.9521718 34.3777452,1.79599805 34.1434846,1.79599805 C33.9873109,1.5422157 34.3777452,1.69838945 34.1434846,1.15178133 C33.8897023,1.21034648 34.2996584,1.38604195 33.7335285,1.62030258 C33.8116154,1.87408492 34.2215715,1.79599805 34.2215715,2.03025867 C34.1009816,1.99143579 33.9712487,1.99143579 33.8506588,2.03025867 L33.8506588,2.03025867 L33.825,1.967 L33.7978313,1.97400966 L33.7978313,1.97400966 L33.769,1.976 L33.677561,2.00533694 C33.6433929,2.01820267 33.6099335,2.03303504 33.5773548,2.04978039 L33.4805098,2.02647242 L33.4805098,2.02647242 L33.417,1.997 L33.1283553,2.12786727 L32.894,1.582 L32.9228053,1.6774824 C33.0593472,2.35534528 31.606784,2.42832295 31.1363902,2.30240617 L31.0785749,2.28404102 C30.7662274,2.77208391 29.7706198,2.53782328 28.8140556,3.24060516 C28.7359688,3.00634453 28.579795,3.39677891 28.3260127,2.85017078 C28.1932338,2.93136785 28.1296866,3.09023563 28.1698389,3.24060516 C26.155491,3.90381646 24.1971339,4.72632647 22.3133236,5.70034164 C22.3133236,5.60273305 22.6451928,5.36847242 22.3133236,5.29038555 C21.9814544,5.21229867 22.079063,5.52464617 22.079063,5.85651539 C20.9663251,6.36408 19.8731088,6.83260125 18.9165447,7.24255734 C18.8433382,7.41337238 18.8989209,7.46895505 18.9773805,7.50533233 L19.0757347,7.5459122 C19.1555501,7.58228948 19.2158776,7.63787215 19.1508052,7.80868719 C15.7540263,9.76085898 13.8018545,12.4158126 10.9907272,14.8169839 C10.5612494,16.124939 9.19472914,17.1205466 8.47242555,18.4870669 L8.47242555,18.4870669 L8.43531985,18.3093894 C8.39090913,18.1335564 8.32473517,17.9636998 8.23816492,17.8038067 C7.92581742,17.9795022 7.76964367,18.2918497 8.23816492,18.6822841 C8.0963059,18.9807574 7.99141425,19.2954324 7.9258175,19.6193265 C7.12542703,19.931674 7.69155688,20.3221084 7.12542703,20.5758907 C6.96925328,20.966325 6.79355781,21.2786725 6.63738406,21.6886286 C6.09226196,22.4241955 5.62759141,23.2160989 5.25134211,24.0507565 C4.85633411,24.766869 4.66081949,25.5758949 4.68521227,26.3933626 L4.68521227,26.3933626 L4.1190825,26.6276232 C4.52903852,27.7208395 3.24060516,28.1893606 3.57247438,28.9897511 L3.57247438,28.9897511 L3.00634453,29.2240117 L3.31869203,30.0244021 C2.4956277,32.3106458 2.06656441,34.7200013 2.04978039,37.1498292 C1.6398243,37.2279161 1.6398243,36.9936555 1.6398243,36.9936555 L1.6398243,36.9936555 L1.597,37.023 L1.60006119,36.9997989 C1.60429343,36.8759199 1.52830362,36.7206231 1.60391215,36.687642 L1.6398243,36.681308 L1.24938992,36.5251342 C0.995607578,36.681308 1.48365055,37.0912641 1.09321617,36.9350903 C1.24939,36.5641777 0.761347031,36.7203514 0.644216719,36.5641777 L0.644216719,36.5641777 L0.644216719,36.5446559 C0.683237533,36.0769472 0.683237533,35.606801 0.644216719,35.1390923 L0.644216719,35.1390923 L0.644216719,34.7291362 L1.44460711,34.4167887 L1.44460711,34.4167887 L1.39305757,34.2376235 C1.28843336,33.829002 1.28843336,33.4895071 1.28843336,33.2845291 C0.488042969,32.9721816 1.36652031,33.5187897 0.722303594,33.5187897 L0.722303594,33.5187897 L0.546608125,33.4407028 C0.702781875,33.1283553 0.3123475,32.9721816 0.429477813,32.6012689 C0.605257782,32.4842106 0.746745048,32.3225108 0.839433828,32.1327477 C0.995607578,31.8204002 0.761346953,31.8789654 1.15178133,31.4104441 C1.25812206,31.1272729 1.25812206,30.8151381 1.15178133,30.5319668 C0.995607578,30.2781845 1.56173742,30.0439238 1.56173742,30.0439238 L1.56173742,30.0439238 L1.3274768,29.5754027 C1.2840952,29.4626105 1.34097329,29.3536745 1.41756056,29.2468808 L1.53715452,29.0880827 C1.59427362,29.0092728 1.6398243,28.9311859 1.6398243,28.8530991 C1.65768131,28.7431966 1.65768131,28.6311323 1.6398243,28.5212298 C1.71103514,28.5675732 1.80287408,28.5675732 1.87408492,28.5212298 C2.04978039,28.443143 1.87408492,28.1307955 1.71791117,27.9746218 C1.97169352,27.8965348 2.12786727,28.1307955 2.12786727,28.3650561 C2.44021477,28.2869693 2.04978039,28.1307955 2.53782336,27.8965349 C2.45973648,27.5646657 1.81551977,27.818448 1.81551977,27.5646657 C3.6069576,21.791664 6.75282685,16.5306997 10.9907272,12.2205954 C11.3225964,12.1425086 10.8540752,11.9863349 11.3225964,11.4982919 C11.4052766,11.4121666 11.4654629,11.3740689 11.5099143,11.3688715 L11.516,11.369 L11.5171019,11.3666784 L11.556857,11.3421181 C11.7911176,11.2640312 12.0448999,10.2098584 12.591508,10.932162 C12.8452904,10.7759883 12.3572474,10.6198145 12.3572474,10.3660322 C13.0405076,9.8584675 13.9189848,9.13616398 14.6412884,8.57003414 C14.8755491,8.41386039 14.7193753,8.82381648 15.2855052,8.57003414 C15.9500959,7.62100634 16.9226627,6.93124259 18.0380673,6.61786234 C17.8818936,6.36408008 18.1356759,6.20790633 18.0380673,5.9736457 C19.2915332,5.27022244 20.5967563,4.66329374 21.9424109,4.15812594 C22.0985847,4.4119082 21.7862372,4.54856023 21.9424109,4.80234258 C22.0985847,5.05612492 22.4890191,4.56808195 22.4890191,4.56808195 C22.1766716,4.41190828 22.4890191,4.33382141 22.4890191,3.68960469 C23.5236701,3.2015618 25.0073206,2.32308445 25.7296242,2.65495367 C26.1395802,2.1669107 26.2176671,2.40117133 26.9399707,1.8545632 C27.5256223,2.557345 28.0136652,1.44460711 29.1264031,1.28843336 L29.1264031,1.28843336 L29.341142,1.97169352 C29.9072719,1.81551977 29.7510981,1.48365055 29.6534895,1.24938992 C30.1415324,1.09321617 30.6100537,0.839433828 30.6100537,1.48365055 C30.863836,1.40556367 30.7662274,1.17130305 30.6100537,0.937042422 C32.5036603,0.448999531 33.9677891,0.448999531 35.6466569,0.0390434375 C35.9004392,0.527086328 35.6466569,0.683260078 35.7442655,0.937042422 L35.7442655,0.937042422 L35.5880917,0.937042422 C35.4657775,0.997089575 35.3537625,1.07615896 35.2562226,1.17130305 C35.1683275,1.37704783 35.1683275,1.60977498 35.2562226,1.81551977 C35.3343094,1.48365055 35.7247438,1.24938992 36.1346998,0.917520703 L36.1346998,0.917520703 L36.1737433,0.917520703 C36.5251342,1.21034648 36.7008297,1.36652023 36.9350903,1.36652023 C36.7342955,0.88126615 36.7056105,0.811944137 36.3941737,0.802040993 L36.369,0.801 C36.2995499,0.661569358 36.2918376,0.64614479 36.0716091,0.644430949 L35.9785261,0.644216719 C36.9350902,-1.38555833e-12 38.0087848,0.409956094 39.0434358,-1.38555833e-12 L39.0434358,-1.38555833e-12 L39.2581747,0.488042969 C39.6486091,0.644216719 39.4143484,-1.38555833e-12 39.6486091,-1.38555833e-12 Z M12.1620302,26.6666666 C12.3702619,26.7707825 12.4396725,26.9876905 12.4628093,27.1901379 L12.469,27.275 L12.3962909,27.3108834 L12.3962909,27.3108834 L12.4340849,27.4265886 L12.4340849,27.4265886 L12.442,27.467 L12.2401171,27.4670571 C12.2759885,27.6261139 12.2849563,27.7896648 12.2670206,27.9509687 L12.241,28.107 L12.2010737,28.1307955 C12.2010737,28.3390271 12.2627719,28.5472588 12.509565,28.5909617 L12.6110298,28.5993167 C11.283553,30.7076623 11.2445095,33.0697902 10.4050756,35.1976574 C10.2098585,35.0610053 9.8779893,35.4709614 9.8779893,35.4709614 L9.8779893,35.4709614 L9.83894586,35.7247437 C9.60468523,35.1976574 10.1512934,35.0414837 9.83894586,34.5534407 C9.99511953,34.3191801 9.99511953,34.6315276 9.99511953,34.8657882 C9.99511953,34.6315276 10.1512933,34.397267 10.5417277,34.2410932 L10.5417277,34.2410932 L10.5417277,33.9873109 C10.3855539,33.7530502 10.2293802,34.1434846 9.97559781,34.2410932 C9.81942414,33.7530503 10.3074671,33.5187897 9.81942414,33.1088336 C10.307467,32.8550512 9.97559781,32.1522694 10.5417277,31.898487 L10.5417277,31.898487 L10.307467,31.351879 C10.5417277,31.1957052 10.3855539,31.5861396 10.9516838,31.351879 C10.2489019,30.8247926 11.283553,30.4343583 10.9516838,29.6339678 C11.5178135,29.6339677 11.205466,27.9551 11.7520741,28.6774036 C12.0058566,28.5993168 11.4397267,28.1112738 11.4397267,27.8770132 C11.9082479,27.6232308 11.5959004,26.9009273 12.1620302,26.6666666 Z M1.17130305,34.9829185 C0.839433828,35.0414836 1.40556367,35.4514397 0.839433828,35.6857003 L0.839433828,35.6857003 L1.40556367,35.5295266 Z M78.0673499,32.6598341 C77.9111762,32.8160078 78.0673499,33.0502684 78.0673499,33.4797462 L78.0673499,33.4797462 L78.477306,33.0697902 L78.1649585,32.6793558 Z M77.1888726,30.0829673 C77.0522206,29.8877501 77.0522206,29.8877501 76.7789166,30.0829673 C77.091264,30.5514885 77.5012201,30.1415324 77.5012201,30.5514885 L77.5012201,30.5514885 L77.989263,30.239141 C77.8330893,30.0829673 77.3450463,30.4929234 77.1888726,30.239141 L77.1888726,30.239141 Z M60.2440215,16.2420693 L60.8491947,17.7647633 L34.397267,28.4040995 L32.4450952,27.5256223 L60.2440215,16.2420693 Z M13.3723768,24.4411909 C13.6066373,24.2850171 13.4504636,24.6754515 14.0165934,24.4411909 L14.011,24.443 L14.0164227,24.5386856 C14.0295131,24.7004654 14.073195,24.8618895 14.2132762,25.0709796 L14.3094192,25.2025378 C13.6456809,25.7101025 13.7237677,26.5885798 12.9233773,26.920449 C13.1576379,27.4865788 13.0014641,27.7989263 12.4353343,28.033187 C12.3512263,28.0488004 12.2713841,28.082068 12.2010737,28.1307955 L12.244,28.104 L12.2866569,28.0430064 C12.3937921,27.887633 12.4856222,27.7542606 12.4550122,27.5290581 L12.442,27.467 L12.4743777,27.4670571 C12.4743777,27.4149992 12.4743777,27.354265 12.4709501,27.2895675 L12.469,27.275 L12.4884334,27.2664375 C12.8640312,27.0507037 12.9317065,26.5378002 12.6914592,25.8675141 L12.6305515,25.7101025 C12.8843338,25.6515373 13.0405076,25.4758419 13.0405076,25.2415812 L13.0405076,25.2415812 L13.6066373,25.0073206 C13.840898,24.851147 13.3723768,24.6754515 13.3723768,24.4411909 Z M76.1151781,24.8706686 C76.0637726,24.9231341 75.9934126,24.9526997 75.9199609,24.9526997 C75.8465092,24.9526997 75.7761492,24.9231341 75.7247437,24.8706686 C75.5490483,25.1049292 75.7247437,25.2806247 75.8809175,25.5148853 L75.8809175,25.5148853 L75.8809175,25.397755 C76.1151781,25.2415812 75.9590044,25.0073206 76.1151781,24.8706686 Z M27.9941435,11.7130308 L28.2284041,11.9863348 C28.3455344,11.8692045 28.4626647,11.9863348 28.4626647,11.9863348 L28.4626647,11.9863348 L28.2674475,12.1425085 C28.362799,12.1987775 28.4327365,12.2896963 28.4626647,12.3962909 C27.0961445,12.8257687 25.7881893,14.0361152 24.6754514,14.1922889 C24.1874084,15.3050269 22.2352367,15.7540264 21.4348463,16.7105905 C21.0248902,16.7886774 21.0248902,16.7886774 21.0248902,16.5544168 C21.0248902,17.1205466 20.2244998,17.4328941 20.068326,17.8233284 C17.7650898,19.7188855 15.8381198,22.029925 14.3875061,24.636408 C14.0751586,24.0702782 14.3875061,23.9921913 14.3875061,23.3479746 C14.2938018,23.2308443 14.2141532,23.2894095 14.1232601,23.3803026 L14.0276818,23.4766618 C13.9939482,23.5088336 13.9580283,23.5392875 13.9189848,23.5627135 C14.0026494,23.8485672 14.0116134,24.0572305 14.0116846,24.236725 L14.011,24.429 L13.9983808,24.3963706 C13.9196679,24.2529457 13.7712915,24.5111105 13.5778386,24.1382058 L13.5285505,24.0312348 C13.8604197,23.9726696 13.6066373,23.3284529 13.8604197,23.3284529 C13.8713415,23.393067 13.8713415,23.459056 13.8604197,23.5236701 C14.9668444,21.6086533 16.3554536,19.8712464 17.9795022,18.3699366 C17.8233284,18.1356759 17.9795022,17.9795022 17.9795022,17.7257198 C19.3460224,17.2181552 19.3850659,16.0273304 21.0639336,15.6173743 L21.0639336,15.6173743 L21.5129331,16.2811127 C21.7667155,16.124939 21.2786725,15.7149829 21.2786725,15.7149829 C21.7667155,16.124939 21.6691069,15.2269399 22.0009761,16.0273304 C22.2547584,15.9687652 21.8448023,15.7930698 22.4109322,15.5588091 C22.3328453,15.3050269 22.1571498,15.714983 21.9228892,15.1488531 C22.5671059,14.5827233 23.8164958,13.7823328 24.5192777,14.114202 C25.0854075,13.9580284 24.8511469,13.6261591 24.8511469,13.3918985 C25.3196681,13.1576378 25.0854075,13.8799413 25.3196681,13.8018545 C25.5539288,13.7237677 25.3196681,13.3918985 25.3196681,13.1576379 C25.6710591,12.9233773 26.8033187,11.8692045 27.2718399,12.2791605 C27.193753,12.0253783 27.7598829,11.7130308 27.9941435,11.7130308 L27.9941435,11.7130308 Z M76.193265,23.113714 C75.7052221,23.5236701 75.0805271,23.601757 75.2367009,24.2459737 L75.228,24.199 L75.2936628,24.1611713 C75.3731869,24.1164275 75.4611225,24.0744949 75.5510786,24.033265 L75.7317911,23.9511176 C76.1509029,23.7587116 76.5212299,23.5510005 76.193265,23.113714 Z M71.351879,15.8516349 C71.4500486,16.1362329 71.4500486,16.4455143 71.351879,16.7301123 C71.2506518,16.5238514 71.1115897,16.3384352 70.9419229,16.1835041 C71.351879,16.261591 71.351879,16.261591 71.351879,15.8516349 Z M69.7901416,14.0751586 C70.2000976,14.2313323 70.590532,14.5436798 71.000488,14.2313323 C71.1566618,14.465593 71.000488,14.6217667 70.7467057,14.7779405 C70.4384017,14.553301 70.0203587,14.553301 69.7120547,14.7779405 L69.7120547,14.7779405 L69.7901416,14.8755491 C69.3216203,14.4460712 70.3562714,14.3484627 69.7901416,14.0751586 Z M26.1981455,12.7867252 C26.0419717,13.0990727 25.4367984,13.0990727 25.6320156,13.6652025 C26.1981455,13.430942 26.1981455,13.0209859 26.1981455,12.7867252 Z M69.8682284,13.0990727 C70.2586627,13.1771596 69.614446,13.3333334 70.0244021,13.3333334 L70.0244021,13.3333334 L69.6144461,13.6652025 L69.4582723,13.4114202 C69.6339678,13.2552465 69.8682284,13.5090288 69.8682284,13.0990727 Z M52.3962909,12.2986823 C52.4743777,12.454856 52.8843338,12.0448999 52.8843338,12.454856 C52.4938995,12.454856 52.7281601,12.7086384 52.3962909,12.8648121 C52.3001839,12.5164245 52.3223625,12.441572 52.3536399,12.3991343 L52.3770979,12.3696162 C52.3879739,12.3541286 52.3962909,12.3347224 52.3962909,12.2986823 Z M29.2825769,11.2249878 C29.3606637,11.4202049 28.9116642,11.5959004 28.9702294,11.9277696 C29.0287945,12.2596388 29.6730112,12.0253782 29.6730112,12.2596388 L29.6730112,12.2596388 L28.6383602,12.6695949 C28.6771608,12.4668671 28.6194392,12.2576264 28.4821864,12.1034651 C28.6578819,12.0253783 28.2479258,11.8692045 28.2479258,11.6154222 L28.2479258,11.6154222 Z M52.1620302,12.0644216 C52.0839434,12.3767691 52.1620302,12.6110298 51.9277696,12.6110298 C51.5959005,12.5329429 51.3421181,12.6110298 51.3421181,12.3767691 L51.3421181,12.3767691 Z M49.6827721,10.9126403 C50.3660322,10.5612494 50.9712055,11.908248 51.1664227,11.2249878 C51.3319897,11.6402749 51.2959478,12.1088201 51.0688141,12.4938995 C50.9126403,11.9472913 50.3660322,12.2596388 50.1122498,12.2596388 C50.0630049,11.9734276 50.19488,11.6864053 50.4441191,11.5373353 C50.2541824,11.3140767 50.0031148,11.151222 49.7218155,11.0688141 L49.7218155,11.0688141 L49.9951195,11.7130308 L49.6827721,11.8106394 C49.5859598,11.5392021 49.5859598,11.2426427 49.6827721,10.9712055 L49.6827721,10.9712055 Z M33.9482674,9.76085898 L34.3777452,10.6393362 C33.7920937,10.7564666 33.2454856,10.8931186 32.6793558,11.0492923 L32.6793558,11.0492923 L32.6793558,11.1273792 C32.3670083,10.8931186 31.4494876,11.5373353 30.9614446,11.1273792 C30.8638359,11.7715959 30.1610541,11.5373353 29.9072718,11.5373353 C29.6730112,11.2054661 30.1610542,11.3811616 29.6730112,10.9712055 L29.6730112,10.9712055 L30.239141,10.7369448 L30.4734016,11.283553 C31.0395315,11.0492923 30.8833577,10.8150317 31.0395315,10.4050756 C32.0210686,10.2484249 32.9923758,10.0333032 33.9482674,9.76085898 L33.9482674,9.76085898 Z M49.3118595,10.5417277 C49.3118595,10.6979014 48.9214251,10.932162 49.3118595,11.3421181 C48.9604685,10.932162 48.238165,11.3421181 47.9258175,11.3421181 L47.9258175,11.3421181 L47.9648609,11.420205 C47.4377745,11.1273792 48.1600781,11.3030747 47.9648609,10.8540752 C48.4241755,10.8009319 48.8760308,10.6961538 49.3118595,10.5417277 Z M43.1625183,9.29233773 C43.7676915,8.74572961 44.080039,9.52659836 44.6461688,9.29233773 L44.6461688,9.29233773 L44.7242557,9.29233773 C44.8023426,9.52659828 44.3923865,10.0927281 45.0756466,10.0927281 C45.0184065,9.88180369 45.0184065,9.65943592 45.0756466,9.44851148 C45.3099073,9.29233773 45.1537335,9.70229383 45.7198634,9.44851148 C45.5931961,9.78101292 45.5692644,9.84383371 45.7730561,9.93902797 L45.7741812,9.93797615 L45.7979502,9.85846758 C46.0517325,9.70229383 45.8955588,10.0927282 46.4421669,9.85846758 L46.4421669,9.85846758 L46.6959492,10.4245973 L46.7740361,10.5807711 C47.1644705,10.0927281 47.5939483,10.5807711 47.8086872,10.2684236 L47.8086872,10.2684236 L48.0429478,10.8150317 C47.7306003,10.658858 47.8672523,11.3030747 47.6329917,11.3030747 C47.3987311,11.3030747 47.3206442,11.0688141 46.7545144,11.3030747 C46.2859931,11.1469009 46.5202538,10.8931186 46.2859931,10.8931186 C46.1298194,10.658858 46.3640799,10.4831624 46.2859931,10.2489019 C46.2272005,10.0725239 45.8917465,10.1617408 45.7962204,10.0499557 C45.5430707,10.1267316 45.3382372,10.3230272 45.2513421,10.5807711 C44.8488155,10.3655974 44.3654354,10.3655974 43.9629087,10.5807711 C43.8848219,10.3269888 44.1386042,10.248902 44.294778,9.7803807 C43.8848219,9.62420695 43.6505612,9.70229383 43.1625183,9.29233773 Z M33.1869205,10.170815 C32.9136164,10.0927281 32.2889214,10.5807711 32.5622255,10.9712055 C32.4841386,10.7369448 33.1283553,10.8150317 33.2845291,10.4050756 L33.2845291,10.4050756 Z M66.0614934,9.85846758 L66.3738409,10.2489019 L66.295754,10.2489019 C65.885798,10.5807711 65.4953636,10.170815 65.261103,10.7369448 C65.0619814,10.3972669 65.1018057,10.3176183 65.1655246,10.2745144 L65.2091839,10.2487399 C65.2375034,10.2318963 65.261103,10.2124613 65.261103,10.170815 C65.5564353,10.1645927 65.8400106,10.0539292 66.0614934,9.85846758 L66.0614934,9.85846758 Z M34.7681796,9.95607617 L34.670571,10.0536847 C34.8462665,10.2879453 34.670571,10.4441191 34.670571,10.6783797 C34.597155,10.7165756 34.5097264,10.7165756 34.4363104,10.6783797 C34.5143973,10.522206 34.2020498,10.1122499 34.7681796,9.95607617 L34.7681796,9.95607617 Z M40.4685212,8.88238164 L40.7223036,9.44851148 C40.8784773,9.60468523 40.8784773,9.60468523 41.1127379,9.60468523 C41.0545403,9.815481 41.0545403,10.0381061 41.1127379,10.2489019 C40.5258663,10.5026842 39.9905442,10.5502684 39.6847786,10.2660024 L39.668,10.249 L39.5376257,10.2536224 C38.7787105,10.2990989 37.8982067,10.6467587 37.3520714,10.1298881 L37.2474377,10.0146412 C36.9155685,10.658858 36.4470473,10.3269887 35.6466569,10.658858 L35.6466569,10.658858 L35.2367009,9.62420695 L35.1976574,9.62420695 C35.4904831,9.2532943 35.8418741,9.25329437 35.8418741,9.40946805 C35.8418741,9.56564172 35.9980478,9.56564172 36.193265,10.0146412 C36.7203513,10.0927282 37.5988287,8.90190336 37.5988287,9.60468523 C37.7550024,9.29233773 38.477306,8.80429477 38.6334798,9.29233773 C38.6334798,9.29233773 38.5553929,8.88238164 38.7896535,8.88238164 C39.010161,9.10897577 39.3129095,9.23679938 39.6290874,9.23679938 C39.9452652,9.23679938 40.2480138,9.10897577 40.4685212,8.88238164 L40.4685212,8.88238164 Z M43.045388,8.92142508 C43.045388,9.4680332 43.2796486,9.4680332 43.2796486,9.4680332 C43.1234748,9.8584675 44.0019522,9.78038062 43.8457784,10.1903367 C43.4358223,10.034163 42.9477794,10.2684237 42.7135187,9.70229383 C42.3035627,10.1903367 42.5573451,10.7369448 42.147389,10.5807711 L42.147389,10.5807711 L41.9131284,10.034163 L42.4011713,9.8779893 C42.4792582,9.1556857 42.0693021,9.72181555 41.8350415,9.1556857 C42.4011712,8.92142508 42.4792581,9.1556857 43.045388,8.92142508 Z M39.4338702,9.70229383 C39.2776964,9.80640961 39.4425465,10.0146413 39.5697992,10.1418939 L39.606,10.176 L39.560604,10.1107819 L39.560604,10.1107819 L39.511957,10.0146412 C39.7462177,9.8584675 39.5900439,10.2489019 40.1561737,10.0146412 C40.0780869,9.70229383 39.8438262,9.85846758 39.4338702,9.70229383 Z M40.761347,9.62420695 L40.3513909,9.76085898 C40.427595,9.91174425 40.5961762,9.99202101 40.761347,9.95607617 C40.9175208,9.8779893 40.761347,9.62420695 40.761347,9.62420695 L40.761347,9.62420695 Z M60.068326,6.0712543 C60.2970317,5.86963486 60.6400108,5.86963486 60.8687164,6.0712543 L60.8687164,6.0712543 L60.7125427,6.22742805 L61.0248902,6.69594922 L61.0248902,6.87164469 C60.7906296,6.87164469 60.5368473,7.02781836 60.3806735,6.87164469 C60.2244998,6.71547102 60.2244998,6.30551492 60.068326,6.0712543 Z M59.7559785,5.11469008 C60.3025866,5.40751586 59.5217179,5.42703758 59.5217179,5.60273305 C59.443631,5.4465593 59.3460224,5.21229867 59.7559785,5.11469008 Z M57.3938506,3.53343094 L57.4719375,3.57247437 L57.4719375,3.67008297 C57.5725522,3.91308296 57.4708779,4.19268721 57.2376769,4.31429969 L57.2376769,4.31429969 L56.9253295,3.90434359 L57.3938506,3.53343094 Z M52.7086384,2.30356273 C53.0990727,2.30356273 53.3528551,2.06930211 53.5090288,2.30356273 L53.5090288,2.30356273 L52.7086384,3.10395312 C52.2986823,2.61591023 52.7086384,2.69399711 52.7086384,2.30356273 Z M54.6608102,2.18643242 L54.8755491,2.65495367 L54.4851147,2.98682281 L54.1532455,2.5768668 L54.2508541,2.5768668 C53.8604197,2.49877992 54.4070278,2.34260617 54.6608102,2.18643242 L54.6608102,2.18643242 Z M50.4441191,1.56173742 L50.4245973,1.58125914 C50.9907272,1.91312836 50.8345534,2.01073695 50.2098584,2.12786727 L50.2098584,2.12786727 L50.0536847,1.89360664 L50.4441191,1.56173742 Z M33.6554416,1.5422157 L33.1869205,1.77647633 C33.2344257,1.86533445 33.3056304,1.9374195 33.3909037,1.98598991 L33.417,1.997 L33.5187897,1.9521718 C33.5790846,1.97158323 33.6416653,1.98128895 33.704246,1.98128895 L33.769,1.976 L33.7820204,1.97269339 L33.7820204,1.97269339 L33.824,1.964 L33.6554416,1.5422157 Z" id="形状结合" fill="#00C277" fill-rule="nonzero"></path>
                    </g>
                </g>
                <text id="已结束" transform="translate(40.434922, 37.983156) rotate(-23.000000) translate(-40.434922, -37.983156) " font-family="PingFangSC-Semibold, PingFang SC" font-size="17.6" font-weight="500" fill="#5ED053">
                    <tspan x="13.9349215" y="44.4831557">已结束</tspan>
                </text>
            </g>
        </g>
    </g>
</svg>