<?xml version="1.0" encoding="UTF-8"?>
<svg width="12px" height="12px" viewBox="0 0 12 12" version="1.1" xmlns="http://www.w3.org/2000/svg" xmlns:xlink="http://www.w3.org/1999/xlink">
    <title>合格备份</title>
    <g id="-界面合集" stroke="none" stroke-width="1" fill="none" fill-rule="evenodd">
        <g id="01-在制产品" transform="translate(-1046.000000, -618.000000)" fill="#7159FF" fill-rule="nonzero">
            <g id="编组-5备份-5" transform="translate(1033.000000, 298.000000)">
                <g id="合格备份" transform="translate(13.000000, 320.000000)">
                    <path d="M6,0 C9.31374,0 12,2.68626 12,6 C12,9.31374 9.31374,12 6,12 C2.68626,12 0,9.31374 0,6 C0,2.68626 2.68626,0 6,0 Z M5.30109684,3.22421186 C5.19060049,3.19602189 5.07323742,3.22887515 4.99443433,3.31005543 L4.99443433,3.31005543 L4.36532666,3.92837729 C4.27546963,4.01682251 4.24861619,4.14973503 4.29727271,4.26521395 C4.34592923,4.38069288 4.46052821,4.45603119 4.58769786,4.45614184 L4.58769786,4.45614184 L6.34478663,4.45614184 L5.71567896,5.0744637 L3.95854451,5.0744637 C3.78481384,5.07448849 3.64399068,5.2129174 3.64399068,5.38366953 L3.64399068,5.38366953 L3.64399068,6.62031324 C3.64399068,6.79105811 3.78482123,6.92947417 3.95854451,6.92947417 L3.95854451,6.92947417 L5.08638857,6.92947417 L3.73612763,8.25676499 C3.61371838,8.37586646 3.61151558,8.56957312 3.73118578,8.6913339 C3.85085598,8.81309467 4.04789982,8.81763282 4.17324144,8.70151494 L4.17324144,8.70151494 L4.18091571,8.69392734 L5.97614744,6.92947417 L7.73323621,6.92947417 C7.90696689,6.92947417 8.04783573,6.79106537 8.04783573,6.62031324 L8.04783573,6.62031324 L8.04783573,5.38366953 C8.04783573,5.21289986 7.90698473,5.0744637 7.73323621,5.0744637 L7.73323621,5.0744637 L6.60525511,5.0744637 L7.32654542,4.36553964 C7.41637571,4.27708447 7.44320551,4.14418189 7.39454141,4.02871853 C7.34587732,3.91325517 7.23128646,3.83793059 7.10412854,3.83781998 L7.10412854,3.83781998 L5.34717681,3.83781998 L5.43922241,3.74721778 C5.52181877,3.66976574 5.55524511,3.55441483 5.5265634,3.44581289 C5.49788169,3.33721095 5.4115932,3.25240184 5.30109684,3.22421186 Z M6.16051272,7.2386351 C5.98679249,7.23868468 5.8459841,7.37709906 5.84595888,7.54784093 L5.84595888,7.54784093 L5.84595888,8.47536861 C5.8459841,8.64610321 5.98679988,8.78450475 6.16051272,8.78452954 L6.16051272,8.78452954 L8.04788141,8.78452954 C8.21951522,8.78166681 8.35714286,8.64410619 8.35714286,8.47539068 C8.35714286,8.30667518 8.21956048,8.16909492 8.04792709,8.16620768 L8.04792709,8.16620768 L6.47506655,8.16620768 L6.47506655,7.54784093 C6.47504134,7.37709906 6.33423295,7.23868468 6.16051272,7.2386351 Z M5.53135937,5.69283046 L5.53135937,6.69283046 L4.27309835,6.69283046 L4.27309835,5.69283046 L5.53135937,5.69283046 Z M7.41872806,5.69283046 L7.41872806,6.69283046 L6.16046704,6.69283046 L6.16046704,5.69283046 L7.41872806,5.69283046 Z" id=""></path>
                </g>
            </g>
        </g>
    </g>
</svg>