<?xml version="1.0" encoding="UTF-8"?>
<svg width="12px" height="12px" viewBox="0 0 12 12" version="1.1" xmlns="http://www.w3.org/2000/svg" xmlns:xlink="http://www.w3.org/1999/xlink">
    <title></title>
    <g id="-界面合集" stroke="none" stroke-width="1" fill="none" fill-rule="evenodd">
        <g id="画板" transform="translate(-175.000000, -198.000000)" fill="#6B6B6B" fill-rule="nonzero" stroke="#6B6B6B" stroke-width="0.3">
            <g id="编组-7备份" transform="translate(170.000000, 194.000000)">
                <g id="编组" transform="translate(5.500000, 4.500000)">
                    <path d="M0.587325349,3.5915 C0.680638723,3.5145 0.735528942,3.3935 0.735528942,3.267 L0.735528942,1.243 L3.2000998,3.7125 C3.33732535,3.8555 3.56237525,3.8555 3.70508982,3.7125 C3.84231537,3.575 3.84231537,3.344 3.70508982,3.2065 L1.24051896,0.737 L3.2989022,0.737 C3.40319361,0.737 3.49650699,0.693 3.55688623,0.627 C3.67215569,0.5115 3.72155689,0.3135 3.58433134,0.1485 C3.50748503,0.055 3.38672655,0 3.26047904,0 L0.735528942,0 C0.329341317,0 0,0.33 0,0.737 L0,3.3055 C0,3.41 0.0439121756,3.5035 0.109780439,3.564 C0.2250499,3.6795 0.422654691,3.729 0.587325349,3.5915 L0.587325349,3.5915 Z" id="路径" transform="translate(1.904004, 1.909875) scale(-1, -1) translate(-1.904004, -1.909875) "></path>
                    <path d="M3.2000998,7.2875 L0.735528942,9.757 L0.735528942,7.6945 C0.735528942,7.59 0.691616766,7.4965 0.625748503,7.436 C0.510479042,7.3205 0.312874251,7.271 0.148203593,7.4085 C0.0548902196,7.4855 0,7.6065 0,7.733 L0,10.263 C0,10.67 0.329341317,11 0.735528942,11 L3.2989022,11 C3.40319361,11 3.49650699,10.956 3.55688623,10.89 C3.67215569,10.7745 3.72155689,10.5765 3.58433134,10.4115 C3.50748503,10.318 3.38672655,10.263 3.26047904,10.263 L1.24051896,10.263 L3.70508982,7.7935 C3.84780439,7.656 3.84780439,7.4305 3.70508982,7.2875 C3.56786427,7.15 3.33732535,7.15 3.2000998,7.2875 L3.2000998,7.2875 Z" id="路径" transform="translate(1.906063, 9.092187) scale(-1, -1) translate(-1.906063, -9.092187) "></path>
                    <path d="M10.4126747,7.4085 C10.3193613,7.4855 10.2644711,7.6065 10.2644711,7.733 L10.2644711,9.757 L7.7999002,7.2875 C7.66267465,7.1445 7.43762475,7.1445 7.29491018,7.2875 C7.15768463,7.425 7.15768463,7.656 7.29491018,7.7935 L9.75948104,10.263 L7.7010978,10.263 C7.59680639,10.263 7.50349301,10.307 7.44311377,10.373 C7.32784431,10.4885 7.27844311,10.6865 7.41566866,10.8515 C7.49251497,10.945 7.61327345,11 7.73952096,11 L10.2644711,11 C10.6706587,11 11,10.67 11,10.263 L11,7.6945 C11,7.59 10.9560878,7.4965 10.8902196,7.436 C10.7749501,7.3205 10.5773453,7.271 10.4126747,7.4085 L10.4126747,7.4085 Z" id="路径" transform="translate(9.095996, 9.090125) scale(-1, -1) translate(-9.095996, -9.090125) "></path>
                    <path d="M10.2644711,0 L7.7010978,0 C7.59680639,0 7.50349301,0.044 7.44311377,0.11 C7.32784431,0.2255 7.27844311,0.4235 7.41566866,0.5885 C7.49251497,0.682 7.61327345,0.737 7.73952096,0.737 L9.75948104,0.737 L7.29491018,3.2065 C7.15219561,3.344 7.15219561,3.5695 7.29491018,3.7125 C7.43213573,3.85 7.66267465,3.85 7.7999002,3.7125 L10.2644711,1.243 L10.2644711,3.3055 C10.2644711,3.41 10.3083832,3.5035 10.3742515,3.564 C10.489521,3.6795 10.6871257,3.729 10.8517964,3.5915 C10.9451098,3.5145 11,3.3935 11,3.267 L11,0.737 C11,0.33 10.6706587,0 10.2644711,0 Z" id="路径" transform="translate(9.093937, 1.907812) scale(-1, -1) translate(-9.093937, -1.907812) "></path>
                </g>
            </g>
        </g>
    </g>
</svg>