<?xml version="1.0" encoding="UTF-8"?>
<svg width="17px" height="15px" viewBox="0 0 17 15" version="1.1" xmlns="http://www.w3.org/2000/svg" xmlns:xlink="http://www.w3.org/1999/xlink">
    <title>工厂代码</title>
    <g id="组件控件" stroke="none" stroke-width="1" fill="none" fill-rule="evenodd">
        <g id="03-工厂账号登录" transform="translate(-985.000000, -340.000000)">
            <g id="工厂代码" transform="translate(985.000000, 339.000000)">
                <rect id="矩形" x="0" y="0" width="17" height="17"></rect>
                <path d="M9.42462312,1 L9.42462312,7.4516129 L16.5,7.4516129 L16.5,16 L0.5,16 L0.5,1 L9.42462312,1 Z M7.97738693,2.4516129 L1.94723618,2.4516129 L1.94723618,14.5483871 L7.97738693,14.5483871 L7.97738693,2.4516129 Z M15.0529246,8.90322581 L9.50502513,8.90322581 L9.50502513,14.5483871 L15.0529246,14.5483871 L15.0529246,8.90322581 Z M13.1231156,10.8386613 L13.1231156,12.2902742 L10.8718593,12.2902742 L10.8718593,10.8386613 L13.1231156,10.8386613 Z M6.04773869,10.677371 L6.04773869,12.1289839 L3.79648241,12.1289839 L3.79648241,10.677371 L6.04773869,10.677371 Z M6.04773869,7.53220968 L6.04773869,8.98382258 L3.79648241,8.98382258 L3.79648241,7.53220968 L6.04773869,7.53220968 Z M6.04773869,4.38704839 L6.04773869,5.83866129 L3.79648241,5.83866129 L3.79648241,4.38704839 L6.04773869,4.38704839 Z" id="" fill-opacity="0.7" fill="#000000"></path>
            </g>
        </g>
    </g>
</svg>