<?xml version="1.0" encoding="UTF-8"?>
<svg width="12px" height="12px" viewBox="0 0 12 12" version="1.1" xmlns="http://www.w3.org/2000/svg" xmlns:xlink="http://www.w3.org/1999/xlink">
    <title>故障</title>
    <g id="-界面合集" stroke="none" stroke-width="1" fill="none" fill-rule="evenodd">
        <g id="01-工装清单备份" transform="translate(-742.000000, -500.000000)" fill="#FF9834" fill-rule="nonzero">
            <g id="编组-4" transform="translate(729.000000, 291.000000)">
                <g id="guzhang" transform="translate(13.000000, 209.000000)">
                    <path d="M5.9927021,0.00467813903 C2.68731287,0.00467813903 0.00467813903,2.68731287 0.00467813903,5.9927021 C0.00467813903,9.29809132 2.68731287,11.9807261 5.9927021,11.9807261 C9.29809132,11.9807261 11.9807261,9.29809132 11.9807261,5.9927021 C11.9807261,2.68731287 9.29809132,0.00467813903 5.9927021,0.00467813903 Z M5.9927021,9.58551647 C5.65138473,9.58551647 5.38192365,9.31006736 5.38192365,8.97473802 C5.38192365,8.63342066 5.65737276,8.36395958 5.9927021,8.36395958 C6.33401946,8.36395958 6.60348054,8.63940869 6.60348054,8.97473802 C6.60348054,9.31006736 6.33401946,9.58551647 5.9927021,9.58551647 Z M6.65737275,2.75318113 L6.53162425,7.11246257 C6.52563622,7.34000749 6.29210329,7.5196482 6.0166542,7.5196482 L5.92084581,7.5196482 C5.6453967,7.5196482 5.41186377,7.34000749 5.40587575,7.11246257 L5.27413922,2.75318113 C5.26216318,2.40587574 5.5436003,2.11246257 5.90288174,2.11246257 L6.02863024,2.11246257 C6.38791168,2.11246257 6.6693488,2.40587575 6.65737275,2.75318113 L6.65737275,2.75318113 Z" id="形状"></path>
                </g>
            </g>
        </g>
    </g>
</svg>