<?xml version="1.0" encoding="UTF-8"?>
<svg width="12px" height="12px" viewBox="0 0 12 12" version="1.1" xmlns="http://www.w3.org/2000/svg" xmlns:xlink="http://www.w3.org/1999/xlink">
    <title>文件信息</title>
    <g id="-界面合集" stroke="none" stroke-width="1" fill="none" fill-rule="evenodd">
        <g id="盘点记录（库存盘点）" transform="translate(-124.000000, -214.000000)" fill="#7F7F7F" fill-rule="nonzero">
            <g id="打印二维码" transform="translate(124.000000, 214.000000)">
                <path d="M3.44391964,1.2 L1.2,1.2 L1.2,10.8 L10.8,10.8 L10.8,2.9 L5.21783268,2.9 L3.44391964,1.2 Z M3.92608696,0 L5.7,1.7 L12,1.7 L12,12 L0,12 L0,0 L3.92608696,0 Z M6.37142857,9.08700118 C6.31618675,9.04807808 6.25691921,8.93728055 6.31048365,8.71152657 C6.35968689,8.50411443 6.69382164,7.14756444 6.8017333,6.69339051 C6.89097009,6.31780926 6.71450937,5.96248935 6.22549623,5.92911146 C5.76924797,5.89786634 5.25854068,6.17480686 5,6.60999911 C5.2980151,6.4843788 5.48923679,6.4421499 5.6284596,6.54057736 C5.68370143,6.57950046 5.74296897,6.69040463 5.6892927,6.91647853 C5.63975398,7.1253836 5.30561923,8.48172032 5.19815488,8.93429466 C5.10902991,9.30944936 5.28571429,9.66423608 5.7746156,9.69761397 C6.23086385,9.72885909 6.74145932,9.45223849 7,9.01757943 C6.70187308,9.14298646 6.51076321,9.18521536 6.37142857,9.08700118 M6.15968689,5.30268416 C6.62376293,5.30268416 6.99994409,4.94395181 6.99994409,4.50129487 C6.99994409,4.05874455 6.62376293,3.70001221 6.15968689,3.70001221 C5.69561085,3.70001221 5.31931786,4.05874455 5.31931786,4.50129487 C5.31931786,4.94395181 5.69561085,5.30268416 6.15968689,5.30268416" id="wenjianjiachongmingming备份"></path>
            </g>
        </g>
    </g>
</svg>