<?xml version="1.0" encoding="UTF-8"?>
<svg width="44px" height="44px" viewBox="0 0 44 44" version="1.1" xmlns="http://www.w3.org/2000/svg" xmlns:xlink="http://www.w3.org/1999/xlink">
    <title>文件</title>
    <g id="-界面合集" stroke="none" stroke-width="1" fill="none" fill-rule="evenodd">
        <g id="作业文件（导入文件夹）" transform="translate(-590.000000, -298.000000)" fill-rule="nonzero">
            <g id="文件" transform="translate(590.000000, 298.000000)">
                <rect id="矩形" fill="#000000" opacity="0" x="0" y="0" width="44" height="44"></rect>
                <path d="M35.9292192,18.6691919 C35.847837,18.3324916 35.6979225,18.016835 35.4837589,17.743266 C35.2738785,17.4654882 35.0040324,17.2382155 34.6999201,17.0698653 C34.447207,16.9309764 34.1730776,16.8341751 33.8903817,16.7878788 C33.7832999,16.7710438 33.706201,16.6742424 33.706201,16.5690236 L33.706201,14.25 C33.706201,13.5850168 33.4363549,12.9494949 32.9609117,12.4823232 C32.4837699,12.0135262 31.8366863,11.7501125 31.1619374,11.75 L23.4177816,11.9351852 C23.3192664,11.9393939 23.2293177,11.8762626 23.1950515,11.78367 L22.8481064,10.7525253 C22.5953934,10.0075758 22.1071004,9.35521886 21.4603263,8.89646465 C20.809269,8.43771044 20.0297135,8.18939394 19.2287416,8.18939394 L10.8163954,8 C9.80554317,8 8.83324042,8.3956229 8.11793399,9.09848485 C7.40249519,9.80188196 7.00041617,10.7555327 7,11.75 L7,30.5 C7,31.1649832 7.26984614,31.8005051 7.74528933,32.2676768 C8.22073252,32.7348485 8.8675066,33 9.54426357,33 L31.376101,33 C31.9714758,33 32.5497175,32.793771 33.0037444,32.4191919 C33.4620545,32.0446128 33.7704501,31.5227273 33.8775319,30.9461279 L35.9592021,19.6961279 C36.0234511,19.3552189 36.0106013,19.0058923 35.9292192,18.6691919 Z M9.99400714,18.7323232 C9.9383246,18.993266 9.54426357,18.9553872 9.54426357,18.6860269 L9.54426357,11.75 C9.54426357,11.4175084 9.67704501,11.1018519 9.91690824,10.8661616 C10.1567715,10.6304714 10.4780169,10.5 10.8163954,10.5 L19.2287416,10.6893939 C19.4943045,10.6893939 19.755584,10.773569 19.9740309,10.9250842 C20.1924778,11.0765993 20.3509589,11.2954545 20.4366243,11.543771 L20.8392519,12.7306397 C21.0062995,13.2272727 21.3318281,13.6607744 21.7644386,13.9680135 C22.1970491,14.2752525 22.7196083,14.4393939 23.250734,14.4393939 L30.9306407,14.2542088 C31.0591389,14.25 31.1619374,14.3510101 31.1619374,14.4772727 L31.1619374,16.5227273 C31.1619374,16.6447811 31.0591389,16.7457912 30.934924,16.7457912 L12.4825882,16.7457912 C11.9000632,16.7457912 11.3346713,16.9436027 10.8806444,17.3055556 C10.4309009,17.6675084 10.1139388,18.1725589 9.99400714,18.7323232 Z M33.4063719,19.5109428 L31.4060839,30.3148148 C31.3846676,30.4200337 31.2904356,30.5 31.1833538,30.5 L10.353802,30.5 C10.2038875,30.5 10.0925224,30.3569024 10.1353551,30.2138047 C10.1439217,30.1843434 10.1482049,30.1590909 10.1567715,30.1296296 L12.4440387,19.4267677 C12.4654551,19.3215488 12.5596871,19.25 12.6667689,19.25 L33.1793585,19.25 C33.3249898,19.25 33.4320716,19.3762626 33.4063719,19.5109428 L33.4063719,19.5109428 Z" id="形状" fill="#D0D0D0"></path>
            </g>
        </g>
    </g>
</svg>