<?xml version="1.0" encoding="UTF-8"?>
<svg width="15px" height="10px" viewBox="0 0 15 10" version="1.1" xmlns="http://www.w3.org/2000/svg" xmlns:xlink="http://www.w3.org/1999/xlink">
    <!-- Generator: Sketch 55.2 (78181) - https://sketchapp.com -->
    <title>下一页备份</title>
    <desc>Created with Sketch.</desc>
    <g id="3.0" stroke="none" stroke-width="1" fill="none" fill-rule="evenodd">
        <g id="01-工单派发（自制工单）" transform="translate(-1877.000000, -658.000000)">
            <g id="编组-7" transform="translate(1854.000000, 460.000000)">
                <g id="下一页" transform="translate(30.000000, 203.000000) rotate(-90.000000) translate(-30.000000, -203.000000) translate(22.000000, 195.000000)">
                    <g id="编组-7">
                        <rect id="矩形" x="0" y="0" width="16" height="16"></rect>
                        <path d="M10.1372888,8.50553198 L3.35399281,2.59003855 C2.91001303,2.20285813 2.88366471,1.78960564 3.27494784,1.3502811 C3.66623096,0.910956561 4.08386242,0.884884515 4.5278422,1.27206496 L12.0333202,7.81734997 C12.2516937,8.00778647 12.3690334,8.20453035 12.3853393,8.4075816 C12.4431399,8.67660747 12.3300292,8.93496362 12.0460072,9.18265005 L4.54052922,15.7279351 C4.09654944,16.1151155 3.678918,16.0890434 3.28763489,15.6497189 C2.89635177,15.2103944 2.92270008,14.7971419 3.36667984,14.4099615 L10.1372888,8.50553198 Z" id="备份-4" fill="#8A95A9" fill-rule="nonzero"></path>
                    </g>
                </g>
            </g>
        </g>
    </g>
</svg>