<?xml version="1.0" encoding="UTF-8"?>
<svg width="12px" height="12px" viewBox="0 0 12 12" version="1.1" xmlns="http://www.w3.org/2000/svg" xmlns:xlink="http://www.w3.org/1999/xlink">
    <title></title>
    <g id="-界面合集" stroke="none" stroke-width="1" fill="none" fill-rule="evenodd">
        <g id="画板" transform="translate(-175.000000, -109.000000)" fill="#6B6B6B" fill-rule="nonzero" stroke="#6B6B6B" stroke-width="0.3">
            <g id="编组-7" transform="translate(170.000000, 105.000000)">
                <path d="M6.08732535,8.0915 C6.18063872,8.0145 6.23552894,7.8935 6.23552894,7.767 L6.23552894,5.743 L8.7000998,8.2125 C8.83732535,8.3555 9.06237525,8.3555 9.20508982,8.2125 C9.34231537,8.075 9.34231537,7.844 9.20508982,7.7065 L6.74051896,5.237 L8.7989022,5.237 C8.90319361,5.237 8.99650699,5.193 9.05688623,5.127 C9.17215569,5.0115 9.22155689,4.8135 9.08433134,4.6485 C9.00748503,4.555 8.88672655,4.5 8.76047904,4.5 L6.23552894,4.5 C5.82934132,4.5 5.5,4.83 5.5,5.237 L5.5,7.8055 C5.5,7.91 5.54391218,8.0035 5.60978044,8.064 C5.7250499,8.1795 5.92265469,8.229 6.08732535,8.0915 L6.08732535,8.0915 Z M8.7000998,11.7875 L6.23552894,14.257 L6.23552894,12.1945 C6.23552894,12.09 6.19161677,11.9965 6.1257485,11.936 C6.01047904,11.8205 5.81287425,11.771 5.64820359,11.9085 C5.55489022,11.9855 5.5,12.1065 5.5,12.233 L5.5,14.763 C5.5,15.17 5.82934132,15.5 6.23552894,15.5 L8.7989022,15.5 C8.90319361,15.5 8.99650699,15.456 9.05688623,15.39 C9.17215569,15.2745 9.22155689,15.0765 9.08433134,14.9115 C9.00748503,14.818 8.88672655,14.763 8.76047904,14.763 L6.74051896,14.763 L9.20508982,12.2935 C9.34780439,12.156 9.34780439,11.9305 9.20508982,11.7875 C9.06786427,11.65 8.83732535,11.65 8.7000998,11.7875 L8.7000998,11.7875 Z M15.9126747,11.9085 C15.8193613,11.9855 15.7644711,12.1065 15.7644711,12.233 L15.7644711,14.257 L13.2999002,11.7875 C13.1626747,11.6445 12.9376248,11.6445 12.7949102,11.7875 C12.6576846,11.925 12.6576846,12.156 12.7949102,12.2935 L15.259481,14.763 L13.2010978,14.763 C13.0968064,14.763 13.003493,14.807 12.9431138,14.873 C12.8278443,14.9885 12.7784431,15.1865 12.9156687,15.3515 C12.992515,15.445 13.1132735,15.5 13.239521,15.5 L15.7644711,15.5 C16.1706587,15.5 16.5,15.17 16.5,14.763 L16.5,12.1945 C16.5,12.09 16.4560878,11.9965 16.3902196,11.936 C16.2749501,11.8205 16.0773453,11.771 15.9126747,11.9085 L15.9126747,11.9085 Z M15.7644711,4.5 L13.2010978,4.5 C13.0968064,4.5 13.003493,4.544 12.9431138,4.61 C12.8278443,4.7255 12.7784431,4.9235 12.9156687,5.0885 C12.992515,5.182 13.1132735,5.237 13.239521,5.237 L15.259481,5.237 L12.7949102,7.7065 C12.6521956,7.844 12.6521956,8.0695 12.7949102,8.2125 C12.9321357,8.35 13.1626747,8.35 13.2999002,8.2125 L15.7644711,5.743 L15.7644711,7.8055 C15.7644711,7.91 15.8083832,8.0035 15.8742515,8.064 C15.989521,8.1795 16.1871257,8.229 16.3517964,8.0915 C16.4451098,8.0145 16.5,7.8935 16.5,7.767 L16.5,5.237 C16.5,4.83 16.1706587,4.5 15.7644711,4.5 Z" id="形状"></path>
            </g>
        </g>
    </g>
</svg>