<?xml version="1.0" encoding="UTF-8"?>
<svg width="12px" height="12px" viewBox="0 0 12 12" version="1.1" xmlns="http://www.w3.org/2000/svg" xmlns:xlink="http://www.w3.org/1999/xlink">
    <title></title>
    <g id="-界面合集" stroke="none" stroke-width="1" fill="none" fill-rule="evenodd">
        <g id="01-库存报表" transform="translate(-1245.000000, -426.000000)" fill="#F7B500" fill-rule="nonzero">
            <g id="编组-2备份-6" transform="translate(1232.000000, 290.000000)">
                <path d="M19,136 C15.7,136 13,138.7 13,142 C13,145.3 15.7,148 19,148 C22.3,148 25,145.3 25,142 C25,138.7 22.3,136 19,136 Z M20,141 L20,146 L18,146 L18,141 L20,141 Z M19,138 C19.5522847,138 20,138.447715 20,139 C20,139.552285 19.5522847,140 19,140 C18.4477153,140 18,139.552285 18,139 C18,138.447715 18.4477153,138 19,138 Z" id="形状备份-2"></path>
            </g>
        </g>
    </g>
</svg>