<?xml version="1.0" encoding="UTF-8"?>
<svg width="14px" height="14px" viewBox="0 0 14 14" version="1.1" xmlns="http://www.w3.org/2000/svg" xmlns:xlink="http://www.w3.org/1999/xlink">
    <title>fund-fill</title>
    <g id="页面-1" stroke="none" stroke-width="1" fill="none" fill-rule="evenodd">
        <g id="生产工位" transform="translate(-20.000000, -685.000000)" fill-rule="nonzero">
            <g id="左标签栏/统计报表/收起" transform="translate(0.000000, 674.000000)">
                <g id="fund-fill" transform="translate(20.000000, 11.000000)">
                    <rect id="矩形" fill="#000000" opacity="0" x="0" y="0" width="14" height="14"></rect>
                    <path d="M12.6601562,2.2421875 L1.28515625,2.2421875 C1.04316406,2.2421875 0.84765625,2.43769531 0.84765625,2.6796875 L0.84765625,11.4296875 C0.84765625,11.6716797 1.04316406,11.8671875 1.28515625,11.8671875 L12.6601562,11.8671875 C12.9021484,11.8671875 13.0976562,11.6716797 13.0976562,11.4296875 L13.0976562,2.6796875 C13.0976562,2.43769531 12.9021484,2.2421875 12.6601562,2.2421875 Z M11.3982422,4.9 L7.33769531,8.96328125 C7.2953125,9.00566406 7.22558594,9.00566406 7.18320313,8.96328125 L5.61777344,7.39785156 L3.259375,9.75761719 C3.21699219,9.8 3.14726562,9.8 3.10488281,9.75761719 L2.60175781,9.25449219 C2.559375,9.21210938 2.559375,9.14238281 2.60175781,9.1 L5.53984375,6.16054688 C5.58222656,6.11816406 5.65195313,6.11816406 5.69433594,6.16054688 L7.25976562,7.72460938 L10.7392578,4.24375 C10.7816406,4.20136719 10.8513672,4.20136719 10.89375,4.24375 L11.396875,4.746875 C11.440625,4.78789063 11.440625,4.85761719 11.3982422,4.9 Z" id="形状" fill="#FFFFFF"></path>
                </g>
            </g>
        </g>
    </g>
</svg>