<?xml version="1.0" encoding="UTF-8"?>
<svg width="14px" height="14px" viewBox="0 0 14 14" version="1.1" xmlns="http://www.w3.org/2000/svg" xmlns:xlink="http://www.w3.org/1999/xlink">
    <!-- Generator: Sketch 55.2 (78181) - https://sketchapp.com -->
    <title>复选框备份 2</title>
    <desc>Created with Sketch.</desc>
    <g id="页面1" stroke="none" stroke-width="1" fill="none" fill-rule="evenodd">
        <g id="02-表单模板" transform="translate(-190.000000, -251.000000)">
            <g id="复选框备份-2" transform="translate(190.000000, 251.000000)">
                <rect id="矩形" x="0" y="0" width="14" height="14"></rect>
                <rect id="矩形-2" stroke="#919CAE" x="0.5" y="0.5" width="13" height="13" rx="1.5"></rect>
                <path d="M10.9214977,4.84749227 L6.57534387,10.0922475 C6.48364537,10.2035359 6.35009717,10.2720647 6.20621657,10.2816611 C6.06233598,10.2912576 5.92086981,10.2410715 5.81520401,10.1429468 L3.16835086,7.69539437 C2.95575194,7.4985246 2.94276555,7.16666734 3.13932989,6.95378599 C3.3362515,6.74160616 3.66768111,6.72863038 3.88058863,6.924765 L6.12114806,8.99644332 L10.1134558,4.1782615 C10.3008703,3.96513648 10.6237591,3.93960901 10.8423352,4.12063656 C11.0609113,4.30166411 11.0959798,4.62365641 10.9214977,4.84749227" id="路径" fill="#919CAE"></path>
            </g>
        </g>
    </g>
</svg>