<?xml version="1.0" encoding="UTF-8"?>
<svg width="12px" height="12px" viewBox="0 0 12 12" version="1.1" xmlns="http://www.w3.org/2000/svg" xmlns:xlink="http://www.w3.org/1999/xlink">
    <title></title>
    <g id="-界面合集" stroke="none" stroke-width="1" fill="none" fill-rule="evenodd">
        <g id="负荷分析" transform="translate(-839.000000, -499.000000)" fill="#949496" fill-rule="nonzero" stroke="#949496" stroke-width="0.4">
            <g id="编组-40" transform="translate(819.000000, 471.000000)">
                <g id="09/01" transform="translate(20.000000, 28.000000)">
                    <path d="M1.83263866,5.27016877 L3.89056607,5.27016877 C4.04709559,5.24642682 4.16430009,5.08951944 4.16430009,4.90370769 C4.16430009,4.71789595 4.04709559,4.56098857 3.89056607,4.53724661 L1.83263866,4.53724661 C1.67610913,4.56098857 1.55890463,4.71789595 1.55890463,4.90370769 C1.55890463,5.08951944 1.67610913,5.24642682 1.83263866,5.27016877 L1.83263866,5.27016877 Z M3.37608421,6.99647307 C3.37325035,7.09439652 3.40468951,7.18939514 3.46304776,7.25924786 C3.52140602,7.32910057 3.60156447,7.36768025 3.68477332,7.36596275 L7.70287658,7.36596275 C7.83625272,7.31956695 7.92778548,7.17535599 7.92778548,7.01161608 C7.92778548,6.84787618 7.83625272,6.70366521 7.70287658,6.65726942 L3.69506296,6.65726942 C3.53032516,6.65360704 3.39218414,6.80291512 3.38122903,6.99647307 L3.37608421,6.99647307 Z M6.90542971,9.08015262 C6.90259585,9.17807608 6.93403501,9.2730747 6.99239326,9.34292742 C7.05075152,9.41278014 7.13090998,9.45135981 7.21411883,9.44964231 L10.1672447,9.44964231 C10.3237742,9.42590037 10.4409787,9.26899299 10.4409787,9.08318122 C10.4409787,8.89736946 10.3237742,8.74046207 10.1672447,8.71672014 L7.18839473,8.71672014 C7.02802979,8.73250759 6.90487005,8.89069058 6.90542971,9.08015262 L6.90542971,9.08015262 Z M11.3042495,0.836292516 C11.1770106,0.683445229 11.0024096,0.598157651 10.8206366,0.600030197 L1.17924671,0.600030197 C0.999138491,0.599106028 0.826434925,0.684373895 0.700778584,0.836292516 C0.56913563,0.987144075 0.496488243,1.19548828 0.500130666,1.41172727 L0.500130666,10.7882853 C0.496488243,11.0045243 0.56913563,11.2128685 0.700778584,11.36372 C0.826434925,11.5156387 0.999138491,11.6009065 1.17924671,11.5999759 L10.8206366,11.5999759 C11.0029822,11.6016465 11.1781292,11.516278 11.3060979,11.3633324 C11.4340666,11.2103868 11.5039343,11.0029185 11.4997526,10.7882853 L11.4997526,1.41172727 C11.5047442,1.19638777 11.4340043,0.988175057 11.3042495,0.836292516 Z M10.8823744,10.7882853 C10.8823744,10.836743 10.8823744,10.8549146 10.8206366,10.8549146 L1.17924671,10.8549146 C1.13808816,10.8549146 1.1226537,10.8549146 1.1226537,10.7882853 L1.1226537,3.33791942 L10.8978089,3.33791942 L10.8823744,10.7882853 Z M10.8823744,2.60499725 L1.10721925,2.60499725 L1.10721925,1.39355565 C1.10721925,1.34509799 1.10721925,1.32692636 1.16381225,1.32692636 L10.8206366,1.32692636 C10.8617952,1.32692636 10.8823744,1.32692636 10.8823744,1.39355565 L10.8823744,2.60499725 Z" id="形状"></path>
                </g>
            </g>
        </g>
    </g>
</svg>