<?xml version="1.0" encoding="UTF-8"?>
<svg width="12px" height="12px" viewBox="0 0 12 12" version="1.1" xmlns="http://www.w3.org/2000/svg" xmlns:xlink="http://www.w3.org/1999/xlink">
    <title>置顶备份 4</title>
    <g id="-界面合集" stroke="none" stroke-width="1" fill="none" fill-rule="evenodd">
        <g id="生产进度" transform="translate(-1264.000000, -379.000000)" fill-rule="nonzero">
            <g id="置顶备份-4" transform="translate(1264.000000, 379.000000)">
                <rect id="矩形" fill="#000000" opacity="0" x="0" y="0" width="12" height="12"></rect>
                <path d="M11.148,4.98 L12,4.128 L7.872,0 L7.02,0.852 L7.842,1.68 L5.862,3.66 C4.6648519,3.33399922 3.38468424,3.67004323 2.502,4.542 L1.68,5.37 L0.852,4.542 L0,5.4 L2.874,8.274 L1.236,9.912 L2.088,10.764 L3.732,9.12 L6.6,12 L7.452,11.148 L6.63,10.32 L7.452,9.498 C8.3282419,8.61530537 8.66677842,7.33206897 8.34,6.132 L10.32,4.152 L11.148,4.98 Z" id="路径" fill="#326FFF"></path>
            </g>
        </g>
    </g>
</svg>