<?xml version="1.0" encoding="UTF-8"?>
<svg width="14px" height="14px" viewBox="0 0 14 14" version="1.1" xmlns="http://www.w3.org/2000/svg" xmlns:xlink="http://www.w3.org/1999/xlink">
    <title>home-fill</title>
    <g id="页面-1" stroke="none" stroke-width="1" fill="none" fill-rule="evenodd">
        <g id="生产工位" transform="translate(-21.000000, -86.000000)" fill-rule="nonzero">
            <g id="左标签栏/系统首页" transform="translate(0.000000, 75.000000)">
                <g id="home-fill" transform="translate(21.000000, 11.000000)">
                    <rect id="矩形" fill="#000000" opacity="0" x="0" y="0" width="14" height="14"></rect>
                    <path d="M12.9404297,6.90429687 L7.30898437,1.27695312 C7.13808594,1.10605469 6.86191406,1.10605469 6.69101562,1.27695312 L1.05957031,6.90429687 C0.895507812,7.06835937 0.802539062,7.29121094 0.802539062,7.52363281 C0.802539062,8.00625 1.19492187,8.39863281 1.67753906,8.39863281 L2.27089844,8.39863281 L2.27089844,12.4140625 C2.27089844,12.6560547 2.46640625,12.8515625 2.70839844,12.8515625 L6.125,12.8515625 L6.125,9.7890625 L7.65625,9.7890625 L7.65625,12.8515625 L11.2916016,12.8515625 C11.5335937,12.8515625 11.7291016,12.6560547 11.7291016,12.4140625 L11.7291016,8.39863281 L12.3224609,8.39863281 C12.5548828,8.39863281 12.7777344,8.30703125 12.9417969,8.14160156 C13.2822266,7.79980469 13.2822266,7.24609375 12.9404297,6.90429687 L12.9404297,6.90429687 Z" id="路径" fill="#FFFFFF"></path>
                </g>
            </g>
        </g>
    </g>
</svg>