<?xml version="1.0" encoding="UTF-8"?>
<svg width="24px" height="24px" viewBox="0 0 24 24" version="1.1" xmlns="http://www.w3.org/2000/svg" xmlns:xlink="http://www.w3.org/1999/xlink">
    <title>编组备份 3</title>
    <g id="-界面合集" stroke="none" stroke-width="1" fill="none" fill-rule="evenodd">
        <g id="画板备份-4" transform="translate(-69.000000, -154.000000)">
            <g id="编组备份-3" transform="translate(69.000000, 154.000000)">
                <circle id="椭圆形备份" fill-opacity="0.4" fill="#CC395E" cx="12" cy="12" r="12"></circle>
                <path d="M11.974638,2.1762313 C17.3694742,2.1762313 21.7428098,6.54819256 21.7428098,11.9412502 C21.7428098,17.3343079 17.3694742,21.706249 11.974638,21.706249 C6.57988267,21.706249 2.20654709,17.3343079 2.20654709,11.9412502 C2.20654709,6.54819256 6.57988267,2.1762313 11.974638,2.1762313 Z" id="椭圆-5备份" fill="#CC395E"></path>
                <path d="M12.0496207,9.6277402 C12.5755808,9.6277402 12.9803461,9.77938223 13.26477,10.0959324 C13.5419393,10.4122785 13.6838312,10.8474075 13.6838312,11.4005029 C13.6838312,11.8556331 13.5844002,12.2317788 13.4000474,12.5222049 C13.186036,12.2919866 12.968184,12.065442 12.7458511,11.8427751 C12.6993362,11.7950171 12.6212423,11.792568 12.5713134,11.8370605 C12.5713134,11.8372646 12.5711,11.8372646 12.5711,11.8372646 L12.267046,12.1111591 C12.2173305,12.1556516 12.2143433,12.230146 12.2606449,12.2777 C12.5384542,12.5628197 12.7545993,12.7936503 12.9092935,12.9695795 C12.6679706,13.0953016 12.3835467,13.1608158 12.0496207,13.1608158 C11.5238739,13.1608158 11.1116406,12.9961118 10.8276434,12.6732347 C10.5506875,12.3566845 10.4160503,11.9354339 10.4160503,11.4009111 C10.4160503,10.8602654 10.5506875,10.4390149 10.8276434,10.1224647 C11.1191086,9.79264835 11.5238739,9.6277402 12.0496207,9.6277402 M12.0496207,8.94892271 C11.2684685,8.94892271 10.6573732,9.17914103 10.2167615,9.65427245 C9.79087245,10.1028716 9.58475581,10.6827034 9.58475581,11.4009111 C9.58475581,12.1129959 9.79087245,12.6928277 10.2167615,13.1414269 C10.6573732,13.6024758 11.2684685,13.8396333 12.0496207,13.8396333 C12.561285,13.8396333 13.0087245,13.7345248 13.3784969,13.5367575 C13.5455666,13.7433008 13.7083689,13.9529056 13.8673305,14.1653678 C13.9110716,14.2155749 13.9889521,14.2219019 14.0410147,14.1798584 C14.0412281,14.1798584 14.0412281,14.1798584 14.0412281,14.1796544 L14.3905168,13.8982084 C14.4404457,13.8580018 14.4489806,13.7877934 14.410147,13.7375862 C14.2494784,13.5277773 14.0853959,13.3202134 13.9183262,13.1146905 C14.3158369,12.6797657 14.5219535,12.1070772 14.5219535,11.4009111 C14.5219535,10.6761724 14.309009,10.0894014 13.8826932,9.64794553 C13.4350403,9.17914103 12.8241584,8.94892271 12.0496207,8.94892271 M11.9879564,7.2192239 C12.0278568,7.1943244 12.0794927,7.19350802 12.1200332,7.21738705 C12.7793504,7.60516614 13.4892366,7.90783791 14.2313419,8.1178509 C14.9286392,8.31255682 15.6013988,8.40113373 16.2468468,8.38582666 C16.3149123,8.38398981 16.371669,8.43562566 16.373376,8.50093582 L16.373376,8.50379314 L16.373376,12.4907744 C16.373376,14.0386252 14.9811285,15.3964643 12.1964201,16.5638834 C12.1068042,16.6012327 12.0035325,16.5957221 11.9188241,16.5485764 C9.1281413,15.0056238 7.73333333,13.6539076 7.73333333,12.4907744 L7.73333333,8.50440542 C7.73333333,8.43929935 7.78838312,8.38623485 7.8568753,8.38623485 C7.85794215,8.38623485 7.85922238,8.38623485 7.86050261,8.38643894 C8.54862494,8.40521561 9.24720247,8.31541414 9.9568753,8.1178509 C10.6851114,7.91457302 11.3621385,7.61598313 11.9879564,7.2192239" id="Fill-1" fill="#FFFFFF"></path>
            </g>
        </g>
    </g>
</svg>