<?xml version="1.0" encoding="UTF-8"?>
<svg width="24px" height="24px" viewBox="0 0 24 24" version="1.1" xmlns="http://www.w3.org/2000/svg" xmlns:xlink="http://www.w3.org/1999/xlink">
    <title>13</title>
    <g id="-界面合集" stroke="none" stroke-width="1" fill="none" fill-rule="evenodd">
        <g id="20个图标切图" transform="translate(-111.000000, -160.000000)">
            <g id="编组" transform="translate(111.000000, 160.000000)">
                <g transform="translate(12.000000, 12.000000) scale(-1, -1) rotate(180.000000) translate(-12.000000, -12.000000) ">
                    <circle id="椭圆形" fill="#5690FF" opacity="0.4" cx="12" cy="12" r="12"></circle>
                    <path d="M12.0027082,2.20430147 C17.3975444,2.20430147 21.77088,6.57626274 21.77088,11.9693204 C21.77088,17.3623781 17.3975444,21.7343192 12.0027082,21.7343192 C6.60795284,21.7343192 2.23461726,17.3623781 2.23461726,11.9693204 C2.23461726,6.57626274 6.60795284,2.20430147 12.0027082,2.20430147 Z" id="椭圆-5" fill="#5690FF"></path>
                    <path d="M13.0071414,13.7553188 C12.4863379,13.6131986 11.8971454,13.5757755 11.4847239,13.0003283 C11.4847239,13.0003283 11.2742886,12.7486649 11.7477433,12.1347514 C12.1779541,11.4354793 12.3207298,10.5926292 12.1453538,9.78753015 C12.0069018,9.05833968 11.3785489,8.53145044 10.6473893,8.53145044 C9.91622978,8.53145044 9.28787687,9.05833968 9.14942487,9.78753015 C8.97409951,10.5926304 9.11687186,11.435461 9.54703538,12.1347514 C10.0231077,12.7486649 9.81323561,13.0003283 9.81323561,13.0003283 C9.40290157,13.5699197 8.81897741,13.6115832 8.30185181,13.7526265 C8.09759095,13.8006204 7.90399344,13.8870657 7.73108193,14.007487 C7.13105455,14.4547467 7.2793964,15.4736842 7.2793964,15.4736842 L14.0182649,15.4736842 C14.0182649,15.4736842 14.1655465,14.4547467 13.5669107,14.0080592 C13.39694,13.889961 13.2072933,13.8041465 13.0071745,13.7547803 L13.0071414,13.7553188 Z M13.0071414,13.7553188 L16.2687073,14.0085976 C16.0988875,13.8910558 15.9091112,13.8064606 15.7089711,13.759088 C15.1828992,13.6137707 13.9760519,12.7513572 14.4465577,12.1342466 C14.8782326,11.4341581 15.021077,10.58956 14.8441682,9.78328977 C14.7498879,9.2651978 14.4007717,8.83232533 13.9192237,8.63644224 C13.4376757,8.44055916 12.8908863,8.50899707 12.470566,8.81776089 C12.6464143,9.07310331 12.7637823,9.36517427 12.8140684,9.67256861 C12.9902768,10.5934113 12.8471604,11.5478171 12.4090358,12.3736264 C12.3535891,12.4357736 12.3223586,12.5163247 12.321197,12.6001841 C12.357388,12.7922604 12.5114723,12.9386722 12.7025718,12.9625687 L12.8819604,13.0053091 C12.9829534,13.0331072 13.084079,13.0534005 13.1786441,13.0806601 C13.4614768,13.1502463 13.7290719,13.272738 13.9677353,13.4418668 C14.5300014,13.952414 14.8059661,14.7132156 14.7042093,15.4722371 L16.7205916,15.4722371 C16.7205916,15.4722371 16.8689334,14.4517178 16.2692374,14.006612 L13.0071414,13.7553188 Z" id="形状" fill="#FFFFFF" fill-rule="nonzero"></path>
                </g>
            </g>
        </g>
    </g>
</svg>