<?xml version="1.0" encoding="UTF-8"?>
<svg width="24px" height="24px" viewBox="0 0 24 24" version="1.1" xmlns="http://www.w3.org/2000/svg" xmlns:xlink="http://www.w3.org/1999/xlink">
    <title></title>
    <g id="-界面合集" stroke="none" stroke-width="1" fill="none" fill-rule="evenodd">
        <g id="画板备份-4" transform="translate(-69.000000, -198.000000)">
            <g id="编组-5" transform="translate(69.000000, 198.000000)">
                <circle id="椭圆形" fill-opacity="0.3" fill="#C39022" cx="12" cy="12" r="12"></circle>
                <path d="M12.0027082,2.20430147 C17.3975444,2.20430147 21.77088,6.57626274 21.77088,11.9693204 C21.77088,17.3623781 17.3975444,21.7343192 12.0027082,21.7343192 C6.60795284,21.7343192 2.23461726,17.3623781 2.23461726,11.9693204 C2.23461726,6.57626274 6.60795284,2.20430147 12.0027082,2.20430147 Z" id="椭圆-5" fill="#C39022"></path>
                <polygon id="Clip-2" points="7.89480085 7.25462304 16.194303 7.25462304 16.194303 16.6429587 7.89480085 16.6429587"></polygon>
                <path d="M12.3314296,12.1045946 C12.3015576,12.1214509 12.2829943,12.1534566 12.2829943,12.1878094 L12.2829943,16.6430014 L16.1467212,14.4224467 C16.1763798,14.405377 16.194303,14.3740114 16.194303,14.339872 L16.194303,9.91711238 L12.3314296,12.1045946 Z M10.950064,12.6954196 C10.950064,12.768606 10.8704765,12.8144808 10.8068919,12.7777809 L9.18014936,11.838734 C9.15070413,11.8216643 9.13256757,11.7900853 9.13256757,11.7559459 L9.13256757,11.4678947 C9.13256757,11.394495 9.21194168,11.3484068 9.27552632,11.3853201 L10.9024822,12.324367 C10.9317141,12.3414367 10.950064,12.3730156 10.950064,12.407155 L10.950064,12.6954196 Z M11.8061095,12.180128 C11.8061095,12.1457752 11.7877596,12.1141963 11.758101,12.0971266 L7.89480085,9.88297297 L7.89480085,14.339872 C7.89480085,14.3740114 7.91293741,14.405377 7.94259602,14.4224467 L11.8061095,16.6430014 L11.8061095,12.180128 Z M12.0039047,11.6880939 C12.0331366,11.7049502 12.0691963,11.7049502 12.0984282,11.6885206 L15.9706899,9.49613087 L12.0922404,7.26725462 C12.0627952,7.25039829 12.026522,7.25039829 11.9972902,7.26725462 L8.1491394,9.47863442 L12.0039047,11.6880939 Z" id="Fill-1" fill="#FFFFFF"></path>
            </g>
        </g>
    </g>
</svg>