<?xml version="1.0" encoding="UTF-8"?>
<svg width="24px" height="24px" viewBox="0 0 24 24" version="1.1" xmlns="http://www.w3.org/2000/svg" xmlns:xlink="http://www.w3.org/1999/xlink">
    <title></title>
    <g id="-界面合集" stroke="none" stroke-width="1" fill="none" fill-rule="evenodd">
        <g id="画板备份-4" transform="translate(-191.000000, -198.000000)">
            <g id="编组-6" transform="translate(191.000000, 198.000000)">
                <circle id="椭圆形" fill-opacity="0.3" fill="#C39022" cx="12" cy="12" r="12"></circle>
                <path d="M12.0027082,2.20430147 C17.3975444,2.20430147 21.77088,6.57626274 21.77088,11.9693204 C21.77088,17.3623781 17.3975444,21.7343192 12.0027082,21.7343192 C6.60795284,21.7343192 2.23461726,17.3623781 2.23461726,11.9693204 C2.23461726,6.57626274 6.60795284,2.20430147 12.0027082,2.20430147 Z" id="椭圆-5" fill="#C39022"></path>
                <path d="M8.21408991,16.1052632 L8.21408991,7.89473684 L15.9684759,7.89473684 L15.9684759,16.1052632 L8.21408991,16.1052632 Z M12.3193531,9.71929825 L11.4070724,9.71929825 L11.4070724,8.80701755 L10.4947917,8.80701755 L10.4947917,9.71929825 L9.58251096,9.71929825 L9.58251096,10.6315789 L10.4947917,10.6315789 L10.4947917,11.5438596 L11.4070724,11.5438596 L11.4070724,10.6315789 L12.3193531,10.6315789 L12.3193531,9.71929825 Z M14.6000548,12.4561404 L9.58251096,12.4561404 L9.58251096,13.3684211 L14.6000548,13.3684211 L14.6000548,12.4561404 L14.6000548,12.4561404 Z M14.6000548,14.2807018 L9.58251096,14.2807018 L9.58251096,15.1929825 L14.6000548,15.1929825 L14.6000548,14.2807018 L14.6000548,14.2807018 Z" id="形状" fill="#FFFFFF" fill-rule="nonzero"></path>
            </g>
        </g>
    </g>
</svg>