<?xml version="1.0" encoding="UTF-8"?>
<svg width="24px" height="24px" viewBox="0 0 24 24" version="1.1" xmlns="http://www.w3.org/2000/svg" xmlns:xlink="http://www.w3.org/1999/xlink">
    <title>20</title>
    <g id="-界面合集" stroke="none" stroke-width="1" fill="none" fill-rule="evenodd">
        <g id="20个图标切图" transform="translate(-185.000000, -196.000000)">
            <g id="编组" transform="translate(185.000000, 196.000000)">
                <circle id="椭圆形" fill="#CC3A5F" opacity="0.516369048" cx="12" cy="12" r="12"></circle>
                <path d="M12.0027082,2.20430147 C17.3975444,2.20430147 21.77088,6.57626274 21.77088,11.9693204 C21.77088,17.3623781 17.3975444,21.7343192 12.0027082,21.7343192 C6.60795284,21.7343192 2.23461726,17.3623781 2.23461726,11.9693204 C2.23461726,6.57626274 6.60795284,2.20430147 12.0027082,2.20430147 Z" id="椭圆-5" fill="#CC395E"></path>
                <path d="M15.8293442,8.9379716 L14.11466,7.22328734 C13.7746171,6.87600952 13.3911645,6.87600952 13.152411,7.11476302 L7.44403176,12.8231423 C7.32827249,12.9389015 7.26315789,13.0908356 7.26315789,13.2500046 C7.26315789,13.4091736 7.32827249,13.5683426 7.44403176,13.6768669 L9.15871602,15.3915512 C9.2744753,15.5073105 9.42640934,15.572425 9.58557835,15.572425 C9.74474735,15.572425 9.90391635,15.5073105 10.0124407,15.3915512 L15.7208199,9.69040689 C15.9595734,9.45165338 15.9595734,9.06820079 15.8293442,8.9379716 Z M9.8966814,14.6535858 C9.78092212,14.7693451 9.58557835,14.7693451 9.46981907,14.6535858 L9.2093607,14.3931274 C9.1297762,14.3135429 9.10083638,14.2050186 9.1297762,14.0964943 C9.15871602,13.98797 9.23830052,13.9083855 9.34682484,13.8794456 C9.45534916,13.8505058 9.56387348,13.8866806 9.64345798,13.9590301 L9.90391635,14.2194885 C10.0196756,14.3424827 10.0196756,14.5378265 9.8966814,14.6535858 L9.8966814,14.6535858 Z M10.8878702,13.662397 C10.7721109,13.7781563 10.5767671,13.7781563 10.4610079,13.662397 L9.7519823,12.9533714 C9.6723978,12.8737869 9.64345798,12.7652626 9.6723978,12.6567383 C9.70133762,12.548214 9.78092212,12.4686295 9.88944644,12.4396897 C9.99797076,12.4107498 10.1064951,12.4469246 10.1860796,12.5192742 L10.8951051,13.2282997 C11.0108644,13.351294 11.0108644,13.5466377 10.8878702,13.662397 L10.8878702,13.662397 Z M11.9297037,12.6277985 C11.8139444,12.7435578 11.6186006,12.7435578 11.5028413,12.6277985 L11.235148,12.3673401 C11.1555635,12.2877556 11.1266237,12.1792313 11.1555635,12.070707 C11.1845033,11.9621827 11.2640878,11.8825982 11.3726122,11.8536583 C11.4811365,11.8247185 11.5896608,11.8608933 11.6692453,11.9332428 L11.9297037,12.1937012 C12.0454629,12.3166954 12.0454629,12.5120392 11.9297037,12.6277985 L11.9297037,12.6277985 Z M12.9208925,11.6366097 C12.8051332,11.752369 12.6097894,11.752369 12.4940301,11.6366097 L11.7850046,10.9275841 C11.7054201,10.8479996 11.6764803,10.7394753 11.7054201,10.630951 C11.7343599,10.5224267 11.8139444,10.4428422 11.9224687,10.4139024 C12.030993,10.3849625 12.1395173,10.4211373 12.2191019,10.4934869 L12.9281274,11.2025124 C13.0366517,11.3255066 13.0366517,11.5136155 12.9208925,11.6366097 Z M13.9916657,10.5658364 C13.8759065,10.6815957 13.6805627,10.6815957 13.5648034,10.5658364 L13.3043451,10.305378 C13.2175256,10.2257935 13.1885858,10.1172692 13.2175256,10.0087449 C13.2464654,9.90022057 13.3260499,9.82063607 13.4345742,9.79169625 C13.5430986,9.76275644 13.6516229,9.79893121 13.7312074,9.87128076 L13.9916657,10.1317391 C14.107425,10.2547334 14.107425,10.4500771 13.9916657,10.5658364 L13.9916657,10.5658364 Z M14.9828545,9.57464761 C14.8670953,9.69040689 14.6717515,9.69040689 14.5559922,9.57464761 L13.8397317,8.86562205 C13.7601472,8.78603755 13.7312074,8.67751323 13.7601472,8.56898891 C13.789087,8.46046459 13.8686715,8.38088009 13.9771958,8.35194027 C14.0857202,8.32300045 14.1942445,8.35917523 14.273829,8.43152477 L14.9828545,9.14055033 C15.0986138,9.26354456 15.0986138,9.45888834 14.9828545,9.57464761 Z M15.6340005,10.5658364 L10.9312799,15.2902618 C10.7431711,15.4783706 10.9095751,15.7894737 11.1845033,15.7894737 L15.6267655,15.7894737 C15.9595734,15.7894737 16.0898026,15.5507202 16.0898026,15.2106773 L16.0898026,10.782885 C16.0825677,10.5079568 15.8293442,10.3777276 15.6340005,10.5658364 Z M15.3373673,14.5450615 C15.3373673,14.7114654 15.1781983,14.783815 15.0117944,14.783815 L13.0149469,14.783815 C12.8774827,14.783815 12.8123681,14.6897606 12.9064225,14.5884712 L15.076909,12.4686295 C15.1709634,12.3745751 15.3590722,12.4758644 15.3590722,12.6060936 L15.3590722,14.6101761 L15.3373673,14.5450615 Z" id="形状" fill="#FFFFFF" fill-rule="nonzero"></path>
            </g>
        </g>
    </g>
</svg>