<?xml version="1.0" encoding="UTF-8"?>
<svg width="24px" height="24px" viewBox="0 0 24 24" version="1.1" xmlns="http://www.w3.org/2000/svg" xmlns:xlink="http://www.w3.org/1999/xlink">
    <title></title>
    <g id="-界面合集" stroke="none" stroke-width="1" fill="none" fill-rule="evenodd">
        <g id="画板备份-4" transform="translate(-191.000000, -62.000000)">
            <g id="编组-2" transform="translate(191.000000, 62.000000)">
                <circle id="椭圆形" fill-opacity="0.3" fill="#63C7ED" cx="12" cy="12" r="12"></circle>
                <path d="M12.0027082,2.20430147 C17.3975444,2.20430147 21.77088,6.57626274 21.77088,11.9693204 C21.77088,17.3623781 17.3975444,21.7343192 12.0027082,21.7343192 C6.60795284,21.7343192 2.23461726,17.3623781 2.23461726,11.9693204 C2.23461726,6.57626274 6.60795284,2.20430147 12.0027082,2.20430147 Z" id="椭圆-5" fill="#63C7ED"></path>
                <path d="M12.7799652,14.939177 L11.0113391,14.939177 C11.1551072,15.3220639 11.4647188,15.5079422 11.8956522,15.5079422 C12.3265855,15.5079422 12.6363826,15.3220639 12.7799652,14.939177 L12.7799652,14.939177 Z M13.5872928,14.939177 C13.3936232,15.7774842 12.7586319,16.2664813 11.8956522,16.2664813 C11.032858,16.2664813 10.3978667,15.7774842 10.2041971,14.939177 L8,14.939177 L8,14.1806378 L8.38956522,14.1806378 L8.38956522,11.5258436 C8.38975072,9.92936827 9.52616812,8.54622624 11.1259826,8.19524653 C11.0790493,7.99081754 11.2111304,7.78805812 11.4213101,7.74242334 C11.4489507,7.7363016 11.4775188,7.73333333 11.506087,7.73333333 L12.2852174,7.73333333 C12.5004058,7.73314798 12.6749681,7.90307262 12.6749681,8.1125103 C12.6749681,8.14033638 12.671629,8.16816247 12.6655072,8.19524653 C14.2315594,8.53657986 15.4017391,9.89801754 15.4017391,11.5258436 L15.4017391,14.1806378 L15.7913043,14.1806378 L15.7913043,14.939177 L13.5872928,14.939177 Z" id="Fill-1" fill="#FFFFFF"></path>
            </g>
        </g>
    </g>
</svg>