<?xml version="1.0" encoding="UTF-8"?>
<svg width="24px" height="24px" viewBox="0 0 24 24" version="1.1" xmlns="http://www.w3.org/2000/svg" xmlns:xlink="http://www.w3.org/1999/xlink">
    <title>18</title>
    <g id="-界面合集" stroke="none" stroke-width="1" fill="none" fill-rule="evenodd">
        <g id="20个图标切图" transform="translate(-111.000000, -196.000000)">
            <g id="编组" transform="translate(111.000000, 196.000000)">
                <g transform="translate(12.000000, 12.000000) scale(-1, -1) rotate(180.000000) translate(-12.000000, -12.000000) ">
                    <circle id="椭圆形备份" fill-opacity="0.3" fill="#7159FF" cx="12" cy="12" r="12"></circle>
                    <path d="M12.0027082,2.20430147 C17.3975444,2.20430147 21.77088,6.57626274 21.77088,11.9693204 C21.77088,17.3623781 17.3975444,21.7343192 12.0027082,21.7343192 C6.60795284,21.7343192 2.23461726,17.3623781 2.23461726,11.9693204 C2.23461726,6.57626274 6.60795284,2.20430147 12.0027082,2.20430147 Z" id="椭圆-5备份" fill="#7159FF"></path>
                    <path d="M15.5799838,15.8021091 L15.5799838,11.3516379 C15.5799838,10.9390089 15.2523401,10.6148279 14.8353036,10.6148279 L14.0309636,10.6148279 L14.0309636,11.2337714 L14.8353036,11.2337714 C14.8949636,11.2337714 14.9544291,11.2926085 14.9544291,11.3222193 L14.9544291,15.8021091 L13.7629798,15.8021091 L13.7629798,8.31575743 C13.7629798,7.90312842 13.435336,7.57894737 13.0182996,7.57894737 L9.11611336,7.57894737 C8.69907693,7.57894737 8.3714332,7.90312842 8.3714332,8.31575743 L8.3714332,15.8021091 L7.89473684,15.8021091 L7.89473684,16.4210526 L16.0566802,16.4210526 L16.0566802,15.8021091 L15.5799838,15.8021091 L15.5799838,15.8021091 Z M10.0990445,9.08217833 L12.0353684,9.08217833 L12.0353684,9.67151101 L10.0990445,9.67151101 L10.0990445,9.08217833 Z M10.0990445,12.2653439 L12.0353684,12.2653439 L12.0353684,12.8842874 L10.0990445,12.8842874 L10.0990445,12.2653439 Z M12.0651012,14.5051927 L10.1289717,14.5051927 L10.1289717,13.8862491 L12.0651012,13.8862491 L12.0651012,14.5051927 Z M12.0651012,11.2631899 L10.1289717,11.2631899 L10.1289717,10.673665 L12.0651012,10.673665 L12.0651012,11.2631899 Z" id="形状" fill="#FFFFFF" fill-rule="nonzero"></path>
                </g>
            </g>
        </g>
    </g>
</svg>