<?xml version="1.0" encoding="UTF-8"?>
<svg width="24px" height="24px" viewBox="0 0 24 24" version="1.1" xmlns="http://www.w3.org/2000/svg" xmlns:xlink="http://www.w3.org/1999/xlink">
    <title>09</title>
    <g id="-界面合集" stroke="none" stroke-width="1" fill="none" fill-rule="evenodd">
        <g id="20个图标切图" transform="translate(-148.000000, -124.000000)">
            <g id="编组" transform="translate(148.000000, 124.000000)">
                <g transform="translate(12.000000, 12.000000) scale(-1, -1) rotate(180.000000) translate(-12.000000, -12.000000) ">
                    <circle id="椭圆形" fill-opacity="0.3" fill="#C39022" cx="12" cy="12" r="12"></circle>
                    <path d="M12.0027082,2.20430147 C17.3975444,2.20430147 21.77088,6.57626274 21.77088,11.9693204 C21.77088,17.3623781 17.3975444,21.7343192 12.0027082,21.7343192 C6.60795284,21.7343192 2.23461726,17.3623781 2.23461726,11.9693204 C2.23461726,6.57626274 6.60795284,2.20430147 12.0027082,2.20430147 Z" id="椭圆-5" fill="#C39022"></path>
                    <path d="M11.9656472,7.28054495 C12.6249644,7.66832403 13.3348506,7.97099581 14.0769559,8.1810088 C14.7742532,8.37571472 15.4470128,8.46429162 16.0924609,8.44898455 C16.1605263,8.4471477 16.2172831,8.49878355 16.21899,8.56409371 L16.21899,12.5539323 C16.21899,14.1017831 14.8267425,15.4596222 12.0420341,16.6270413 C11.9524182,16.6643906 11.8491465,16.65888 11.7644381,16.6117343 C8.97375533,15.0687817 7.57894737,13.7170654 7.57894737,12.5539323 L7.57894737,8.56756331 C7.57894737,8.50245725 7.63399716,8.44939274 7.70248933,8.44939274 C8.39423898,8.46837351 9.0928165,8.37857204 9.80248933,8.1810088 C10.5307255,7.97773092 11.2077525,7.67914103 11.8335704,7.28238179 C11.8734708,7.2574823 11.9251067,7.25666592 11.9656472,7.28054495 Z M13.8045113,10.1052632 L11.4665764,12.4319876 L10.2374314,11.2087363 L9.47368421,11.9761633 L11.4665764,13.9594996 L14.5682585,10.8726902 L13.8045113,10.1052632 Z" id="形状结合" fill="#FFFFFF"></path>
                </g>
            </g>
        </g>
    </g>
</svg>