<?xml version="1.0" encoding="UTF-8"?>
<svg width="24px" height="24px" viewBox="0 0 24 24" version="1.1" xmlns="http://www.w3.org/2000/svg" xmlns:xlink="http://www.w3.org/1999/xlink">
    <title>编组备份</title>
    <g id="-界面合集" stroke="none" stroke-width="1" fill="none" fill-rule="evenodd">
        <g id="画板备份-4" transform="translate(-69.000000, -106.000000)">
            <g id="编组备份" transform="translate(69.000000, 106.000000)">
                <circle id="椭圆形备份" fill-opacity="0.3" fill="#5690FF" cx="12" cy="12" r="12"></circle>
                <path d="M11.974638,2.1762313 C17.3694742,2.1762313 21.7428098,6.54819256 21.7428098,11.9412502 C21.7428098,17.3343079 17.3694742,21.706249 11.974638,21.706249 C6.57988267,21.706249 2.20654709,17.3343079 2.20654709,11.9412502 C2.20654709,6.54819256 6.57988267,2.1762313 11.974638,2.1762313 Z" id="椭圆-5备份" fill="#5690FF"></path>
                <path d="M15.4416201,12.8819273 C15.4416201,12.8819273 15.5979918,11.5492655 14.7592712,11.1967095 L14.7379478,11.1967095 C14.6455463,11.1967095 14.5104981,11.1614539 14.3754499,11.2742718 L12.0725221,13.4883237 C12.1436002,13.6716528 12.115169,13.8126752 11.9801207,13.9466465 L11.9090427,13.9960044 L9.7695944,16.1113406 L9.69851639,16.1748006 C9.62743837,16.2453118 9.51371354,16.2876186 9.39998872,16.2876186 C8.85268799,16.2876186 8.07793761,15.3850751 8.49019011,14.9761101 L8.56126812,14.9055989 L10.7007164,12.7832116 L10.7717944,12.7127004 C10.8641959,12.6210358 10.9565973,12.5998825 11.0703221,12.5998825 C11.1414001,12.5998825 11.2053703,12.6210358 11.2764484,12.6210358 L13.3234952,10.5903131 C13.4158967,10.4563418 13.6433463,10.2095526 13.4798669,9.84289432 C13.3234952,9.57495173 13.0036442,9.48328717 12.8401647,9.43392932 C12.6340385,9.43392932 12.4279122,9.20829346 12.2502172,9.02496432 L12.1791392,8.95445312 C11.9303661,8.7076639 11.8592881,8.68651053 12.1578158,8.41151683 L12.9396739,7.6499958 C13.0747222,7.51602451 13.1458002,7.46666667 13.2097704,7.46666667 C13.3021718,7.46666667 13.366142,7.55833123 13.4798669,7.67114916 L13.5509449,7.74166037 C13.7073165,7.89678502 13.9134428,8.08011416 13.9347662,8.2634433 C13.9560896,8.30575002 14.0058442,8.51023252 14.1835392,8.73586838 C14.2546173,8.82753295 14.5033903,8.73586838 14.5673605,8.82753295 L15.8325492,10.0685302 C16.7921024,11.0204315 15.9889209,13.3261479 15.9889209,13.3261479 L15.4416201,12.8819273 Z M12.0938455,10.9499203 L11.0489987,11.9934861 C10.9779207,11.9934861 10.9352739,11.9934861 10.8641959,12.0146395 L10.1107689,11.2672207 C9.90464264,11.3588853 9.69851639,11.4223453 9.52082135,11.4223453 C8.4688667,11.4223453 7.46666667,10.4281373 7.46666667,9.3916226 L7.65146951,9.20829346 C8.51862131,10.0685302 8.33381847,9.97686561 8.8811192,9.97686561 C9.29337169,9.97686561 9.97572065,9.32111139 9.97572065,8.89099303 C9.97572065,8.36921011 10.0467987,8.51023252 9.20097027,7.67114916 L9.38577311,7.49487115 C10.43062,7.47371779 11.43282,8.48907916 11.43282,9.52559389 C11.43282,9.70892303 11.361742,9.9063544 11.2764484,10.1390414 L12.0938455,10.9499203 Z M15.1217691,14.6376563 C15.3705421,14.6376563 15.5766684,14.8421388 15.5766684,15.0889281 C15.5766684,15.3357173 15.3705421,15.5401998 15.1217691,15.5401998 C14.872996,15.5401998 14.6668697,15.3357173 14.6668697,15.0889281 C14.6668697,14.8350877 14.872996,14.6376563 15.1217691,14.6376563 Z M12.6837931,13.8197263 L14.0769222,15.201746 L14.8303492,16.195954 L15.2141705,16.3087719 L16.3087719,15.2228994 L16.1950471,14.8139344 L15.2141705,14.0947201 L13.7357477,12.6210358 L12.6837931,13.6646017 C12.7122243,13.7069084 12.7122243,13.7774196 12.6837931,13.8197263 Z" id="形状" fill="#FFFFFF" fill-rule="nonzero"></path>
            </g>
        </g>
    </g>
</svg>