<?xml version="1.0" encoding="UTF-8"?>
<svg width="24px" height="24px" viewBox="0 0 24 24" version="1.1" xmlns="http://www.w3.org/2000/svg" xmlns:xlink="http://www.w3.org/1999/xlink">
    <title>12</title>
    <g id="-界面合集" stroke="none" stroke-width="1" fill="none" fill-rule="evenodd">
        <g id="20个图标切图" transform="translate(-74.000000, -160.000000)">
            <g id="编组" transform="translate(74.000000, 160.000000)">
                <g transform="translate(12.000000, 12.000000) scale(-1, -1) rotate(180.000000) translate(-12.000000, -12.000000) ">
                    <circle id="椭圆形备份" fill-opacity="0.3" fill="#7159FF" cx="12" cy="12" r="12"></circle>
                    <path d="M12.0027082,2.20430147 C17.3975444,2.20430147 21.77088,6.57626274 21.77088,11.9693204 C21.77088,17.3623781 17.3975444,21.7343192 12.0027082,21.7343192 C6.60795284,21.7343192 2.23461726,17.3623781 2.23461726,11.9693204 C2.23461726,6.57626274 6.60795284,2.20430147 12.0027082,2.20430147 Z" id="椭圆-5备份" fill="#7159FF"></path>
                    <path d="M11.3937526,11.4449549 C11.369255,12.1994299 10.7419848,12.7935859 9.98729077,12.7771683 C9.23259673,12.7607507 8.63175822,12.1398785 8.64009388,11.3850519 C8.64842953,10.6302254 9.2628326,10.0227732 10.0177052,10.0230259 C10.7902632,10.0360271 11.4062623,10.6723824 11.3941482,11.4449549 L11.3937526,11.4449549 Z M11.3937526,11.4449549 C11.369255,12.1994299 10.7419848,12.7935859 9.98729077,12.7771683 C9.23259673,12.7607507 8.63175822,12.1398785 8.64009388,11.3850519 C8.64842953,10.6302254 9.2628326,10.0227732 10.0177052,10.0230259 C10.7902632,10.0360271 11.4062623,10.6723824 11.3941482,11.4449549 L11.3937526,11.4449549 Z M13.5375231,7.95875701 L10.7506215,9.68722138 C10.5202078,9.58296216 10.2702136,9.52902598 10.0173096,9.52900954 C9.99657453,9.52875722 9.97584183,9.52968161 9.95521148,9.53177825 L12.1674085,8.19726136 L12.1721549,8.2043809 C12.5642257,7.91407251 13.0692666,7.82324412 13.5379186,7.95875701 L13.5375231,7.95875701 Z M14.7166129,9.56223402 C14.7182361,10.0547899 14.5043667,10.523424 14.131213,10.8449365 L11.6595485,12.3329189 C11.966412,11.730725 11.9408418,11.0128174 11.591913,10.4339813 C11.591913,10.4316081 11.5903309,10.4316081 11.5895398,10.4292349 C11.5482567,10.3581825 11.5007379,10.2909415 11.4475447,10.2283059 C11.339874,10.0924174 11.2136542,9.97232222 11.0725826,9.87153817 L13.9025969,8.11696886 C14.409861,8.42142174 14.7191822,8.97062457 14.7166129,9.56223402 L14.7166129,9.56223402 Z M15.5329699,11.2558918 L12.7460683,12.9823785 C12.5153683,12.8788345 12.2652308,12.8257055 12.0123609,12.8265398 L11.9502628,12.8265398 L14.1628554,11.4943961 L14.1676017,11.5015157 C14.5580516,11.2078222 15.0646438,11.1166885 15.5329699,11.2558918 L15.5329699,11.2558918 Z M16.7116481,12.8593688 C16.7134856,13.3517978 16.4999148,13.8204108 16.1270554,14.1420713 L13.6549954,15.6300537 C13.9617035,15.0269558 13.9359919,14.3083777 13.5869643,13.7287429 L13.5849866,13.7263697 C13.530264,13.6324717 13.4658351,13.544578 13.3927592,13.4641336 C13.2966372,13.352516 13.1876349,13.2526747 13.0680294,13.1666953 L15.8980437,11.4141036 C16.4058981,11.7179819 16.7154263,12.2675524 16.7120711,12.8593688 L16.7116481,12.8593688 Z M13.3765425,14.7420897 C13.3522599,15.4968433 12.7249003,16.0913764 11.9699316,16.0750999 C11.2149629,16.0588233 10.6138097,15.4378044 10.6220784,14.6827055 C10.6303471,13.9276066 11.2449554,13.3199009 12.0000995,13.3201607 C12.3712195,13.3260916 12.7247713,13.4792585 12.9829261,13.7459443 C13.2410809,14.01263 13.3826764,14.370973 13.3765425,14.7420897 L13.3765425,14.7420897 Z M13.3765425,14.7420897 C13.3522599,15.4968433 12.7249003,16.0913764 11.9699316,16.0750999 C11.2149629,16.0588233 10.6138097,15.4378044 10.6220784,14.6827055 C10.6303471,13.9276066 11.2449554,13.3199009 12.0000995,13.3201607 C12.3712195,13.3260916 12.7247713,13.4792585 12.9829261,13.7459443 C13.2410809,14.01263 13.3826764,14.370973 13.3765425,14.7420897 L13.3765425,14.7420897 Z M10.0177052,14.7420897 C9.99342255,15.4968433 9.36606291,16.0913764 8.61109421,16.0750999 C7.85612552,16.0588233 7.25497227,15.4378044 7.26324097,14.6827055 C7.27150967,13.9276066 7.88611805,13.3199009 8.64126214,13.3201607 C9.01241597,13.3259871 9.36602937,13.4791213 9.62420657,13.7458302 C9.88238377,14.0125391 10.0239445,14.3709426 10.0177052,14.7420897 L10.0177052,14.7420897 Z M10.0177052,14.7420897 C9.99342255,15.4968433 9.36606291,16.0913764 8.61109421,16.0750999 C7.85612552,16.0588233 7.25497227,15.4378044 7.26324097,14.6827055 C7.27150967,13.9276066 7.88611805,13.3199009 8.64126214,13.3201607 C9.01241597,13.3259871 9.36602937,13.4791213 9.62420657,13.7458302 C9.88238377,14.0125391 10.0239445,14.3709426 10.0177052,14.7420897 L10.0177052,14.7420897 Z" id="形状" fill="#FFFFFF" fill-rule="nonzero"></path>
                </g>
            </g>
        </g>
    </g>
</svg>