<?xml version="1.0" encoding="UTF-8"?>
<svg width="24px" height="24px" viewBox="0 0 24 24" version="1.1" xmlns="http://www.w3.org/2000/svg" xmlns:xlink="http://www.w3.org/1999/xlink">
    <title>19</title>
    <g id="-界面合集" stroke="none" stroke-width="1" fill="none" fill-rule="evenodd">
        <g id="20个图标切图" transform="translate(-148.000000, -196.000000)">
            <g id="编组" transform="translate(148.000000, 196.000000)">
                <circle id="椭圆形" fill="#5690FF" opacity="0.4" cx="12" cy="12" r="12"></circle>
                <path d="M12.0027082,2.20430147 C17.3975444,2.20430147 21.77088,6.57626274 21.77088,11.9693204 C21.77088,17.3623781 17.3975444,21.7343192 12.0027082,21.7343192 C6.60795284,21.7343192 2.23461726,17.3623781 2.23461726,11.9693204 C2.23461726,6.57626274 6.60795284,2.20430147 12.0027082,2.20430147 Z" id="椭圆-5" fill="#5690FF"></path>
                <path d="M9.7199332,13.3821646 L14.5951316,13.3821646 C14.7746942,13.3821646 14.9202449,13.2446167 14.9202449,13.0745575 L12.7484883,11.8413779 L12.7484883,7.85523916 C12.7484883,7.52824171 12.4834045,7.26315789 12.156407,7.26315789 C11.8294096,7.26315789 11.5643258,7.52824171 11.5643258,7.85523916 L11.5643258,11.8431285 L9.39507002,13.0745575 C9.39507002,13.2446167 9.54087082,13.3821646 9.72018329,13.3821646 L9.7199332,13.3821646 Z M15.3113811,14.2004497 C15.3113811,13.980373 15.0762992,13.7760519 14.857473,13.7760519 L12.8585266,13.7760519 C12.8337738,13.7751203 12.8090145,13.77437 12.7842507,13.7738011 L11.9284526,13.7760519 L9.57263188,13.7760519 C9.35430582,13.7760519 9.11422219,13.980373 9.11422219,14.2004497 L8.90715004,15.1350253 L8.22841359,16.2429113 C8.1193756,16.4699904 8.53351988,16.4634881 8.80261363,16.5362635 C9.07220755,16.6092889 9.30603901,16.6022865 9.59188859,16.5362635 C9.59188859,16.5362635 9.76820002,16.5112547 9.99502904,16.4897473 C10.1693398,16.3456971 10.5642273,15.9908234 10.597739,15.7124765 C10.635002,15.3973667 10.8710842,16.288177 10.9271038,16.5072534 C10.9441097,16.5140057 10.9596151,16.5240092 10.9731198,16.5362635 C11.1454298,16.7088236 11.674114,16.6868159 11.674114,16.6868159 C11.8961914,16.741585 12.1767891,16.7518386 12.4253757,16.7153258 L13.735082,16.3391948 L14.3552981,16.6100392 C14.624892,16.6548047 14.9420025,16.6407999 15.1828364,16.5742767 L15.219099,16.5632729 C15.4149172,16.5025017 15.5274564,16.4134707 15.534959,16.3201882 C15.6392454,16.2484132 15.7080193,16.1283713 15.7080193,15.9915737 L15.310881,14.2006998 L15.3113811,14.2006998 L15.3113811,14.2004497 Z" id="形状" fill="#FFFFFF" fill-rule="nonzero"></path>
            </g>
        </g>
    </g>
</svg>