<?xml version="1.0" encoding="UTF-8"?>
<svg width="24px" height="24px" viewBox="0 0 24 24" version="1.1" xmlns="http://www.w3.org/2000/svg" xmlns:xlink="http://www.w3.org/1999/xlink">
    <title>17</title>
    <g id="-界面合集" stroke="none" stroke-width="1" fill="none" fill-rule="evenodd">
        <g id="20个图标切图" transform="translate(-74.000000, -196.000000)">
            <g id="编组" transform="translate(74.000000, 196.000000)">
                <circle id="椭圆形备份" fill-opacity="0.3" fill="#63C7ED" cx="12" cy="12" r="12"></circle>
                <path d="M12.0027082,2.20430147 C17.3975444,2.20430147 21.77088,6.57626274 21.77088,11.9693204 C21.77088,17.3623781 17.3975444,21.7343192 12.0027082,21.7343192 C6.60795284,21.7343192 2.23461726,17.3623781 2.23461726,11.9693204 C2.23461726,6.57626274 6.60795284,2.20430147 12.0027082,2.20430147 Z" id="椭圆-5备份" fill="#63C7ED"></path>
                <path d="M15.5539008,12.994208 C15.5539008,12.994208 15.7102725,11.6615462 14.8715519,11.3089902 L14.8502285,11.3089902 C14.757827,11.3089902 14.6227788,11.2737346 14.4877306,11.3865525 L12.1848028,13.6006044 C12.2558809,13.7839335 12.2274497,13.9249559 12.0924014,14.0589272 L12.0213234,14.1082851 L9.88187511,16.2236213 L9.81079709,16.2870813 C9.73971907,16.3575925 9.62599425,16.3998993 9.51226942,16.3998993 C8.96496869,16.3998993 8.19021831,15.4973558 8.60247081,15.0883908 L8.67354882,15.0178796 L10.8129971,12.8954923 L10.8840751,12.8249811 C10.9764766,12.7333165 11.068878,12.7121632 11.1826028,12.7121632 C11.2536808,12.7121632 11.317651,12.7333165 11.3887291,12.7333165 L13.4357759,10.7025938 C13.5281774,10.5686225 13.755627,10.3218333 13.5921476,9.95517502 C13.4357759,9.68723244 13.1159249,9.59556787 12.9524454,9.54621002 C12.7463192,9.54621002 12.5401929,9.32057416 12.3624979,9.13724503 L12.2914199,9.06673382 C12.0426468,8.8199446 11.9715688,8.79879124 12.2700965,8.52379753 L13.0519546,7.7622765 C13.1870029,7.62830521 13.2580809,7.57894737 13.3220511,7.57894737 C13.4144525,7.57894737 13.4784227,7.67061194 13.5921476,7.78342987 L13.6632256,7.85394107 C13.8195972,8.00906573 14.0257235,8.19239486 14.0470469,8.375724 C14.0683703,8.41803072 14.1181249,8.62251322 14.2958199,8.84814908 C14.366898,8.93981365 14.615671,8.84814908 14.6796412,8.93981365 L15.9448299,10.1808109 C16.9043831,11.1327122 16.1012016,13.4384286 16.1012016,13.4384286 L15.5539008,12.994208 Z M12.2061262,11.062201 L11.1612794,12.1057668 C11.0902014,12.1057668 11.0475546,12.1057668 10.9764766,12.1269202 L10.2230496,11.3795014 C10.0169233,11.471166 9.81079709,11.534626 9.63310205,11.534626 C8.5811474,11.534626 7.57894737,10.540418 7.57894737,9.5039033 L7.76375021,9.32057416 C8.63090201,10.1808109 8.44609917,10.0891463 8.9933999,10.0891463 C9.40565239,10.0891463 10.0880014,9.43339209 10.0880014,9.00327373 C10.0880014,8.48149081 10.1590794,8.62251322 9.31325097,7.78342987 L9.49805382,7.60715185 C10.5429007,7.58599849 11.5451007,8.60135986 11.5451007,9.63787459 C11.5451007,9.82120373 11.4740227,10.0186351 11.3887291,10.2513221 L12.2061262,11.062201 Z M15.2340498,14.749937 C15.4828228,14.749937 15.6889491,14.9544195 15.6889491,15.2012088 C15.6889491,15.447998 15.4828228,15.6524805 15.2340498,15.6524805 C14.9852767,15.6524805 14.7791504,15.447998 14.7791504,15.2012088 C14.7791504,14.9473684 14.9852767,14.749937 15.2340498,14.749937 Z M12.7960738,13.9320071 L14.1892029,15.3140267 L14.9426299,16.3082347 L15.3264512,16.4210526 L16.4210526,15.3351801 L16.3073278,14.9262151 L15.3264512,14.2070008 L13.8480284,12.7333165 L12.7960738,13.7768824 C12.824505,13.8191891 12.824505,13.8897003 12.7960738,13.9320071 Z" id="形状" fill="#FFFFFF" fill-rule="nonzero"></path>
            </g>
        </g>
    </g>
</svg>