<?xml version="1.0" encoding="UTF-8"?>
<svg width="24px" height="24px" viewBox="0 0 24 24" version="1.1" xmlns="http://www.w3.org/2000/svg" xmlns:xlink="http://www.w3.org/1999/xlink">
    <title>11</title>
    <g id="-界面合集" stroke="none" stroke-width="1" fill="none" fill-rule="evenodd">
        <g id="20个图标切图" transform="translate(-37.000000, -160.000000)">
            <g id="编组" transform="translate(37.000000, 160.000000)">
                <g transform="translate(12.000000, 12.000000) scale(-1, -1) rotate(180.000000) translate(-12.000000, -12.000000) ">
                    <circle id="椭圆形备份" fill-opacity="0.3" fill="#63C7ED" cx="12" cy="12" r="12"></circle>
                    <path d="M12.0027082,2.20430147 C17.3975444,2.20430147 21.77088,6.57626274 21.77088,11.9693204 C21.77088,17.3623781 17.3975444,21.7343192 12.0027082,21.7343192 C6.60795284,21.7343192 2.23461726,17.3623781 2.23461726,11.9693204 C2.23461726,6.57626274 6.60795284,2.20430147 12.0027082,2.20430147 Z" id="椭圆-5备份" fill="#63C7ED"></path>
                    <path d="M7.9900769,13.4401393 C8.04348947,13.4402956 8.09629736,13.4514522 8.14520885,13.4729136 L11.949219,15.1640704 L15.7466743,13.4750986 C15.7955068,13.4533923 15.8483668,13.4422247 15.9018062,13.4423242 C16.132854,13.4562117 16.3129951,13.6478512 16.3125781,13.8793156 C16.3173474,14.0539266 16.217676,14.2146037 16.0591231,14.2879026 L12.1043509,16.0358682 C12.00478,16.0795428 11.891473,16.0795428 11.7919021,16.0358682 L7.83712991,14.2879026 C7.67686872,14.215917 7.57529975,14.054956 7.57930499,13.8793156 C7.57881721,13.648643 7.75770658,13.4573175 7.98789194,13.4423242 L7.9900769,13.4401393 Z M15.9018062,11.5348561 C16.132854,11.5487443 16.3129951,11.7403838 16.3126447,11.9718482 C16.3155905,12.1448889 16.2161977,12.3034033 16.0591231,12.3760652 L16.0613081,12.3804351 L12.1065359,14.1393255 C12.007451,14.1852598 11.8931719,14.1852598 11.794087,14.1393255 L7.83931487,12.3913599 C7.67518051,12.3188305 7.57206913,12.1533324 7.57930499,11.9740331 C7.57881721,11.7433605 7.75770658,11.552035 7.98789194,11.5370417 C8.04203417,11.5369598 8.09560369,11.5481201 8.14520885,11.5698161 L11.949219,13.2566029 L15.7466743,11.5676311 C15.7955068,11.5459249 15.8483668,11.5347573 15.9018062,11.5348561 Z M12.1043509,7.92749277 L16.0591231,9.68638315 C16.2144203,9.76223333 16.3129146,9.91995439 16.3129146,10.0927852 C16.3129146,10.2656159 16.2144203,10.423337 16.0591231,10.4991872 L16.0613081,10.4729677 L12.1065359,12.236228 C12.007451,12.2821622 11.8931719,12.2821622 11.794087,12.236228 L7.83931487,10.4882624 C7.68401766,10.4124122 7.58552342,10.2546911 7.58552342,10.0818604 C7.58552342,9.9090296 7.68401766,9.75130854 7.83931487,9.67545836 L11.7919021,7.92749277 C11.891473,7.8838182 12.00478,7.8838182 12.1043509,7.92749277 Z" id="形状结合" fill="#FFFFFF" fill-rule="nonzero"></path>
                </g>
            </g>
        </g>
    </g>
</svg>