<?xml version="1.0" encoding="UTF-8"?>
<svg width="24px" height="24px" viewBox="0 0 24 24" version="1.1" xmlns="http://www.w3.org/2000/svg" xmlns:xlink="http://www.w3.org/1999/xlink">
    <title>编组备份 2</title>
    <g id="-界面合集" stroke="none" stroke-width="1" fill="none" fill-rule="evenodd">
        <g id="画板备份-4" transform="translate(-191.000000, -106.000000)">
            <g id="编组备份-2" transform="translate(191.000000, 106.000000)">
                <circle id="椭圆形备份" fill-opacity="0.3" fill="#5690FF" cx="12" cy="12" r="12"></circle>
                <path d="M11.974638,2.1762313 C17.3694742,2.1762313 21.7428098,6.54819256 21.7428098,11.9412502 C21.7428098,17.3343079 17.3694742,21.706249 11.974638,21.706249 C6.57988267,21.706249 2.20654709,17.3343079 2.20654709,11.9412502 C2.20654709,6.54819256 6.57988267,2.1762313 11.974638,2.1762313 Z" id="椭圆-5备份" fill="#5690FF"></path>
                <path d="M16.4491048,11.2309566 C16.4128445,11.0252463 16.2177016,10.8158616 16.0160842,10.7694525 L15.8645503,10.7342714 C15.5096874,10.6250441 15.1949638,10.3860875 14.9950767,10.0340246 C14.7947524,9.68001752 14.7472643,9.27787121 14.834473,8.90918514 L14.8819518,8.76477674 C14.9419607,8.56467567 14.8638217,8.28859369 14.7053855,8.15152478 C14.7053855,8.15152478 14.5633492,8.02913484 14.163147,7.79384331 C13.7629542,7.56028198 13.5898297,7.4955289 13.5898297,7.49552889 C13.3951146,7.42322237 13.1222698,7.4918545 12.9802428,7.64554656 L12.874476,7.76038304 C12.6050824,8.01985119 12.2432986,8.17742228 11.8426686,8.17742229 C11.4424664,8.17742229 11.0763664,8.01812096 10.8069727,7.75670865 L10.7050943,7.64553726 C10.5652254,7.4918452 10.2902225,7.42320377 10.0955167,7.49551029 C10.0955167,7.49551029 9.92067131,7.56026337 9.52046917,7.7938247 C9.11983913,8.03105112 8.97996093,8.15322709 8.97996093,8.15322709 C8.82152471,8.28857508 8.74337636,8.5627129 8.80339459,8.76475814 L8.84700363,8.91111071 C8.93248216,9.27979677 8.88715222,9.67999891 8.68683718,10.034006 C8.48652216,10.3877991 8.16834741,10.6286999 7.81131709,10.7361969 L7.66582033,10.7694432 C7.46550531,10.8158523 7.26907864,11.0232928 7.2328091,11.2309473 C7.2328091,11.2309473 7.2,11.4161555 7.2,11.8867293 C7.2,12.357517 7.2328091,12.5427344 7.2328091,12.5427344 C7.26906934,12.750175 7.46377509,12.9578295 7.66582033,13.0040246 L7.80785665,13.0374848 C8.16445906,13.1449911 8.48479193,13.3858826 8.68511627,13.7416199 C8.88543129,14.0954038 8.93249146,14.4975594 8.8452827,14.8662361 L8.80340389,15.0089236 C8.74339497,15.2090247 8.82153401,15.4850974 8.97997023,15.6221756 C8.97997023,15.6221756 9.12201585,15.7445655 9.52220869,15.9798571 C9.92241083,16.2151393 10.0955353,16.2781715 10.0955353,16.2781715 C10.2902411,16.350264 10.5630859,16.2818459 10.7051222,16.1281445 L10.8052797,16.0187033 C11.0764036,15.7575143 11.4403455,15.598213 11.8426965,15.5982129 C12.2450474,15.5982129 12.6107195,15.7592445 12.8801039,16.0206475 L12.9802707,16.1298654 C13.1201489,16.2837807 13.3951518,16.3521989 13.5898576,16.2798924 C13.5898576,16.2798924 13.764703,16.21513 14.1648958,15.981578 C14.5655259,15.7462864 14.7054041,15.6241105 14.7054041,15.6241105 C14.8638403,15.4887625 14.9419887,15.2126805 14.8819704,15.0106445 L14.8383614,14.8625618 C14.7528922,14.4956059 14.7982221,14.0953945 14.9985371,13.7433409 C15.1988522,13.3895477 15.519185,13.1467027 15.8757874,13.0392058 L16.0178238,13.0059688 C16.2177109,12.9595597 16.4145748,12.7521192 16.4508443,12.5446786 C16.4508443,12.5446786 16.4836534,12.3592472 16.4836534,11.8886734 C16.4819232,11.4161648 16.4491048,11.2309566 16.4491048,11.2309566 M11.8426779,14.1418128 C10.6209088,14.1418128 9.62752896,13.1328889 9.62752896,11.8867293 C9.62752896,10.6427371 10.61876,9.63381316 11.8426779,9.63381316 C13.0644376,9.63381316 14.0578175,10.6427371 14.0578175,11.8888874 C14.0556686,13.1328889 13.0644376,14.1418128 11.8426779,14.1418128" id="形状" fill="#FFFFFF" fill-rule="nonzero"></path>
            </g>
        </g>
    </g>
</svg>