<?xml version="1.0" encoding="UTF-8"?>
<svg width="24px" height="24px" viewBox="0 0 24 24" version="1.1" xmlns="http://www.w3.org/2000/svg" xmlns:xlink="http://www.w3.org/1999/xlink">
    <title>编组备份 4</title>
    <g id="-界面合集" stroke="none" stroke-width="1" fill="none" fill-rule="evenodd">
        <g id="画板备份-4" transform="translate(-191.000000, -154.000000)">
            <g id="编组备份-4" transform="translate(191.000000, 154.000000)">
                <circle id="椭圆形备份" fill-opacity="0.4" fill="#CC395E" cx="12" cy="12" r="12"></circle>
                <path d="M11.974638,2.1762313 C17.3694742,2.1762313 21.7428098,6.54819256 21.7428098,11.9412502 C21.7428098,17.3343079 17.3694742,21.706249 11.974638,21.706249 C6.57988267,21.706249 2.20654709,17.3343079 2.20654709,11.9412502 C2.20654709,6.54819256 6.57988267,2.1762313 11.974638,2.1762313 Z" id="椭圆-5备份" fill="#CC395E"></path>
                <path d="M11.0526316,7.46666667 L11.0526316,8.24167191 L13.1578947,8.24167191 L13.1578947,7.46666667 L14.3157895,7.46666667 L14.3157895,8.24167191 L16.2105263,8.24167191 L16.2105263,16.3087719 L8,16.3087719 L8,8.24167191 L9.89473684,8.24167191 L9.89473684,7.46666667 L11.0526316,7.46666667 Z M13.0175439,13.9133012 L9.89473684,13.9133012 L9.89473684,14.7587614 L13.0175439,14.7587614 L13.0175439,13.9133012 Z M14.3157895,12.1166981 L9.89473684,12.1166981 L9.89473684,12.9621584 L14.3157895,12.9621584 L14.3157895,12.1166981 Z M14.3157895,10.3200951 L9.89473684,10.3200951 L9.89473684,11.1655553 L14.3157895,11.1655553 L14.3157895,10.3200951 Z" id="形状" fill="#FFFFFF" fill-rule="nonzero"></path>
            </g>
        </g>
    </g>
</svg>