<?xml version="1.0" encoding="UTF-8"?>
<svg width="24px" height="24px" viewBox="0 0 24 24" version="1.1" xmlns="http://www.w3.org/2000/svg" xmlns:xlink="http://www.w3.org/1999/xlink">
    <title>15</title>
    <g id="-界面合集" stroke="none" stroke-width="1" fill="none" fill-rule="evenodd">
        <g id="20个图标切图" transform="translate(-185.000000, -160.000000)">
            <g id="编组" transform="translate(185.000000, 160.000000)">
                <g transform="translate(12.000000, 12.000000) scale(-1, -1) rotate(180.000000) translate(-12.000000, -12.000000) ">
                    <circle id="椭圆形" fill-opacity="0.3" fill="#C39022" cx="12" cy="12" r="12"></circle>
                    <path d="M12.0027082,2.20430147 C17.3975444,2.20430147 21.77088,6.57626274 21.77088,11.9693204 C21.77088,17.3623781 17.3975444,21.7343192 12.0027082,21.7343192 C6.60795284,21.7343192 2.23461726,17.3623781 2.23461726,11.9693204 C2.23461726,6.57626274 6.60795284,2.20430147 12.0027082,2.20430147 Z" id="椭圆-5" fill="#C39022"></path>
                    <path d="M10.1288868,12.3353937 C10.2894344,13.2853081 11.1198532,14.011259 12.1185703,14.011259 C12.1317961,14.011259 12.1449535,14.0116219 12.1580384,14.0123381 L12.1972192,14.011259 C13.1959362,14.011259 14.0263551,13.2853081 14.1869027,12.3353937 L16.7368421,12.3353937 L16.7368421,15.7698694 C16.7368421,15.9552186 16.5862595,16.1052632 16.4002457,16.1052632 C14.5139302,16.0936147 13.0998067,16.0866467 12.1578752,16.0843592 C11.2169579,16.0866419 9.8025097,16.0936107 7.9155438,16.1052632 C7.75278171,16.1052632 7.61714663,15.9903853 7.58578102,15.8374964 L7.57894737,15.7698694 L7.57894737,12.3353937 L10.1288868,12.3353937 Z M15.0006772,7.89473684 C15.1811549,7.89473684 15.3417025,8.01058006 15.3992782,8.18158673 L15.3992782,8.18158673 L16.564079,11.663503 L13.5479979,11.663503 C13.5014944,11.663503 13.4638488,11.7010142 13.4638488,11.7473514 L13.4638488,11.7473514 L13.4638488,11.9988967 C13.4638488,12.7402934 12.8559822,13.3437814 12.1108197,13.3393924 C11.3678717,13.3349552 10.7732918,12.7237443 10.7732918,11.9845542 L10.7732918,11.9845542 L10.7732918,11.7484547 C10.7732918,11.7021174 10.7356461,11.6646063 10.6891427,11.6646063 L10.6891427,11.6646063 L7.6730615,11.6646063 L8.83786231,8.18158673 C8.89543801,8.01058006 9.05598565,7.89473684 9.23646334,7.89473684 L9.23646334,7.89473684 Z M13.7151889,9.88503373 L10.5208445,9.88503373 C10.474341,9.88503373 10.4366953,9.92254487 10.4366953,9.96888216 L10.4366953,9.96888216 L10.4366953,10.4719727 C10.4366953,10.51831 10.474341,10.5558212 10.5208445,10.5558212 L10.5208445,10.5558212 L13.7151889,10.5558212 C13.7616923,10.5558212 13.799338,10.51831 13.799338,10.4719727 L13.799338,10.4719727 L13.799338,9.96888216 C13.799338,9.92254487 13.7616923,9.88503373 13.7151889,9.88503373 L13.7151889,9.88503373 Z" id="形状结合" fill="#FFFFFF" fill-rule="nonzero"></path>
                </g>
            </g>
        </g>
    </g>
</svg>