<?xml version="1.0" encoding="UTF-8"?>
<svg width="24px" height="24px" viewBox="0 0 24 24" version="1.1" xmlns="http://www.w3.org/2000/svg" xmlns:xlink="http://www.w3.org/1999/xlink">
    <title>16</title>
    <g id="-界面合集" stroke="none" stroke-width="1" fill="none" fill-rule="evenodd">
        <g id="20个图标切图" transform="translate(-37.000000, -196.000000)">
            <g id="编组" transform="translate(37.000000, 196.000000)">
                <circle id="椭圆形" fill-opacity="0.3" fill="#C39022" cx="12" cy="12" r="12"></circle>
                <path d="M12.0027082,2.20430147 C17.3975444,2.20430147 21.77088,6.57626274 21.77088,11.9693204 C21.77088,17.3623781 17.3975444,21.7343192 12.0027082,21.7343192 C6.60795284,21.7343192 2.23461726,17.3623781 2.23461726,11.9693204 C2.23461726,6.57626274 6.60795284,2.20430147 12.0027082,2.20430147 Z" id="椭圆-5" fill="#C39022"></path>
                <path d="M13.5268,9.40147596 L13.5268,8.39196075 C13.4996637,8.1294111 13.2921258,7.92187315 13.0295761,7.89473684 L10.3061452,7.89473684 C10.0422533,7.91903251 9.83321692,8.12806893 9.80892126,8.39196075 L9.80892126,9.40147596 L8.33231693,9.40147596 C7.93025546,9.43350512 7.61097653,9.75278405 7.57894737,10.1548455 L7.57894737,11.3640037 L16.0053859,11.3640037 L16.0053859,10.1247107 C15.9796576,9.71977151 15.6569555,9.39706943 15.2520163,9.37134117 L13.5268,9.40147596 Z M12.7734305,9.40147596 L10.5509903,9.40147596 L10.5509903,8.88541781 C10.5498002,8.82012516 10.5760016,8.75731662 10.6232392,8.71222615 C10.6704768,8.66713567 10.7344355,8.64388243 10.7996022,8.6481064 L12.5361191,8.6481064 C12.6026984,8.64473624 12.6675446,8.66997932 12.7143224,8.71747678 C12.7611002,8.76497425 12.7853503,8.83019817 12.7809642,8.89671835 L12.7809642,9.40147596 L12.7734305,9.40147596 Z M11.7752158,12.8594422 C12.2611392,12.8594422 12.2799734,12.2605134 12.2799734,11.8800618 L11.0482142,11.8800618 C11.0482142,12.1851765 11.0482142,12.8707428 11.5454381,12.8707428 C11.5454381,12.8519085 11.6810446,12.840608 11.7827495,12.840608 L11.7752158,12.8594422 Z M12.7734305,11.8800618 C12.7734305,11.8800618 13.1501152,13.3641998 11.6433761,13.3641998 C10.136637,13.3641998 10.5133218,11.8800618 10.5133218,11.8800618 L7.57894737,11.8800618 L7.57894737,15.3493286 C7.57894737,15.7654031 7.91624241,16.1026982 8.33231693,16.1026982 L15.25955,16.1026982 C15.6756245,16.1026982 16.0129196,15.7654031 16.0129196,15.3493286 L16.0129196,11.8612276 L12.7734305,11.8800618 Z" id="形状" fill="#FFFFFF" fill-rule="nonzero"></path>
            </g>
        </g>
    </g>
</svg>