<?xml version="1.0" encoding="UTF-8"?>
<svg width="24px" height="24px" viewBox="0 0 24 24" version="1.1" xmlns="http://www.w3.org/2000/svg" xmlns:xlink="http://www.w3.org/1999/xlink">
    <title>10</title>
    <g id="-界面合集" stroke="none" stroke-width="1" fill="none" fill-rule="evenodd">
        <g id="20个图标切图" transform="translate(-185.000000, -124.000000)">
            <g id="编组" transform="translate(185.000000, 124.000000)">
                <circle id="椭圆形备份" fill-opacity="0.3" fill="#63C7ED" cx="12" cy="12" r="12"></circle>
                <path d="M12.0027082,2.20430147 C17.3975444,2.20430147 21.77088,6.57626274 21.77088,11.9693204 C21.77088,17.3623781 17.3975444,21.7343192 12.0027082,21.7343192 C6.60795284,21.7343192 2.23461726,17.3623781 2.23461726,11.9693204 C2.23461726,6.57626274 6.60795284,2.20430147 12.0027082,2.20430147 Z" id="椭圆-5备份" fill="#63C7ED"></path>
                <path d="M16.8280521,11.3432373 C16.7917919,11.137527 16.5966489,10.9281423 16.3950316,10.8817332 L16.2434977,10.8465521 C15.8886348,10.7373249 15.5739112,10.4983682 15.3740241,10.1463053 C15.1736997,9.79229822 15.1262117,9.39015191 15.2134204,9.02146585 L15.2608992,8.87705744 C15.3209081,8.67695637 15.2427691,8.40087439 15.0843328,8.26380548 C15.0843328,8.26380548 14.9422965,8.14141555 14.5420944,7.90612401 C14.1419016,7.67256268 13.9687771,7.6078096 13.9687771,7.60780959 C13.774062,7.53550307 13.5012172,7.6041352 13.3591902,7.75782726 L13.2534234,7.87266375 C12.9840297,8.13213189 12.622246,8.28970299 12.2216159,8.289703 C11.8214138,8.289703 11.4553138,8.13040167 11.1859201,7.86898935 L11.0840417,7.75781796 C10.9441728,7.6041259 10.6691699,7.53548447 10.4744641,7.607791 C10.4744641,7.607791 10.2996187,7.67254407 9.89941654,7.9061054 C9.49878649,8.14333182 9.3589083,8.26550779 9.3589083,8.26550779 C9.20047208,8.40085578 9.12232373,8.6749936 9.18234196,8.87703885 L9.22595099,9.02339141 C9.31142953,9.39207747 9.26609958,9.79227961 9.06578455,10.1462867 C8.86546952,10.5000798 8.54729478,10.7409806 8.19026446,10.8484776 L8.0447677,10.8817239 C7.84445268,10.928133 7.64802601,11.1355735 7.61175647,11.343228 C7.61175647,11.343228 7.57894737,11.5284362 7.57894737,11.99901 C7.57894737,12.4697977 7.61175647,12.6550151 7.61175647,12.6550151 C7.64801671,12.8624557 7.84272246,13.0701102 8.0447677,13.1163053 L8.18680402,13.1497655 C8.54340643,13.2572718 8.8637393,13.4981633 9.06406364,13.8539007 C9.26437866,14.2076845 9.31143883,14.6098401 9.22423007,14.9785168 L9.18235126,15.1212043 C9.12234234,15.3213054 9.20048138,15.5973781 9.35891759,15.7344563 C9.35891759,15.7344563 9.50096322,15.8568462 9.90115606,16.0921378 C10.3013582,16.32742 10.4744827,16.3904522 10.4744827,16.3904522 C10.6691884,16.4625447 10.9420332,16.3941266 11.0840696,16.2404252 L11.1842271,16.130984 C11.455351,15.869795 11.8192929,15.7104937 12.2216438,15.7104937 C12.6239948,15.7104936 12.9896669,15.8715252 13.2590513,16.1329282 L13.3592181,16.2421461 C13.4990963,16.3960614 13.7740992,16.4644796 13.968805,16.3921731 C13.968805,16.3921731 14.1436504,16.3274107 14.5438432,16.0938587 C14.9444733,15.8585671 15.0843515,15.7363912 15.0843515,15.7363912 C15.2427877,15.6010432 15.320936,15.3249612 15.2609178,15.1229253 L15.2173088,14.9748425 C15.1318395,14.6078866 15.1771695,14.2076752 15.3774845,13.8556216 C15.5777995,13.5018284 15.8981324,13.2589834 16.2547348,13.1514865 L16.3967711,13.1182495 C16.5966582,13.0718404 16.7935221,12.8643999 16.8297917,12.6569593 C16.8297917,12.6569593 16.8626008,12.4715279 16.8626008,12.0009541 C16.8608705,11.5284455 16.8280521,11.3432373 16.8280521,11.3432373 M12.2216252,14.2540935 C10.9998561,14.2540935 10.0064763,13.2451696 10.0064763,11.99901 C10.0064763,10.7550178 10.9977073,9.74609386 12.2216252,9.74609386 C13.443385,9.74609386 14.4367648,10.7550178 14.4367648,12.0011681 C14.434616,13.2451696 13.443385,14.2540935 12.2216252,14.2540935" id="形状" fill="#FFFFFF" fill-rule="nonzero"></path>
            </g>
        </g>
    </g>
</svg>