<?xml version="1.0" encoding="UTF-8"?>
<svg width="24px" height="24px" viewBox="0 0 24 24" version="1.1" xmlns="http://www.w3.org/2000/svg" xmlns:xlink="http://www.w3.org/1999/xlink">
    <title>编组</title>
    <g id="-界面合集" stroke="none" stroke-width="1" fill="none" fill-rule="evenodd">
        <g id="画板备份-4" transform="translate(-69.000000, -62.000000)">
            <g id="编组" transform="translate(69.000000, 62.000000)">
                <circle id="椭圆形备份" fill-opacity="0.3" fill="#63C7ED" cx="12" cy="12" r="12"></circle>
                <path d="M12.0027082,2.20430147 C17.3975444,2.20430147 21.77088,6.57626274 21.77088,11.9693204 C21.77088,17.3623781 17.3975444,21.7343192 12.0027082,21.7343192 C6.60795284,21.7343192 2.23461726,17.3623781 2.23461726,11.9693204 C2.23461726,6.57626274 6.60795284,2.20430147 12.0027082,2.20430147 Z" id="椭圆-5备份" fill="#63C7ED"></path>
                <g id="编组-10" transform="translate(8.108180, 7.254538)" fill="#FFFFFF">
                    <path d="M4.21842736,6.8784495 C4.20135766,6.83428165 4.17596648,6.79182077 4.14204045,6.75128023 C4.10811442,6.71031294 4.06736051,6.66614509 4.01999209,6.61877667 L3.55142879,6.61877667 C3.50406037,6.66614509 3.46650702,6.71031294 3.43940887,6.75128023 C3.41231072,6.78520626 3.39033348,6.82254623 3.37326378,6.86308677 C3.35619408,6.90384068 3.35790105,6.94118065 3.37838469,6.97510669 C3.42596648,7.07027027 3.46650702,7.15327169 3.50043305,7.2245377 C3.53435909,7.2958037 3.57169906,7.35192034 3.61266634,7.39246088 C3.59901058,7.45391181 3.57852694,7.54032717 3.55142879,7.65213371 C3.52433064,7.764367 3.49872608,7.87980085 3.47504187,7.99843528 C3.45135766,8.11728307 3.43087402,8.22930299 3.41401769,8.33470839 C3.39716136,8.43990043 3.38862651,8.51948791 3.38862651,8.57389758 C3.38862651,8.60782361 3.40377587,8.64836415 3.43450133,8.69594595 C3.46480005,8.74352774 3.50043305,8.7928165 3.54140034,8.84359886 C3.58194088,8.89459459 3.62440176,8.93705548 3.66856961,8.97098151 C3.71252409,9.00490754 3.75178441,9.02176387 3.78571044,9.02176387 C3.81963647,9.02176387 3.86039038,9.00490754 3.9077588,8.97098151 C3.95534059,8.93705548 4.00121542,8.89800853 4.04538327,8.85384068 C4.08955112,8.80967283 4.12689109,8.76209104 4.15718981,8.71130868 C4.18791527,8.66031294 4.20306463,8.61806543 4.20306463,8.58392603 C4.20306463,8.54317212 4.19282281,8.47361309 4.17276591,8.37524893 C4.15228227,8.27688478 4.13009166,8.16635846 4.10640745,8.0443101 C4.08272324,7.92204836 4.05733206,7.80320057 4.03002054,7.68798009 C4.00292239,7.57254623 3.9790248,7.48100996 3.95875453,7.41294452 C3.99950845,7.37901849 4.03855539,7.3299431 4.07568199,7.26529161 C4.11323533,7.20085349 4.15889678,7.11443812 4.21330645,7.00561878 C4.2337901,6.96507824 4.23549707,6.92240398 4.21842736,6.8784495 Z M7.55320688,7.70334282 C7.57347715,7.84907539 7.58371897,7.99694168 7.58371897,8.14630156 C7.58371897,8.29544808 7.57177018,8.43627312 7.54808597,8.56877667 C7.52440176,8.70106686 7.48876876,8.80113798 7.44118697,8.86899004 C7.40726093,8.91657183 7.3206322,8.96244666 7.18151414,9.00661451 C7.04239607,9.05078236 6.86743163,9.0913229 6.65704756,9.12866287 C6.4466635,9.16600284 6.21238185,9.20163585 5.95441598,9.23556188 C5.6966635,9.26948791 5.43869763,9.2985064 5.18073177,9.32219061 C4.92276591,9.34608819 4.67141456,9.36294452 4.42710446,9.37318634 C4.18279436,9.38342817 3.96878298,9.3883357 3.78571044,9.3883357 C3.60242452,9.3883357 3.39033348,9.38172119 3.14922395,9.36806543 C2.90832779,9.35462304 2.66060375,9.33755334 2.40583846,9.3170697 C2.15128654,9.29679943 1.89844159,9.27311522 1.64730361,9.2458037 C1.39616563,9.21870555 1.16721826,9.18819346 0.960034761,9.15405405 C0.752851262,9.12034139 0.576393225,9.08812233 0.430447279,9.05739687 C0.284501333,9.02709815 0.19467203,8.99466572 0.160745999,8.96073969 C0.0997218168,8.91315789 0.0521400245,8.76209104 0.0182139932,8.50753912 C-0.0157120381,8.25320057 -0.0022696483,7.92204836 0.0587545338,7.51493599 C0.0926805651,7.28406828 0.18613718,7.10761024 0.338911006,6.98534851 C0.491684832,6.86308677 0.668142869,6.76642959 0.868285117,6.69516358 C1.06864074,6.62389758 1.2790248,6.56095306 1.49965069,6.50675676 C1.72027658,6.45234708 1.91209735,6.37083926 2.075113,6.26244666 C2.20398924,6.18093883 2.30406037,6.10284495 2.37553974,6.02816501 C2.44680574,5.95348506 2.4975881,5.87880512 2.52831357,5.80412518 C2.55861229,5.72965861 2.57376165,5.65135135 2.57376165,5.56984353 C2.57376165,5.48854908 2.57056108,5.39679943 2.56394657,5.29502134 C2.55007744,5.14566145 2.50100204,5.0302276 2.41608028,4.94871977 C2.33137189,4.86742532 2.23791527,4.78250356 2.13613718,4.69416785 C2.08172751,4.65362731 2.03606606,4.59409673 1.99851271,4.51600284 C1.96117274,4.43790896 1.92553974,4.35832148 1.89161371,4.27681366 C1.85768768,4.18847795 1.82717559,4.0901138 1.79986406,3.98150782 C1.78642167,3.96785206 1.7661514,3.94416785 1.73883988,3.91024182 C1.71878298,3.87610242 1.6948854,3.83044097 1.66757388,3.77283073 C1.64047573,3.71500711 1.60996364,3.63179232 1.57603761,3.52318634 C1.54211158,3.41458037 1.52013433,3.31792319 1.50989251,3.23300142 C1.49965069,3.14807966 1.50135766,3.07532006 1.51501342,3.0140825 C1.5218413,2.93940256 1.53869763,2.87496444 1.56600916,2.82076814 C1.56600916,2.58307255 1.57945155,2.34559033 1.6065497,2.10789474 C1.63364785,1.91095306 1.6778157,1.69715505 1.73883988,1.46650071 C1.79986406,1.235633 1.89844159,1.0284495 2.03414571,0.845163585 C2.15640745,0.675533428 2.28869763,0.534708393 2.43122964,0.422688478 C2.57376165,0.310668563 2.72162793,0.224039829 2.87440176,0.163015647 C3.02696222,0.101991465 3.18144301,0.0595305832 3.33763078,0.0356330014 C3.49381855,0.0119487909 3.64317843,0 3.78571044,0 C3.9418982,0.013655761 4.06906748,0.0322190612 4.16743163,0.056116643 C4.26600916,0.0798008535 4.34559664,0.108605974 4.40683419,0.142532006 C4.46785837,0.176671408 4.52034771,0.21742532 4.56451556,0.264793741 C4.60889678,0.312375533 4.65455823,0.359957326 4.70214002,0.407325747 L4.89545439,0.407325747 C4.95647857,0.407325747 5.01622253,0.415860597 5.0736194,0.432930299 C5.13144301,0.449786629 5.18905325,0.48200569 5.24687687,0.529587482 C5.30448711,0.577169275 5.36721826,0.645021337 5.43528369,0.733357041 C5.59147146,0.936913229 5.70669194,1.15924609 5.78158526,1.40014225 C5.85605183,1.64103841 5.9104615,1.87041252 5.94438754,2.08762447 C5.97831357,2.33854908 5.99858384,2.58648649 6.00541172,2.83079659 C6.01906748,2.86472262 6.0293093,2.90547653 6.03592381,2.95305832 C6.04275169,3.00042674 6.0478726,3.05825036 6.05128654,3.12610242 C6.05470048,3.19395448 6.04957957,3.27887624 6.03592381,3.38065434 C6.02248142,3.51635846 6.00221115,3.62325747 5.97489963,3.70156472 C5.94780148,3.77944523 5.91707601,3.83897582 5.88314998,3.87972973 C5.84943732,3.92709815 5.81188398,3.96102418 5.77134344,3.98150782 C5.74424529,4.0901138 5.71351983,4.18847795 5.67959379,4.27681366 C5.64566776,4.35832148 5.61003476,4.43790896 5.57269479,4.51600284 C5.53535482,4.59409673 5.48948,4.65362731 5.43528369,4.69416785 C5.31984984,4.78933144 5.22468625,4.86891892 5.15021968,4.93357041 C5.07553974,4.99800853 5.02454401,5.10832148 4.99744586,5.26450925 C4.97696222,5.35945946 4.97034771,5.45440967 4.97696222,5.54957326 C4.9837901,5.64452347 5.00918128,5.74139403 5.0535625,5.83975818 C5.09751698,5.93812233 5.16899635,6.03157895 5.26714714,6.11991465 C5.36551129,6.20803698 5.50313576,6.28613087 5.67959379,6.35398293 C5.83578156,6.41500711 6.00711869,6.47112376 6.19381855,6.52190612 C6.3805184,6.57290185 6.56039038,6.63051209 6.73364785,6.69516358 C6.90669194,6.75960171 7.06117274,6.84260313 7.1966635,6.94459459 C7.33258099,7.04637269 7.42753121,7.17887624 7.48194088,7.34167852 C7.50903903,7.43684211 7.53293661,7.5571835 7.55320688,7.70334282 Z" id="Fill-1备份-8"></path>
                </g>
            </g>
        </g>
    </g>
</svg>