<?xml version="1.0" encoding="UTF-8"?>
<svg width="12px" height="12px" viewBox="0 0 12 12" version="1.1" xmlns="http://www.w3.org/2000/svg" xmlns:xlink="http://www.w3.org/1999/xlink">
    <g id="页面-1" stroke="none" stroke-width="1" fill="none" fill-rule="evenodd">
        <g id="打印模板添加" transform="translate(-161.000000, -580.000000)" fill-rule="nonzero">
            <g id="编组-2备份-22" transform="translate(151.000000, 571.000000)">
                <g id="图片" transform="translate(10.000000, 9.000000)">
                    <rect id="矩形" fill="#000000" opacity="0" x="0" y="0" width="12" height="12"></rect>
                    <path d="M11.036,1 L0.964571424,1 C0.433714286,1 0,1.43344291 0,1.96269952 L0,10.3235851 C0,10.8528417 0.434285719,11.2857143 0.964571424,11.2857143 L11.036,11.2857143 C11.5662857,11.2857143 12,10.8528417 12,10.3235851 L12,1.96269952 C12,1.43344291 11.5657143,1 11.0354286,1 L11.036,1 Z M11.036,10.3207335 L11.0342857,10.3224445 L0.966857143,10.3224445 L0.96571429,10.3207335 L0.96571429,7.47654957 L3.45142858,4.93919759 L6.36171429,8.54703948 C6.52216205,8.72872737 6.79296759,8.76294003 6.99371428,8.62688424 L9.14342857,7.17713177 L11.0354286,8.06568973 L11.0354286,10.3207335 L11.036,10.3207335 Z M11.036,6.85490118 L9.45428571,6.20359618 C9.28976507,6.07763984 9.06285264,6.07120205 8.89142857,6.18762723 L6.80514285,7.59289477 L3.83028572,3.91433324 C3.74140608,3.8142261 3.61491708,3.7553802 3.48094966,3.75181323 C3.34698225,3.74824625 3.21752958,3.80027753 3.12342857,3.8955127 L0.964571424,6.09979802 L0.964571424,1.96326983 L0.96571429,1.9621292 L11.0331429,1.9621292 L11.0342857,1.96326983 L11.036,6.85433087 L11.036,6.85490118 Z M8.49085714,2.94878213 C7.74402132,2.94972539 7.13891536,3.55391219 7.13828571,4.29929898 C7.1392302,5.04446306 7.74424414,5.64830286 8.49085714,5.64924552 C9.2376933,5.6486171 9.84305491,5.04468544 9.844,4.29929898 C9.84336984,3.55368979 9.23791613,2.94941107 8.49085714,2.94878213 L8.49085714,2.94878213 Z M8.49085714,4.68654601 C8.27625507,4.68638852 8.10241363,4.51262911 8.10257132,4.2984435 C8.10272923,4.0842579 8.2768265,3.91075383 8.49142858,3.91091122 C8.70603065,3.91091122 8.88000001,4.08454306 8.88000001,4.29872867 C8.88000001,4.51291427 8.70603065,4.68654601 8.49142858,4.68654601 L8.49085714,4.68654601 Z" id="形状" fill="#999999"></path>
                </g>
            </g>
        </g>
    </g>
</svg>