<?xml version="1.0" encoding="UTF-8"?>
<svg width="16px" height="18px" viewBox="0 0 16 18" version="1.1" xmlns="http://www.w3.org/2000/svg" xmlns:xlink="http://www.w3.org/1999/xlink">
    <title>信息</title>
    <g id="页面-1" stroke="none" stroke-width="1" fill="none" fill-rule="evenodd" fill-opacity="0.3">
        <g id="01-首页" transform="translate(-1304.000000, -24.000000)" fill="#FFFFFF">
            <g id="Combined-Shape" transform="translate(1304.000000, 24.000000)">
                <path d="M2.54264122,13.0243902 C2.91471755,11.831561 3.1427597,10.6046341 3.36505771,9.408 C4.08206932,5.54912195 4.65073866,3.36585366 8,3.36585366 C11.3492613,3.36585366 11.9179307,5.54912195 12.6349423,9.408 C12.8572403,10.6046341 13.0852824,11.831561 13.4573588,13.0243902 L2.54264122,13.0243902 Z M15.4851819,13.5564878 C14.901865,12.1693171 14.6102066,10.5995122 14.328026,9.08136585 C13.9803622,7.20995122 13.6519413,5.44229268 12.8076971,4.06082927 C12.1084923,2.91643902 11.1365848,2.18107317 9.8635409,1.83746341 C9.82965051,0.81702439 9.00953167,0 8,0 C6.99046833,0 6.17034949,0.81702439 6.1363155,1.83746341 C4.86341525,2.18107317 3.89150766,2.91643902 3.19230286,4.06082927 C2.34805866,5.44229268 2.01949416,7.20995122 1.67197401,9.08136585 C1.38979339,10.5995122 1.09813495,12.1693171 0.514674469,13.5564878 L0,14.7804878 L16,14.7804878 L15.4851819,13.5564878 Z M10.6667002,15.804878 L5.33327111,15.804878 C5.59721409,17.0591707 6.69032293,18 7.99998564,18 C9.30964835,18 10.4027572,17.0591707 10.6667002,15.804878 Z"></path>
            </g>
        </g>
    </g>
</svg>