<?xml version="1.0" encoding="UTF-8"?>
<svg width="13px" height="13px" viewBox="0 0 13 13" version="1.1" xmlns="http://www.w3.org/2000/svg" xmlns:xlink="http://www.w3.org/1999/xlink">
    <title>苹果</title>
    <g id="-界面合集" stroke="none" stroke-width="1" fill="none" fill-rule="evenodd">
        <g id="画板备份" transform="translate(-534.000000, -498.000000)" fill-rule="nonzero">
            <g id="编组-8" transform="translate(435.000000, 486.000000)">
                <g id="苹果" transform="translate(99.000000, 12.000000)">
                    <rect id="矩形" fill="#000000" opacity="0" x="0" y="0" width="13" height="13"></rect>
                    <path d="M10.621,8.58 C10.9763333,9.08266667 11.3836667,9.40766667 11.843,9.555 C11.6436667,10.1703333 11.3273333,10.8116667 10.894,11.479 C10.2266667,12.4843333 9.568,12.987 8.918,12.987 C8.67533333,12.987 8.31566667,12.9046667 7.839,12.74 C7.397,12.5753333 7.01133333,12.493 6.682,12.493 C6.35266667,12.493 5.98866667,12.5796667 5.59,12.753 C5.174,12.9176667 4.83166667,13 4.563,13 C3.783,13 3.016,12.337 2.262,11.011 C1.508,9.70233333 1.131,8.41533333 1.131,7.15 C1.131,5.98 1.417,5.02233333 1.989,4.277 C2.57833333,3.53166667 3.30633333,3.159 4.173,3.159 C4.36366667,3.159 4.576,3.18283333 4.81,3.2305 C5.044,3.27816667 5.28666667,3.367 5.538,3.497 C5.80666667,3.64433333 6.02766667,3.74616667 6.201,3.8025 C6.37433333,3.85883333 6.50866667,3.887 6.604,3.887 C6.71666667,3.887 6.89,3.861 7.124,3.809 C7.358,3.757 7.592,3.66166667 7.826,3.523 C8.07733333,3.38433333 8.294,3.28033333 8.476,3.211 C8.658,3.14166667 8.84433333,3.107 9.035,3.107 C9.64166667,3.107 10.1876667,3.27166667 10.673,3.601 C10.933,3.77433333 11.1973333,4.03 11.466,4.368 C11.0673333,4.71466667 10.777,5.018 10.595,5.278 C10.257,5.76333333 10.088,6.292 10.088,6.864 C10.088,7.49666667 10.2656667,8.06866667 10.621,8.58 L10.621,8.58 Z M8.008,2.509 C7.70466667,2.795 7.42733333,2.98133333 7.176,3.068 C7.08933333,3.094 6.97883333,3.11783333 6.8445,3.1395 C6.71016667,3.16116667 6.55633333,3.18066667 6.383,3.198 C6.39166667,2.43533333 6.591,1.77666667 6.981,1.222 C7.371,0.667333333 8.01233333,0.286 8.905,0.078 C8.92233333,0.164666667 8.93533333,0.225333333 8.944,0.26 L8.944,0.403 C8.944,0.715 8.87033333,1.066 8.723,1.456 C8.567,1.83733333 8.32866667,2.18833333 8.008,2.509 L8.008,2.509 Z" id="形状" fill="#FFFFFF"></path>
                </g>
            </g>
        </g>
    </g>
</svg>