<?xml version="1.0" encoding="UTF-8"?>
<svg width="12px" height="12px" viewBox="0 0 12 12" version="1.1" xmlns="http://www.w3.org/2000/svg" xmlns:xlink="http://www.w3.org/1999/xlink">
    <title>工号</title>
    <g id="WEB-设计总稿" stroke="none" stroke-width="1" fill="none" fill-rule="evenodd">
        <g id="01-退出登录/修改密码" transform="translate(-1303.000000, -105.000000)" fill-rule="nonzero">
            <g id="编组-3" transform="translate(1303.000000, 78.000000)">
                <g id="工号" transform="translate(0.000000, 27.000000)">
                    <rect id="矩形" fill="#000000" opacity="0" x="0" y="0" width="12" height="12"></rect>
                    <path d="M1.8,3.975 C1.67573593,3.975 1.575,4.07573593 1.575,4.2 L1.575,9.6 C1.575,9.7242 1.6758,9.825 1.8,9.825 L10.2,9.825 C10.3242641,9.825 10.425,9.72426407 10.425,9.6 L10.425,4.2 C10.425,4.07573593 10.3242641,3.975 10.2,3.975 L1.8,3.975 Z M1.8,3.225 L10.2,3.225 C10.7382,3.225 11.175,3.6618 11.175,4.2 L11.175,9.6 C11.175,10.1382 10.7382,10.575 10.2,10.575 L1.8,10.575 C1.26152237,10.575 0.825,10.1384776 0.825,9.6 L0.825,4.2 C0.825,3.6618 1.2618,3.225 1.8,3.225 Z M3.5484,5.5884 L3.9444,5.5884 L5.2584,7.5 L5.2728,7.5 L5.2728,5.5884 L5.6652,5.5884 L5.6652,8.1588 L5.2836,8.1588 L3.9552,6.2256 L3.9408,6.2256 L3.9408,8.1588 L3.5484,8.1588 L3.5484,5.5884 L3.5484,5.5884 Z M7.3104,5.538 C7.6992,5.538 8.0088,5.664 8.2356,5.9196 C8.4516,6.1608 8.5596,6.4812 8.5596,6.8772 C8.5596,7.2696 8.4516,7.5864 8.2356,7.8312 C8.0088,8.0832 7.6992,8.2092 7.3104,8.2092 C6.918,8.2092 6.6084,8.0796 6.3852,7.8276 C6.1692,7.5828 6.0648,7.266 6.0648,6.8772 C6.0648,6.4848 6.1692,6.168 6.3852,5.9232 C6.6084,5.664 6.918,5.538 7.3104,5.538 L7.3104,5.538 Z M7.3104,5.8836 C7.0368,5.8836 6.8244,5.9736 6.6732,6.1608 C6.5292,6.3372 6.4572,6.5748 6.4572,6.8772 C6.4572,7.176 6.5292,7.4136 6.6732,7.59 C6.8244,7.77 7.0368,7.8636 7.3104,7.8636 C7.584,7.8636 7.7964,7.7736 7.944,7.5972 C8.088,7.4244 8.1636,7.1832 8.1636,6.8772 C8.1636,6.5676 8.088,6.3264 7.944,6.15 C7.7964,5.97 7.584,5.8836 7.3104,5.8836 Z M5.5572,2.475 L5.7072,3.225 L6.2928,3.225 L6.4428,2.475 L5.5572,2.475 Z M6.9774,3.6252 C6.93677661,3.82859094 6.75820813,3.975 6.5508,3.975 L5.4492,3.975 C5.24201748,3.97472625 5.06377905,3.82836991 5.0232,3.6252 L4.7472,2.2452 C4.70010298,2.00978535 4.85263103,1.78072475 5.088,1.7334 C5.13,1.7262 5.13,1.7262 5.1732,1.725 L6.8268,1.725 C7.0668,1.725 7.2618,1.92 7.2618,2.16 C7.2606,2.2032 7.2606,2.2032 7.2534,2.2452 L6.9774,3.6252 L6.9774,3.6252 Z" id="形状" fill="#666666"></path>
                </g>
            </g>
        </g>
    </g>
</svg>