<?xml version="1.0" encoding="UTF-8"?>
<svg width="12px" height="14px" viewBox="0 0 12 14" version="1.1" xmlns="http://www.w3.org/2000/svg" xmlns:xlink="http://www.w3.org/1999/xlink">
    <!-- Generator: Sketch 55.2 (78181) - https://sketchapp.com -->
    <title>删除备份 9</title>
    <desc>Created with Sketch.</desc>
    <defs>
        <rect id="path-1" x="0" y="0" width="16" height="16"></rect>
    </defs>
    <g id="3.0" stroke="none" stroke-width="1" fill="none" fill-rule="evenodd">
        <g id="02-高级排程（自制工单）(鼠标触屏上一页图标-)" transform="translate(-1630.000000, -855.000000)">
            <g id="锁定" transform="translate(1628.000000, 854.000000)">
                <g id="编组">
                    <mask id="mask-2" fill="white">
                        <use xlink:href="#path-1"></use>
                    </mask>
                    <g id="矩形"></g>
                    <g id="suoding-3" mask="url(#mask-2)" fill="#326FFF" fill-rule="nonzero">
                        <g transform="translate(2.000000, 1.000000)">
                            <path d="M5.94551282,10.9647115 C5.8220163,10.9638982 5.70390128,10.9140579 5.61715311,10.8261557 C5.53040493,10.7382534 5.48212996,10.6194901 5.48294871,10.4959936 L5.48294871,8.79342949 C5.48294871,8.53496795 5.6901282,8.32471154 5.94551282,8.32471154 C6.20089744,8.32471154 6.40807693,8.53496795 6.40807693,8.79342949 L6.40807693,10.4959936 C6.40889568,10.6194901 6.36062071,10.7382534 6.27387254,10.8261557 C6.18712436,10.9140579 6.06900934,10.9638982 5.94551282,10.9647115 L5.94551282,10.9647115 Z" id="路径"></path>
                            <path d="M9.78346153,5.33086538 L9.78346153,3.90727564 C9.78346153,1.7513782 8.05833332,0.00368589543 5.93115385,0.00368589543 C3.80397437,0.00368589543 2.07782052,1.75035257 2.07782052,3.90727564 L2.07782052,5.33086538 L0.783461538,5.33086538 C0.577815344,5.33222098 0.381130901,5.415216 0.236678834,5.56159153 C0.0922267674,5.70796706 0.0118405339,5.90573206 0.0131713591,6.1113782 L0.0131713591,13.1821474 C0.0131713591,13.6129167 0.357820509,13.9626603 0.783461538,13.9626603 L11.1085897,13.9626603 C11.3142359,13.9613047 11.5109204,13.8783096 11.6553724,13.7319341 C11.7998245,13.5855586 11.8802108,13.3877936 11.8788799,13.1821474 L11.8788799,6.1113782 C11.8811212,5.68337181 11.5365888,5.33425177 11.1085897,5.33086538 L9.78346153,5.33086538 Z M3.00192308,3.90727564 C3.00192308,2.26830127 4.3126923,0.940096158 5.9301282,0.940096158 C7.5475641,0.940096158 8.85730769,2.26830129 8.85730769,3.90727564 L8.85730769,5.33086538 L3.00192308,5.33086538 L3.00192308,3.90727564 Z M10.9537197,12.7144551 C10.9542868,12.8856902 10.8162323,13.0251207 10.645,13.02625 L1.245,13.02625 C1.07376772,13.0251207 0.935713203,12.8856902 0.936280304,12.7144551 L0.936280304,6.57701924 C0.936280304,6.40471154 1.0747436,6.26419872 1.245,6.26419872 L10.645,6.26419872 C10.8152564,6.26419872 10.9537197,6.4036859 10.9537197,6.57701924 L10.9537197,12.7144551 Z" id="形状"></path>
                        </g>
                    </g>
                </g>
            </g>
        </g>
    </g>
</svg>