<?xml version="1.0" encoding="UTF-8"?>
<svg width="16px" height="16px" viewBox="0 0 16 16" version="1.1" xmlns="http://www.w3.org/2000/svg" xmlns:xlink="http://www.w3.org/1999/xlink">
    <title></title>
    <g id="-界面合集" stroke="none" stroke-width="1" fill="none" fill-rule="evenodd">
        <g id="资源视图（操作）" transform="translate(-920.000000, -548.000000)">
            <g id="编组-2备份" transform="translate(908.000000, 532.000000)">
                <g id="编组" transform="translate(4.000000, 10.000000)">
                    <g id="编组" transform="translate(8.000000, 6.000000)">
                        <g id="jiami" transform="translate(2.000000, 1.000000)" fill="#595757" fill-rule="nonzero">
                            <path d="M9.52867384,5.10035842 L9.52867384,3.48207885 C9.52867384,1.56182796 7.96684588,0 6.04659498,0 L5.79749104,0 C3.87724014,0 2.31541219,1.56182796 2.31541219,3.48207885 L2.31541219,5.08960573 C1.01523297,5.2311828 0,6.33512545 0,7.67204301 L0,11.4014337 C0,12.8342294 1.16577061,14 2.59856631,14 L9.16308244,14 C10.5958781,14 11.7616487,12.8342294 11.7616487,11.4014337 L11.7616487,7.67204301 C11.7616487,6.36379928 10.7894265,5.27867384 9.52867384,5.10035842 Z M3.21146953,3.48207885 C3.21146953,2.05645161 4.3718638,0.896057348 5.79749104,0.896057348 L6.04659498,0.896057348 C7.47222222,0.896057348 8.63261649,2.05645161 8.63261649,3.48207885 L8.63261649,5.07437276 L3.21146953,5.07437276 L3.21146953,3.48207885 Z M10.8655914,11.4023297 C10.8655914,12.3413978 10.1021505,13.1048387 9.16308244,13.1048387 L2.59856631,13.1048387 C1.65949821,13.1048387 0.896057348,12.3413978 0.896057348,11.4023297 L0.896057348,7.67293907 C0.896057348,6.73387097 1.65949821,5.97043011 2.59856631,5.97043011 L9.16397849,5.97043011 C10.1030466,5.97043011 10.8664875,6.73387097 10.8664875,7.67293907 L10.8664875,11.4023297 L10.8655914,11.4023297 Z" id="形状"></path>
                            <path d="M5.88082437,7.79659498 C5.4552286,7.79659498 5.110215,8.14160853 5.110215,8.5672043 C5.11012362,8.8158673 5.23030503,9.04921952 5.4327957,9.19354839 L5.4327957,10.812724 C5.4327957,11.0600358 5.63351254,11.2607527 5.88082437,11.2607527 C6.1281362,11.2607527 6.32885305,11.0600358 6.32885305,10.812724 L6.32885305,9.19354839 C6.53134372,9.04921952 6.65152512,8.8158673 6.65143374,8.5672043 C6.65143374,8.14160853 6.30642015,7.79659498 5.88082437,7.79659498 L5.88082437,7.79659498 Z" id="路径"></path>
                        </g>
                        <rect id="矩形" x="0" y="0" width="16" height="16"></rect>
                    </g>
                </g>
            </g>
        </g>
    </g>
</svg>