<?xml version="1.0" encoding="UTF-8"?>
<svg width="74px" height="74px" viewBox="0 0 74 74" version="1.1" xmlns="http://www.w3.org/2000/svg" xmlns:xlink="http://www.w3.org/1999/xlink">
    <title>登录</title>
    <g id="-界面合集" stroke="none" stroke-width="1" fill="none" fill-rule="evenodd" opacity="0.0954533067">
        <g id="01-首页备份-3" transform="translate(-281.000000, -188.000000)">
            <g id="登录" transform="translate(40.000000, 157.000000)">
                <g id="登录" transform="translate(241.000000, 31.000000)">
                    <rect id="矩形" x="0" y="0" width="74" height="74"></rect>
                    <path d="M59.9848485,59.3163065 C56.8936667,59.3163065 54.3787879,56.7075521 54.3787879,53.5009823 C54.3787879,50.2944126 56.8936667,47.6856582 59.9848485,47.6856582 C63.0760303,47.6856582 65.5909091,50.2944126 65.5909091,53.5009823 C65.5909091,56.7075521 63.0760303,59.3163065 59.9848485,59.3163065 M26.7905227,59.4779725 C27.5867235,57.6538507 28.030303,55.6302633 28.030303,53.5009823 C28.030303,46.5173595 23.2585644,40.6687426 16.9197917,39.2775717 C17.258678,35.6963497 18.4666439,32.2891513 20.4703902,29.3230452 C22.0001439,27.0587033 23.9161553,25.1556385 26.1166742,23.6872692 C28.6883144,26.9729273 32.6115758,29.0766208 37,29.0766208 C41.4157538,29.0766208 45.3603182,26.946613 47.9311174,23.6257721 C50.1567235,25.0931238 52.0951591,27.0036031 53.642572,29.2830648 C55.65725,32.2504794 56.8734848,35.6608762 57.2175568,39.2477682 C50.8105303,40.584275 45.969697,46.4669116 45.969697,53.5009823 C45.969697,55.6514892 46.4226667,57.6941218 47.2340038,59.5323458 C44.1676288,61.378275 40.664822,62.3693517 37.0700758,62.3693517 C33.3803068,62.3693517 29.8643258,61.3648998 26.7905227,59.4779725 M8.40909091,53.5009823 C8.40909091,50.2944126 10.9239697,47.6856582 14.0151515,47.6856582 C17.1063333,47.6856582 19.6212121,50.2944126 19.6212121,53.5009823 C19.6212121,56.7075521 17.1063333,59.3163065 14.0151515,59.3163065 C10.9239697,59.3163065 8.40909091,56.7075521 8.40909091,53.5009823 M37,8.72298625 C40.0911818,8.72298625 42.6060606,11.3317407 42.6060606,14.5383104 C42.6060606,17.7448802 40.0911818,20.3536346 37,20.3536346 C33.9088182,20.3536346 31.3939394,17.7448802 31.3939394,14.5383104 C31.3939394,11.3317407 33.9088182,8.72298625 37,8.72298625 M68.5279242,41.9843143 C68.5317083,41.7765619 68.5340909,41.5689548 68.5340909,41.3614931 C68.5340909,34.5947819 66.5545909,28.1024086 62.8096023,22.5861375 C59.706928,18.0160196 55.5916591,14.3933635 50.7986174,11.9856739 C49.6322765,5.18218075 43.8885871,0 37,0 C30.0854848,0 24.3251174,5.22143418 23.1890492,12.0628723 C18.4381932,14.4826287 14.3611856,18.0999057 11.2883636,22.6483615 C7.57098485,28.151112 5.60606061,34.6221139 5.60606061,41.3614931 C5.60606061,41.5317367 5.60900379,41.7025619 5.61152652,41.873387 C2.2064053,44.5280825 0,48.7521886 0,53.5009823 C0,61.5175521 6.28719697,68.0392927 14.0151515,68.0392927 C15.4369886,68.0392927 16.8094924,67.8178743 18.1036515,67.4076031 C20.0325568,68.9220589 22.1234773,70.2002672 24.3600152,71.2257996 C28.3747955,73.0666405 32.6509583,74 37.0700758,74 C43.9205417,74 50.5582576,71.6837564 55.9931932,67.4375521 C57.2589015,67.8283418 58.5984697,68.0392927 59.9848485,68.0392927 C67.712803,68.0392927 74,61.5175521 74,53.5009823 C74,48.8174656 71.8534394,44.6449705 68.5279242,41.9843143" id="Fill-7" fill="#5690FF"></path>
                </g>
            </g>
        </g>
    </g>
</svg>