<?xml version="1.0" encoding="UTF-8"?>
<svg width="12px" height="12px" viewBox="0 0 12 12" version="1.1" xmlns="http://www.w3.org/2000/svg" xmlns:xlink="http://www.w3.org/1999/xlink">
    <g id="-界面合集" stroke="none" stroke-width="1" fill="none" fill-rule="evenodd">
        <g id="01-工艺bom列表页" transform="translate(-426.000000, -174.000000)" fill-rule="nonzero">
            <g id="交互日志" transform="translate(426.000000, 174.000000)">
                <rect id="矩形" fill="#000000" opacity="0" x="0" y="0" width="12" height="12"></rect>
                <path d="M2.48571429,8.91428571 L7.88571429,8.82857143 L7.97142857,8.82857143 L7.97142857,7.8 L2.48571429,7.88571429 L2.4,7.88571429 L2.48571429,8.91428571 Z M2.39657143,5.49685714 L5.22514286,5.47542857 L5.23285714,6.504 L2.40428571,6.52542857 L2.39657143,5.49685714 Z" id="形状" fill="#949496"></path>
                <path d="M9.77142857,5.14285714 C9.51428571,5.14285714 9.25714286,5.4 9.25714286,5.65714286 L9.25714286,10.4571429 C9.25714286,10.5428571 9.17142857,10.5428571 9.17142857,10.5428571 L2.05714286,10.5428571 C1.97142857,10.5428571 1.97142857,10.4571429 1.97142857,10.4571429 L1.97142857,2.14285714 C1.97142857,2.05714286 2.05714286,2.05714286 2.05714286,2.05714286 L6.77142857,2.05714286 C7.02857142,2.05714286 7.28571428,1.8 7.28571429,1.54285714 C7.2857143,1.28571429 7.02857143,1.02857143 6.77142857,1.02857143 L1.45714286,1.02857143 C1.2,1.02857143 0.942857145,1.28571429 0.942857145,1.54285714 L0.942857145,10.8857143 C0.942857145,11.3142857 1.28571429,11.5714286 1.62857143,11.5714286 L9.77142857,11.5714286 C10.0285714,11.5714286 10.2857143,11.3142857 10.2857143,11.0571429 L10.2857143,5.65714286 C10.2857143,5.4 10.0285714,5.14285714 9.77142857,5.14285714 Z" id="路径" fill="#949496"></path>
                <path d="M10.8,1.37142857 L9.34285714,0.514285711 C9.25714286,0.428571434 9.08571429,0.428571434 9,0.428571434 C8.82857143,0.428571434 8.74285714,0.514285723 8.65714286,0.685714289 L6.08571429,5.22857143 L6.42857143,6.6 C6.42857143,6.94285714 6.6,7.11428571 6.85714286,7.11428571 L6.94285714,7.11428571 L8.31428571,6.77142857 L10.8857143,2.22857143 C11.1428571,1.8 11.0571429,1.54285714 10.8,1.37142857 Z M9.25714286,1.62857143 L9.85714286,1.97142857 L7.71428571,5.82857143 L7.2,5.91428571 L7.11428571,5.4 L9.25714286,1.62857143 Z M4.54285714,4.45714286 L4.54285714,3.51428571 L2.4,3.51428571 L2.4,4.54285714 L4.54285714,4.45714286 Z" id="形状" fill="#949496"></path>
            </g>
        </g>
    </g>
</svg>