<?xml version="1.0" encoding="UTF-8"?>
<svg width="116px" height="24px" viewBox="0 0 116 24" version="1.1" xmlns="http://www.w3.org/2000/svg" xmlns:xlink="http://www.w3.org/1999/xlink">
    <title>牯牛智造logo</title>
    <g id="页面-1" stroke="none" stroke-width="1" fill="none" fill-rule="evenodd">
        <g id="01-首页" transform="translate(-26.000000, -20.000000)">
            <g id="" transform="translate(26.000000, 20.000000)">
                <path d="M8.06365628,9.941922 L10.7751512,19.881342 L15.8814914,19.880802 L18.5928048,9.941202 L25.4436236,9.941202 L24.5399735,13.254102 L21.1227345,13.253922 L18.4953043,23.193882 L8.20055645,23.194242 L5.48216202,13.254282 L2.16314984,13.255182 L1.25913663,9.941742 L8.06365628,9.941922 Z M26.7027784,7.19999998e-05 L24.701385,6.629112 L1.96597002,6.629112 L-1.81565217e-05,7.19999998e-05 L3.50382741,0.001512 L4.56326045,3.314232 L22.0884799,3.312792 L23.1795053,0.001332 L26.7027784,7.19999998e-05 Z" fill="#326FFF"></path>
                <path d="M58.4196981,3.654 L58.4188883,4.623 L63.9988883,4.623 L63.9990157,3.654 L66.4893642,3.654 L66.4888883,4.623 L73.5386337,4.62366 L73.5386337,6.73974 L66.4888883,6.739 L66.4888883,13.369 L73.5386337,13.3695 L73.5386337,15.48558 L66.4888883,15.485 L66.4893642,21.84678 L63.9990157,21.84678 L63.9988883,15.485 L56.2852174,15.48558 L56.2852174,13.3695 L63.9988883,13.369 L63.9988883,6.739 L58.4188883,6.739 L58.4196981,10.38672 L56.2852174,10.38672 L56.2852174,3.654 L58.4196981,3.654 Z M37.7553976,3.654 L37.7548883,4.623 L39.4818883,4.623 L39.4824459,3.654 L41.6169266,3.654 L41.6168883,4.623 L42.9813892,4.62366 L42.9813892,6.73974 L41.6168883,6.739 L41.6168883,17.395 L42.9813892,17.39538 L42.9813892,19.51146 L41.6168883,19.511 L41.6169266,21.84678 L39.4824459,21.84678 L39.4818883,19.511 L35.5108883,19.51146 L35.5108883,17.39538 L39.4818883,17.395 L39.4818883,6.739 L37.7548883,6.739 L37.7553976,15.01056 L35.6209169,15.01056 L35.6209169,3.654 L37.7553976,3.654 Z M49.3439791,3.654 L49.3438883,4.623 L52.7643047,4.62366 L52.7643047,6.73974 L49.3438883,6.739 L49.3438883,10.386 L52.7643047,10.3869 L52.7644863,21.84696 L50.6300056,21.84696 L50.6298883,21.837 L45.8898883,21.837 L45.8904271,21.84696 L43.7559464,21.84696 L43.7559464,10.3869 L47.2088883,10.386 L47.2088883,6.739 L43.7559464,6.73974 L43.7559464,4.62366 L47.2088883,4.623 L47.2094984,3.654 L49.3439791,3.654 Z M99.9794317,7.2711 L99.9788883,19.729 L114.892654,19.7298 L114.892654,21.84588 L97.6671986,21.84588 L97.6671986,7.2711 L99.9794317,7.2711 Z M94.0082963,14.3172 L94.0082963,21.84588 L76.9751186,21.84588 L76.9751186,14.3172 L94.0082963,14.3172 Z M91.8738883,18.963 L79.1088883,18.963 L79.1088883,20.082 L91.8738883,20.082 L91.8738883,18.963 Z M50.6298883,12.502 L45.8898883,12.502 L45.8898883,19.721 L50.6298883,19.721 L50.6298883,12.502 Z M114.782625,11.8746 L114.782625,18.66024 L101.351338,18.66024 L101.351338,11.8746 L114.782625,11.8746 Z M91.8738883,16.08 L79.1088883,16.08 L79.1088883,17.199 L91.8738883,17.199 L91.8738883,16.08 Z M112.647888,13.99 L103.484888,13.99 L103.484888,16.544 L112.647888,16.544 L112.647888,13.99 Z M94.1185064,3.8322 L94.1185064,5.94828 L94.1168883,5.948 L94.1168883,11.3 L94.1185064,11.30094 L94.1185064,13.41702 L86.7582157,13.4172 L86.7582157,3.83238 L94.1185064,3.8322 Z M83.4225176,13.41702 L81.4628883,10.116 L79.5033779,13.41702 L76.8650538,13.41702 L76.8649085,11.8746 L77.7808883,11.874 L78.9038883,9.981 L76.8650901,9.98154 L76.8650901,7.86546 L80.3948883,7.865 L80.3948883,6.433 L76.8650901,6.43302 L76.8650901,3.654 L79.533191,3.654 L79.5328883,4.316 L86.0608237,4.31694 L86.0608237,6.43302 L82.5298883,6.433 L82.5298883,7.865 L86.0608237,7.86546 L86.0608237,9.98154 L84.0198883,9.981 L85.1438883,11.874 L86.0608237,11.8746 L86.0608237,13.41702 L83.4225176,13.41702 Z M91.9828883,5.948 L88.8918883,5.948 L88.8918883,11.3 L91.9828883,11.3 L91.9828883,5.948 Z M103.827343,3.654 L103.826888,4.572 L107.026888,4.572 L107.027067,3.654 L109.339482,3.654 L109.338888,4.572 L115.003953,4.57254 L115.003953,6.6888 L109.338888,6.688 L109.338888,8.711 L114.892835,8.71128 L114.892835,10.82736 L101.24131,10.82736 L101.24131,8.71128 L107.026888,8.711 L107.026888,6.688 L101.13001,6.6888 L101.13001,3.654 L103.827343,3.654 Z M99.9794317,3.654 L99.9794317,6.02316 L97.6671986,6.02316 L97.6671986,3.654 L99.9794317,3.654 Z" fill="#FFFFFF"></path>
            </g>
        </g>
    </g>
</svg>