<?xml version="1.0" encoding="UTF-8"?>
<svg width="115px" height="24px" viewBox="0 0 115 24" version="1.1" xmlns="http://www.w3.org/2000/svg" xmlns:xlink="http://www.w3.org/1999/xlink">
    <title>编组</title>
    <g id="组件控件" stroke="none" stroke-width="1" fill="none" fill-rule="evenodd">
        <g id="01-手机号登录" transform="translate(-30.000000, -20.000000)">
            <g id="编组" transform="translate(30.000000, 20.000000)">
                <path d="M7.994142,9.941922 L10.682262,19.881342 L15.744582,19.880802 L18.432522,9.941202 L25.224282,9.941202 L24.328422,13.254102 L20.940642,13.253922 L18.335862,23.193882 L8.129862,23.194242 L5.434902,13.254282 L2.144502,13.255182 L1.248282,9.941742 L7.994142,9.941922 Z M26.472582,7.2e-05 L24.488442,6.629112 L1.949022,6.629112 L-1.8e-05,7.2e-05 L3.473622,0.001512 L4.523922,3.314232 L21.898062,3.312792 L22.979682,0.001332 L26.472582,7.2e-05 Z" id="" fill="#326FFF"></path>
                <path d="M57.91608,3.654 L57.91576,4.623 L63.44676,4.623 L63.4473,3.654 L65.91618,3.654 L65.91576,4.623 L72.90468,4.62366 L72.90468,6.73974 L65.91576,6.739 L65.91576,13.369 L72.90468,13.3695 L72.90468,15.48558 L65.91576,15.485 L65.91618,21.84678 L63.4473,21.84678 L63.44676,15.485 L55.8,15.48558 L55.8,13.3695 L63.44676,13.369 L63.44676,6.739 L57.91576,6.739 L57.91608,10.38672 L55.8,10.38672 L55.8,3.654 L57.91608,3.654 Z M37.42992,3.654 L37.42976,4.623 L39.14176,4.623 L39.14208,3.654 L41.25816,3.654 L41.25776,4.623 L42.61086,4.62366 L42.61086,6.73974 L41.25776,6.739 L41.25776,17.395 L42.61086,17.39538 L42.61086,19.51146 L41.25776,19.511 L41.25816,21.84678 L39.14208,21.84678 L39.14176,19.511 L35.20476,19.51146 L35.20476,17.39538 L39.14176,17.395 L39.14176,6.739 L37.42976,6.739 L37.42992,15.01056 L35.31384,15.01056 L35.31384,3.654 L37.42992,3.654 Z M48.9186,3.654 L48.91776,4.623 L52.30944,4.62366 L52.30944,6.73974 L48.91776,6.739 L48.91776,10.386 L52.30944,10.3869 L52.30962,21.84696 L50.19354,21.84696 L50.19276,21.837 L45.49476,21.837 L45.49482,21.84696 L43.37874,21.84696 L43.37874,10.3869 L46.80176,10.386 L46.80176,6.739 L43.37874,6.73974 L43.37874,4.62366 L46.80176,4.623 L46.80252,3.654 L48.9186,3.654 Z M99.11754,7.2711 L99.11676,19.729 L113.9022,19.7298 L113.9022,21.84588 L96.82524,21.84588 L96.82524,7.2711 L99.11754,7.2711 Z M93.19788,14.3172 L93.19788,21.84588 L76.31154,21.84588 L76.31154,14.3172 L93.19788,14.3172 Z M91.08176,18.963 L78.42676,18.963 L78.42676,20.082 L91.08176,20.082 L91.08176,18.963 Z M50.19276,12.502 L45.49476,12.502 L45.49476,19.721 L50.19276,19.721 L50.19276,12.502 Z M113.79312,11.8746 L113.79312,18.66024 L100.47762,18.66024 L100.47762,11.8746 L113.79312,11.8746 Z M91.08176,16.08 L78.42676,16.08 L78.42676,17.199 L91.08176,17.199 L91.08176,16.08 Z M111.67676,13.99 L102.59276,13.99 L102.59276,16.544 L111.67676,16.544 L111.67676,13.99 Z M93.30714,3.8322 L93.30714,5.94828 L93.30576,5.948 L93.30576,11.3 L93.30714,11.30094 L93.30714,13.41702 L86.0103,13.4172 L86.0103,3.83238 L93.30714,3.8322 Z M82.703358,13.41702 L80.75976,10.116 L78.818004,13.41702 L76.202424,13.41702 L76.20228,11.8746 L77.10976,11.874 L78.22376,9.981 L76.20246,9.98154 L76.20246,7.86546 L79.70176,7.865 L79.70176,6.433 L76.20246,6.43302 L76.20246,3.654 L78.84756,3.654 L78.84676,4.316 L85.31892,4.31694 L85.31892,6.43302 L81.81776,6.433 L81.81776,7.865 L85.31892,7.86546 L85.31892,9.98154 L83.29576,9.981 L84.41076,11.874 L85.31892,11.8746 L85.31892,13.41702 L82.703358,13.41702 Z M91.18976,5.948 L88.12576,5.948 L88.12576,11.3 L91.18976,11.3 L91.18976,5.948 Z M102.93228,3.654 L102.93176,4.572 L106.10376,4.572 L106.10442,3.654 L108.3969,3.654 L108.39676,4.572 L114.01254,4.57254 L114.01254,6.6888 L108.39676,6.688 L108.39676,8.711 L113.90238,8.71128 L113.90238,10.82736 L100.36854,10.82736 L100.36854,8.71128 L106.10376,8.711 L106.10376,6.688 L100.2582,6.6888 L100.2582,3.654 L102.93228,3.654 Z M99.11754,3.654 L99.11754,6.02316 L96.82524,6.02316 L96.82524,3.654 L99.11754,3.654 Z" id="" fill="#1D1D1D"></path>
            </g>
        </g>
    </g>
</svg>