<?xml version="1.0" encoding="UTF-8"?>
<svg width="158px" height="36px" viewBox="0 0 158 36" version="1.1" xmlns="http://www.w3.org/2000/svg" xmlns:xlink="http://www.w3.org/1999/xlink">
    <title>编组 4</title>
    <g id="-界面合集" stroke="none" stroke-width="1" fill="none" fill-rule="evenodd" fill-opacity="0.9">
        <g id="首页（初始）" transform="translate(-134.000000, -271.000000)" fill="#000000">
            <g id="编组-9" transform="translate(25.500000, 126.000000)">
                <g id="编组-13" transform="translate(108.500000, 145.000000)">
                    <g id="编组-2" transform="translate(0.000000, -0.000000)">
                        <g id="编组-4" transform="translate(0.000000, -0.000000)">
                            <path d="M45.5334303,-6.21724894e-15 L45.533,1.918 L56.622,1.918 L56.6228527,-4.26325641e-14 L61.5726564,-4.26325641e-14 L61.572,1.918 L75.5837477,1.91875099 L75.5837477,6.10602343 L61.572,6.106 L61.572,19.224 L75.5837477,19.224909 L75.5837477,23.4121814 L61.572,23.412 L61.5726564,35.9996438 L56.6228527,35.9996438 L56.622,23.412 L41.2909477,23.4121814 L41.2909477,19.224909 L56.622,19.224 L56.622,6.106 L45.533,6.106 L45.5334303,13.3226215 L41.2909477,13.3226215 L41.2909477,-6.21724894e-15 L45.5334303,-6.21724894e-15 Z M4.46117477,-9.05941988e-14 L4.461,1.918 L7.893,1.918 L7.89384703,-4.26325641e-14 L12.1363297,-4.26325641e-14 L12.136,1.918 L14.8483284,1.91875099 L14.8483284,6.10602343 L12.136,6.106 L12.136,27.191 L14.8483284,27.1912696 L14.8483284,31.378542 L12.136,31.378 L12.1363297,35.9996438 L7.89384703,35.9996438 L7.893,31.378 L6.39488462e-14,31.378542 L6.39488462e-14,27.1912696 L7.893,27.191 L7.893,6.106 L4.461,6.106 L4.46117477,22.4722178 L0.218692114,22.4722178 L0.218692114,-9.05941988e-14 L4.46117477,-9.05941988e-14 Z M27.4945788,-2.57571742e-14 L27.494,1.918 L34.2928,1.91875099 L34.2928,6.10602343 L27.494,6.106 L27.494,13.322 L34.2931609,13.3229777 L34.2931609,36 L30.0506782,36 L30.05,35.982 L20.63,35.982 L20.630317,36 L16.3878343,36 L16.3878343,13.3229777 L23.252,13.322 L23.252,6.106 L16.3878343,6.10602343 L16.3878343,1.91875099 L23.252,1.918 L23.2520962,-2.57571742e-14 L27.4945788,-2.57571742e-14 Z M128.137339,7.1574719 L128.137,31.81 L157.778782,31.8105905 L157.778782,35.9978629 L123.541557,35.9978629 L123.541557,7.1574719 L128.137339,7.1574719 Z M116.269142,21.1002058 L116.269142,35.9978629 L82.414087,35.9978629 L82.414087,21.1002058 L116.269142,21.1002058 Z M112.027,30.293 L86.656,30.293 L86.656,32.508 L112.027,32.508 L112.027,30.293 Z M30.05,17.51 L20.63,17.51 L20.63,31.794 L30.05,31.794 L30.05,17.51 Z M157.56009,16.2668197 L157.56009,29.6941586 L130.864134,29.6941586 L130.864134,16.2668197 L157.56009,16.2668197 Z M112.027,24.589 L86.656,24.589 L86.656,26.804 L112.027,26.804 L112.027,24.589 Z M153.317,20.453 L135.106,20.453 L135.106,25.506 L153.317,25.506 L153.317,20.453 Z M116.488195,0.352619915 L116.488195,4.53989235 L116.486,4.539 L116.486,15.131 L116.488195,15.1316685 L116.488195,19.318941 L116.486,19.318 L116.486751,19.3192971 L112.244269,19.3192971 L112.244,19.318 L106.101,19.318 L106.101402,19.3192971 L101.85892,19.3192971 L101.85892,0.352976096 L116.488195,0.352619915 Z M95.2289036,19.318941 L91.333,12.788 L87.4392421,19.318941 L82.1953227,19.318941 L82.195034,16.2668197 L84.015,16.266 L86.249,12.52 L82.1953949,12.5208564 L82.1953949,8.33358398 L89.212,8.333 L89.212,5.499 L82.1953949,5.49908976 L82.1953949,-7.90478794e-14 L87.4984982,-7.90478794e-14 L87.498,1.311 L100.472787,1.31181732 L100.472787,5.49908976 L93.455,5.499 L93.455,8.333 L100.472787,8.33358398 L100.472787,12.5208564 L96.418,12.52 L98.652,16.266 L100.472787,16.2668197 L100.472787,19.318941 L95.2289036,19.318941 Z M112.244,4.539 L106.101,4.539 L106.101,15.131 L112.244,15.131 L112.244,4.539 Z M135.785428,-8.43769499e-15 L135.785,1.817 L142.145,1.817 L142.145183,-3.64153152e-14 L146.741326,-3.64153152e-14 L146.741,1.817 L158,1.81759538 L158,6.005224 L146.741,6.005 L146.741,10.007 L157.779143,10.0072819 L157.779143,14.1945544 L130.645442,14.1945544 L130.645442,10.0072819 L142.145,10.007 L142.145,6.005 L130.424224,6.005224 L130.424224,-8.43769499e-15 L135.785428,-8.43769499e-15 Z M128.137339,-8.17124146e-14 L128.137339,4.68806395 L123.541557,4.68806395 L123.541557,-8.17124146e-14 L128.137339,-8.17124146e-14 Z" id="形状结合"></path>
                        </g>
                    </g>
                </g>
            </g>
        </g>
    </g>
</svg>