<?xml version="1.0" encoding="UTF-8"?>
<svg width="148px" height="36px" viewBox="0 0 148 36" version="1.1" xmlns="http://www.w3.org/2000/svg" xmlns:xlink="http://www.w3.org/1999/xlink">
    <title>logo</title>
    <defs>
        <polygon id="path-1" points="0 0 35.633 0 35.633 35.6339 0 35.6339"></polygon>
        <polygon id="path-3" points="0 35.634 147.229 35.634 147.229 0 0 0"></polygon>
    </defs>
    <g id="-界面合集" stroke="none" stroke-width="1" fill="none" fill-rule="evenodd">
        <g id="01-手机号登录" transform="translate(-46.000000, -51.000000)">
            <g id="logo" transform="translate(46.000000, 51.000000)">
                <g id="编组" transform="translate(0.000200, 0.000000)">
                    <mask id="mask-2" fill="white">
                        <use xlink:href="#path-1"></use>
                    </mask>
                    <g id="Clip-2"></g>
                    <path d="M27.694,35.6339 L7.94,35.6339 C3.554,35.6339 0,32.0789 0,27.6939 L0,7.9409 C0,3.5549 3.554,-0.0001 7.94,-0.0001 L27.694,-0.0001 C32.079,-0.0001 35.633,3.5549 35.633,7.9409 L35.633,27.6939 C35.633,32.0789 32.079,35.6339 27.694,35.6339" id="Fill-1" fill="#2A5AEF" mask="url(#mask-2)"></path>
                </g>
                <polygon id="Fill-3" fill="#FFFFFF" points="5.5447 7.0822 8.7717 7.0822 9.7677 10.1492 25.8667 10.1482 26.8627 7.0822 30.0887 7.0822 28.0957 13.2182 7.5387 13.2182"></polygon>
                <polygon id="Fill-5" fill="#FFFFFF" points="6.5428 16.2863 12.9888 16.2863 15.6288 25.4893 20.0058 25.4903 22.6448 16.2863 29.0918 16.2863 28.0948 19.3533 24.9558 19.3533 22.3168 28.5573 13.3168 28.5573 10.6778 19.3533 7.5388 19.3533"></polygon>
                <mask id="mask-4" fill="white">
                    <use xlink:href="#path-3"></use>
                </mask>
                <g id="Clip-8"></g>
                <polygon id="Fill-7" fill="#0F1F2E" mask="url(#mask-4)" points="125.79 9.628 128.682 9.628 128.682 6.641 125.79 6.641"></polygon>
                <polygon id="Fill-9" fill="#0F1F2E" mask="url(#mask-4)" points="128.6824 11.2589 125.7904 11.2589 125.7904 29.6399 147.2294 29.6399 147.2294 26.9709 128.6824 26.9709"></polygon>
                <path d="M132.673,22.871 L144.448,22.871 L144.448,19.752 L132.673,19.752 L132.673,22.871 Z M130.004,17.083 L130.004,25.533 L130.004,25.54 L147.117,25.54 L147.117,17.083 L130.004,17.083 Z" id="Fill-10" fill="#0F1F2E" mask="url(#mask-4)"></path>
                <polygon id="Fill-11" fill="#0F1F2E" mask="url(#mask-4)" points="147.117 10.5431 147.117 7.8741 140.053 7.8741 140.053 6.6411 137.162 6.6411 137.162 7.8741 133.296 7.8741 133.296 6.6411 130.004 6.6411 130.004 10.5431 137.162 10.5431 137.162 13.0941 130.004 13.0941 130.004 15.7631 147.117 15.7631 147.117 13.0941 140.053 13.0941 140.053 10.5431"></polygon>
                <polygon id="Fill-12" fill="#0F1F2E" mask="url(#mask-4)" points="94.0291 10.6076 94.0291 7.9386 85.5951 7.9386 85.5951 6.6476 82.4821 6.6476 82.4821 7.9386 75.2601 7.9386 75.2601 6.6476 72.5921 6.6476 72.5921 15.2076 75.2601 15.2076 75.2601 10.6076 82.4821 10.6076 82.4821 18.9686 72.5921 18.9686 72.5921 21.6366 82.4821 21.6366 82.4821 29.6396 85.5951 29.6396 85.5951 21.6366 94.0261 21.6366 94.0261 18.9686 85.5951 18.9686 85.5951 10.6076"></polygon>
                <path d="M113.083,16.361 L116.947,16.361 L116.947,9.61 L113.083,9.61 L113.083,16.361 Z M119.616,19.028 L119.617,19.028 L119.617,6.941 L119.616,6.941 L110.414,6.941 L110.414,19.028 L119.616,19.028 Z" id="Fill-13" fill="#0F1F2E" mask="url(#mask-4)"></path>
                <path d="M100.852,23.658 L116.961,23.658 L116.961,22.275 L100.852,22.275 L100.852,23.658 Z M100.852,27.264 L116.961,27.264 L116.961,25.881 L100.852,25.881 L100.852,27.264 Z M119.639,19.903 L98.182,19.903 L98.182,29.636 L119.63,29.636 L119.639,29.636 L119.639,19.903 Z" id="Fill-14" fill="#0F1F2E" mask="url(#mask-4)"></path>
                <polygon id="Fill-15" fill="#0F1F2E" mask="url(#mask-4)" points="101.4022 19.0285 103.9372 14.7195 106.4732 19.0285 109.6862 19.0285 109.6862 17.0185 108.5032 17.0185 107.0632 14.5715 109.6862 14.5715 109.6862 12.0065 105.3932 12.0065 105.3932 10.0455 109.6862 10.0455 109.6862 7.4795 101.4062 7.4795 101.4062 6.6435 98.1892 6.6435 98.1892 10.0455 102.4812 10.0455 102.4812 12.0065 98.1892 12.0065 98.1892 14.5715 100.8122 14.5715 99.3722 17.0185 98.1892 17.0185 98.1892 19.0285"></polygon>
                <path d="M59.834,26.991 L65.76,26.991 L65.76,17.876 L59.834,17.876 L59.834,26.991 Z M68.428,10.608 L68.428,7.939 L64.144,7.939 L64.144,6.641 L61.475,6.641 L61.475,7.939 L57.165,7.939 L57.165,10.608 L61.475,10.608 L61.475,15.207 L57.165,15.207 L57.165,29.66 L68.428,29.66 L68.428,15.207 L64.144,15.207 L64.144,10.608 L68.428,10.608 Z" id="Fill-16" fill="#0F1F2E" mask="url(#mask-4)"></path>
                <polygon id="Fill-17" fill="#0F1F2E" mask="url(#mask-4)" points="56.2166 10.6076 56.2166 7.9386 54.4896 7.9386 54.4896 6.6406 51.8216 6.6406 51.8216 7.9386 49.6626 7.9386 49.6626 6.6726 49.6626 6.6406 46.9936 6.6406 46.9936 6.6726 46.9936 20.9626 46.9936 20.9956 49.6626 20.9956 49.6626 20.9626 49.6626 10.6076 51.8216 10.6076 51.8216 24.0456 46.9946 24.0456 46.9946 26.7146 51.8216 26.7146 51.8216 29.6416 54.4896 29.6416 54.4896 26.7146 56.2166 26.7146 56.2166 24.0456 54.4896 24.0456 54.4896 10.6076"></polygon>
            </g>
        </g>
    </g>
</svg>