<?xml version="1.0" encoding="UTF-8"?>
<svg width="12px" height="12px" viewBox="0 0 12 12" version="1.1" xmlns="http://www.w3.org/2000/svg" xmlns:xlink="http://www.w3.org/1999/xlink">
    <title></title>
    <g id="-界面合集" stroke="none" stroke-width="1" fill="none" fill-rule="evenodd" opacity="0.699999988">
        <g id="资源视图" transform="translate(-50.000000, -174.000000)" stroke="#FFFFFF">
            <g id="编组-12备份" transform="translate(40.000000, 166.000000)">
                <g id="新建" transform="translate(10.000000, 8.000000)">
                    <path d="M9,0.5 C9.41421356,0.5 9.78921356,0.667893219 10.0606602,0.939339828 C10.3321068,1.21078644 10.5,1.58578644 10.5,2 L10.5,2 L10.5,10 C10.5,10.4142136 10.3321068,10.7892136 10.0606602,11.0606602 C9.78921356,11.3321068 9.41421356,11.5 9,11.5 L9,11.5 L3,11.5 C2.58578644,11.5 2.21078644,11.3321068 1.93933983,11.0606602 C1.66789322,10.7892136 1.5,10.4142136 1.5,10 L1.5,10 L1.5,0.5 Z" id="矩形"></path>
                    <path d="M8.3625,8 L3.6375,8 C3.45066964,8 3.3,8.16741071 3.3,8.37499999 C3.3,8.58258927 3.45066964,8.74999998 3.6375,8.74999998 L8.3625,8.74999998 C8.54933036,8.74999998 8.7,8.58258927 8.7,8.37499999 C8.7,8.16741071 8.54933036,8 8.3625,8 Z M8.3625,5.3500002 L3.6375,5.3500002 C3.45066964,5.3500002 3.3,5.51741091 3.3,5.72500019 C3.3,5.93258947 3.45066964,6.10000018 3.6375,6.10000018 L8.3625,6.10000018 C8.54933036,6.10000018 8.7,5.93258947 8.7,5.72500019 C8.7,5.51741091 8.54933036,5.3500002 8.3625,5.3500002 Z" id="形状结合" stroke-width="0.4" fill="#FFFFFF" fill-rule="nonzero"></path>
                </g>
            </g>
        </g>
    </g>
</svg>