<?xml version="1.0" encoding="UTF-8"?>
<svg width="12px" height="12px" viewBox="0 0 12 12" version="1.1" xmlns="http://www.w3.org/2000/svg" xmlns:xlink="http://www.w3.org/1999/xlink">
   
    <g id="-界面合集" stroke="none" stroke-width="1" fill="none" fill-rule="evenodd">
        <g id="04-自制工单-面向销售订单备份" transform="translate(-147.000000, -463.000000)">
            <g id="编组-4" transform="translate(135.000000, 455.000000)">
                <g id="编组-3" transform="translate(12.000000, 8.000000)">
                    <rect id="矩形" fill-opacity="0.19722465" fill="#326FFF" x="0" y="0" width="12" height="12" rx="2"></rect>
                    <path d="M8.205,9.882 C9.114,9.882 9.618,9.495 9.726,8.721 C9.8088,8.0586 9.853512,6.3906768 9.860136,3.7172304 L9.861,2.997 L9.861,2.997 L6.432,2.997 C6.54,2.637 6.639,2.241 6.729,1.809 L5.919,1.602 C5.685,2.925 5.28,3.942 4.713,4.653 L5.343,5.184 C5.64,4.824 5.901,4.365 6.135,3.825 L6.585,3.825 C6.252,5.454 5.64,6.642 4.758,7.398 L5.307,8.037 C6.297,7.155 6.972,5.751 7.341,3.825 L7.863,3.825 C7.701,5.121 7.449,6.156 7.125,6.939 C6.747,7.767 6.198,8.514 5.46,9.18 L5.991,9.855 C6.801,9.099 7.422,8.253 7.836,7.299 C8.178,6.444 8.439,5.283 8.637,3.825 L9.042,3.825 C9.024,6.39 8.988,7.893 8.934,8.343 C8.862,8.865 8.574,9.126 8.079,9.126 C7.863,9.126 7.62,9.108 7.332,9.081 L7.53,9.846 C7.854,9.864 8.079,9.882 8.205,9.882 Z M4.227,9.927 L4.227,6.957 C4.434,6.867 4.641,6.768 4.848,6.669 L4.848,5.859 C4.65,5.958 4.443,6.057 4.227,6.156 L4.227,4.257 L4.884,4.257 L4.884,3.429 L4.227,3.429 L4.227,1.629 L3.399,1.629 L3.399,3.429 L2.931,3.429 C2.967,3.078 2.994,2.718 3.012,2.358 L2.256,2.304 C2.22,3.348 2.067,4.347 1.797,5.301 L2.544,5.508 C2.652,5.103 2.751,4.689 2.823,4.257 L3.399,4.257 L3.399,6.489 C2.913,6.66 2.409,6.795 1.905,6.903 L2.103,7.731 C2.544,7.596 2.976,7.452 3.399,7.29 L3.399,9.927 L4.227,9.927 Z" id="物" fill="#0052DC" fill-rule="nonzero"></path>
                </g>
            </g>
        </g>
    </g>
</svg>