<?xml version="1.0" encoding="UTF-8"?>
<svg width="12px" height="12px" viewBox="0 0 12 12" version="1.1" xmlns="http://www.w3.org/2000/svg" xmlns:xlink="http://www.w3.org/1999/xlink">
    <g id="页面-1" stroke="none" stroke-width="1" fill="none" fill-rule="evenodd">
        <g id="打印模板添加" transform="translate(-46.000000, -620.000000)" fill-rule="nonzero">
            <g id="编组-2备份-23" transform="translate(36.000000, 611.000000)">
                <g id="人员" transform="translate(10.000000, 9.000000)">
                    <rect id="矩形" fill="#000000" opacity="0" x="0" y="0" width="12" height="12"></rect>
                    <path d="M6.02929688,5.59335938 C5.2875,5.59335938 4.5890625,5.30390625 4.0640625,4.77890625 C3.5390625,4.25390625 3.24960938,3.55546875 3.24960938,2.81367188 C3.24960938,2.071875 3.5390625,1.37460937 4.0640625,0.849609375 C4.5890625,0.324609375 5.2875,0.03515625 6.02929688,0.03515625 C6.77109375,0.03515625 7.46953125,0.324609375 7.99453125,0.849609375 C8.51953125,1.37460937 8.80898438,2.07304688 8.80898438,2.81484375 C8.80898438,3.55664062 8.51953125,4.25507812 7.99453125,4.78007813 C7.46953125,5.30507813 6.77109375,5.59335938 6.02929688,5.59335938 Z M6.02929688,0.97265625 C5.01328125,0.97265625 4.18710938,1.79882812 4.18710938,2.81484375 C4.18710938,3.83085937 5.01328125,4.65703125 6.02929688,4.65703125 C7.0453125,4.65703125 7.87148438,3.83085937 7.87148438,2.81484375 C7.87148438,1.79882812 7.0453125,0.97265625 6.02929688,0.97265625 Z M10.3546875,11.9882812 C10.0957031,11.9882812 9.8859375,11.7785156 9.8859375,11.5195312 L9.8859375,9.09609375 C9.8859375,8.0625 9.04453125,7.22109375 8.0109375,7.22109375 L4.04765625,7.22109375 C3.0140625,7.22109375 2.17265625,8.0625 2.17265625,9.09609375 L2.17265625,11.5195312 C2.17265625,11.7785156 1.96289062,11.9882812 1.70390625,11.9882812 C1.44492187,11.9882812 1.23515625,11.7785156 1.23515625,11.5195312 L1.23515625,9.09609375 C1.23515625,8.34492188 1.528125,7.63828125 2.05898438,7.10742188 C2.58984375,6.5765625 3.29648437,6.28359375 4.04765625,6.28359375 L8.00976562,6.28359375 C8.7609375,6.28359375 9.46757812,6.5765625 9.9984375,7.10742188 C10.5292969,7.63828125 10.8222705,8.34492188 10.8222705,9.09609375 L10.8222705,11.5195312 C10.8234375,11.7785156 10.6136719,11.9882812 10.3546875,11.9882812 Z" id="形状" fill="#999999"></path>
                    <path d="M3.33984375,11.9882812 C3.08085937,11.9882812 2.87109375,11.7785156 2.87109375,11.5195312 L2.87109375,10.3945312 C2.87109375,10.1355469 3.08085937,9.92578125 3.33984375,9.92578125 C3.59882813,9.92578125 3.80859375,10.1355469 3.80859375,10.3945312 L3.80859375,11.5195312 C3.80859375,11.7785156 3.59882813,11.9882812 3.33984375,11.9882812 Z M8.71875,11.9882812 C8.45976562,11.9882812 8.25,11.7785156 8.25,11.5195312 L8.25,10.3945312 C8.25,10.1355469 8.45976562,9.92578125 8.71875,9.92578125 C8.97773438,9.92578125 9.1875,10.1355469 9.1875,10.3945312 L9.1875,11.5195312 C9.1875,11.7785156 8.97773438,11.9882812 8.71875,11.9882812 Z" id="形状" fill="#999999"></path>
                </g>
            </g>
        </g>
    </g>
</svg>