<?xml version="1.0" encoding="UTF-8"?>
<svg width="12px" height="10px" viewBox="0 0 12 10" version="1.1" xmlns="http://www.w3.org/2000/svg" xmlns:xlink="http://www.w3.org/1999/xlink">
    <title>打印二维码备份</title>
    <g id="页面-1" stroke="none" stroke-width="1" fill="none" fill-rule="evenodd" fill-opacity="0.5">
        <g id="01-生产工单" transform="translate(-426.000000, -185.000000)" fill="#000000" fill-rule="nonzero">
            <g id="编组" transform="translate(426.000000, 184.000000)">
                <g id="ibiaodanhebing-copy" transform="translate(0.000000, 1.200000)">
                    <polygon id="路径" points="7.80771922 1.12344916 10.9364855 1.12344916 10.9364855 0.00419776119 6.68845616 0.00419776119 6.68845616 9.60403451 10.9364855 9.60403451 10.9364855 8.48478312 7.80771922 8.48478312"></polygon>
                    <polygon id="路径" points="10.552577 3.98873601 10.552577 2.31044776 8.10131763 4.76170709 10.552577 7.21296642 10.552577 5.45500233 11.9669893 5.45500233 11.9669893 3.98875933"></polygon>
                    <polygon id="路径" points="1.0405084 0.0041744403 1.0405084 1.12342584 4.16929804 1.12342584 4.16929804 8.48474813 1.0405084 8.48474813 1.0405084 9.60399953 5.2885611 9.60399953 5.2885611 0.0041744403"></polygon>
                    <polygon id="路径" points="1.4244403 7.21291978 3.87569963 4.76166045 1.4244403 2.31040112 1.4244403 3.98868937 0.0100396455 3.98868937 0.0100396455 5.45493237 1.4244403 5.45493237"></polygon>
                </g>
            </g>
        </g>
    </g>
</svg>