<?xml version="1.0" standalone="no"?><!DOCTYPE svg PUBLIC "-//W3C//DTD SVG 1.1//EN" "http://www.w3.org/Graphics/SVG/1.1/DTD/svg11.dtd"><svg t="1591266248167" class="icon" viewBox="0 0 1024 1024" version="1.1" xmlns="http://www.w3.org/2000/svg" p-id="2027" xmlns:xlink="http://www.w3.org/1999/xlink" width="200" height="200"><defs><style type="text/css"></style></defs><path d="M736 38.4c51.2 0 89.6 38.4 89.6 89.6v768c0 51.2-38.4 89.6-89.6 89.6h-448c-51.2 0-89.6-38.4-89.6-89.6V128c0-51.2 38.4-89.6 89.6-89.6h448m0-38.4h-448c-70.4 0-128 57.6-128 128v768c0 70.4 57.6 128 128 128h448c70.4 0 128-57.6 128-128V128c0-70.4-57.6-128-128-128z" fill="" p-id="2028"></path><path d="M704 153.6c12.8 0 25.6 12.8 25.6 25.6v512c0 12.8-12.8 25.6-25.6 25.6H320c-12.8 0-25.6-12.8-25.6-25.6v-512c0-12.8 12.8-25.6 25.6-25.6h384m0-38.4H320c-38.4 0-64 32-64 64v512c0 38.4 25.6 64 64 64h384c38.4 0 64-25.6 64-64v-512c0-32-25.6-64-64-64zM512 844.8c12.8 0 25.6 12.8 25.6 25.6s-12.8 25.6-25.6 25.6-25.6-12.8-25.6-25.6 12.8-25.6 25.6-25.6m0-38.4c-38.4 0-64 25.6-64 64s25.6 64 64 64 64-25.6 64-64-25.6-64-64-64z" fill="" p-id="2029"></path></svg>