<?xml version="1.0" encoding="UTF-8"?>
<svg width="12px" height="12px" viewBox="0 0 12 12" version="1.1" xmlns="http://www.w3.org/2000/svg" xmlns:xlink="http://www.w3.org/1999/xlink">
    <title>检查:确认-multiple-线</title>
    <g id="-界面合集" stroke="none" stroke-width="1" fill="none" fill-rule="evenodd">
        <g id="物料定义" transform="translate(-778.000000, -174.000000)" fill-rule="nonzero">
            <g id="检查:确认-multiple-线" transform="translate(778.000000, 174.000000)">
                <rect id="矩形" fill="#000000" opacity="0" x="0" y="0" width="12" height="12"></rect>
                <path d="M2.9999997,3 L2.9999997,0.6 C2.9999997,0.26862915 3.26862915,0 3.6,0 L11.4,0 C11.7313708,0 11.9999997,0.26862915 11.9999997,0.6 L11.9999997,8.4 C11.9999997,8.73137085 11.7313708,9 11.4,9 L8.9999997,9 L8.9999997,11.3958 C8.9999997,11.7294 8.7306,12 8.3958,12 L0.6042,12 C0.443907379,12.0001594 0.290134104,11.936554 0.176790048,11.82321 C0.063445993,11.7098659 -0.000159415952,11.5560926 -2.98939607e-07,11.3958 L0.0018,3.6042 C0.0018,3.2706 0.2712,3 0.606,3 L2.9999997,3 Z M4.2,3 L8.3958,3 C8.7294,3 9,3.2694 9,3.6042 L9,7.8 L10.8,7.8 L10.8,1.2 L4.2,1.2 L4.2,3 Z M7.8,4.2 L1.2018,4.2 L1.2,10.8 L7.8,10.8 L7.8,4.2 L7.8,4.2 Z M3.9018,9.6 L1.7802,7.4784 L2.6286,6.63 L3.9018,7.9032 L6.447,5.3574 L7.2954,6.2058 L3.9018,9.6 L3.9018,9.6 Z" id="形状" fill="#949496"></path>
            </g>
        </g>
    </g>
</svg>