<?xml version="1.0" encoding="UTF-8"?>
<svg width="13px" height="13px" viewBox="0 0 13 13" version="1.1" xmlns="http://www.w3.org/2000/svg" xmlns:xlink="http://www.w3.org/1999/xlink">
    <title>表格图</title>
    <g id="-界面合集" stroke="none" stroke-width="1" fill="none" fill-rule="evenodd">
        <g id="主生产计划" transform="translate(-357.000000, -173.000000)" fill-rule="nonzero">
            <g id="表格图" transform="translate(357.776940, 173.777600)">
                <rect id="矩形" fill="#000000" opacity="0" x="0" y="0" width="12" height="12"></rect>
                <path d="M0,0 L1,0 L1,12 L0,12 L0,0 Z M11,0 L12,0 L12,12 L11,12 L11,0 Z M4.0137931,2.95862069 L5.0137931,2.95862069 L5.0137931,12 L4.0137931,12 L4.0137931,2.95862069 Z M6.99310345,2.95862069 L7.99310345,2.95862069 L7.99310345,12 L6.99310345,12 L6.99310345,2.95862069 Z" id="形状" fill="#949496"></path>
                <path d="M12,11.0007007 L12,12 L0.00144810109,12 L0.00144810109,11.0007007 L12,11.0007007 Z M11.9985519,0 L11.9985519,0.999299342 L0,0.999299342 L0,0 L11.9985519,0 Z M11.9985519,2.96343943 L11.9985519,3.96273877 L0,3.96273877 L0,2.96343943 L11.9985519,2.96343943 Z M11.9993104,6.98207004 L11.9993104,7.98136938 L0.000758529143,7.98136938 L0.000758529143,6.98207004 L11.9993104,6.98207004 Z" id="形状" fill="#949496"></path>
            </g>
        </g>
    </g>
</svg>