<?xml version="1.0" encoding="UTF-8"?>
<svg width="11px" height="12px" viewBox="0 0 11 12" version="1.1" xmlns="http://www.w3.org/2000/svg" xmlns:xlink="http://www.w3.org/1999/xlink">
    <title>添加</title>
    <g id="页面-1" stroke="none" stroke-width="1" fill="none" fill-rule="evenodd">
        <g id="01-工单派发（自制工单）" transform="translate(-1311.000000, -663.000000)" fill="#7F7F7F">
            <g id="删除2备份-17" transform="translate(1311.000000, 663.000000)">
                <path d="M9.23999648,7.33332037 L9.23999648,9.11110309 L11,9.11110309 L11,10.2222173 L9.23999648,10.2222173 L9.23999648,12 L8.13999428,12 L8.13999428,10.2222173 L6.37999076,10.2222173 L6.37999076,9.11110309 L8.13999428,9.11110309 L8.13999428,7.33332037 L9.23999648,7.33332037 Z M9.9000198,0 L9.9000198,6.55557377 L8.8000176,6.55557377 L8.8000176,1.1111142 L1.1000022,1.1111142 L1.1000022,10.0000278 L5.500011,10.0000278 L5.500011,11.111142 L0,11.111142 L0,0 L9.9000198,0 Z M7.04001408,6.55557377 L7.04001408,7.66668796 L2.86000572,7.66668796 L2.86000572,6.55557377 L7.04001408,6.55557377 Z M7.04001408,3.33334259 L7.04001408,4.44445679 L2.86000572,4.44445679 L2.86000572,3.33334259 L7.04001408,3.33334259 Z" id="添加"></path>
            </g>
        </g>
    </g>
</svg>