<?xml version="1.0" encoding="UTF-8"?>
<svg width="56px" height="56px" viewBox="0 0 56 56" version="1.1" xmlns="http://www.w3.org/2000/svg" xmlns:xlink="http://www.w3.org/1999/xlink">
    <title></title>
    <defs>
        <polygon id="path-1" points="0 0 54 0 54 56"></polygon>
    </defs>
    <g id="组件控件" stroke="none" stroke-width="1" fill="none" fill-rule="evenodd">
        <g id="01-登录" transform="translate(-1488.000000, -156.000000)">
            <g id="编组-4" transform="translate(1488.000000, 156.000000)">
                <rect id="矩形" x="0" y="0" width="56" height="56"></rect>
                <g id="矩形-4" transform="translate(2.000000, 0.000000)">
                    <mask id="mask-2" fill="white">
                        <use xlink:href="#path-1"></use>
                    </mask>
                    <g id="矩形" opacity="0.369512649"></g>
                    <path d="M29.0769231,16.2909091 L29.0769231,20.3636364 L33.2307692,20.3636364 L33.2307692,24.4363636 L41.5384615,24.4363636 L41.5384615,28.5090909 L37.3846154,28.5090909 L37.3846154,32.5818182 L41.5384615,32.5818182 L41.5384615,28.5090909 L45.6923077,28.5090909 L45.6923077,24.4363636 L54,24.4363636 L54,28.5090909 L49.8461538,28.5090909 L49.8461538,32.5818182 L54,32.5818182 L54,57.0181818 L49.8461538,57.0181818 L49.8461538,36.6545455 L33.2307692,36.6545455 L33.2307692,28.5090909 L24.9230769,28.5090909 L24.9230769,16.2909091 L29.0769231,16.2909091 Z M45.6923077,39.7090909 L45.6923077,47.8545455 L37.3846154,47.8545455 L37.3846154,39.7090909 L45.6923077,39.7090909 Z M54,0 L54,20.3636364 L33.2307692,20.3636364 L33.2307692,0 L54,0 Z M19.7307692,0 L19.7307692,20.3636364 L-1.03846154,20.3636364 L-1.03846154,0 L19.7307692,0 Z M49.8461538,4.07272727 L37.3846154,4.07272727 L37.3846154,16.2909091 L49.8461538,16.2909091 L49.8461538,4.07272727 Z M15.5769231,4.07272727 L3.11538462,4.07272727 L3.11538462,16.2909091 L15.5769231,16.2909091 L15.5769231,4.07272727 Z M46.7307692,7.12727273 L46.7307692,13.2363636 L40.5,13.2363636 L40.5,7.12727273 L46.7307692,7.12727273 Z M12.4615385,7.12727273 L12.4615385,13.2363636 L6.23076923,13.2363636 L6.23076923,7.12727273 L12.4615385,7.12727273 Z M29.0769231,8.14545455 L29.0769231,12.2181818 L24.9230769,12.2181818 L24.9230769,8.14545455 L29.0769231,8.14545455 Z M29.0769231,0 L29.0769231,4.07272727 L24.9230769,4.07272727 L24.9230769,0 L29.0769231,0 Z" id="" fill="#326FFF" mask="url(#mask-2)"></path>
                </g>
            </g>
        </g>
    </g>
</svg>