<?xml version="1.0" encoding="UTF-8"?>
<svg width="56px" height="56px" viewBox="0 0 56 56" version="1.1" xmlns="http://www.w3.org/2000/svg" xmlns:xlink="http://www.w3.org/1999/xlink">
    <title></title>
    <defs>
        <polygon id="path-1" points="-2.772782e-13 0 54 0 54 44 54 53 41.3220623 52.2392492"></polygon>
    </defs>
    <g id="组件控件" stroke="none" stroke-width="1" fill="none" fill-rule="evenodd">
        <g id="04-二维码登录" transform="translate(-1488.000000, -156.000000)">
            <g id="编组-4" transform="translate(1488.000000, 156.000000)">
                <rect id="矩形" x="0" y="0" width="56" height="56"></rect>
                <g id="矩形-5" transform="translate(2.000000, 0.000000)">
                    <mask id="mask-2" fill="white">
                        <use xlink:href="#path-1"></use>
                    </mask>
                    <g id="矩形" opacity="0.377697173"></g>
                    <path d="M-7.41176471,38.4 C-9.75085306,38.4 -11.6470588,36.4897483 -11.6470588,34.1333333 L-11.6470588,4.26666667 C-11.6470588,1.91025173 -9.75085306,0 -7.41176471,0 L49.7647059,0 C52.1037942,0 54,1.91025173 54,4.26666667 L54,34.1333333 C54,36.4897483 52.1037942,38.4 49.7647059,38.4 L38.1176471,38.4 L38.1176471,48 L48.1764706,48 C49.0536287,48 49.7647059,48.7110772 49.7647059,49.5882353 L49.7647059,49.6117647 C49.7647059,50.4889228 49.0536287,51.2 48.1764706,51.2 L14.2941176,51.2 C13.4169595,51.2 12.7058824,50.4889228 12.7058824,49.6117647 L12.7058824,49.5882353 C12.7058824,48.7110772 13.4169595,48 14.2941176,48 L12.7058824,48 L12.7058824,38.4 L-7.41176471,38.4 Z M49.7647059,2.13333333 L-7.41176471,2.13333333 C-8.58130888,2.13333333 -9.52941176,3.0884592 -9.52941176,4.26666667 L-9.52941176,34.1333333 C-9.52941176,35.3115408 -8.58130888,36.2666667 -7.41176471,36.2666667 L49.7647059,36.2666667 C50.9342501,36.2666667 51.8823529,35.3115408 51.8823529,34.1333333 L51.8823529,4.26666667 C51.8823529,3.0884592 50.9342501,2.13333333 49.7647059,2.13333333 Z M46.5882353,6.4 C47.1730074,6.4 47.6470588,6.87405144 47.6470588,7.45882353 L47.6470588,30.9411765 C47.6470588,31.5259486 47.1730074,32 46.5882353,32 L-4.23529412,32 C-4.82006621,32 -5.29411765,31.5259486 -5.29411765,30.9411765 L-5.29411765,7.45882353 C-5.29411765,6.87405144 -4.82006621,6.4 -4.23529412,6.4 L46.5882353,6.4 Z" id="" fill="#326FFF" mask="url(#mask-2)"></path>
                </g>
            </g>
        </g>
    </g>
</svg>