<?xml version="1.0" encoding="UTF-8"?>
<svg width="12px" height="12px" viewBox="0 0 12 12" version="1.1" xmlns="http://www.w3.org/2000/svg" xmlns:xlink="http://www.w3.org/1999/xlink">
    <title>通知</title>
    <g id="-界面合集" stroke="none" stroke-width="1" fill="none" fill-rule="evenodd">
        <g id="01-保养计划备份-2" transform="translate(-944.000000, -224.000000)" fill-rule="nonzero">
            <g id="通知" transform="translate(944.000000, 224.000000)">
                <rect id="矩形" fill="#000000" opacity="0" x="0" y="0" width="12" height="12"></rect>
                <path d="M5.95066666,12 C6.89533334,12 7.69,11.4 7.69,10.8 L4.2,10.8 C4.2,11.4 5.00666667,12 5.95066666,12 Z M10.05,8.64533333 L10.05,5.25466666 C10.05,3.35666666 8.95,1.768 7.01266666,1.348 L7.01266666,0.926666672 C7.01266666,0.413333332 6.56,0 6,0 C5.44,0 4.98733334,0.414 4.98733334,0.926666672 L4.98733334,1.34733333 C3.05666667,1.768 1.95,3.35066666 1.95,5.254 L1.95,8.64533333 L0.6,9.582 L0.6,10.2 L11.4,10.2 L11.4,9.582 L10.05,8.64533333 Z M8.83466667,9 L3.15466638,9 L3.15466638,5.22866667 C3.154,3.67 4.33333334,2.4 6,2.4 C7.66666666,2.4 8.83466667,3.67 8.83466667,5.22866667 L8.83466667,9 Z" id="形状" fill="#AAAAAA"></path>
            </g>
        </g>
    </g>
</svg>