<?xml version="1.0" encoding="UTF-8"?>
<svg width="15px" height="17px" viewBox="0 0 15 17" version="1.1" xmlns="http://www.w3.org/2000/svg" xmlns:xlink="http://www.w3.org/1999/xlink">
    <title>密码</title>
    <g id="组件控件" stroke="none" stroke-width="1" fill="none" fill-rule="evenodd" fill-opacity="0.7">
        <g id="01-手机号登录" transform="translate(-986.000000, -393.000000)" fill="#000000">
            <g id="密码" transform="translate(985.000000, 393.000000)">
                <path d="M8.5,0 C11.3442815,0 13.6583911,2.3899488 13.6583911,5.32780048 L13.6583911,5.32780048 L12.266864,5.32780048 C12.266864,3.18249965 10.5770862,1.437227 8.5,1.437227 C6.42306843,1.437227 4.73329063,3.18249965 4.73329063,5.32780048 L4.73329063,5.32780048 L4.73329063,7.4320605 L15.5,7.4320605 L15.5,17 L1.5,17 L1.5,7.4320605 L3.34176348,7.4320605 L3.34176348,5.32780048 C3.34176348,2.3899488 5.65571851,0 8.5,0 Z M14.1084729,8.86928749 L2.89152715,8.86928749 L2.89152715,15.562773 L14.1084729,15.562773 L14.1084729,8.86928749 Z M8.50006185,10.2929247 C9.18314706,10.2929247 9.73697486,10.8649411 9.73697486,11.5704598 C9.73697486,12.0431478 9.48789151,12.4546738 9.11851835,12.6756874 L9.11851835,12.6756874 L9.11851835,13.5666084 C9.11851835,13.9193678 8.84160445,14.205376 8.50006185,14.205376 C8.15851924,14.205376 7.88160534,13.9193678 7.88160534,13.5666084 L7.88160534,13.5666084 L7.88160534,12.6756874 C7.51223219,12.4546738 7.26314883,12.0431478 7.26314883,11.5704598 C7.26314883,10.8649411 7.81697663,10.2929247 8.50006185,10.2929247 Z" id=""></path>
            </g>
        </g>
    </g>
</svg>