<?xml version="1.0" encoding="UTF-8"?>
<svg width="12px" height="12px" viewBox="0 0 12 12" version="1.1" xmlns="http://www.w3.org/2000/svg" xmlns:xlink="http://www.w3.org/1999/xlink">
    <title></title>
    <g id="-界面合集" stroke="none" stroke-width="1" fill="none" fill-rule="evenodd">
        <g id="负荷分析" transform="translate(-839.000000, -551.000000)" fill="#949496" fill-rule="nonzero">
            <g id="编组-40" transform="translate(819.000000, 471.000000)">
                <g id="09/01备份-2" transform="translate(20.000000, 80.000000)">
                    <g id="形状-2" transform="translate(0.500000, 0.500000)">
                        <path d="M10.5875,0 C10.8153237,0 11,0.18467625 11,0.4125 L11,10.5875 C11,10.8153237 10.8153237,11 10.5875,11 L0.4125,11 C0.18467625,11 0,10.8153237 0,10.5875 L0,0.4125 C0,0.18467625 0.18467625,0 0.4125,0 L10.5875,0 Z M10.12,0.88 L0.88,0.88 L0.88,10.12 L10.12,10.12 L10.12,0.88 Z M7.8375,6.325 C8.67282625,6.325 9.35,7.00217375 9.35,7.8375 C9.35,8.67282625 8.67282625,9.35 7.8375,9.35 C7.00217375,9.35 6.325,8.67282625 6.325,7.8375 C6.325,7.00217375 7.00217375,6.325 7.8375,6.325 Z M7.79339,2.37862625 L7.80604,2.38580375 L4.39604,8.29208875 C4.15547,8.7087825 3.62558625,8.854285 3.20661,8.62137375 L3.19396,8.61419625 L6.60396,2.70791125 C6.84453,2.2912175 7.37441375,2.145715 7.79339,2.37862625 L7.79339,2.37862625 Z M7.8375,7.205 C7.48818125,7.205 7.205,7.48818125 7.205,7.8375 C7.205,8.18681875 7.48818125,8.47 7.8375,8.47 C8.18681875,8.47 8.47,8.18681875 8.47,7.8375 C8.47,7.48818125 8.18681875,7.205 7.8375,7.205 Z M3.1625,1.65 C3.99782625,1.65 4.675,2.32717375 4.675,3.1625 C4.675,3.99782625 3.99782625,4.675 3.1625,4.675 C2.32717375,4.675 1.65,3.99782625 1.65,3.1625 C1.65,2.32717375 2.32717375,1.65 3.1625,1.65 Z M3.1625,2.53 C2.81318125,2.53 2.53,2.81318125 2.53,3.1625 C2.53,3.51181875 2.81318125,3.795 3.1625,3.795 C3.51181875,3.795 3.795,3.51181875 3.795,3.1625 C3.795,2.81318125 3.51181875,2.53 3.1625,2.53 Z" id="形状"></path>
                    </g>
                </g>
            </g>
        </g>
    </g>
</svg>