<?xml version="1.0" encoding="UTF-8"?>
<svg width="66px" height="66px" viewBox="0 0 66 66" version="1.1" xmlns="http://www.w3.org/2000/svg" xmlns:xlink="http://www.w3.org/1999/xlink">
    <title>时间</title>
    <g id="-界面合集" stroke="none" stroke-width="1" fill="none" fill-rule="evenodd">
        <g id="01-首页备份-3" transform="translate(-1304.000000, -193.000000)" fill="#F7B500" fill-rule="nonzero">
            <g id="时间" transform="translate(1105.000000, 157.000000)">
                <g transform="translate(199.000000, 36.000000)">
                    <rect id="矩形" opacity="0" x="0" y="0" width="66" height="66"></rect>
                    <path d="M50.072758,41.3890427 C46.941396,38.4690992 43.9969809,35.6882006 43.9969809,33.0000007 C43.9969809,30.3117966 46.941396,27.5308979 50.072758,24.6109544 C54.2790652,20.7176963 58.9997464,16.3146068 58.9997464,9.82584327 C59.0082112,7.58716225 58.8047911,5.35262039 58.3918989,3.15168654 C58.0938398,1.33385642 56.5100981,-0.00113570795 54.6529592,7.25003289e-07 L10.2997866,7.25003289e-07 C8.44972609,0.017828034 6.87663849,1.34383944 6.5608469,3.15168654 C6.18673781,5.35702649 5.99913795,7.58951494 6.00000298,9.82584327 C6.00000298,16.3146067 10.6736806,20.7176962 14.9267245,24.6109544 C18.0580865,27.5308979 21.0025016,30.2654482 21.0025016,33.0000007 C21.0025016,35.7345489 18.0580865,38.4690992 14.9267245,41.3890427 C10.6736806,45.2359526 6.00000298,49.639042 6.00000298,56.1278055 C5.99914096,58.3795033 6.18673186,60.6273877 6.5608469,62.8483106 C6.87663849,64.6561577 8.44972609,65.9821691 10.2997866,66.0000007 L54.6529592,66.0000007 C56.5100981,66.0011328 58.0938398,64.6661407 58.3918989,62.8483106 C58.8025763,60.6314623 59.0059656,58.3817441 58.9997464,56.1278055 C58.9997464,49.6390421 54.2790652,45.2359526 50.072758,41.3890427 L50.072758,41.3890427 Z M20.02103,46.8581434 C23.9936534,43.1502786 28.4803811,38.9789306 28.4803811,32.9536503 C28.4803811,26.9283699 23.8067064,22.7570219 20.02103,19.0491571 C16.2353535,15.3412922 13.5246222,13.0238767 13.5246222,9.77949497 L13.5246222,7.50842776 L50.9140194,7.50842776 C50.9608196,8.26473882 50.9608196,9.0231839 50.9140194,9.77949497 C50.9140194,13.0238767 47.7826574,15.9438202 44.4176117,19.0491571 C41.0525659,22.1544939 36.3788913,27.0210665 36.3788913,32.9999986 C36.3788913,38.9789306 41.0525659,43.1502786 44.8849791,46.9044917 C46.193608,48.1095478 47.4087634,49.2682555 48.4837086,50.4269633 L34.0420539,43.8918515 C33.0339787,43.4295243 31.8720303,43.4295243 30.8639551,43.8918515 L16.4690372,50.380615 C17.5439824,49.2219072 18.8058745,48.0631995 20.02103,46.8581434 Z M48.0630779,58.445221 L16.9831414,58.445221 L32.4997413,51.4466261 L48.0630779,58.445221 Z" id="形状" fill-opacity="0.1"></path>
                </g>
            </g>
        </g>
    </g>
</svg>