<?xml version="1.0" encoding="UTF-8"?>
<svg width="16px" height="16px" viewBox="0 0 16 16" version="1.1" xmlns="http://www.w3.org/2000/svg" xmlns:xlink="http://www.w3.org/1999/xlink">
    <title>文件-2备份</title>
    <g id="-界面合集" stroke="none" stroke-width="1" fill="none" fill-rule="evenodd">
        <g id="02-新增作业文件" transform="translate(-110.000000, -381.000000)" fill-rule="nonzero">
            <g id="文件-2备份" transform="translate(110.000000, 381.000000)">
                <rect id="矩形" fill="#000000" opacity="0" x="0" y="0" width="16" height="16"></rect>
                <path d="M8.83172221,5.14789236 C8.83172221,5.35118692 8.90176488,5.5254394 9.04526692,5.66552472 C9.18876896,5.80902676 9.36131308,5.87906943 9.56289929,5.87906943 L13.7125,5.87906943 L13.7125,13.9339757 C13.7125,14.1372703 13.6424573,14.3115228 13.4989553,14.4516081 C13.3571616,14.5968185 13.1846175,14.6668611 12.9813229,14.6668611 L2.73117707,14.6668611 C2.52788251,14.6668611 2.35363003,14.5968185 2.21354471,14.4533164 C2.07004266,14.3098144 2,14.1372703 2,13.9356841 L2,1.73117707 C2,1.52788251 2.07004266,1.35363003 2.21354471,1.21354471 C2.35704675,1.07004266 2.52959087,1 2.73117707,1 L8.83343057,1 L8.83172221,5.14789236 Z M9.80719443,4.90530557 L9.80719443,1.3023793 C9.91994603,1.37242197 10.010489,1.44588134 10.08224,1.51592401 L13.1948676,4.62855163 C13.2649103,4.6985943 13.3383697,4.79084561 13.4084123,4.90359721 L9.80719443,4.90530557 Z" id="形状" fill="#A58FFF"></path>
                <g id="图片" transform="translate(3.000000, 6.000000)">
                    <rect id="矩形" fill="#000000" opacity="0" x="0" y="0" width="9" height="9"></rect>
                    <path d="M8.143992,0.969966 L1.677096,0.969966 C1.478673,0.969966 1.317834,1.130841 1.317834,1.329291 L1.317834,7.077465 C1.317834,7.275807 1.478673,7.436502 1.677096,7.436502 L8.143983,7.436502 C8.342415,7.436502 8.503263,7.275807 8.503263,7.077465 L8.503263,1.3293 C8.503263,1.130841 8.342406,0.969966 8.143983,0.969966 L8.143992,0.969966 Z M7.425405,6.358815 L2.395665,6.358815 L2.395665,4.562649 L3.47346,3.484773 L5.269842,5.281128 L6.347601,4.20318 L7.425405,5.281128 L7.425405,6.358815 Z M6.706872,3.484791 C6.310026,3.484791 5.988375,3.163149 5.988375,2.766321 C5.988375,2.36934 6.310035,2.047815 6.706872,2.047815 C7.103709,2.047815 7.425405,2.369349 7.425405,2.766321 C7.425405,3.163149 7.103718,3.484791 6.706872,3.484791 Z" id="形状" fill="#FFFFFF"></path>
                </g>
            </g>
        </g>
    </g>
</svg>