<?xml version="1.0" encoding="UTF-8"?>
<svg width="30px" height="30px" viewBox="0 0 30 30" version="1.1" xmlns="http://www.w3.org/2000/svg" xmlns:xlink="http://www.w3.org/1999/xlink">
    <title>备份</title>
    <g id="-界面合集" stroke="none" stroke-width="1" fill="none" fill-rule="evenodd">
        <g id="01-工单派发（自制工单）" transform="translate(-166.000000, -488.000000)">
            <g id="编组-5" transform="translate(165.000000, 398.000000)">
                <g id="编组-3备份" transform="translate(1.000000, 90.000000)">
                    <rect id="Rectangle-7" fill="#326FFF" x="0" y="0" width="30" height="30"></rect>
                    <g id="app-store-fill" transform="translate(5.000000, 5.000000)" fill-rule="nonzero">
                        <rect id="矩形" fill="#000000" opacity="0" x="0" y="0" width="20" height="20"></rect>
                        <path d="M16.875,2.8125 L10.9375,2.8125 C10.765625,2.8125 10.625,2.953125 10.625,3.125 L10.625,9.0625 C10.625,9.234375 10.765625,9.375 10.9375,9.375 L16.875,9.375 C17.046875,9.375 17.1875,9.234375 17.1875,9.0625 L17.1875,3.125 C17.1875,2.953125 17.046875,2.8125 16.875,2.8125 Z M16.875,10.625 L10.9375,10.625 C10.765625,10.625 10.625,10.765625 10.625,10.9375 L10.625,16.875 C10.625,17.046875 10.765625,17.1875 10.9375,17.1875 L16.875,17.1875 C17.046875,17.1875 17.1875,17.046875 17.1875,16.875 L17.1875,10.9375 C17.1875,10.765625 17.046875,10.625 16.875,10.625 Z M9.0625,2.8125 L3.125,2.8125 C2.953125,2.8125 2.8125,2.953125 2.8125,3.125 L2.8125,9.0625 C2.8125,9.234375 2.953125,9.375 3.125,9.375 L9.0625,9.375 C9.234375,9.375 9.375,9.234375 9.375,9.0625 L9.375,3.125 C9.375,2.953125 9.234375,2.8125 9.0625,2.8125 Z M9.0625,10.625 L3.125,10.625 C2.953125,10.625 2.8125,10.765625 2.8125,10.9375 L2.8125,16.875 C2.8125,17.046875 2.953125,17.1875 3.125,17.1875 L9.0625,17.1875 C9.234375,17.1875 9.375,17.046875 9.375,16.875 L9.375,10.9375 C9.375,10.765625 9.234375,10.625 9.0625,10.625 Z" id="形状" fill="#FFFFFF"></path>
                    </g>
                </g>
            </g>
        </g>
    </g>
</svg>