<?xml version="1.0" encoding="UTF-8"?>
<svg width="24px" height="24px" viewBox="0 0 24 24" version="1.1" xmlns="http://www.w3.org/2000/svg" xmlns:xlink="http://www.w3.org/1999/xlink">
    <title></title>
    <g id="页面-1" stroke="none" stroke-width="1" fill="none" fill-rule="evenodd">
        <g id="新增示例" transform="translate(-265.000000, -641.000000)" fill="#000000">
            <g id="Icon/Plus" transform="translate(265.000000, 641.000000)">
                <rect id="矩形" fill-rule="nonzero" opacity="0" x="0" y="0" width="24" height="24"></rect>
                <path d="M12.703125,3.5625 C12.828125,3.5625 12.890625,3.625 12.890625,3.75 L12.8905,11.1085 L19.875,11.109375 C20,11.109375 20.0625,11.171875 20.0625,11.296875 L20.0625,12.703125 C20.0625,12.828125 20,12.890625 19.875,12.890625 L12.8905,12.8905 L12.890625,20.25 C12.890625,20.375 12.828125,20.4375 12.703125,20.4375 L11.296875,20.4375 C11.171875,20.4375 11.109375,20.375 11.109375,20.25 L11.1085,12.8905 L4.125,12.890625 C4,12.890625 3.9375,12.828125 3.9375,12.703125 L3.9375,11.296875 C3.9375,11.171875 4,11.109375 4.125,11.109375 L11.1085,11.1085 L11.109375,3.75 C11.109375,3.625 11.171875,3.5625 11.296875,3.5625 L12.703125,3.5625 Z" id="形状" fill-opacity="0.65"></path>
            </g>
        </g>
    </g>
</svg>