<?xml version="1.0" encoding="UTF-8"?>
<svg width="12px" height="13px" viewBox="0 0 12 13" version="1.1" xmlns="http://www.w3.org/2000/svg" xmlns:xlink="http://www.w3.org/1999/xlink">
    <title>编辑</title>
    <g id="WEB-设计总稿" stroke="none" stroke-width="1" fill="none" fill-rule="evenodd" opacity="0.3">
        <g id="01-缺陷记录" transform="translate(-1360.000000, -351.000000)">
            <g id="编辑" transform="translate(1360.000000, 351.000000)">
                <rect id="矩形" x="0" y="0" width="12" height="12"></rect>
                <rect id="矩形" stroke="#7A7B7C" x="0.5" y="0.5" width="11" height="11"></rect>
                <path d="M9.97291439,5.42744755 L10.3919992,5.84653232 C10.5892155,6.04374869 10.7679429,6.22247602 10.9281812,6.38271431 L11.3534289,6.8079621 C11.3945157,6.84904884 11.4335481,6.88808124 11.4705261,6.92505931 C11.6611305,7.11566363 11.7340049,8.04040101 11.6164076,7.92280376 L11.4350803,7.74160212 L11.4350803,7.74160212 L11.3154488,7.6220535 L11.3154488,7.6220535 L10.3792021,6.68645567 C10.3167857,6.62408248 10.2526355,6.55997671 10.1867514,6.49413834 L9.5469829,5.85481316 L9.5469829,5.85481316 C9.33760244,5.64543269 8.9962836,5.64543269 8.78546902,5.85481316 L5.368,9.271 L7.32123989,11.2241313 C7.43883714,11.3417286 7.43883714,11.5324656 7.32123989,11.6500628 C7.26244127,11.7088615 7.18499918,11.7375437 7.10755709,11.7375437 C7.030115,11.7375437 6.95410703,11.7074273 6.8953084,11.6486287 L4.02134643,8.77610085 C3.87506693,8.62982135 3.63557009,8.62982135 3.48929059,8.77610085 L1.41412943,10.851262 C1.29653218,10.9688593 1.10579518,10.9688593 0.988197935,10.851262 C0.870600688,10.7336648 0.870600688,10.5429278 0.988197935,10.4253305 L3.0633591,8.35016936 C3.4448331,7.96869537 4.06580392,7.96869537 4.44727792,8.35016936 L4.942,8.845 L8.36097165,5.42744755 C8.8055466,4.9828726 9.52977355,4.9828726 9.97291439,5.42744755 Z M3.7259192,3.5 C4.55627049,3.5 5.2317376,4.17546711 5.2317376,5.0058184 C5.2317376,5.83616969 4.55627049,6.5116368 3.7259192,6.5116368 C2.89556791,6.5116368 2.2201008,5.83616969 2.2201008,5.0058184 C2.2201008,4.17546711 2.89556791,3.5 3.7259192,3.5 Z M3.7259192,4.10232736 C3.22828207,4.10232736 2.82242816,4.50818127 2.82242816,5.0058184 C2.82242816,5.50345553 3.22828207,5.90930944 3.7259192,5.90930944 C4.22355633,5.90930944 4.62941024,5.50345553 4.62941024,5.0058184 C4.62941024,4.50818127 4.22355633,4.10232736 3.7259192,4.10232736 Z" id="" stroke="#7A7B7C" stroke-width="0.545454545" fill="#7A7B7C" fill-rule="nonzero"></path>
            </g>
        </g>
    </g>
</svg>