<?xml version="1.0" encoding="UTF-8"?>
<svg width="12px" height="12px" viewBox="0 0 12 12" version="1.1" xmlns="http://www.w3.org/2000/svg" xmlns:xlink="http://www.w3.org/1999/xlink">
    <title></title>
    <g id="页面-1" stroke="none" stroke-width="1" fill="none" fill-rule="evenodd">
        <g id="行、列设置" transform="translate(-76.000000, -142.000000)">
            <g id="编组-2" transform="translate(56.000000, 120.000000)">
                <g id="编组" transform="translate(20.000000, 22.000000)">
                    <path d="M8.6016,7.94360902 C9.37443313,7.94452058 10.0007183,8.59199582 10.0016,9.39097744 L10.0016,10.8796992 C10.0016,11.2222819 9.73297085,11.5 9.4016,11.5 C9.07022915,11.5 8.8016,11.2222819 8.8016,10.8796992 L8.8016,9.39097744 C8.8016,9.27678323 8.71205695,9.18421053 8.6016,9.18421053 L3.4016,9.18421053 C3.29114305,9.18421053 3.2016,9.27678323 3.2016,9.39097744 L3.2016,10.8796992 C3.2016,11.2222819 2.93297085,11.5 2.6016,11.5 C2.27022915,11.5 2.0016,11.2222819 2.0016,10.8796992 L2.0016,9.39097744 C2.00248173,8.59199582 2.62876687,7.94452058 3.4016,7.94360902 L8.6016,7.94360902 Z M11.36,3.62548872 C11.4665804,3.522947 11.6203121,3.49203914 11.7562966,3.54581305 C11.892281,3.59958696 11.9868186,3.72867087 12,3.87857143 L12,3.87857143 L12,8.12556391 C11.9852094,8.27458438 11.8900562,8.40208758 11.7543819,8.4546869 C11.6187075,8.50728622 11.4659228,8.47590554 11.36,8.37368421 L11.36,8.37368421 L9.1112,6.25390977 C9.04038663,6.19106005 8.99964222,6.09938148 8.99964222,6.00289474 C8.99964222,5.906408 9.04038663,5.81472942 9.1112,5.7518797 L9.1112,5.7518797 L11.36,3.62631579 Z M0.64,3.62796992 L0.64,3.62548872 L2.888,5.74857143 C2.95881337,5.81142115 2.99955778,5.90309973 2.99955778,5.99958647 C2.99955778,6.09607321 2.95881337,6.18775178 2.888,6.2506015 L0.64,8.37285714 C0.534077165,8.47507847 0.381292475,8.50645915 0.245618116,8.45385983 C0.109943757,8.40126051 0.0147905835,8.27375731 1.74971149e-13,8.12473684 L1.74971149e-13,3.88105263 C0.0131813942,3.73115208 0.107719045,3.60206816 0.243703449,3.54829425 C0.379687853,3.49452034 0.533419551,3.5254282 0.64,3.62796992 Z M9.4016,0.5 C9.73297085,0.5 10.0016,0.777718106 10.0016,1.12030075 L10.0016,2.60902256 C10.0007183,3.40800418 9.37443313,4.05547942 8.6016,4.05639098 L3.4016,4.05639098 C2.62876687,4.05547942 2.00248173,3.40800418 2.0016,2.60902256 L2.0016,1.12030075 C2.0016,0.777718106 2.27022915,0.5 2.6016,0.5 C2.93297085,0.5 3.2016,0.777718106 3.2016,1.12030075 L3.2016,2.60902256 C3.2016,2.72321677 3.29114305,2.81578947 3.4016,2.81578947 L8.6016,2.81578947 C8.71205695,2.81578947 8.8016,2.72321677 8.8016,2.60902256 L8.8016,1.12030075 C8.8016,0.777718106 9.07022915,0.5 9.4016,0.5 Z" id="形状结合" fill="#7F7F7F" fill-rule="nonzero"></path>
                    <rect id="矩形" x="0" y="0" width="12" height="12"></rect>
                </g>
            </g>
        </g>
    </g>
</svg>