<?xml version="1.0" encoding="UTF-8"?>
<svg width="12px" height="12px" viewBox="0 0 12 12" version="1.1" xmlns="http://www.w3.org/2000/svg" xmlns:xlink="http://www.w3.org/1999/xlink">
    <title></title>
    <defs>
        <filter id="filter-1">
            <feColorMatrix in="SourceGraphic" type="matrix" values="0 0 0 0 0.498039 0 0 0 0 0.498039 0 0 0 0 0.498039 0 0 0 1.000000 0"></feColorMatrix>
        </filter>
        <polygon id="path-2" points="0 0 12 0 12 11 0 11"></polygon>
    </defs>
    <g id="页面-1" stroke="none" stroke-width="1" fill="none" fill-rule="evenodd">
        <g id="行、列设置" transform="translate(-76.000000, -217.000000)">
            <g id="编组-2" transform="translate(56.000000, 120.000000)">
                <g id="编组" transform="translate(20.000000, 97.000000)">
                    <g filter="url(#filter-1)">
                        <g transform="translate(0.000000, 0.500000)">
                            <mask id="mask-3" fill="white">
                                <use xlink:href="#path-2"></use>
                            </mask>
                            <g id="Clip-2"></g>
                            <path d="M11.999309,9.1616166 C12.001038,9.25594401 11.9638979,9.34687492 11.8965178,9.41337485 L10.4009556,10.8971098 C10.2643954,11.033685 10.0421551,11.0344 9.90463486,10.8986591 C9.90409486,10.8981824 9.90349486,10.8976461 9.90295485,10.8971098 L9.65401448,10.6505357 C9.51625427,10.513901 9.51613427,10.2922942 9.65377448,10.1554807 C9.65383448,10.1554211 9.65389448,10.1553019 9.65401448,10.1552423 L10.1280152,9.68521417 L1.87200281,9.68521417 L2.34600352,10.1552423 C2.48250372,10.2922346 2.48250372,10.5128284 2.34600352,10.6498207 L2.09550314,10.8971098 C1.95888294,11.033685 1.7366426,11.0344 1.5991224,10.8986591 C1.5985824,10.8981824 1.5979824,10.8976461 1.5975024,10.8971098 L0.103500155,9.41337485 C0.036000054,9.34657698 -0.00108000162,9.25540772 0.000657395653,9.16084196 C-0.00108000162,9.0662762 0.036000054,8.97510695 0.103500155,8.90836867 L1.5975024,7.42463368 C1.7341226,7.28805856 1.95636293,7.28734351 2.09388314,7.42302482 C2.09442314,7.4235611 2.09496314,7.42409739 2.09550314,7.42463368 L2.34600352,7.67192285 C2.48250372,7.80891509 2.48250372,8.02950894 2.34600352,8.16650118 L1.87200281,8.6372444 L10.1280152,8.6372444 L9.65401448,8.16727582 C9.51625427,8.0306411 9.51613427,7.80891509 9.65377448,7.6721612 C9.65383448,7.67210161 9.65389448,7.67198244 9.65401448,7.67192285 L9.90295485,7.42463368 C10.0396351,7.28805856 10.2618754,7.28734351 10.3993956,7.42302482 L10.4009556,7.42463368 L11.8965178,8.90836867 C11.9640779,8.9753453 12.001158,9.06681249 11.999309,9.1616166 L11.999309,9.1616166 Z M1.12500169,5.55506802 L10.8750163,5.55506802 L10.8750163,1.11727032 L1.12500169,1.11727032 L1.12500169,5.55506802 Z M12.000018,0.558635159 C11.997798,0.426827055 11.9473979,0.300262674 11.8582378,0.202598351 C11.8484578,0.191395854 11.8432378,0.177273557 11.8334578,0.166845701 C11.8207377,0.15415351 11.8034577,0.148194735 11.7900177,0.137051826 C11.6928775,0.050828351 11.5677774,0.00220474676 11.4375172,0 L11.4300171,0.00148969376 L11.4217371,0 L0.578220867,0 L0.570000855,0.00148969376 L0.562500844,0 C0.432180648,0.00208557126 0.307020461,0.0507091755 0.210000315,0.137051826 C0.195720294,0.148194735 0.179220269,0.15415351 0.16650025,0.166845701 C0.156720235,0.177273557 0.151500227,0.191395854 0.141720213,0.202598351 C0.0525600788,0.300262674 0.00222000333,0.426827055 0,0.558635159 L0.00150000225,0.566083628 L0,0.573532096 L0,6.0980316 L0.00150000225,6.10548007 L0,6.11292854 C0,6.24926531 0.0562200843,6.36987092 0.14022021,6.46604555 C0.150000225,6.47867815 0.156000234,6.49429014 0.168000252,6.50549264 C0.178500268,6.51663555 0.195000293,6.52259432 0.206220309,6.53308176 C0.304380457,6.62019906 0.430860646,6.66929936 0.562500844,6.6715637 L0.570000855,6.670074 L0.578220867,6.6715637 L11.4225171,6.6715637 L11.4307371,6.670074 L11.4382372,6.6715637 C11.5698774,6.66953771 11.6961775,6.62007988 11.7937377,6.53230712 C11.8065177,6.52187927 11.8222377,6.51663555 11.8334578,6.504718 C11.8454578,6.49357509 11.8507378,6.47867815 11.8612378,6.46604555 C11.9487779,6.36873875 11.998038,6.24336612 12.000018,6.11292854 L11.998458,6.10548007 L12.000018,6.0980316 L12.000018,0.573532096 L11.998458,0.566083628 L12.000018,0.558635159 Z" id="Fill-1" fill="#000000" mask="url(#mask-3)"></path>
                        </g>
                    </g>
                    <rect id="矩形" x="0" y="0" width="12" height="12"></rect>
                </g>
            </g>
        </g>
    </g>
</svg>