<?xml version="1.0" encoding="UTF-8"?>
<svg width="16px" height="16px" viewBox="0 0 16 16" version="1.1" xmlns="http://www.w3.org/2000/svg" xmlns:xlink="http://www.w3.org/1999/xlink">
    <title>查看</title>
    <g id="-界面合集" stroke="none" stroke-width="1" fill="none" fill-rule="evenodd">
        <g id="打印模板列表" transform="translate(-751.000000, -292.000000)" fill-rule="nonzero">
            <g id="编组-6备份-2" transform="translate(744.000000, 285.000000)">
                <g id="查看" transform="translate(7.500000, 7.500000)">
                    <rect id="矩形" fill="#000000" opacity="0" x="0" y="0" width="15" height="15"></rect>
                    <path d="M14.9985352,7.49560547 L14.9912109,7.49560547 C13.7124023,4.49414063 11.1035156,2.34960938 7.51757813,2.33789063 L7.50585938,2.33789063 C3.90234375,2.33789063 1.28027344,4.49121094 8.81647696e-16,7.50292969 C8.81647696e-16,7.50292969 8.81647696e-16,7.50439453 0.00146484375,7.50439453 L0.0087890625,7.50439453 C1.28759766,10.5058594 3.89648438,12.6503906 7.48242188,12.6621094 L7.49414062,12.6621094 C11.0976562,12.6621094 13.7197266,10.5087891 15,7.49707031 L14.9985352,7.49560547 Z M7.50146484,10.9482422 C5.59570312,10.9482422 4.05322266,9.40429688 4.05322266,7.5 C4.05322266,5.59570313 5.59716797,4.05175781 7.50146484,4.05175781 C9.40576172,4.05175781 10.949707,5.59570313 10.949707,7.5 C10.949707,9.40429688 9.40576172,10.9482422 7.50146484,10.9482422 Z" id="形状" fill="#326FFF"></path>
                    <path d="M5.45800781,7.5 C5.45800781,8.62792969 6.37207031,9.54199219 7.5,9.54199219 C8.62792969,9.54199219 9.54199219,8.62792969 9.54199219,7.5 C9.54199219,6.37207031 8.62792969,5.45800781 7.5,5.45800781 C6.37353516,5.45800781 5.45800781,6.37207031 5.45800781,7.5 Z" id="路径" fill="#326FFF"></path>
                </g>
            </g>
        </g>
    </g>
</svg>