<?xml version="1.0" encoding="UTF-8"?>
<svg width="16px" height="16px" viewBox="0 0 16 16" version="1.1" xmlns="http://www.w3.org/2000/svg" xmlns:xlink="http://www.w3.org/1999/xlink">
    <title>删除</title>
    <g id="-界面合集" stroke="none" stroke-width="1" fill="none" fill-rule="evenodd">
        <g id="打印模板列表" transform="translate(-835.000000, -292.000000)" fill-rule="nonzero">
            <g id="编组-6备份" transform="translate(828.000000, 285.000000)">
                <g id="删除" transform="translate(7.500000, 7.500000)">
                    <rect id="矩形" fill="#000000" opacity="0" x="0" y="0" width="15" height="15"></rect>
                    <path d="M8.765625,0.99984375 C8.89506674,0.99984375 9,1.10477701 9,1.23421875 L9,1.9996875 L13.5314062,1.9996875 C13.7902897,1.9996875 14.0001562,2.20955402 14.0001562,2.4684375 L14.0001562,2.53125 C14.0001562,2.79013348 13.7902897,3 13.5314062,3 L12.9478125,3 L12.4246875,13.0260937 C12.4107305,13.291659 12.1914004,13.499868 11.9254687,13.5 L3.07453125,13.5 C2.80859957,13.499868 2.58926952,13.291659 2.5753125,13.0260937 L2.05171875,2.99953125 L1.46859375,3 C1.20971027,3 0.99984375,2.79013348 0.99984375,2.53125 L0.99984375,2.46890625 C0.99984375,2.21002277 1.20971027,2.00015625 1.46859375,2.00015625 L6,2.00015625 L6.00046875,1.23421875 C6.00046875,1.10477701 6.10540201,0.99984375 6.23484375,0.99984375 L8.76609375,0.99984375 L8.765625,0.99984375 Z M6.03140625,5.49984375 L5.96859375,5.49984375 C5.70971027,5.49984375 5.49984375,5.70971027 5.49984375,5.96859375 L5.49984375,9.53109375 C5.49984375,9.78997723 5.70971027,9.99984375 5.96859375,9.99984375 L6.03140625,9.99984375 C6.29028973,9.99984375 6.50015625,9.78997723 6.50015625,9.53109375 L6.50015625,5.96859375 C6.50015625,5.70971027 6.29028973,5.49984375 6.03140625,5.49984375 L6.03140625,5.49984375 Z M9.03140625,5.49984375 L8.96859375,5.49984375 C8.70971027,5.49984375 8.49984375,5.70971027 8.49984375,5.96859375 L8.49984375,9.53109375 C8.49984375,9.78997723 8.70971027,9.99984375 8.96859375,9.99984375 L9.03140625,9.99984375 C9.29028973,9.99984375 9.50015625,9.78997723 9.50015625,9.53109375 L9.50015625,5.96859375 C9.50015625,5.70971027 9.29028973,5.49984375 9.03140625,5.49984375 L9.03140625,5.49984375 Z" id="形状" fill="#FF7474"></path>
                </g>
            </g>
        </g>
    </g>
</svg>