<?xml version="1.0" encoding="UTF-8"?>
<svg width="12px" height="12px" viewBox="0 0 12 12" version="1.1" xmlns="http://www.w3.org/2000/svg" xmlns:xlink="http://www.w3.org/1999/xlink">
    <title>打印二维码</title>
    <g id="-界面合集" stroke="none" stroke-width="1" fill="none" fill-rule="evenodd" fill-opacity="0.700256774">
        <g id="打印弹窗" transform="translate(-886.000000, -367.000000)" fill="#FFFFFF">
            <g id="编组-10" transform="translate(878.000000, 359.000000)">
                <g id="打印二维码" transform="translate(8.000000, 8.000000)">
                    <path d="M9.87816738,-1.86517468e-14 L9.87816738,2.56739726 L12,2.56739726 L12,9.79611405 L9.87816738,9.79611405 L9.87816738,12 L2.12183262,12 L2.12183262,9.79611405 L-5.24025268e-14,9.79611405 L-5.24025268e-14,2.56739726 L2.12183262,2.56739726 L2.12183262,-1.86517468e-14 L9.87816738,-1.86517468e-14 Z M8.77022508,7.33042713 L3.22977492,7.33042713 L3.22977492,10.9075241 L8.77022508,10.9075241 L8.77022508,7.33042713 Z M7.52343298,9.42248025 L7.52343298,10.1507166 L4.56892017,10.1507166 L4.56892017,9.42248025 L7.52343298,9.42248025 Z M7.52343298,8.08738027 L7.52343298,8.81561662 L4.56892017,8.81561662 L4.56892017,8.08738027 L7.52343298,8.08738027 Z M10.8920577,3.65975179 L1.1079423,3.65975179 L1.1079423,8.70375952 L2.12183262,8.70375952 L2.12183262,6.2380726 L9.87816738,6.2380726 L9.87816738,8.70375952 L10.8920577,8.70375952 L10.8920577,3.65975179 Z M3.52253021,4.30880458 L3.52253021,5.40115911 L2.16837851,5.40115911 L2.16837851,4.30880458 L3.52253021,4.30880458 Z M8.77022508,1.09235453 L3.22977492,1.09235453 L3.22977492,2.56739726 L8.77022508,2.56739726 L8.77022508,1.09235453 Z" id="形状结合"></path>
                </g>
            </g>
        </g>
    </g>
</svg>