<?xml version="1.0" encoding="UTF-8"?>
<svg width="12px" height="12px" viewBox="0 0 12 12" version="1.1" xmlns="http://www.w3.org/2000/svg" xmlns:xlink="http://www.w3.org/1999/xlink">
    <title></title>
    <g id="页面-1" stroke="none" stroke-width="1" fill="none" fill-rule="evenodd">
        <g id="行、列设置" transform="translate(-76.000000, -176.000000)">
            <g id="编组-2" transform="translate(56.000000, 120.000000)">
                <g id="编组" transform="translate(20.000000, 56.000000)">
                    <path d="M1.24579068,12 L10.7542653,12 L10.7542653,2.99453552 L1.24579068,2.99453552 L1.24579068,12 Z M2.36443475,10.9508197 L9.63562119,10.9508197 L9.63562119,4.04371585 L2.36443475,4.04371585 L2.36443475,10.9508197 Z M4.97457627,0 L4.97457627,0.983606557 L0.5,0.983606557 L0.5,2.03278689 L11.5,2.03278689 L11.5,0.983606557 L7.02551695,0.983606557 L7.02551695,0 L4.97457627,0 Z M4.04240085,9.07103825 L5.16104492,9.07103825 L5.16104492,5.92349727 L4.04240085,5.92349727 L4.04240085,9.07103825 Z M6.83901102,9.07103825 L7.95765508,9.07103825 L7.95765508,5.92349727 L6.83901102,5.92349727 L6.83901102,9.07103825 Z" id="删除" fill-opacity="0.5" fill="#000000"></path>
                    <rect id="矩形" x="0" y="0" width="12" height="12"></rect>
                </g>
            </g>
        </g>
    </g>
</svg>