<?xml version="1.0" encoding="UTF-8"?>
<svg width="16px" height="16px" viewBox="0 0 16 16" version="1.1" xmlns="http://www.w3.org/2000/svg" xmlns:xlink="http://www.w3.org/1999/xlink">
    <title></title>
    <g id="-界面合集" stroke="none" stroke-width="1" fill="none" fill-rule="evenodd">
        <g id="02-生产工单备份" transform="translate(-1354.000000, -461.000000)" fill="#000000" fill-rule="nonzero">
            <g id="编组-16" transform="translate(1354.000000, 377.000000)">
                <g id="编组-3备份-2" transform="translate(0.000000, 84.000000)">
                    <rect id="矩形" opacity="0" x="0" y="0" width="16" height="16"></rect>
                    <path d="M7.99031214,13.9464095 C6.38727256,13.9464095 4.88026132,13.322157 3.74672548,12.1887031 C2.61309402,11.0550853 1.98884156,9.54797849 1.98884156,7.94493892 C1.98884156,6.34188569 2.61309402,4.8348881 3.74672546,3.70135226 C4.88008379,2.56789833 6.38727256,1.94363222 7.99031214,1.94363222 C9.59318784,1.94363222 11.100363,2.56788468 12.2339125,3.70133859 C14.5739067,6.04141476 14.5737292,9.84880446 12.2339125,12.1886075 C11.1003629,13.322157 9.59336536,13.9464095 7.99031214,13.9464095 Z M7.99031214,3.02040047 C6.67486596,3.02040047 5.43809145,3.53266084 4.50802862,4.46273734 C3.57787018,5.39289576 3.06559616,6.62957467 3.06559616,7.94493892 C3.06559616,9.26039876 3.57787018,10.497064 4.50801497,11.427318 C5.43826899,12.3573809 6.67485231,12.8696412 7.99029848,12.8696412 C9.30575832,12.8696412 10.5423416,12.3573809 11.4725957,11.4272224 C13.3926708,9.50722925 13.3926708,6.38297629 11.4725957,4.46272366 C10.5423553,3.53266084 9.3056081,3.02040047 7.99031214,3.02040047 Z M7.99698986,8.71840947 C7.69957787,8.71840947 7.45860574,8.47735541 7.45860574,8.180039 L7.45860574,5.1824992 C7.45860574,4.88518279 7.69957788,4.64411508 7.99698988,4.64411508 C8.29438821,4.64411508 8.535374,4.88518279 8.535374,5.1824992 L8.535374,8.180039 C8.53536034,8.47735541 8.29438821,8.71840947 7.99698986,8.71840947 Z M6.40058706,10.4318707 C6.26283993,10.4318707 6.1250928,10.3792955 6.01994232,10.2742406 C5.80964136,10.0639396 5.80964136,9.72306088 6.01994232,9.51284186 L7.61631782,7.91627518 C7.82627739,7.70597422 8.16732,7.70605615 8.37762096,7.91619324 C8.58792191,8.1264942 8.58792191,8.46735929 8.37762096,8.67759197 L6.78124546,10.274145 C6.67627251,10.3792955 6.53834785,10.4318707 6.40058706,10.4318707 Z" id="形状" fill-opacity="0.206321023"></path>
                </g>
            </g>
        </g>
    </g>
</svg>