<?xml version="1.0" encoding="UTF-8"?>
<svg width="12px" height="12px" viewBox="0 0 12 12" version="1.1" xmlns="http://www.w3.org/2000/svg" xmlns:xlink="http://www.w3.org/1999/xlink">
    <title>打印备份</title>
    <g id="-界面合集" stroke="none" stroke-width="1" fill="none" fill-rule="evenodd">
        <g id="02-生产工单备份" transform="translate(-1360.000000, -420.000000)" fill-rule="nonzero">
            <g id="打印备份" transform="translate(1360.000000, 420.000000)">
                <rect id="矩形" fill="#000000" opacity="0" x="0" y="0" width="12" height="12"></rect>
                <path d="M10.8,2.4 L9.6,2.4 L9.6,1.2 C9.6,0.5372583 9.0627417,0 8.4,0 L3.6,0 C2.9372583,0 2.4,0.5372583 2.4,1.2 L2.4,2.4 L1.2,2.4 C0.5372583,2.4 0,2.9372583 0,3.6 L0,8.4 C0,9.0627417 0.5372583,9.6 1.2,9.6 L1.8,9.6 L1.8,10.8 C1.8,11.4627417 2.3372583,12 3,12 L9,12 C9.6627417,12 10.2,11.4627417 10.2,10.8 L10.2,9.6 L10.8,9.6 C11.4627417,9.6 12,9.0627417 12,8.4 L12,3.6 C12,2.9372583 11.4627417,2.4 10.8,2.4 L10.8,2.4 Z M3.6,1.2 L8.4,1.2 L8.4,2.4 L3.6,2.4 L3.6,1.2 Z M9,10.8 L3,10.8 L3,6.6 L9,6.6 L9,10.8 Z M10.8,7.8 C10.8097331,7.96191802 10.7496512,8.12025116 10.6349512,8.23495116 C10.5202512,8.34965116 10.361918,8.40973308 10.2,8.4 L10.2,6.6 C10.2,5.9372583 9.6627417,5.4 9,5.4 L3,5.4 C2.3372583,5.4 1.8,5.9372583 1.8,6.6 L1.8,8.4 C1.63808198,8.40973308 1.47974884,8.34965116 1.36504884,8.23495116 C1.25034884,8.12025116 1.19026692,7.96191802 1.2,7.8 L1.2,4.2 C1.19026692,4.03808198 1.25034884,3.87974884 1.36504884,3.76504884 C1.47974884,3.65034884 1.63808198,3.59026692 1.8,3.6 L10.2,3.6 C10.361918,3.59026692 10.5202512,3.65034884 10.6349512,3.76504884 C10.7496512,3.87974884 10.8097331,4.03808198 10.8,4.2 L10.8,7.8 Z" id="形状" fill="#7B7B7C"></path>
            </g>
        </g>
    </g>
</svg>