<?xml version="1.0" encoding="UTF-8"?>
<svg width="14px" height="14px" viewBox="0 0 14 14" version="1.1" xmlns="http://www.w3.org/2000/svg" xmlns:xlink="http://www.w3.org/1999/xlink">
    <title>编组 4备份 28</title>
    <g id="-界面合集" stroke="none" stroke-width="1" fill="none" fill-rule="evenodd">
        <g id="画板" transform="translate(-72.000000, -30.000000)">
            <g id="编组" transform="translate(72.000000, 30.000000)">
                <rect id="矩形" fill-opacity="0.1" fill="#A186FF" x="0" y="0" width="14" height="14" rx="7"></rect>
                <path d="M10.664,6.536 L10.664,5.912 L8.384,5.912 L8.384,5.512 L10.136,5.512 L10.136,4.904 L8.384,4.904 L8.384,4.52 L10.44,4.52 L10.44,3.896 L8.384,3.896 L8.384,3.44 L7.64,3.44 L7.64,3.896 L5.64,3.896 L5.64,4.52 L7.64,4.52 L7.64,4.904 L5.968,4.904 L5.968,5.512 L7.64,5.512 L7.64,5.912 L5.384,5.912 L5.384,6.536 L10.664,6.536 Z M4.848,5.08 L5.392,4.536 C5.056,4.192 4.656,3.848 4.184,3.512 L3.64,4.04 C4.16,4.408 4.56,4.752 4.848,5.08 Z M4.688,7.128 L5.232,6.592 C4.88,6.2 4.448,5.808 3.936,5.424 L3.392,5.952 C3.952,6.376 4.384,6.768 4.688,7.128 Z M6.776,10.824 L6.776,9.56 L9.264,9.56 L9.264,9.872 C9.264,10.048 9.192,10.144 9.048,10.144 L8.336,10.104 L8.52,10.776 L9.264,10.776 C9.744,10.776 9.992,10.528 9.992,10.032 L9.992,6.912 L6.064,6.912 L6.064,10.824 L6.776,10.824 Z M9.264,7.984 L6.776,7.984 L6.776,7.528 L9.264,7.528 L9.264,7.984 Z M4.2,10.72 C4.584,9.856 4.936,8.928 5.24,7.936 L4.568,7.68 C4.264,8.608 3.912,9.52 3.496,10.408 L4.2,10.72 Z M9.264,8.992 L6.776,8.992 L6.776,8.56 L9.264,8.56 L9.264,8.992 Z" id="清" fill="#7159FF" fill-rule="nonzero"></path>
            </g>
        </g>
    </g>
</svg>