<?xml version="1.0" encoding="UTF-8"?>
<svg width="12px" height="12px" viewBox="0 0 12 12" version="1.1" xmlns="http://www.w3.org/2000/svg" xmlns:xlink="http://www.w3.org/1999/xlink">
    <g id="页面-1" stroke="none" stroke-width="1" fill="none" fill-rule="evenodd">
        <g id="打印模板添加" transform="translate(-46.000000, -580.000000)" fill-rule="nonzero">
            <g id="编组-2备份-21" transform="translate(36.000000, 571.000000)">
                <g id="二维码" transform="translate(10.000000, 9.000000)">
                    <rect id="矩形" fill="#000000" opacity="0" x="0" y="0" width="12" height="12"></rect>
                    <path d="M0.370967742,0 C1.9731129,0 3.57527419,0 5.17741935,0 C5.66619355,0.0477612732 5.5483871,0.896721485 5.5483871,1.44827586 C5.5483871,2.43897613 5.5483871,3.09194164 5.5483871,4.07427056 C5.5483871,4.64500265 5.65730645,5.34451989 5.27419355,5.5066313 C5.02469355,5.6122122 4.35509677,5.53846154 4.03225806,5.53846154 C3.14591935,5.53846154 2.42545161,5.53846154 1.48387097,5.53846154 C0.894774194,5.53846154 0.0903870968,5.67720955 0,5.17241379 C0,3.57028647 0,1.96817507 0,0.366047745 C0.0658709677,0.187018568 0.181741935,0.0573262599 0.370967742,0 Z M1.03225806,1.08222812 C1.03225806,2.22281698 1.03225806,3.36338992 1.03225806,4.50397878 C2.18817742,4.50397878 3.34408065,4.50397878 4.5,4.50397878 C4.5,3.3474748 4.5,2.19098674 4.5,1.03448276 C3.34946774,1.03448276 2.19891935,1.03448276 1.0483871,1.03448276 C1.02959677,1.0371565 1.03087097,1.05964456 1.03225806,1.08222812 Z M6.82258065,0 C8.42472581,0 10.0268871,0 11.6290323,0 C11.8250968,0.0717771883 11.9598226,0.204111406 12,0.429708223 C12,1.98938992 12,3.54908753 12,5.10875332 C11.9560161,5.30318833 11.853129,5.46927851 11.6612903,5.52254642 C11.3477742,5.60958621 10.8268387,5.53846154 10.4516129,5.53846154 C9.56754839,5.53846154 8.84266129,5.53846154 7.98387097,5.53846154 C7.61172581,5.53846154 7.06019355,5.61580902 6.75806452,5.52254642 C6.33156452,5.39088064 6.4516129,4.56935809 6.4516129,3.99469496 C6.4516129,3.23134218 6.4516129,2.34030239 6.4516129,1.54376658 C6.4516129,0.880249337 6.30401613,0.0927055703 6.82258065,0 Z M7.48387097,1.08222812 C7.48387097,2.22281698 7.48387097,3.36338992 7.48387097,4.50397878 C8.63979032,4.50397878 9.79569355,4.50397878 10.9516129,4.50397878 C10.9516129,3.3474748 10.9516129,2.19098674 10.9516129,1.03448276 C9.80108065,1.03448276 8.65053226,1.03448276 7.5,1.03448276 C7.48120968,1.0371565 7.48248387,1.05964456 7.48387097,1.08222812 Z M2.61290323,2.08488064 C3.09585484,1.9949443 3.47566129,2.31693899 3.48387097,2.75331565 C3.49469355,3.32877454 2.89904839,3.64489655 2.43548387,3.40583554 C1.90514516,3.13233422 1.94004839,2.21018037 2.61290323,2.08488064 Z M9.06451613,2.08488064 C10.2021129,1.87516711 10.1803065,3.65287003 9.06451613,3.46949602 C8.35443548,3.35280637 8.33151613,2.22001592 9.06451613,2.08488064 Z M5.14516129,12 C3.55914516,12 1.97312903,12 0.387096774,12 C0.189564516,11.9402706 0.0561290323,11.8172944 4.4408921e-16,11.6180371 C4.4408921e-16,10.0212255 4.4408921e-16,8.42439788 4.4408921e-16,6.82758621 C0.046983871,6.68740584 0.155435484,6.52386207 0.322580645,6.47745358 C0.638306452,6.3897931 1.15403226,6.46153846 1.53225806,6.46153846 C2.40154839,6.46153846 3.18901613,6.46153846 4,6.46153846 C4.36470968,6.46153846 4.89548387,6.38121485 5.22580645,6.47745358 C5.67269355,6.60763926 5.5483871,7.41582493 5.5483871,7.98938992 C5.5483871,8.87108753 5.5483871,9.62320424 5.5483871,10.5198939 C5.5483871,11.1389443 5.68348387,11.9447268 5.14516129,12 Z M1.03225806,7.54376658 C1.03225806,8.68437135 1.03225806,9.82492838 1.03225806,10.9655172 C2.18817742,10.9655172 3.34408065,10.9655172 4.5,10.9655172 C4.5,9.80901326 4.5,8.6525252 4.5,7.49602122 C3.34946774,7.49602122 2.19891935,7.49602122 1.0483871,7.49602122 C1.02959677,7.49869496 1.03087097,7.52118302 1.03225806,7.54376658 Z M12,6.89124668 C12,7.33687003 12,7.78249337 12,8.22811671 C11.962371,8.6790557 11.9946129,9.19892308 11.983871,9.67639257 C10.8387097,9.67639257 9.69354839,9.67639257 8.5483871,9.67639257 C8.5483871,9.41645093 8.5483871,9.15649337 8.5483871,8.89655172 C8.22579032,8.85943767 7.83335484,8.89123607 7.48387097,8.8806366 C7.44624194,9.88860477 7.4785,10.9655013 7.46774194,12 C7.25806452,12 7.0483871,12 6.83870968,12 C6.29785484,11.8930345 6.4516129,11.0922175 6.4516129,10.4562334 C6.4516129,9.56910875 6.4516129,8.83919363 6.4516129,7.98938992 C6.4516129,7.61847215 6.37553226,7.06241379 6.46774194,6.76392573 C6.57775806,6.40780902 7.05485484,6.46153846 7.53225806,6.46153846 C8.33935484,6.46153846 9.05840323,6.46153846 9.87096774,6.46153846 C9.87096774,7.16710345 9.87096774,7.87268435 9.87096774,8.57824934 C10.2311774,8.57824934 10.5914032,8.57824934 10.9516129,8.57824934 C10.9623548,7.87798408 10.9301129,7.13528912 10.9677419,6.46153846 C11.4877581,6.43117241 11.9694516,6.43865252 12,6.89124668 Z M2.69354839,8.53050398 C3.20924194,8.47418037 3.63553226,8.96322016 3.43548387,9.50132626 C3.15819355,10.2471883 1.83237097,9.96685942 2.08064516,9.02387268 C2.14927419,8.76321485 2.3475,8.56830239 2.69354839,8.53050398 Z M9.70967742,12 C9.32258065,12 8.93548387,12 8.5483871,12 C8.55912903,11.5914907 8.52690323,11.1405995 8.56451613,10.7586207 C8.94624194,10.7586207 9.32795161,10.7586207 9.70967742,10.7586207 C9.70967742,11.1724138 9.70967742,11.5862069 9.70967742,12 Z M12,10.7586207 C12,11.0291777 12,11.2997347 12,11.5702918 C11.9551613,11.7966048 11.8210484,11.9348276 11.6129032,12 C11.3387097,12 11.0645161,12 10.7903226,12 C10.8010645,11.5914907 10.7688387,11.1405995 10.8064516,10.7586207 C11.2043065,10.7586207 11.6021452,10.7586207 12,10.7586207 Z" id="形状" fill="#999999"></path>
                </g>
            </g>
        </g>
    </g>
</svg>