<?xml version="1.0" encoding="UTF-8"?>
<svg width="14px" height="14px" viewBox="0 0 14 14" version="1.1" xmlns="http://www.w3.org/2000/svg" xmlns:xlink="http://www.w3.org/1999/xlink">
    <!-- Generator: Sketch 55.2 (78181) - https://sketchapp.com -->
    <title>单行文本</title>
    <desc>Created with Sketch.</desc>
    <g id="页面1" stroke="none" stroke-width="1" fill="none" fill-rule="evenodd">
        <g id="02-表单模板" transform="translate(-54.000000, -251.000000)">
            <g id="单行文本" transform="translate(54.000000, 251.000000)">
                <rect id="矩形" x="0" y="0" width="14" height="14"></rect>
                <path d="M6.95527675,13.922954 C3.11411138,13.922954 0.000226030056,10.8084411 0.000226030056,6.96678034 C0.000226030056,3.12511957 3.11411138,0.0108378956 6.95527675,0.0108378956 C10.7964751,0.0108378956 13.9103605,3.12511957 13.9103605,6.96678034 C13.9103605,10.8084411 10.7964751,13.922954 6.95527675,13.922954 Z M6.95527675,0.880297686 C3.59421991,0.880297686 0.86961976,3.60529415 0.86961976,6.96678034 C0.86961976,10.3282665 3.59421989,13.053296 6.95527675,13.053296 C10.3163336,13.053296 13.0409337,10.3282666 13.0409337,6.96678034 C13.0409337,3.60529413 10.3163336,0.880297686 6.95527675,0.880297686 Z" id="形状" fill="#919CAE" fill-rule="nonzero"></path>
                <circle id="椭圆形" fill-opacity="0.8" fill="#919CAE" cx="7" cy="7" r="2"></circle>
            </g>
        </g>
    </g>
</svg>