<?xml version="1.0" encoding="UTF-8"?>
<svg width="13px" height="13px" viewBox="0 0 13 13" version="1.1" xmlns="http://www.w3.org/2000/svg" xmlns:xlink="http://www.w3.org/1999/xlink">
    <title>切片</title>
    <g id="-界面合集" stroke="none" stroke-width="1" fill="none" fill-rule="evenodd">
        <g id="生产订单（订单视图）" transform="translate(-1391.000000, -378.000000)" fill="#7B7B7C" fill-rule="nonzero">
            <g id="查看备份-11" transform="translate(1391.000000, 378.000000)">
                <path d="M2.09977895,9.16891701 L4.19347158,5.99167831 L2.73884211,5.99167831 C2.91891931,3.84461303 4.50093549,2.10593047 6.56304896,1.78876191 C8.62516244,1.47159335 10.6283265,2.65884821 11.4052964,4.65871245 C12.1822663,6.65857669 11.5299382,8.94827588 9.82842411,10.1936011 C8.12690998,11.4389262 5.82099404,11.3143432 4.25433474,9.8924466 L3.48745895,10.9179712 C5.51697659,12.7140052 8.47444833,12.8328949 10.6327653,11.2052108 C12.7910822,9.57752672 13.5844317,6.62997368 12.5495123,4.08386826 C11.5145929,1.53776285 8.92271343,0.0605782417 6.28748366,0.514962982 C3.65225389,0.969347723 1.66451138,3.23618277 1.48506105,5.99167831 L0,5.99167831 L2.09977895,9.16891701 L2.09977895,9.16891701 Z" id="路径" transform="translate(6.500000, 6.391667) scale(-1, 1) translate(-6.500000, -6.391667) "></path>
            </g>
        </g>
    </g>
</svg>