<?xml version="1.0" encoding="UTF-8"?>
<svg width="13px" height="12px" viewBox="0 0 13 12" version="1.1" xmlns="http://www.w3.org/2000/svg" xmlns:xlink="http://www.w3.org/1999/xlink">
    <title>路径 2</title>
    <g id="控件" stroke="none" stroke-width="1" fill="none" fill-rule="evenodd">
        <g id="排列/预约3(选）" transform="translate(-510.000000, -213.000000)" fill="#D7D7D7" fill-rule="nonzero">
            <g id="路径-2" transform="translate(510.000000, 213.000000)">
                <path d="M2.09977895,8.73558368 L4.19347158,5.55834498 L2.73884211,5.55834498 C2.91891931,3.4112797 4.50093549,1.67259714 6.56304896,1.35542858 C8.62516244,1.03826002 10.6283265,2.22551488 11.4052964,4.22537912 C12.1822663,6.22524336 11.5299382,8.51494255 9.82842411,9.76026777 C8.12690998,11.0055929 5.82099404,10.8810099 4.25433474,9.45911327 L3.48745895,10.4846379 C5.51697659,12.2806719 8.47444833,12.3995616 10.6327653,10.7718775 C12.7910822,9.14419339 13.5844317,6.19664035 12.5495123,3.65053493 C11.5145929,1.10442952 8.92271343,-0.372755091 6.28748366,0.0816296489 C3.65225389,0.53601439 1.66451138,2.80284944 1.48506105,5.55834498 L0,5.55834498 L2.09977895,8.73558368 L2.09977895,8.73558368 Z" id="路径" transform="translate(6.500000, 5.958333) scale(-1, 1) translate(-6.500000, -5.958333) "></path>
            </g>
        </g>
    </g>
</svg>