<?xml version="1.0" encoding="UTF-8"?>
<svg width="12px" height="12px" viewBox="0 0 12 12" version="1.1" xmlns="http://www.w3.org/2000/svg" xmlns:xlink="http://www.w3.org/1999/xlink">
    <title></title>
    <g id="-界面合集" stroke="none" stroke-width="1" fill="none" fill-rule="evenodd">
        <g id="资源视图" transform="translate(-463.000000, -174.000000)">
            <g id="编组-2" transform="translate(463.000000, 174.000000)">
                <g id="编组" transform="translate(1.000000, 0.300000)" fill="#999999" fill-rule="nonzero" stroke="#999999" stroke-width="0.2">
                    <path d="M5.41456311,0 L5.41456311,1.19686991 C5.8638835,1.21545484 6.30563107,1.28979459 6.73097087,1.41865015 C7.25601942,1.5772416 7.74951456,1.81636779 8.20009709,2.12859472 C8.64436893,2.43710466 9.03436893,2.81004239 9.36126214,3.23749592 C10.0402913,4.12585589 10.3987379,5.18395827 10.4,6.29533746 C10.4,6.98421911 10.2624272,7.65327682 9.99106796,8.28268666 C9.72854369,8.88979459 9.35368932,9.43619172 8.87660194,9.90453212 C8.39951456,10.3728725 7.84417476,10.7408543 7.22446602,10.9985654 C6.58330097,11.2649495 5.90174757,11.4 5.2,11.4 C4.49825243,11.4 3.81669903,11.2649495 3.17553398,10.9985654 C2.55708738,10.7408543 2.00048544,10.3728725 1.52339806,9.90453212 C1.04631068,9.43619172 0.671456311,8.89103358 0.408932039,8.28268666 C0.137572816,7.65327682 0,6.98421911 0,6.29533746 C0,5.74274535 0.0883495146,5.20006521 0.265048544,4.68092599 C0.335728155,4.47401369 0.564174757,4.36126508 0.776213592,4.43064884 C0.986990291,4.50003261 1.10184466,4.72429084 1.03116505,4.93244213 C0.88223301,5.36980763 0.806504854,5.82947506 0.806504854,6.29657646 C0.806504854,8.67420933 2.77669903,10.6082817 5.19873786,10.6082817 C7.6207767,10.6082817 9.59097087,8.67420933 9.59097087,6.29657646 C9.59097087,4.39223997 8.34650485,2.73570264 6.49368932,2.17567656 C6.14407767,2.06912292 5.7831068,2.00717313 5.41582524,1.98982719 L5.41582524,1.98982719 L5.41582524,3.17802413 L3.79650485,1.58839257 L5.41456311,0 Z M5.19873786,4.86181937 C5.97116505,4.86181937 6.59718447,5.47636127 6.59718447,6.23462667 C6.59718447,6.99289208 5.97116505,7.60867297 5.19873786,7.60867297 C4.42631068,7.60867297 3.80029126,6.99165308 3.80029126,6.23462667 C3.80029126,5.47760026 4.42631068,4.86181937 5.19873786,4.86181937 Z" id="形状结合"></path>
                </g>
                <rect id="矩形" x="0" y="0" width="12" height="12"></rect>
            </g>
        </g>
    </g>
</svg>