<?xml version="1.0" encoding="UTF-8"?>
<svg width="12px" height="12px" viewBox="0 0 12 12" version="1.1" xmlns="http://www.w3.org/2000/svg" xmlns:xlink="http://www.w3.org/1999/xlink">
    <title></title>
    <g id="-界面合集" stroke="none" stroke-width="1" fill="none" fill-rule="evenodd">
        <g id="节拍单价" transform="translate(-1375.000000, -582.000000)" fill-rule="nonzero">
            <g id="编组-2" transform="translate(1375.000000, 329.000000)">
                <g id="版本更新备份-6" transform="translate(0.000000, 253.000000)">
                    <rect id="矩形" fill="#000000" opacity="0" x="3.90627974e-09" y="3.90718924e-09" width="12" height="12"></rect>
                    <path d="M6,12 C2.7,12 0,9.3 0,6 C0,5.64 0.240000004,5.4 0.600000004,5.4 C0.960000004,5.4 1.20000001,5.64 1.20000001,6 C1.20000001,8.63999999 3.36000001,10.8 6,10.8 C8.63999999,10.8 10.8,8.63999999 10.8,6 C10.8,3.36000001 8.63999999,1.20000001 6,1.20000001 C4.38,1.20000001 2.88,1.98 2.04,3.36000001 C1.8,3.6 1.44,3.66 1.20000001,3.48 C0.899999999,3.3 0.840000009,2.94 1.02000001,2.64000001 C2.10000001,1.02000001 4.02,0 6,0 C9.3,0 12,2.7 12,6 C12,9.3 9.3,12 6,12 Z M6,6.6 C5.64,6.6 5.4,6.36 5.4,6 L5.4,3.00000001 C5.4,2.64000001 5.64,2.4 6,2.4 C6.36,2.4 6.6,2.64000001 6.6,3.00000001 L6.6,6 C6.6,6.36 6.36,6.6 6,6.6 Z M7.8,8.40000001 C7.62,8.40000001 7.5,8.34 7.37999999,8.22 L5.58,6.42 C5.33999999,6.18 5.33999999,5.82 5.58,5.58000001 C5.82,5.34000002 6.18,5.34000001 6.41999999,5.58000001 L8.21999999,7.38000001 C8.45999999,7.62000001 8.45999999,7.98000001 8.21999999,8.22 C8.09999999,8.34 7.98,8.40000001 7.8,8.40000001 Z M3.6,3.6 L1.20000001,3.6 C0.840000009,3.6 0.600000004,3.36000001 0.600000004,3 L0.600000004,0.600000004 C0.600000004,0.240000005 0.840000009,2.22044605e-16 1.20000001,2.22044605e-16 C1.56000001,2.22044605e-16 1.80000001,0.240000005 1.80000001,0.600000004 L1.80000001,2.4 L3.6,2.4 C3.96000001,2.4 4.20000002,2.64000001 4.20000002,3 C4.20000002,3.36000001 3.96,3.6 3.6,3.6 Z" id="形状" fill="#7B7B7C"></path>
                </g>
            </g>
        </g>
    </g>
</svg>