<?xml version="1.0" encoding="UTF-8"?>
<svg width="16px" height="16px" viewBox="0 0 16 16" version="1.1" xmlns="http://www.w3.org/2000/svg" xmlns:xlink="http://www.w3.org/1999/xlink">
    <title></title>
    <g id="-界面合集" stroke="none" stroke-width="1" fill="none" fill-rule="evenodd" opacity="0.3">
        <g id="质检任务" transform="translate(-1362.000000, -376.000000)" fill="#7F7F7F" fill-rule="nonzero" stroke="#FFFFFF" stroke-width="0.2">
            <g id="查看" transform="translate(1362.000000, 376.000000)">
                <path d="M13.6802349,9.66805411 C13.9203082,9.34027055 14.371355,9.26742976 14.6987277,9.50052029 C15.0188254,9.73361082 15.0988498,10.1852237 14.8660515,10.5275754 L14.8660515,10.5275754 L12.0142718,14.4828304 C11.7596486,14.8251821 11.3740763,15 10.988504,15 C10.7266059,15 10.4574328,14.9198751 10.2319094,14.7450572 L10.2319094,14.7450572 L8.46409697,13.4120708 C8.14399925,13.1716961 8.07852471,12.7127992 8.31859801,12.3922997 C8.43252217,12.2352455 8.60513969,12.1311097 8.79705445,12.1036588 C8.98896922,12.076208 9.18380352,12.1277849 9.33709077,12.2466181 L9.33709077,12.2466181 L10.9521293,13.4630593 Z M11.5704999,1 C12.5347822,1 13.3164875,1.78268639 13.3164875,2.74817898 L13.3164875,2.74817898 L13.3164875,8.54630593 C13.3164875,8.94693028 12.9891148,9.27471384 12.5889927,9.27471384 C12.1888705,9.27471384 11.8614978,8.94693028 11.8614978,8.54630593 L11.8614978,8.54630593 L11.8614978,2.74817898 C11.8614978,2.58792924 11.7305488,2.45681582 11.5704999,2.45681582 L11.5704999,2.45681582 L2.7459876,2.45681582 C2.58593873,2.45681582 2.45498966,2.58792924 2.45498966,2.74817898 L2.45498966,2.74817898 L2.45498966,12.7637877 C2.45498966,12.9240375 2.58593873,13.0551509 2.7459876,13.0551509 L2.7459876,13.0551509 L6.35436196,13.0551509 C6.75448412,13.0551509 7.08185679,13.3829344 7.08185679,13.7835588 C7.08185679,14.1841831 6.75448412,14.5119667 6.35436196,14.5119667 L6.35436196,14.5119667 L2.7459876,14.5119667 C2.28292289,14.5119667 1.83882412,14.3277841 1.51138793,13.9999369 C1.18395174,13.6720898 1,13.2274336 1,12.7637877 L1,12.7637877 L1,2.74817898 C1,1.78268639 1.78170527,1 2.7459876,1 L2.7459876,1 Z M9.16976696,8.02185224 C9.56988912,8.02185224 9.89726179,8.3496358 9.89726179,8.75026015 C9.89726179,9.1508845 9.56988912,9.47866805 9.16976696,9.47866805 L9.16976696,9.47866805 L5.14672054,9.47866805 C4.74659838,9.47866805 4.41922571,9.1508845 4.41922571,8.75026015 C4.41922571,8.3496358 4.74659838,8.02185224 5.14672054,8.02185224 L5.14672054,8.02185224 Z M9.16976696,5.20291363 C9.56988912,5.20291363 9.89726179,5.53069719 9.89726179,5.93132154 C9.89726179,6.33194589 9.56988912,6.65972945 9.16976696,6.65972945 L9.16976696,6.65972945 L5.14672054,6.65972945 C4.74659838,6.65972945 4.41922571,6.33194589 4.41922571,5.93132154 C4.41922571,5.53069719 4.74659838,5.20291363 5.14672054,5.20291363 L5.14672054,5.20291363 Z" id="形状结合"></path>
            </g>
        </g>
    </g>
</svg>