<?xml version="1.0" encoding="UTF-8"?>
<svg width="20px" height="20px" viewBox="0 0 20 20" version="1.1" xmlns="http://www.w3.org/2000/svg" xmlns:xlink="http://www.w3.org/1999/xlink">
    <title></title>
    <defs>
        <circle id="path-1" cx="10" cy="10" r="10"></circle>
        <path d="M5.25,14.1994571 C5.11191667,14.1994571 5,14.0875405 5,13.9494571 C5,13.8113946 5.11191667,13.6994571 5.25,13.6994571 L5.9125,13.6994571 L5.9125,7.00374879 C5.9124992,6.68033375 6.1198173,6.39334317 6.42685417,6.29172796 L10.2143542,5.03818629 C10.6075833,4.90804046 11.0318542,5.12131129 11.1620208,5.51454046 C11.1871807,5.59056469 11.2000028,5.67012776 11.2,5.75020712 L11.2,13.6994571 L11.4375,13.6994571 L11.4375,8.72445712 L13.6845833,10.0085196 C13.9182742,10.1420473 14.0624976,10.3905583 14.0625,10.6597071 L14.0625,13.6994571 L14.75,13.6994571 C14.8880833,13.6994571 15,13.8113946 15,13.9494571 C15,14.0875405 14.8880833,14.1994571 14.75,14.1994571 L5.25,14.1994571 L5.25,14.1994571 Z M9.4875,11.2369571 L7.6375,11.2369571 C7.49941667,11.2369571 7.3875,11.3488946 7.3875,11.4869571 C7.3875,11.6235821 7.49710417,11.7346238 7.63320833,11.7369155 L7.6375,11.7369571 L9.4875,11.7369571 C9.62558333,11.7369571 9.7375,11.6250405 9.7375,11.4869571 C9.7375,11.3488946 9.62558333,11.2369571 9.4875,11.2369571 Z M13.375,11.2369571 L12.125,11.2369571 C11.9869167,11.2369571 11.875,11.3488946 11.875,11.4869571 C11.875,11.6235821 11.9846042,11.7346238 12.1207083,11.7369155 L12.125,11.7369571 L13.375,11.7369571 C13.5130833,11.7369571 13.625,11.6250405 13.625,11.4869571 C13.625,11.3488946 13.5130833,11.2369571 13.375,11.2369571 Z M9.4875,9.73695712 L7.6375,9.73695712 C7.49941667,9.73695712 7.3875,9.84889462 7.3875,9.98695712 C7.3875,10.1235821 7.49710417,10.2346238 7.63320833,10.2369155 L7.6375,10.2369571 L9.4875,10.2369571 C9.62558333,10.2369571 9.7375,10.1250405 9.7375,9.98695712 C9.7375,9.84889462 9.62558333,9.73695712 9.4875,9.73695712 Z M9.4875,8.23695712 L7.6375,8.23695712 C7.49941667,8.23695712 7.3875,8.34889462 7.3875,8.48695712 C7.3875,8.62358212 7.49710417,8.73462379 7.63320833,8.73691546 L7.6375,8.73695712 L9.4875,8.73695712 C9.62558333,8.73695712 9.7375,8.62504046 9.7375,8.48695712 C9.7375,8.34889462 9.62558333,8.23695712 9.4875,8.23695712 Z" id="path-3"></path>
        <filter x="-70.0%" y="-54.4%" width="240.0%" height="252.2%" filterUnits="objectBoundingBox" id="filter-4">
            <feOffset dx="0" dy="2" in="SourceAlpha" result="shadowOffsetOuter1"></feOffset>
            <feGaussianBlur stdDeviation="2" in="shadowOffsetOuter1" result="shadowBlurOuter1"></feGaussianBlur>
            <feColorMatrix values="0 0 0 0 0   0 0 0 0 0   0 0 0 0 0  0 0 0 0.137210446 0" type="matrix" in="shadowBlurOuter1"></feColorMatrix>
        </filter>
    </defs>
    <g id="-界面合集" stroke="none" stroke-width="1" fill="none" fill-rule="evenodd">
        <g id="切图" transform="translate(-44.000000, -76.000000)">
            <g id="适用范围/公司" transform="translate(44.000000, 76.000000)">
                <mask id="mask-2" fill="white">
                    <use xlink:href="#path-1"></use>
                </mask>
                <use id="椭圆形备份" fill="#D1D6DE" xlink:href="#path-1"></use>
                <circle id="椭圆形备份" fill="#D8DDE3" mask="url(#mask-2)" cx="13" cy="13" r="10"></circle>
                <g id="形状" fill-rule="nonzero">
                    <use fill="black" fill-opacity="1" filter="url(#filter-4)" xlink:href="#path-3"></use>
                    <use fill="#FFFFFF" xlink:href="#path-3"></use>
                </g>
            </g>
        </g>
    </g>
</svg>