<?xml version="1.0" encoding="UTF-8"?>
<svg width="20px" height="20px" viewBox="0 0 20 20" version="1.1" xmlns="http://www.w3.org/2000/svg" xmlns:xlink="http://www.w3.org/1999/xlink">
    <title></title>
    <defs>
        <circle id="path-1" cx="10" cy="10" r="10"></circle>
        <path d="M13.7701266,10.9085856 C13.7903083,10.9474699 13.8008597,10.9907525 13.8008597,11.0346963 L13.8008597,12.805617 C13.8008597,12.906141 13.7459421,12.9984159 13.6582346,13.0452488 L9.99674524,15 L6.3352322,13.0452488 C6.24751892,12.998424 6.19260717,12.9061581 6.19260717,12.805617 L6.19260717,11.0346963 C6.19260717,10.8851572 6.31211149,10.7639144 6.45955925,10.7639144 C6.50289286,10.7639144 6.54556453,10.7746095 6.58390993,10.7950884 L9.9967216,12.6170865 L13.4095569,10.7950884 C13.5400542,10.7254266 13.7014737,10.7762402 13.7701266,10.9085856 L13.7701266,10.9085856 Z M10.1220652,5.02996808 L15.8550574,8.01993452 C15.9706373,8.08022017 16.0244438,8.21417228 15.9894318,8.33618236 L15.9894318,12.4473802 C15.9894318,12.5966795 15.8730007,12.7176824 15.7293828,12.7176824 C15.5857648,12.7176824 15.4693338,12.5966795 15.4693338,12.4473802 L15.4693102,8.70274017 L10.1220888,11.4915147 C10.0454763,11.5314721 9.95456269,11.5314721 9.87795015,11.4915147 L4.14493435,8.50157221 C4.01382239,8.43318133 3.96219085,8.2699257 4.02959082,8.13693279 C4.05506472,8.08666899 4.09540508,8.0457499 4.14495799,8.01991054 L9.87790287,5.02996808 C9.95451541,4.99001064 10.045429,4.99001064 10.1220416,5.02996808 L10.1220652,5.02996808 Z" id="path-3"></path>
        <filter x="-58.3%" y="-50.0%" width="216.7%" height="240.0%" filterUnits="objectBoundingBox" id="filter-4">
            <feOffset dx="0" dy="2" in="SourceAlpha" result="shadowOffsetOuter1"></feOffset>
            <feGaussianBlur stdDeviation="2" in="shadowOffsetOuter1" result="shadowBlurOuter1"></feGaussianBlur>
            <feColorMatrix values="0 0 0 0 0   0 0 0 0 0   0 0 0 0 0  0 0 0 0.137210446 0" type="matrix" in="shadowBlurOuter1"></feColorMatrix>
        </filter>
    </defs>
    <g id="-界面合集" stroke="none" stroke-width="1" fill="none" fill-rule="evenodd">
        <g id="切图" transform="translate(-157.000000, -110.000000)">
            <g id="适用范围/公司备份-3" transform="translate(157.000000, 110.000000)">
                <mask id="mask-2" fill="white">
                    <use xlink:href="#path-1"></use>
                </mask>
                <use id="椭圆形备份-4" fill="#D1D6DE" xlink:href="#path-1"></use>
                <circle id="椭圆形备份-5" fill="#D8DDE3" mask="url(#mask-2)" cx="13" cy="13" r="10"></circle>
                <g id="形状" fill-rule="nonzero" mask="url(#mask-2)">
                    <use fill="black" fill-opacity="1" filter="url(#filter-4)" xlink:href="#path-3"></use>
                    <use fill="#FFFFFF" xlink:href="#path-3"></use>
                </g>
            </g>
        </g>
    </g>
</svg>