<?xml version="1.0" encoding="UTF-8"?>
<svg width="20px" height="20px" viewBox="0 0 20 20" version="1.1" xmlns="http://www.w3.org/2000/svg" xmlns:xlink="http://www.w3.org/1999/xlink">
    <title></title>
    <defs>
        <circle id="path-1" cx="10" cy="10" r="10"></circle>
        <path d="M14.9280447,13.2843685 C14.5918274,12.614317 14.2555668,11.0508493 13.8913152,10.3807762 C13.7792644,10.157433 13.611145,10.0457505 13.3589658,10.0457505 L11.5937547,10.0457505 C11.3415755,10.0457505 11.1734777,10.157433 11.0613836,10.3528502 C10.7251663,11.022945 10.3609147,12.586391 10.0246541,13.2564641 C9.80050924,13.6752462 10.0526884,14.2057108 10.5850595,14.2057108 C11.2575374,14.1777848 11.7058271,14.2057108 12.3783267,14.2057108 L14.3677043,14.2057108 C14.451764,14.2057108 14.5638364,14.2057108 14.6478961,14.1777848 C14.9561007,14.0381979 15.0962075,13.6473418 14.9280664,13.2843685 L14.9280447,13.2843685 Z M11.7983145,9.13201256 C12.1355067,8.99244741 12.2479041,8.60156964 12.079308,8.23863957 C11.7421158,7.56854484 11.4049019,6.00509878 11.0396104,5.3350257 C10.927213,5.11168246 10.7586169,5 10.5057011,5 L8.51058229,5 C8.25768815,5 8.08909205,5.11168246 7.97669466,5.30709967 C7.63950246,5.97719441 7.27418926,7.54064047 6.93699707,8.21071354 C6.71218061,8.62949567 6.96509642,9.15996026 7.49898405,9.15996026 C8.17341177,9.13201256 8.84779615,9.15996026 9.5222022,9.15996026 L11.517321,9.15996026 C11.6015974,9.15996026 11.6859171,9.15996026 11.7983145,9.13201256 Z M7.94441398,10.3807762 C7.83247155,10.157433 7.66450373,10.0457505 7.41258451,10.0457505 L5.6492366,10.0457505 C5.39731738,10.0457505 5.22937123,10.157433 5.11740713,10.3528502 C4.78153649,11.022945 4.41767484,12.586391 4.08178254,13.2564641 C3.857876,13.6752462 4.10977356,14.2057108 4.64160304,14.2057108 C5.3133443,14.1777848 5.98510724,14.2057108 6.65687017,14.2057108 L8.42023974,14.2057108 C8.50421282,14.2057108 8.61617692,14.2057108 8.70014999,14.1777848 C9.03604229,14.0381979 9.14798472,13.6473418 8.98006024,13.2843685 C8.64418961,12.614317 8.30829731,11.0508493 7.94441398,10.3807762 L7.94441398,10.3807762 Z" id="path-3"></path>
        <filter x="-63.6%" y="-54.3%" width="227.3%" height="252.1%" filterUnits="objectBoundingBox" id="filter-4">
            <feOffset dx="0" dy="2" in="SourceAlpha" result="shadowOffsetOuter1"></feOffset>
            <feGaussianBlur stdDeviation="2" in="shadowOffsetOuter1" result="shadowBlurOuter1"></feGaussianBlur>
            <feColorMatrix values="0 0 0 0 0   0 0 0 0 0   0 0 0 0 0  0 0 0 0.137210446 0" type="matrix" in="shadowBlurOuter1"></feColorMatrix>
        </filter>
    </defs>
    <g id="-界面合集" stroke="none" stroke-width="1" fill="none" fill-rule="evenodd">
        <g id="切图" transform="translate(-157.000000, -76.000000)">
            <g id="适用范围/公司备份" transform="translate(157.000000, 76.000000)">
                <mask id="mask-2" fill="white">
                    <use xlink:href="#path-1"></use>
                </mask>
                <use id="椭圆形备份" fill="#D1D6DE" xlink:href="#path-1"></use>
                <circle id="椭圆形备份" fill="#D8DDE3" mask="url(#mask-2)" cx="13" cy="13" r="10"></circle>
                <g id="形状" fill-rule="nonzero" mask="url(#mask-2)">
                    <use fill="black" fill-opacity="1" filter="url(#filter-4)" xlink:href="#path-3"></use>
                    <use fill="#FFFFFF" xlink:href="#path-3"></use>
                </g>
            </g>
        </g>
    </g>
</svg>