<?xml version="1.0" encoding="UTF-8"?>
<svg width="14px" height="15px" viewBox="0 0 14 15" version="1.1" xmlns="http://www.w3.org/2000/svg" xmlns:xlink="http://www.w3.org/1999/xlink">
    <!-- Generator: Sketch 55.2 (78181) - https://sketchapp.com -->
    <title>riqi</title>
    <desc>Created with Sketch.</desc>
    <g id="页面1" stroke="none" stroke-width="1" fill="none" fill-rule="evenodd">
        <g id="02-表单模板" transform="translate(-190.000000, -201.000000)" fill="#919CAE" fill-rule="nonzero">
            <g id="riqi" transform="translate(190.000000, 201.000000)">
                <path d="M13,1.015625 L11,1.015625 L11,0.515625 C11,0.239482625 10.7761424,0.015625 10.5,0.015625 C10.3639297,0.00806738581 10.2311139,0.0590104398 10.135,0.155625 C10.0398903,0.250348445 9.99062594,0.381720161 10,0.515625 L10,1.015625 L4,1.015625 L4,0.515625 C3.99878335,0.384098802 3.94578892,0.25834931 3.8525,0.165625 C3.75728007,0.0742261071 3.63188301,0.0208656533 3.5,0.015625 C3.36392968,0.00806738581 3.23111387,0.0590104398 3.135,0.155625 C3.03989034,0.250348445 2.99062594,0.381720161 3,0.515625 L3,1.015625 L1,1.015625 C0.44771525,1.015625 0,1.46334025 0,2.015625 L0,13.015625 C0,13.5679097 0.44771525,14.015625 1,14.015625 L13,14.015625 C13.5522847,14.015625 14,13.5679097 14,13.015625 L14,2.015625 C14,1.46334025 13.5522847,1.015625 13,1.015625 Z M13,12.515625 C13.0078093,12.6509962 12.9567729,12.7831442 12.86,12.878125 C12.7671271,12.9749555 12.6364303,13.0261375 12.5025,13.018125 L1.5,13.018125 C1.36970037,13.0235601 1.24279808,12.9757433 1.14848457,12.8856739 C1.05417107,12.7956045 1.00056593,12.6710367 1,12.540625 C0.997471338,12.5265712 0.997471338,12.5121788 1,12.498125 L1,4.798125 L13,4.798125 L13,12.515625 Z M13,3.765625 L1,3.765625 L1,2.515625 C0.990579419,2.38147589 1.04198725,2.25020232 1.14,2.158125 C1.23395314,2.06110862 1.36509988,2.00919637 1.5,2.015625 L3,2.015625 L3,2.515625 C3.00286915,2.64901493 3.05547585,2.7765193 3.1475,2.873125 C3.24320099,2.96279189 3.3688714,3.01359483 3.5,3.015625 C3.63315445,3.02493141 3.76373288,2.97562207 3.8575,2.880625 C3.95503049,2.7849476 4.0069053,2.65207528 4,2.515625 L4,2.015625 L10,2.015625 L10,2.515625 C10,2.79176737 10.2238576,3.015625 10.5,3.015625 C10.6331544,3.02493141 10.7637329,2.97562207 10.8575,2.880625 C10.955869,2.78550345 11.0078986,2.65223459 11,2.515625 L11,2.015625 L12.5,2.015625 C12.6362234,2.00707859 12.7694336,2.05817291 12.865,2.155625 C12.9540146,2.2530134 12.9952232,2.38488105 12.9775,2.515625 L13,3.765625 Z" id="形状"></path>
                <path d="M2.55,7.703125 L4.65,7.703125 L4.65,6.303125 L2.55,6.303125 L2.55,7.703125 Z M6.05,7.703125 L8.15,7.703125 L8.15,6.303125 L6.05,6.303125 L6.05,7.703125 L6.05,7.703125 Z M9.55,7.703125 L11.65,7.703125 L11.65,6.303125 L9.55,6.303125 L9.55,7.703125 Z M2.55,10.503125 L4.65,10.503125 L4.65,9.103125 L2.55,9.103125 L2.55,10.503125 Z M6.05,10.503125 L8.15,10.503125 L8.15,9.103125 L6.05,9.103125 L6.05,10.503125 L6.05,10.503125 Z M9.55,10.503125 L11.65,10.503125 L11.65,9.103125 L9.55,9.103125 L9.55,10.503125 Z" id="形状"></path>
            </g>
        </g>
    </g>
</svg>