<?xml version="1.0" encoding="UTF-8"?>
<svg width="14px" height="14px" viewBox="0 0 14 14" version="1.1" xmlns="http://www.w3.org/2000/svg" xmlns:xlink="http://www.w3.org/1999/xlink">
    <title></title>
    <g id="-界面合集" stroke="none" stroke-width="1" fill="none" fill-rule="evenodd">
        <g id="02-安灯配置-新增人员弹窗" transform="translate(-583.000000, -232.000000)" fill="#000000" fill-rule="nonzero">
            <g id="编组" transform="translate(441.000000, 157.000000)">
                <g id="编组备份-20" transform="translate(136.000000, 70.000000)">
                    <g id="编组-6" transform="translate(6.000000, 5.000000)">
                        <rect id="矩形" opacity="0" x="0" y="0" width="14" height="14"></rect>
                        <path d="M13.2567273,9.94572727 L13.2567273,12.8863636 C13.2567273,13.1499541 13.043045,13.3636364 12.7794545,13.3636364 C12.5158641,13.3636364 12.3021818,13.1499541 12.3021818,12.8863636 L12.3021818,9.94572727 C12.3021818,9.58745454 12.0107273,9.29663636 11.6524545,9.29663636 L9.65109091,9.29663636 C9.2926079,9.29663636 9.002,9.58724426 9.002,9.94572727 L9.002,12.8863636 C9.00199999,13.1499541 8.78831772,13.3636364 8.52472727,13.3636364 C8.51963636,13.3636364 8.51581819,13.3610909 8.51136364,13.3610909 C8.5069091,13.3610909 8.50245456,13.3636364 8.498,13.3636364 C8.23440956,13.3636364 8.02072728,13.1499541 8.02072727,12.8863636 L8.02072727,9.14009091 C8.0196743,8.34047289 7.37134592,7.69271396 6.57172727,7.69236364 L3.14681819,7.69236364 C2.34748946,7.69341347 1.69957041,8.34076342 1.69781819,9.14009091 L1.69781819,12.8863636 C1.69781818,13.1499541 1.4841359,13.3636364 1.22054546,13.3636364 C0.95695501,13.3636364 0.743272729,13.1499541 0.743272729,12.8863636 L0.743272729,9.14009091 C0.744676281,7.81333424 1.82006119,6.73823405 3.14681819,6.73718181 L6.57109091,6.73718181 C7.68854546,6.73718181 8.62272727,7.50718181 8.89,8.54254546 C9.12266401,8.41301334 9.38417057,8.34408065 9.65045454,8.34209091 L11.6518182,8.34209091 C12.537543,8.34244135 13.2556742,9.06000304 13.2567273,9.94572727 L13.2567273,9.94572727 Z M2.29536364,3.20090909 C2.29536364,1.78690909 3.44590909,0.636363643 4.85927273,0.636363643 C6.27263637,0.636363643 7.42318181,1.7869091 7.42318181,3.20090909 C7.42318181,4.61490909 6.27263636,5.76481819 4.85927273,5.76481819 C3.4459091,5.76481819 2.29536364,4.61490909 2.29536364,3.20090909 Z M3.24990909,3.20090909 C3.24990909,4.08863636 3.97154544,4.81027273 4.85927273,4.81027273 C5.74700001,4.81027273 6.46863636,4.088 6.46863636,3.20090909 C6.46863636,2.31318181 5.74636363,1.59090909 4.85927273,1.59090909 C3.97218183,1.59090909 3.24990909,2.31318181 3.24990909,3.20090909 Z M8.56990909,5.23409091 C8.57096144,4.17313625 9.4307726,3.31332509 10.4917273,3.31227273 C11.5527853,3.31332444 12.4127788,4.17303332 12.4141818,5.23409091 C12.4131294,6.29539703 11.5530334,7.15549309 10.4917273,7.15654546 C9.43052439,7.15549256 8.57061065,6.29529409 8.56990909,5.23409091 L8.56990909,5.23409091 Z M9.52445454,5.23409091 C9.52445454,5.76736364 9.95845454,6.202 10.4917273,6.202 C11.0256364,6.202 11.4596364,5.768 11.4596364,5.23409091 C11.4596364,4.70018183 11.025,4.26681819 10.4917273,4.26681819 C9.95781819,4.26681819 9.52445454,4.70081819 9.52445454,5.23409091 L9.52445454,5.23409091 Z" id="形状" fill-opacity="0.3"></path>
                    </g>
                </g>
            </g>
        </g>
    </g>
</svg>