<?xml version="1.0" encoding="UTF-8"?>
<svg width="14px" height="14px" viewBox="0 0 14 14" version="1.1" xmlns="http://www.w3.org/2000/svg" xmlns:xlink="http://www.w3.org/1999/xlink">
    <title>编组 4备份 29</title>
    <g id="-界面合集" stroke="none" stroke-width="1" fill="none" fill-rule="evenodd">
        <g id="画板" transform="translate(-56.000000, -30.000000)" fill="#FF7474">
            <g id="编组" transform="translate(56.000000, 30.000000)">
                <rect id="矩形" fill-opacity="0.1" x="0" y="0" width="14" height="14" rx="7"></rect>
                <path d="M3.648,8.88 C4.416,8.784 5.232,8.584 6.096,8.296 L6.096,7.616 C5.568,7.792 5.056,7.936 4.544,8.048 C4.992,7.472 5.536,6.56 6.184,5.312 L5.504,5.056 C5.352,5.36 5.208,5.656 5.064,5.928 C4.776,5.968 4.496,6 4.216,6.032 C4.6,5.432 4.984,4.648 5.368,3.68 L4.64,3.392 C4.352,4.272 4.024,5.08 3.64,5.8 C3.544,5.936 3.44,6.032 3.328,6.08 L3.512,6.768 C3.92,6.712 4.312,6.656 4.696,6.608 C4.328,7.256 4.024,7.712 3.784,7.976 C3.688,8.064 3.576,8.136 3.44,8.192 L3.648,8.88 Z M9.36,4.768 L9.952,4.352 C9.744,4.088 9.44,3.776 9.056,3.408 L8.48,3.776 C8.848,4.136 9.144,4.464 9.36,4.768 Z M9.664,10.744 C10.112,10.744 10.448,10.224 10.688,9.2 L10.04,8.768 C9.912,9.528 9.76,9.912 9.576,9.912 C9.384,9.912 9.168,9.72 8.928,9.352 C9.392,8.936 9.816,8.432 10.216,7.856 L9.616,7.448 C9.32,7.896 8.984,8.296 8.616,8.648 C8.512,8.352 8.424,8.016 8.36,7.64 L8.328,7.408 L10.4,7.08 L10.288,6.36 L8.24,6.68 C8.208,6.392 8.192,6.096 8.176,5.776 L10.176,5.496 L10.072,4.792 L8.16,5.056 L8.16,3.44 L7.4,3.44 L7.4,5.16 L6.24,5.328 L6.352,6.032 L7.416,5.88 C7.432,6.2 7.448,6.504 7.48,6.8 L6.104,7.016 L6.208,7.736 L7.576,7.52 C7.608,7.696 7.64,7.872 7.68,8.04 C7.776,8.44 7.888,8.808 8.032,9.144 C7.472,9.56 6.832,9.88 6.112,10.104 L6.552,10.712 C7.192,10.52 7.8,10.216 8.376,9.8 C8.416,9.864 8.464,9.936 8.52,10.008 C8.88,10.488 9.264,10.736 9.664,10.744 Z M3.504,10.56 C4.504,10.376 5.392,10.136 6.176,9.832 L6.176,9.12 C5.392,9.408 4.464,9.64 3.408,9.816 L3.504,10.56 Z" id="线" fill-rule="nonzero"></path>
            </g>
        </g>
    </g>
</svg>