<?xml version="1.0" encoding="UTF-8"?>
<svg width="12px" height="12px" viewBox="0 0 12 12" version="1.1" xmlns="http://www.w3.org/2000/svg" xmlns:xlink="http://www.w3.org/1999/xlink">
    <title></title>
    <g id="-界面合集" stroke="none" stroke-width="1" fill="none" fill-rule="evenodd">
        <g id="负荷分析" transform="translate(-839.000000, -525.000000)" fill="#949496" fill-rule="nonzero" stroke="#949496" stroke-width="0.2">
            <g id="编组-40" transform="translate(819.000000, 471.000000)">
                <g id="09/01备份" transform="translate(20.000000, 54.000000)">
                    <g id="编组" transform="translate(0.000000, 1.000000)">
                        <path d="M0.952380952,7.08609272 C0.761904762,7.08609272 0.634920635,6.95364238 0.634920635,6.75496689 L0.634920635,1.98675497 C0.634920635,1.32450331 1.14285714,0.728476821 1.84126984,0.728476821 L8.95238095,0.728476821 C9.14285714,0.728476821 9.26984127,0.860927152 9.26984127,1.05960265 C9.26984127,1.25827815 9.14285714,1.39072848 8.95238095,1.39072848 L1.84126984,1.39072848 C1.52380952,1.39072848 1.26984127,1.65562914 1.26984127,1.98675497 L1.26984127,6.75496689 C1.26984127,6.95364238 1.07936508,7.08609272 0.952380952,7.08609272 Z M9.9047619,9.33774834 L3.04761905,9.33774834 C2.85714286,9.33774834 2.73015873,9.20529801 2.73015873,9.00662252 C2.73015873,8.80794702 2.85714286,8.67549669 3.04761905,8.67549669 L9.9047619,8.67549669 C10.2222222,8.67549669 10.4761905,8.41059603 10.4761905,8.0794702 L10.4761905,3.24503311 C10.4761905,3.04635762 10.6031746,2.91390728 10.7936508,2.91390728 C10.984127,2.91390728 11.1111111,3.04635762 11.1111111,3.24503311 L11.1111111,8.0794702 C11.1111111,8.80794702 10.6031746,9.33774834 9.9047619,9.33774834 L9.9047619,9.33774834 Z" id="形状"></path>
                        <path d="M1.20634921,10 C0.507936508,10 8.8817842e-16,9.40397351 8.8817842e-16,8.74172185 C8.8817842e-16,8.0794702 0.507936508,7.48344371 1.20634921,7.48344371 C1.9047619,7.48344371 2.41269841,8.0794702 2.41269841,8.74172185 C2.41269841,9.40397351 1.84126984,10 1.20634921,10 Z M1.20634921,8.2781457 C0.952380952,8.2781457 0.761904762,8.47682119 0.761904762,8.74172185 C0.761904762,9.00662252 0.952380952,9.20529801 1.20634921,9.20529801 C1.46031746,9.20529801 1.65079365,9.00662252 1.65079365,8.74172185 C1.65079365,8.47682119 1.46031746,8.2781457 1.20634921,8.2781457 Z M4.38095238,5.03311258 C3.74603175,5.03311258 3.17460317,4.43708609 3.17460317,3.77483444 C3.17460317,3.11258278 3.74603175,2.51655629 4.38095238,2.51655629 C5.01587302,2.51655629 5.58730159,3.11258278 5.58730159,3.77483444 C5.58730159,4.43708609 5.07936508,5.03311258 4.38095238,5.03311258 Z M4.38095238,3.31125828 C4.12698413,3.31125828 3.93650794,3.50993377 3.93650794,3.77483444 C3.93650794,4.0397351 4.12698413,4.2384106 4.38095238,4.2384106 C4.63492063,4.2384106 4.82539683,4.0397351 4.82539683,3.77483444 C4.82539683,3.50993377 4.63492063,3.31125828 4.38095238,3.31125828 Z M7.61904762,7.48344371 C6.92063492,7.48344371 6.41269841,6.88741722 6.41269841,6.22516556 C6.41269841,5.56291391 6.98412698,4.96688742 7.61904762,4.96688742 C8.25396825,4.96688742 8.82539683,5.56291391 8.82539683,6.22516556 C8.82539683,6.88741722 8.25396825,7.48344371 7.61904762,7.48344371 Z M7.61904762,5.7615894 C7.36507937,5.7615894 7.17460317,5.9602649 7.17460317,6.22516556 C7.17460317,6.49006623 7.36507937,6.68874172 7.61904762,6.68874172 C7.87301587,6.68874172 8.06349206,6.49006623 8.06349206,6.22516556 C8.06349206,5.9602649 7.87301587,5.7615894 7.61904762,5.7615894 Z M10.7936508,2.51655629 C10.0952381,2.51655629 9.58730159,1.9205298 9.58730159,1.25827815 C9.58730159,0.59602649 10.1587302,0 10.7936508,0 C11.4285714,0 12,0.59602649 12,1.25827815 C12,1.9205298 11.4920635,2.51655629 10.7936508,2.51655629 Z M10.7936508,0.794701987 C10.5396825,0.794701987 10.3492063,0.993377483 10.3492063,1.25827815 C10.3492063,1.52317881 10.5396825,1.7218543 10.7936508,1.7218543 C11.047619,1.7218543 11.2380952,1.52317881 11.2380952,1.25827815 C11.2380952,0.993377483 11.047619,0.794701987 10.7936508,0.794701987 Z M3.55555556,5.49668874 L2.47619048,7.28476821 C2.34920635,7.41721854 2.15873016,7.48344371 2.03174603,7.41721854 C1.9047619,7.28476821 1.84126984,7.08609272 1.9047619,6.95364238 L2.98412698,5.23178808 C3.11111111,4.96688742 3.3015873,4.96688742 3.49206349,5.03311258 C3.61904762,5.16556291 3.68253968,5.36423841 3.55555556,5.49668874 L3.55555556,5.49668874 Z M9.96825397,2.98013245 L8.88888889,4.70198675 C8.82539683,4.90066225 8.57142857,4.96688742 8.44444444,4.83443709 C8.31746032,4.70198675 8.25396825,4.50331126 8.31746032,4.37086093 L9.3968254,2.64900662 C9.52380952,2.51655629 9.71428571,2.45033113 9.84126984,2.51655629 C10.031746,2.58278146 10.0952381,2.84768212 9.96825397,2.98013245 L9.96825397,2.98013245 Z M6.03174603,5.29801325 L5.71428571,5.09933775 C5.52380952,4.96688742 5.52380952,4.70198675 5.65079365,4.56953642 C5.77777778,4.43708609 5.96825397,4.37086093 6.0952381,4.50331126 L6.41269841,4.76821192 C6.53968254,4.90066225 6.6031746,5.09933775 6.47619048,5.23178808 C6.34920635,5.43046358 6.15873016,5.43046358 6.03174603,5.29801325 Z" id="形状"></path>
                    </g>
                </g>
            </g>
        </g>
    </g>
</svg>