<?xml version="1.0" encoding="UTF-8"?>
<svg width="12px" height="12px" viewBox="0 0 12 12" version="1.1" xmlns="http://www.w3.org/2000/svg" xmlns:xlink="http://www.w3.org/1999/xlink">
    <title>运行中</title>
    <g id="-界面合集" stroke="none" stroke-width="1" fill="none" fill-rule="evenodd">
        <g id="生产工单" transform="translate(-310.000000, -422.000000)" fill="#63C7ED">
            <g id="编组-12" transform="translate(297.000000, 338.000000)">
                <path d="M19,84 C22.3137085,84 25,86.6862915 25,90 C25,93.3137085 22.3137085,96 19,96 C15.6862915,96 13,93.3137085 13,90 C13,86.6862915 15.6862915,84 19,84 Z M16.1382708,89.1428571 C15.6648839,89.1428571 15.2811279,89.5266131 15.2811279,90 C15.2811279,90.4733869 15.6648839,90.8571429 16.1382708,90.8571429 C16.6116577,90.8571429 16.9954136,90.4733869 16.9954136,90 C16.9954136,89.5266131 16.6116577,89.1428571 16.1382708,89.1428571 Z M19,89.1428571 C18.5266131,89.1428571 18.1428571,89.5266131 18.1428571,90 C18.1428571,90.4733869 18.5266131,90.8571429 19,90.8571429 C19.4733869,90.8571429 19.8571429,90.4733869 19.8571429,90 C19.8571429,89.5266131 19.4733869,89.1428571 19,89.1428571 Z M21.8724016,89.1428571 C21.3990147,89.1428571 21.0152588,89.5266131 21.0152588,90 C21.0152588,90.4733869 21.3990147,90.8571429 21.8724016,90.8571429 C22.3457886,90.8571429 22.7295445,90.4733869 22.7295445,90 C22.7295445,89.5266131 22.3457886,89.1428571 21.8724016,89.1428571 Z" id="运行中"></path>
            </g>
        </g>
    </g>
</svg>