<?xml version="1.0" encoding="UTF-8"?>
<svg width="12px" height="12px" viewBox="0 0 12 12" version="1.1" xmlns="http://www.w3.org/2000/svg" xmlns:xlink="http://www.w3.org/1999/xlink">
    <title></title>
    <g id="-界面合集" stroke="none" stroke-width="1" fill="none" fill-rule="evenodd">
        <g id="资源视图" transform="translate(-230.000000, -174.000000)" fill="#999999" fill-rule="nonzero">
            <g id="打印二维码备份-5" transform="translate(236.000000, 180.000000) rotate(-360.000000) translate(-236.000000, -180.000000) translate(230.000000, 174.000000)">
                <path d="M8.96453901,6.29616496 C10.3644602,6.29616496 11.5,7.43170475 11.5,8.83162595 C11.5,10.2315471 10.3644602,11.3670869 8.96453901,11.3670869 C7.5631731,11.3670869 6.42907801,10.2315471 6.42907801,8.83162595 C6.42907801,7.43170475 7.56461781,6.29616496 8.96453901,6.29616496 Z M3.8083793,0.5 L3.8083793,1.30470186 L7.66574731,1.30470186 L7.66574731,0.5 L8.59035986,0.5 L8.59035986,1.30470186 L10.7357499,1.30470186 C10.8672183,1.30470186 10.9726819,1.41161019 10.9726819,1.54163383 L10.9726819,1.54163383 L10.9726819,6.58077226 C10.7039664,6.34095088 10.3919096,6.14736013 10.0480693,6.01589178 L10.0480693,6.01589178 L10.0480693,4.64342002 L1.42605726,4.64342002 L1.42605726,9.90359863 L6.1415813,9.90359863 C6.27160494,10.2459942 6.46230628,10.558051 6.70068295,10.8282112 L6.70068295,10.8282112 L0.736931967,10.8282112 C0.60546362,10.8282112 0.5,10.7227476 0.5,10.5912792 L0.5,10.5912792 L0.5,1.54163383 C0.5,1.41016548 0.606908327,1.30470186 0.736931967,1.30470186 L0.736931967,1.30470186 L2.88376675,1.30470186 L2.88376675,0.5 L3.8083793,0.5 Z M8.96453901,7.12831626 C8.02547938,7.12831626 7.26122931,7.89256633 7.26122931,8.83162595 C7.26122931,9.77068558 8.02547938,10.5349356 8.96453901,10.5349356 C9.90359863,10.5349356 10.6678487,9.77068558 10.6678487,8.83162595 C10.6678487,7.89256633 9.90359863,7.12831626 8.96453901,7.12831626 Z M9.29826635,7.55450486 L9.29826635,8.48056212 L10.2243236,8.48056212 L10.2243236,9.17402154 L8.60480693,9.17402154 L8.60480693,7.55450486 L9.29826635,7.55450486 Z M2.88376675,2.22931442 L1.42605726,2.22931442 L1.42605726,3.71736275 L10.0480693,3.71736275 L10.0480693,2.22931442 L8.59035986,2.22931442 L8.59035986,3.08024691 L7.66574731,3.08024691 L7.66574731,2.22931442 L3.8083793,2.22931442 L3.8083793,3.08024691 L2.88376675,3.08024691 L2.88376675,2.22931442 Z" id="形状结合"></path>
            </g>
        </g>
    </g>
</svg>