<?xml version="1.0" encoding="UTF-8"?>
<svg width="14px" height="14px" viewBox="0 0 14 14" version="1.1" xmlns="http://www.w3.org/2000/svg" xmlns:xlink="http://www.w3.org/1999/xlink">
    <!-- Generator: Sketch 55.2 (78181) - https://sketchapp.com -->
    <title>未选择备份 16</title>
    <desc>Created with Sketch.</desc>
    <g id="3.0" stroke="none" stroke-width="1" fill="none" fill-rule="evenodd">
        <g id="03-新增资源" transform="translate(-1055.000000, -522.000000)" fill="#326FFF">
            <g id="编组-24" transform="translate(838.000000, 393.000000)">
                <g id="选择" transform="translate(217.000000, 129.000000)">
                    <g id="xuanze-fangkuang-tianchong">
                        <path d="M10.9015516,4.71343968 L6.55539773,9.95819494 C6.46369923,10.0694833 6.33015102,10.1380121 6.18627043,10.1476086 C6.04238984,10.157205 5.90092366,10.1070189 5.79525787,10.0088942 L3.14840472,7.56134178 C2.9358058,7.36447201 2.92281941,7.03261475 3.11938374,6.8197334 C3.31630536,6.60755357 3.64773497,6.59457779 3.86064249,6.79071241 L6.10120192,8.86239073 L10.0935096,4.04420891 C10.2809242,3.83108389 10.603813,3.80555642 10.8223891,3.98658397 C11.0409652,4.16761152 11.0760337,4.48960382 10.9015516,4.71343968 M1.40679633,0.0081949369 C0.637565565,0.0081949369 0.0081949369,0.637565565 0.0081949369,1.40679633 L0.0081949369,12.5956075 C0.0081949369,13.3648383 0.637565565,13.9942089 1.40679633,13.9942089 L12.5956075,13.9942089 C13.3648383,13.9942089 13.9942089,13.3648383 13.9942089,12.5956075 L13.9942089,1.40679633 C13.9942089,0.637565565 13.3648383,0.0081949369 12.5956075,0.0081949369 L1.40679633,0.0081949369 Z" id="形状" fill-rule="nonzero"></path>
                    </g>
                </g>
            </g>
        </g>
    </g>
</svg>