<?xml version="1.0" standalone="no"?><!DOCTYPE svg PUBLIC "-//W3C//DTD SVG 1.1//EN" "http://www.w3.org/Graphics/SVG/1.1/DTD/svg11.dtd"><svg t="1590137902608" class="icon" viewBox="0 0 1024 1024" version="1.1" xmlns="http://www.w3.org/2000/svg" p-id="3756" xmlns:xlink="http://www.w3.org/1999/xlink" width="200" height="200"><defs><style type="text/css"></style></defs><path d="M1001.951626 1001.951626H22.048374V22.048374h979.903252v979.903252" fill="#FFFFFF" p-id="3757"></path><path d="M1001.951626 1024H22.048374a22.048374 22.048374 0 0 1-22.048374-22.048374V22.048374a22.048374 22.048374 0 0 1 22.048374-22.048374h979.903252a22.048374 22.048374 0 0 1 22.048374 22.048374v979.903252a22.048374 22.048374 0 0 1-22.048374 22.048374zM44.096749 979.903251h935.806502V44.096749H44.096749z" fill="#888888" p-id="3758"></path><path d="M352.90628 710.031149l404.109955-404.102605 73.64157 73.64157-404.109955 404.102605z" fill="#04BEBD" p-id="3759"></path><path d="M267.005814 479.228766l226.89982 226.892471-73.64157 73.641571-226.892471-226.899821z" fill="#04BEBD" p-id="3760"></path></svg>