<?xml version="1.0" encoding="UTF-8"?>
<svg width="12px" height="12px" viewBox="0 0 12 12" version="1.1" xmlns="http://www.w3.org/2000/svg" xmlns:xlink="http://www.w3.org/1999/xlink">
    <title>自定义</title>
    <g id="-界面合集" stroke="none" stroke-width="1" fill="none" fill-rule="evenodd" fill-opacity="0.4">
        <g id="01-库存报表" transform="translate(-1346.000000, -164.000000)" fill="#000000">
            <g id="" transform="translate(1346.000000, 164.000000)">
                <path d="M7.43603883,3.55271368e-15 L10.5638447,1.7765043 L10.0561165,2.64148997 C10.2556893,2.87518625 10.4347573,3.12676218 10.5907573,3.39255014 C10.7467573,3.65856734 10.8786408,3.93684814 10.9846602,4.2234957 L10.9846602,4.2234957 L12,4.2234957 L12,7.7765043 L10.9829126,7.7765043 C10.7704078,8.35289398 10.4557282,8.88962751 10.055767,9.35770774 L10.055767,9.35770774 L10.5639612,10.2234957 L7.43603883,12 L6.92796117,11.134212 C6.31584466,11.2410315 5.68601942,11.2408023 5.07238835,11.1335244 L5.07238835,11.1335244 L4.56396117,12 L1.43603883,10.2234957 L1.94376699,9.35851003 C1.74431068,9.12481375 1.56524272,8.87323782 1.40924272,8.60744986 C1.25312621,8.34143266 1.12124272,8.06315186 1.01533981,7.7765043 L1.01533981,7.7765043 L0,7.7765043 L0,4.2234957 L1.01697087,4.2234957 C1.22947573,3.64710602 1.54427184,3.11037249 1.9441165,2.64229226 L1.9441165,2.64229226 L1.43603883,1.7765043 L4.56384466,3.55271368e-15 L5.07203883,0.865787966 C5.68415534,0.758968481 6.31386408,0.759197708 6.92749515,0.866475645 L6.92749515,0.866475645 L7.43603883,3.55271368e-15 Z M7.81992233,1.40905444 L7.44535922,2.04722063 L7.05972816,1.9495702 C6.3648932,1.77352436 5.63196117,1.77329513 4.94003883,1.94876791 L4.94003883,1.94876791 L4.55440777,2.04664756 L4.18007767,1.40905444 L2.86846602,2.15404011 L3.24267961,2.79163324 L2.96353398,3.07140401 C2.46326214,3.57295129 2.09697087,4.19747851 1.90438835,4.87770774 L1.90438835,4.87770774 L1.7975534,5.25501433 L1.04854369,5.25501433 L1.04854369,6.74498567 L1.7951068,6.74498567 L1.90217476,7.12206304 C1.99782524,7.4591404 2.13751456,7.78544413 2.31728155,8.09169054 C2.49693204,8.39782235 2.71421359,8.67988539 2.96341748,8.93008596 L2.96341748,8.93008596 L3.24174757,9.20985673 L2.86834951,9.84595989 L4.18007767,10.5909456 L4.55464078,9.95277937 L4.94015534,10.0504298 C5.6351068,10.2264756 6.36803883,10.2267049 7.05984466,10.0512321 L7.05984466,10.0512321 L7.44559223,9.95335244 L7.81980583,10.5909456 L9.13153398,9.84595989 L8.75732039,9.20836676 L9.03646602,8.92859599 C9.53673786,8.42704871 9.90302913,7.80252149 10.0954951,7.12229226 L10.0954951,7.12229226 L10.2023301,6.74498567 L10.9514563,6.74498567 L10.9514563,5.25501433 L10.2047767,5.25501433 L10.0978252,4.87793696 C10.0020583,4.5408596 9.86236893,4.21455587 9.68260194,3.90830946 L9.68260194,3.90830946 L9.54089927,3.68334527 C9.39232282,3.46313754 9.22339806,3.25756447 9.03658252,3.06991404 L9.03658252,3.06991404 L8.75825243,2.79014327 L9.13153398,2.15404011 L7.81992233,1.40905444 Z M6,3.57879656 C7.35704854,3.57879656 8.46116505,4.66498567 8.46116505,6 C8.46116505,7.33501433 7.35704854,8.42120344 6,8.42120344 C4.64295146,8.42120344 3.53883495,7.33501433 3.53883495,6 C3.53883495,4.66498567 4.64295146,3.57879656 6,3.57879656 Z M6,4.61031519 C5.22104854,4.61031519 4.58737864,5.23369628 4.58737864,6 C4.58737864,6.76630372 5.22104854,7.38968481 6,7.38968481 C6.77895146,7.38968481 7.41262136,6.76630372 7.41262136,6 C7.41262136,5.23369628 6.77895146,4.61031519 6,4.61031519 Z"></path>
            </g>
        </g>
    </g>
</svg>