<?xml version="1.0" encoding="UTF-8"?>
<svg width="16px" height="17px" viewBox="0 0 16 17" version="1.1" xmlns="http://www.w3.org/2000/svg" xmlns:xlink="http://www.w3.org/1999/xlink">
    <title></title>
    <g id="页面-1" stroke="none" stroke-width="1" fill="none" fill-rule="evenodd" fill-opacity="1">
        <g id="01-首页" transform="translate(-1340.000000, -24.000000)" fill="currentColor">
            <g id="Combined-Shape" transform="translate(1340.000000, 24.000000)">
                <path d="M12.8509474,9.51080457 L12.6586667,10.1025584 C12.4487018,10.7490402 12.1187368,11.336462 11.6778947,11.8485067 L11.2756491,12.3156428 L12.0088421,13.6220355 L10.3070877,14.6328401 L9.57557895,13.329191 L8.98189474,13.4529424 C8.33880702,13.5870906 7.66133333,13.5870906 7.01824561,13.4529424 L6.4245614,13.329191 L5.69305263,14.6328401 L3.99129825,13.6220355 L4.72449123,12.3156428 L4.32224561,11.8485067 C3.88140351,11.336462 3.5514386,10.7490402 3.34147368,10.1025584 L3.14919298,9.51080457 L1.68421053,9.51080457 L1.68421053,7.48919543 L3.14919298,7.48919543 L3.34147368,6.89744156 C3.5514386,6.25095984 3.88140351,5.66353799 4.32224561,5.15149327 L4.72449123,4.68435716 L3.99129825,3.37796446 L5.69305263,2.36715989 L6.4245614,3.67080898 L7.01824561,3.54705762 C7.66133333,3.41290942 8.33880702,3.41290942 8.98189474,3.54705762 L9.57557895,3.67080898 L10.3070877,2.36715989 L12.0088421,3.37796446 L11.2756491,4.68435716 L11.6778947,5.15149327 C12.1187368,5.66353799 12.4487018,6.25095984 12.6586667,6.89744156 L12.8509474,7.48919543 L14.3159298,7.48919543 L14.3159298,9.51080457 L12.8509474,9.51080457 Z M16,11.2436124 L16,5.75638761 L14.0336842,5.75638761 C13.8425263,5.31091159 13.6060351,4.88983929 13.3258947,4.49649191 L14.3094737,2.74361239 L9.69066667,0 L8.70750877,1.75201311 C8.23789474,1.70046208 7.76224561,1.70046208 7.29263158,1.75201311 L6.30947368,0 L1.69066667,2.74361239 L2.67424561,4.49649191 C2.39410526,4.88983929 2.15761404,5.31091159 1.96645614,5.75638761 L0,5.75638761 L0,11.2436124 L1.96645614,11.2436124 C2.15761404,11.6890884 2.39410526,12.1101607 2.67424561,12.5035081 L1.69066667,14.2563876 L6.30947368,17 L7.29263158,15.2479869 C7.76224561,15.2995379 8.23789474,15.2995379 8.70750877,15.2479869 L9.69066667,17 L14.3094737,14.2563876 L13.3258947,12.5035081 C13.6060351,12.1101607 13.8425263,11.6890884 14.0336842,11.2436124 L16,11.2436124 Z M6.17550877,8.5 C6.17550877,9.53679668 6.99235088,10.3772085 8.00007018,10.3772085 C9.00778947,10.3772085 9.82463158,9.53679668 9.82463158,8.5 C9.82463158,7.46320332 9.00778947,6.62279152 8.00007018,6.62279152 C6.99235088,6.62279152 6.17550877,7.46320332 6.17550877,8.5 Z"></path>
            </g>
        </g>
    </g>
</svg>