<?xml version="1.0" encoding="UTF-8"?>
<svg width="14px" height="14px" viewBox="0 0 14 14" version="1.1" xmlns="http://www.w3.org/2000/svg" xmlns:xlink="http://www.w3.org/1999/xlink">
    <!-- Generator: Sketch 55.2 (78181) - https://sketchapp.com -->
    <title>shuzi-2</title>
    <desc>Created with Sketch.</desc>
    <g id="页面1" stroke="none" stroke-width="1" fill="none" fill-rule="evenodd">
        <g id="02-表单模板" transform="translate(-54.000000, -201.000000)" fill="#919CAE" fill-rule="nonzero">
            <g id="shuzi-2" transform="translate(54.000000, 201.000000)">
                <path d="M1.47977941,0.0157271242 L12.4601716,0.0157271242 C13.2687453,0.0157271242 13.9242239,0.67120566 13.9242239,1.47977941 L13.9242239,12.4601716 C13.9242239,13.2687453 13.2687453,13.9242239 12.4601716,13.9242239 L1.47977941,13.9242239 C0.67120566,13.9242239 0.0157271242,13.2687453 0.0157271242,12.4601716 L0.0157271242,1.47977941 C0.0157271242,0.67120566 0.67120566,0.0157271242 1.47977941,0.0157271242 Z M1.47977941,1.04056373 C1.23720729,1.04056373 1.04056373,1.23720729 1.04056373,1.47977941 L1.04056373,12.4601716 C1.04056373,12.7027437 1.23720729,12.8993873 1.47977941,12.8993873 L12.4601716,12.8993873 C12.7027437,12.8993873 12.8993873,12.7027437 12.8993873,12.4601716 L12.8993873,1.47977941 C12.8993873,1.23720729 12.7027437,1.04056373 12.4601716,1.04056373 L1.47977941,1.04056373 Z" id="形状"></path>
                <path d="M2.06540033,3.30984477 L2.06540033,11.3621324 L3.09023693,11.3621324 L3.09023693,3.30984477 L2.06540033,3.30984477 Z M6.82357026,4.18827614 L6.82357026,6.82357026 L4.26147876,6.82357026 L4.26147876,11.5085376 L7.84840686,11.5085376 L7.84840686,9.89808007 L6.82357026,9.89808007 L6.82357026,10.483701 L5.28631536,10.483701 L5.28631536,7.84840686 L7.84840686,7.84840686 L7.84840686,3.16343954 L4.26147876,3.16343954 L4.26147876,4.77389706 L5.28631536,4.77389706 L5.28631536,4.18827614 L6.82357026,4.18827614 Z M10.8380081,10.483701 L8.80004085,10.483701 L8.80004085,11.5085376 L11.8628447,11.5085376 L11.8628447,3.16343954 L8.80004085,3.16343954 L8.80004085,4.18827614 L10.8380081,4.18827614 L10.8380081,10.483701 Z" id="形状"></path>
                <polygon id="路径" points="8.80004085 7.48239379 11.3504264 7.48239379 11.3504264 6.45755719 8.80004085 6.45755719"></polygon>
            </g>
        </g>
    </g>
</svg>