<?xml version="1.0" encoding="UTF-8"?>
<svg width="14px" height="14px" viewBox="0 0 14 14" version="1.1" xmlns="http://www.w3.org/2000/svg" xmlns:xlink="http://www.w3.org/1999/xlink">
    <!-- Generator: Sketch 55.2 (78181) - https://sketchapp.com -->
    <title>单行文本</title>
    <desc>Created with Sketch.</desc>
    <g id="页面1" stroke="none" stroke-width="1" fill="none" fill-rule="evenodd">
        <g id="02-表单模板" transform="translate(-54.000000, -151.000000)">
            <g id="单行文本" transform="translate(54.000000, 151.000000)">
                <rect id="矩形" x="0" y="0" width="14" height="14"></rect>
                <path d="M1.47977941,0.0157271242 L12.4601716,0.0157271242 C13.2687453,0.0157271242 13.9242239,0.67120566 13.9242239,1.47977941 L13.9242239,12.4601716 C13.9242239,13.2687453 13.2687453,13.9242239 12.4601716,13.9242239 L1.47977941,13.9242239 C0.67120566,13.9242239 0.0157271242,13.2687453 0.0157271242,12.4601716 L0.0157271242,1.47977941 C0.0157271242,0.67120566 0.67120566,0.0157271242 1.47977941,0.0157271242 Z M1.47977941,1.04056373 C1.23720729,1.04056373 1.04056373,1.23720729 1.04056373,1.47977941 L1.04056373,12.4601716 C1.04056373,12.7027437 1.23720729,12.8993873 1.47977941,12.8993873 L12.4601716,12.8993873 C12.7027437,12.8993873 12.8993873,12.7027437 12.8993873,12.4601716 L12.8993873,1.47977941 C12.8993873,1.23720729 12.7027437,1.04056373 12.4601716,1.04056373 L1.47977941,1.04056373 Z" id="形状" fill="#919CAE" fill-rule="nonzero"></path>
                <polygon id="路径" fill="#919CAE" fill-rule="nonzero" points="9.75167484 4.18827614 9.75167484 5.24751797 10.7765114 5.24751797 10.7765114 3.16343954 3.16343954 3.16343954 3.16343954 5.24751797 4.18827614 5.24751797 4.18827614 4.18827614"></polygon>
                <polygon id="路径" fill="#919CAE" fill-rule="nonzero" points="6.45755719 3.67585784 6.44804085 10.9961193 7.47287745 10.9961193 7.48239379 3.67585784"></polygon>
            </g>
        </g>
    </g>
</svg>