<?xml version="1.0" encoding="UTF-8"?>
<svg width="12px" height="12px" viewBox="0 0 12 12" version="1.1" xmlns="http://www.w3.org/2000/svg" xmlns:xlink="http://www.w3.org/1999/xlink">
    <title>排序备份</title>
    <g id="-界面合集" stroke="none" stroke-width="1" fill="none" fill-rule="evenodd">
        <g id="单选框" transform="translate(-1388.000000, -368.000000)">
            <g id="编组-2" transform="translate(1388.000000, 368.000000)">
                <g id="编组-3">
                    <rect id="矩形" x="0" y="0" width="12" height="12"></rect>
                </g>
                <g id="编组" transform="translate(2.500000, 1.166667)" fill="#949496">
                    <path d="M1.66666667,8 L1.66666667,9.66666667 L-2.42539322e-12,9.66666667 L-2.42539322e-12,8 L1.66666667,8 Z M7,8 L7,9.66666667 L5.33333333,9.66666667 L5.33333333,8 L7,8 Z M1.66666667,4 L1.66666667,5.66666667 L-2.42539322e-12,5.66666667 L-2.42539322e-12,4 L1.66666667,4 Z M7,4 L7,5.66666667 L5.33333333,5.66666667 L5.33333333,4 L7,4 Z M1.66666667,-6.05959727e-13 L1.66666667,1.66666667 L-2.42539322e-12,1.66666667 L-2.42539322e-12,-6.05959727e-13 L1.66666667,-6.05959727e-13 Z M7,-6.05959727e-13 L7,1.66666667 L5.33333333,1.66666667 L5.33333333,-6.05959727e-13 L7,-6.05959727e-13 Z" id="形状结合"></path>
                </g>
            </g>
        </g>
    </g>
</svg>