<?xml version="1.0" encoding="UTF-8"?>
<svg width="10px" height="12px" viewBox="0 0 10 12" version="1.1" xmlns="http://www.w3.org/2000/svg" xmlns:xlink="http://www.w3.org/1999/xlink">
    <title>删除备份</title>
    <g id="-界面合集" stroke="none" stroke-width="1" fill="none" fill-rule="evenodd" opacity="0.4">
        <g id="单选框" transform="translate(-1368.000000, -504.000000)" fill="#000000">
            <path d="M1368.67799,516 L1377.32206,516 L1377.32206,506.994536 L1368.67799,506.994536 L1368.67799,516 Z M1369.69494,514.95082 L1376.30511,514.95082 L1376.30511,508.043716 L1369.69494,508.043716 L1369.69494,514.95082 Z M1372.0678,504 L1372.0678,504.983607 L1368,504.983607 L1368,506.032787 L1378,506.032787 L1378,504.983607 L1373.93229,504.983607 L1373.93229,504 L1372.0678,504 Z M1371.22036,513.071038 L1372.23731,513.071038 L1372.23731,509.923497 L1371.22036,509.923497 L1371.22036,513.071038 Z M1373.76274,513.071038 L1374.77969,513.071038 L1374.77969,509.923497 L1373.76274,509.923497 L1373.76274,513.071038 Z" id="删除备份"></path>
        </g>
    </g>
</svg>