<?xml version="1.0" encoding="UTF-8"?>
<svg width="12px" height="12px" viewBox="0 0 12 12" version="1.1" xmlns="http://www.w3.org/2000/svg" xmlns:xlink="http://www.w3.org/1999/xlink">
    <title></title>
    <g id="页面-1" stroke="none" stroke-width="1" fill="none" fill-rule="evenodd" opacity="0.251325335">
        <g id="01-委外工单详情" transform="translate(-1332.000000, -967.000000)" fill-rule="nonzero">
            <g id="重启2备份" transform="translate(1332.000000, 967.000000)">
                <rect id="矩形" fill="#000000" opacity="0" x="0" y="0" width="12" height="12"></rect>
                <path d="M10.14675,3.01875 C9.91071144,3.15572022 9.82714028,3.45604367 9.9585,3.69525 C10.2935233,4.33708186 10.4667893,5.05099985 10.46325,5.775 C10.46325,7.1535 9.8475,8.4285 8.74425,9.3105 C8.10507942,9.81549879 7.33794089,10.1325862 6.52875,10.22625 C5.16373177,10.393336 3.79778065,9.9228048 2.82525,8.9505 C1.98300733,8.1122443 1.51165112,6.97153525 1.5165,5.78325 C1.51817384,4.71424155 1.90354433,3.6813528 2.6025,2.8725 C2.637,2.838 2.688,2.838 2.7135,2.8725 L3.09075,3.3525 C3.18631298,3.47373168 3.34067739,3.53277031 3.49275,3.50625 C3.55386507,3.49856668 3.61090681,3.47149157 3.6555,3.429 C3.72283159,3.37430895 3.77070613,3.29934058 3.792,3.21525 L4.28775,1.272 C4.31853043,1.14674098 4.29004823,1.01428491 4.2105,0.91275 C4.13440709,0.810204737 4.0141935,0.749819666 3.8865,0.749979837 L1.88475,0.749979837 C1.79873437,0.749133042 1.71476694,0.776244784 1.6455,0.82725 C1.5947229,0.863497271 1.55604246,0.914200014 1.5345,0.97275 C1.4745,1.11 1.49175,1.27275 1.5855,1.401 L2.00475,1.9485 C2.03025,1.974 2.022,2.01675 1.9965,2.043 C0.8415,3.28425 0.252,5.073 0.654,6.9735 C1.13325,9.20775 2.99775,10.911 5.26425,11.202 C6.8301338,11.4129152 8.41082742,10.9374387 9.60049543,9.8976467 C10.7901634,8.85785473 11.4729307,7.35502436 11.4735264,5.775 C11.4763033,4.88165658 11.2558797,4.00176651 10.83225,3.21525 C10.7690978,3.09655169 10.660442,3.00859484 10.5311947,2.97154584 C10.4019475,2.93449684 10.263195,2.9515336 10.14675,3.01875 L10.14675,3.01875 Z" id="路径" fill="#666666"></path>
            </g>
        </g>
    </g>
</svg>