<?xml version="1.0" encoding="UTF-8"?>
<svg width="12px" height="12px" viewBox="0 0 12 12" version="1.1" xmlns="http://www.w3.org/2000/svg" xmlns:xlink="http://www.w3.org/1999/xlink">
    <title>7.Icon/interface/3.calendar/outline</title>
    <g id="-界面合集" stroke="none" stroke-width="1" fill="none" fill-rule="evenodd" opacity="0.45">
        <g id="01-首页备份-3" transform="translate(-1289.000000, -329.000000)" fill="#000000" fill-rule="nonzero">
            <g id="好评排行" transform="translate(1016.000000, 303.000000)">
                <g id="筛选" transform="translate(273.000000, 22.000000)">
                    <g id="7.Icon/interface/3.calendar/outline" transform="translate(0.000000, 4.000000)">
                        <path d="M11.03125,1.515625 L8.734375,1.515625 L8.734375,0.640625 C8.734375,0.58046875 8.68515625,0.53125 8.625,0.53125 L7.859375,0.53125 C7.79921875,0.53125 7.75,0.58046875 7.75,0.640625 L7.75,1.515625 L4.25,1.515625 L4.25,0.640625 C4.25,0.58046875 4.20078125,0.53125 4.140625,0.53125 L3.375,0.53125 C3.31484375,0.53125 3.265625,0.58046875 3.265625,0.640625 L3.265625,1.515625 L0.96875,1.515625 C0.726757812,1.515625 0.53125,1.71113281 0.53125,1.953125 L0.53125,11.03125 C0.53125,11.2732422 0.726757812,11.46875 0.96875,11.46875 L11.03125,11.46875 C11.2732422,11.46875 11.46875,11.2732422 11.46875,11.03125 L11.46875,1.953125 C11.46875,1.71113281 11.2732422,1.515625 11.03125,1.515625 Z M10.484375,10.484375 L1.515625,10.484375 L1.515625,5.2890625 L10.484375,5.2890625 L10.484375,10.484375 Z M1.515625,4.359375 L1.515625,2.5 L3.265625,2.5 L3.265625,3.15625 C3.265625,3.21640625 3.31484375,3.265625 3.375,3.265625 L4.140625,3.265625 C4.20078125,3.265625 4.25,3.21640625 4.25,3.15625 L4.25,2.5 L7.75,2.5 L7.75,3.15625 C7.75,3.21640625 7.79921875,3.265625 7.859375,3.265625 L8.625,3.265625 C8.68515625,3.265625 8.734375,3.21640625 8.734375,3.15625 L8.734375,2.5 L10.484375,2.5 L10.484375,4.359375 L1.515625,4.359375 Z" id="fill"></path>
                    </g>
                </g>
            </g>
        </g>
    </g>
</svg>