<?xml version="1.0" encoding="UTF-8"?>
<svg width="13px" height="13px" viewBox="0 0 13 13" version="1.1" xmlns="http://www.w3.org/2000/svg" xmlns:xlink="http://www.w3.org/1999/xlink">
    
    <g id="-界面合集" stroke="none" stroke-width="1" fill="none" fill-rule="evenodd">
        <g id="01-销售订单详情" transform="translate(-208.000000, -506.000000)" fill-rule="nonzero">
            <g id="编组-9" transform="translate(41.000000, 342.000000)">
                <g id="库存备份" transform="translate(167.500000, 164.500000)">
                    <rect id="矩形" fill="#000000" opacity="0" x="0" y="0" width="12" height="12"></rect>
                    <path d="M10.6666719,5.33332812 C10.6666719,4.96514062 10.9651406,4.66667187 11.3333281,4.66667187 C11.7015156,4.66667187 12,4.96514062 12,5.33332812 L12,10.6666719 C12,11.4030469 11.4030469,12 10.6666719,12 L1.33332812,12 C0.596953125,12 0,11.4030469 0,10.6666719 L0,5.33332812 C0,4.96514062 0.298484375,4.66667187 0.666671875,4.66667187 C1.03485937,4.66667187 1.33332812,4.96514062 1.33332812,5.33332812 L1.33332812,10.6666719 L10.6666719,10.6666719 L10.6666719,5.33332812 Z M2.07060938,2.66667187 L9.8940625,2.66667187 L8.71082812,1.36451563 C8.69278148,1.34465599 8.6671938,1.33332812 8.64035938,1.33332812 L3.27996875,1.33332812 C3.2525,1.33332812 3.226375,1.34520312 3.20828125,1.365875 L2.07060938,2.66665625 L2.07060938,2.66667187 Z M0.16484375,2.820375 L2.20465625,0.48809375 C2.47593451,0.177921255 2.86793342,0 3.28,0 L8.64035937,0 C9.04296599,0 9.42688329,0.169879746 9.69764062,0.46784375 L11.8267187,2.8109375 C11.9382157,2.93363549 12,3.09347549 12,3.25926563 L12,3.33332813 C12,3.70151563 11.7015156,4 11.3333281,4 L0.666671875,4 C0.298484375,4 0,3.70151563 0,3.33332813 L0,3.25926563 C0,3.09783055 0.0585674644,2.94187742 0.16484375,2.82035938 L0.16484375,2.820375 Z M4,8 C3.6318125,8 3.33332813,7.70151563 3.33332813,7.33332812 C3.33332813,6.96514062 3.6318125,6.66667187 4,6.66667187 L8,6.66667187 C8.3681875,6.66667187 8.66667187,6.96514062 8.66667187,7.33332812 C8.66667187,7.70151563 8.3681875,8 8,8 L4,8 Z" id="形状" fill="#949496"></path>
                </g>
            </g>
        </g>
    </g>
</svg>