<?xml version="1.0" encoding="UTF-8"?>
<svg width="12px" height="12px" viewBox="0 0 12 12" version="1.1" xmlns="http://www.w3.org/2000/svg" xmlns:xlink="http://www.w3.org/1999/xlink">
    <title></title>
    <g id="-界面合集" stroke="none" stroke-width="1" fill="none" fill-rule="evenodd">
        <g id="02-生产工单备份" transform="translate(-235.000000, -214.000000)" fill-rule="nonzero">
            <g id="编组-12" transform="translate(235.000000, 214.000000)">
                <rect id="矩形" fill="#000000" opacity="0" x="0" y="0" width="12" height="12"></rect>
                <path d="M6,12 C2.68626506,12 0,9.31373542 0,6 C0,2.6862652 2.68626506,0 6,0 C9.31373494,0 12,2.6862652 12,6 C12,9.31373542 9.31373494,12 6,12 Z M6.00578313,10.8795186 C8.69783133,10.8795186 10.8809639,8.69638599 10.8809639,6.00433766 C10.8809639,3.31228933 8.69783133,1.12915668 6.00578313,1.12915668 C3.31373494,1.12915668 1.13060241,3.31228933 1.13060241,6.00433766 C1.13060241,8.69638599 3.31228916,10.8795186 6.00578313,10.8795186 L6.00578313,10.8795186 Z M4.12481928,3.74891586 L7.87518072,3.74891586 C8.08192771,3.74891586 8.24963855,3.91662671 8.24963855,4.12337371 L8.24963855,7.87518113 C8.24963855,8.08192813 8.08192771,8.24963898 7.87518072,8.24963898 L4.12481928,8.24963898 C3.91807229,8.24963898 3.75036145,8.08192813 3.75036145,7.87518113 L3.75036145,4.12481949 C3.75036145,3.91662671 3.91807229,3.74891586 4.12481928,3.74891586 Z" id="形状" fill="#979797"></path>
            </g>
        </g>
    </g>
</svg>