<?xml version="1.0" encoding="UTF-8"?>
<svg width="14px" height="14px" viewBox="0 0 14 14" version="1.1" xmlns="http://www.w3.org/2000/svg" xmlns:xlink="http://www.w3.org/1999/xlink">
    <!-- Generator: Sketch 55.2 (78181) - https://sketchapp.com -->
    <title>icon_dianzibiaoqiantaizhangcopy</title>
    <desc>Created with Sketch.</desc>
    <g id="页面1" stroke="none" stroke-width="1" fill="none" fill-rule="evenodd">
        <g id="02-表单模板" transform="translate(-54.000000, -632.000000)" fill="#919CAE" fill-rule="nonzero">
            <g id="icon_dianzibiaoqiantaizhangcopy" transform="translate(54.000000, 632.000000)">
                <path d="M8.52853261,2.8763587 C7.83288043,3.57201087 7.83288043,4.70244565 8.52853261,5.44157609 C9.22418478,6.13722826 10.3546196,6.13722826 11.09375,5.44157609 C11.7894022,4.74592391 11.7894022,3.61548913 11.09375,2.8763587 C10.3546196,2.18070652 9.22418478,2.18070652 8.52853261,2.8763587 Z M10.4415761,4.78940217 C10.2159551,5.01463484 9.88731252,5.10239103 9.57944482,5.01961386 C9.27157712,4.93683668 9.03125674,4.69610195 8.94901003,4.38809211 C8.86676332,4.08008227 8.95508553,3.75159135 9.18070652,3.5263587 C9.52948635,3.1781792 10.0944835,3.17866585 10.442663,3.52744567 C10.7908425,3.87622549 10.7903559,4.44122265 10.4415761,4.78940217 Z M13.09375,0.00679347826 L7.26766304,0.00679347826 C6.78940217,0.00679347826 6.70244565,0.224184783 6.26766304,0.658967391 L0.528532609,6.39809783 C-0.167119565,7.09375 -0.167119565,8.22418478 0.528532609,8.96331522 L5.00679348,13.3980978 C5.70244565,14.09375 6.83288043,14.09375 7.57201087,13.3980978 L13.3111413,7.65896739 C13.6589674,7.3111413 13.9633152,7.09375 13.9633152,6.65896739 L13.9633152,0.832880435 C13.919837,0.398097826 13.5285326,0.00679347826 13.09375,0.00679347826 Z M6.91983696,12.7459239 C6.75266975,12.9131906 6.52588265,13.0071684 6.28940217,13.0071684 C6.0529217,13.0071684 5.8261346,12.9131906 5.65896739,12.7459239 L1.18070652,8.3111413 C1.01343984,8.1439741 0.919462032,7.917187 0.919462032,7.68070652 C0.919462032,7.44422604 1.01343984,7.21743894 1.18070652,7.05027174 L1.83288043,6.39809783 L7.57201087,12.1372283 L6.91983696,12.7459239 L6.91983696,12.7459239 Z M13.09375,6.22418478 C13.09375,6.44157609 12.8763587,6.78940217 12.6589674,7.00679348 L8.18070652,11.4850543 L2.44157609,5.74592391 L6.91983696,1.3111413 C7.13722826,1.09375 7.44157609,0.832880435 7.70244565,0.832880435 L12.7024457,0.832880435 C12.919837,0.832880435 13.1372283,1.00679348 13.1372283,1.26766304 L13.1372283,6.22418478 L13.09375,6.22418478 L13.09375,6.22418478 Z" id="形状"></path>
            </g>
        </g>
    </g>
</svg>