<?xml version="1.0" encoding="UTF-8"?>
<svg width="16px" height="16px" viewBox="0 0 16 16" version="1.1" xmlns="http://www.w3.org/2000/svg" xmlns:xlink="http://www.w3.org/1999/xlink">
    <!-- Generator: Sketch 55.2 (78181) - https://sketchapp.com -->
    <title>删除备份 2</title>
    <desc>Created with Sketch.</desc>
    <g id="3.0" stroke="none" stroke-width="1" fill="none" fill-rule="evenodd">
        <g id="02-工艺路线-新增" transform="translate(-477.000000, -506.000000)">
            <g id="编组-7" transform="translate(390.000000, 505.000000)">
                <g id="删除" transform="translate(87.000000, 1.000000)">
                    <g id="shanchu-3">
                        <path d="M8,0 C12.424,0 16,3.576 16,8 C16,12.424 12.424,16 8,16 C3.576,16 0,12.424 0,8 C0,3.576 3.576,0 8,0 Z" id="路径" fill="#D4524C" fill-rule="nonzero"></path>
                        <path d="M4.8,7.464 L11.2,7.464 C11.52,7.464 11.736,7.68 11.736,8 C11.736,8.32 11.52,8.536 11.2,8.536 L4.8,8.536 C4.48,8.536 4.264,8.32 4.264,8 C4.264,7.68 4.48,7.464 4.8,7.464 Z" id="路径" fill="#FFFFFF" fill-rule="nonzero"></path>
                    </g>
                </g>
            </g>
        </g>
    </g>
</svg>