<?xml version="1.0" encoding="UTF-8"?>
<svg width="24px" height="24px" viewBox="0 0 12 12" version="1.1" xmlns="http://www.w3.org/2000/svg" xmlns:xlink="http://www.w3.org/1999/xlink">
    <title></title>
    <g id="-界面合集" stroke="none" stroke-width="1" fill="none" fill-rule="evenodd">
        <g id="01-到货记录-到货记录" transform="translate(-1422.000000, -421.000000)">
            <g id="删除2备份" transform="translate(1422.000000, 421.000000)">
                <rect id="矩形" x="0" y="0" width="24" height="24"></rect>
                <path d="M1.67799153,12 L10.3220593,12 L10.3220593,2.99453552 L1.67799153,2.99453552 L1.67799153,12 Z M2.69494068,10.9508197 L9.30511017,10.9508197 L9.30511017,4.04371585 L2.69494068,4.04371585 L2.69494068,10.9508197 Z M5.06779661,0 L5.06779661,0.983606557 L1,0.983606557 L1,2.03278689 L11,2.03278689 L11,0.983606557 L6.93228814,0.983606557 L6.93228814,0 L5.06779661,0 Z M4.22036441,9.07103825 L5.23731356,9.07103825 L5.23731356,5.92349727 L4.22036441,5.92349727 L4.22036441,9.07103825 Z M6.76273729,9.07103825 L7.77968644,9.07103825 L7.77968644,5.92349727 L6.76273729,5.92349727 L6.76273729,9.07103825 Z" id="删除" fill-opacity="0.4" fill="#000000"></path>
            </g>
        </g>
    </g>
</svg>