<?xml version="1.0" encoding="UTF-8"?>
<svg width="13px" height="9px" viewBox="0 0 13 9" version="1.1" xmlns="http://www.w3.org/2000/svg" xmlns:xlink="http://www.w3.org/1999/xlink">
    <title></title>
    <g id="-界面合集" stroke="none" stroke-width="1" fill="none" fill-rule="evenodd">
        <g id="资源视图备份" transform="translate(-1318.000000, -544.000000)" fill="#333333" fill-rule="nonzero" stroke="#333333" stroke-width="0.1">
            <g id="编组-2备份-3" transform="translate(1090.000000, 476.000000)">
                <g id="编组-3备份" transform="translate(140.000000, 31.000000)">
                    <path d="M99.5325485,37.9501716 C99.5361224,37.9520722 99.539716,37.9539903 99.5433294,37.955926 C100.016941,38.2096465 100.05,38.3479359 100.05,38.4802817 C100.05,38.6171286 99.9985188,38.753882 99.8962507,38.856147 L99.8962507,38.856147 L93.3585419,45.5183835 L89.1040813,42.3269047 C89.0014812,42.2243045 88.95,42.0875511 88.95,41.9507042 C88.95,41.8138574 89.0014812,41.6771039 89.1040813,41.5745038 C89.2066814,41.4719037 89.3434348,41.4204225 89.4802817,41.4204225 C89.6171286,41.4204225 89.753882,41.4719037 89.8546152,41.5727307 L89.8546152,41.5727307 L92.9795634,44.3913114 L99.1435179,38.1040813 C99.5239697,37.95 99.528221,37.9500497 99.5325485,37.9501716 Z" id="路径备份-14"></path>
                </g>
            </g>
        </g>
    </g>
</svg>