<?xml version="1.0" encoding="UTF-8"?>
<svg width="16px" height="16px" viewBox="0 0 16 16" version="1.1" xmlns="http://www.w3.org/2000/svg" xmlns:xlink="http://www.w3.org/1999/xlink">
    <title></title>
    <g id="-界面合集" stroke="none" stroke-width="1" fill="none" fill-rule="evenodd">
        <g id="资源视图（操作）" transform="translate(-745.000000, -587.000000)">
            <g id="编组" transform="translate(745.000000, 587.000000)">
                <g id="faxian" transform="translate(1.000000, 1.000000)" fill="#595757" fill-rule="nonzero">
                    <path d="M7,0 C5.90713516,0 4.86043285,0.244952836 3.88910064,0.728263623 C3.66278131,0.847492471 3.57301155,1.12557344 3.68689867,1.35462732 C3.8007858,1.58368121 4.07668447,1.67994938 4.30834684,1.57146665 C5.14872349,1.15410471 6.05410686,0.942126291 7,0.942126291 C10.3398394,0.942126291 13.0578737,3.65921852 13.0578737,7 C13.0578737,10.3407782 10.3407815,13.0578704 7,13.0578704 C3.65922183,13.0578704 0.942129603,10.339836 0.942129603,7 C0.942129603,6.2745611 1.06931665,5.56514 1.31898012,4.8915197 C1.40467001,4.64880243 1.27979683,4.3822253 1.03847059,4.29269275 C0.797144355,4.2031602 0.528618295,4.32378538 0.435265658,4.56365976 C0.146586343,5.34346397 -0.00080556374,6.16847582 0,7 C0,10.8598898 3.14011024,14 7,14 C10.8598931,14 14,10.8598898 14,7 C14,3.14010693 10.8598931,0 7,0 L7,0 Z" id="路径"></path>
                    <path d="M5.7187099,6.48465526 C5.65464531,6.64387461 5.61790239,6.81816797 5.61790239,6.99999834 C5.61790239,7.76217851 6.23782149,8.38209761 7.00000166,8.38209761 C7.76218183,8.38209761 8.38210092,7.76217851 8.38210092,6.99999834 C8.38210092,6.23781817 7.76218183,5.61789908 7.00000166,5.61789908 C6.76352796,5.61789908 6.54118615,5.67725303 6.34616601,5.78277118 L2.05666501,1.94360654 C1.96359799,1.86025712 1.8412272,1.81730119 1.71648303,1.82419216 C1.59173885,1.83108313 1.47484402,1.88725628 1.39152384,1.98034946 C1.30817443,2.07341647 1.2652185,2.19578727 1.27210947,2.32053144 C1.27900043,2.44527562 1.33517358,2.56217044 1.42826677,2.64549063 L5.7187099,6.48465526 Z M7.43997463,6.99999834 C7.43997463,7.24306693 7.24212811,7.43997132 7.00000166,7.43997132 C6.7578752,7.43997132 6.56002868,7.2421248 6.56002868,6.99999834 C6.56002868,6.75787189 6.7578752,6.56002537 7.00000166,6.56002537 C7.24212811,6.56002537 7.43997463,6.75692976 7.43997463,6.99999834 Z" id="形状"></path>
                </g>
                <rect id="矩形" x="0" y="0" width="16" height="16"></rect>
            </g>
        </g>
    </g>
</svg>