<?xml version="1.0" encoding="UTF-8"?>
<svg width="13px" height="13px" viewBox="0 0 13 13" version="1.1" xmlns="http://www.w3.org/2000/svg" xmlns:xlink="http://www.w3.org/1999/xlink">
    <title></title>
    <g id="-界面合集" stroke="none" stroke-width="1" fill="none" fill-rule="evenodd">
        <g id="02-生产工单备份" transform="translate(-1355.000000, -378.000000)" fill="#7B7B7C" fill-rule="nonzero">
            <g id="编组-16" transform="translate(1354.000000, 378.943632)">
                <g id="编组-3" transform="translate(1.988842, 0.000000)">
                    <path d="M6.00147057,12.0027773 C4.398431,12.0027773 2.89141976,11.3785248 1.75788392,10.2450709 C0.62425246,9.11145311 0,7.60434627 0,6.0013067 C0,4.39825347 0.62425246,2.89125588 1.7578839,1.75772004 C2.89124223,0.624266112 4.398431,0 6.00147057,0 C7.60434627,0 9.11152139,0.62425246 10.2450709,1.75770638 C12.5850651,4.09778255 12.5848876,7.90517224 10.2450709,10.2449753 C9.11152138,11.3785248 7.6045238,12.0027773 6.00147057,12.0027773 Z M6.00147057,1.07676825 C4.6860244,1.07676825 3.44924989,1.58902862 2.51918706,2.51910512 C1.58902862,3.44926354 1.0767546,4.68594245 1.0767546,6.0013067 C1.0767546,7.31676654 1.58902862,8.55343179 2.5191734,9.48368581 C3.44942743,10.4137486 4.68601075,10.926009 6.00145692,10.926009 C7.31691676,10.926009 8.55350008,10.4137486 9.48375411,9.4835902 C11.4038292,7.56359703 11.4038292,4.43934408 9.48375411,2.51909144 C8.55351373,1.58902862 7.31676654,1.07676825 6.00147057,1.07676825 Z M6.0081483,6.77477725 C5.71073631,6.77477725 5.46976418,6.53372319 5.46976418,6.23640678 L5.46976418,3.23886698 C5.46976418,2.94155057 5.71073632,2.70048286 6.00814832,2.70048286 C6.30554665,2.70048286 6.54653244,2.94155057 6.54653244,3.23886698 L6.54653244,6.23640678 C6.54651877,6.53372319 6.30554665,6.77477725 6.0081483,6.77477725 Z M4.4117455,8.48823849 C4.27399836,8.48823849 4.13625124,8.43566325 4.03110076,8.33060837 C3.8207998,8.12030741 3.8207998,7.77942866 4.03110076,7.56920964 L5.62747625,5.97264296 C5.83743582,5.762342 6.17847844,5.76242393 6.38877939,5.97256102 C6.59908035,6.18286198 6.59908035,6.52372707 6.38877939,6.73395975 L4.7924039,8.33051276 C4.68743095,8.43566325 4.54950629,8.48823849 4.4117455,8.48823849 Z" id="形状"></path>
                </g>
            </g>
        </g>
    </g>
</svg>