<?xml version="1.0" encoding="UTF-8"?>
<svg width="12px" height="12px" viewBox="0 0 12 12" version="1.1" xmlns="http://www.w3.org/2000/svg" xmlns:xlink="http://www.w3.org/1999/xlink">
    <title>单行文本备份 21</title>
    <g id="-界面合集" stroke="none" stroke-width="1" fill="none" fill-rule="evenodd">
        <g id="01-表单模版" transform="translate(-46.000000, -461.000000)" fill="#999999">
            <g id="ziyuan" transform="translate(46.000000, 461.000000)">
                <path d="M6,10.92 C4.88976,10.92 3.8646,10.55004 3.04044,9.92748 L6.54,6.21432 L6.54,1.11024 C8.99964,1.38012 10.92,3.46968 10.92,6 C10.92,8.71284 8.71284,10.92 6,10.92 M1.08,6 C1.08,3.46968 3.00036,1.38012 5.46,1.11024 L5.46,5.78568 L2.25528,9.18588 C1.52316,8.3268 1.08,7.21452 1.08,6 M6,0 C2.6916,0 0,2.6916 0,6 C0,9.3084 2.6916,12 6,12 C9.3084,12 12,9.3084 12,6 C12,2.6916 9.3084,0 6,0" transform="translate(6.000000, 6.000000) scale(-1, 1) translate(-6.000000, -6.000000) "></path>
            </g>
        </g>
    </g>
</svg>