<?xml version="1.0" encoding="UTF-8"?>
<svg width="12px" height="12px" viewBox="0 0 12 12" version="1.1" xmlns="http://www.w3.org/2000/svg" xmlns:xlink="http://www.w3.org/1999/xlink">
    <title>注意</title>
    <g id="-界面合集" stroke="none" stroke-width="1" fill="none" fill-rule="evenodd">
        <g id="编辑打印模板" transform="translate(-488.000000, -563.000000)" fill-rule="nonzero">
            <g id="注意" transform="translate(488.000000, 563.000000)">
                <rect id="矩形" fill="#000000" opacity="0" x="0" y="0" width="12" height="12"></rect>
                <path d="M6,12 C2.69179687,12 0,9.30867187 0,6 C0,2.69183203 2.69179687,0 6,0 C9.30864844,0 12,2.69135156 12,6 C12,9.30867187 9.30864844,12 6,12 Z M6,0.860953125 C3.16618359,0.860953125 0.860941406,3.16618359 0.860941406,6.00001172 C0.860941406,8.83342969 3.16618359,11.1390586 5.99998828,11.1390586 C8.83341797,11.1390586 11.1390586,8.83381641 11.1390586,6.00001172 C11.1390586,3.16618359 8.83341797,0.860953125 5.99998828,0.860953125 L6,0.860953125 Z M5.35429687,3.20191406 C5.35429687,3.03284766 5.42387109,2.86483594 5.54341406,2.74533984 C5.66296875,2.62580859 5.83092187,2.55616406 5.99998828,2.55616406 C6.16907812,2.55616406 6.33701953,2.62579688 6.45658594,2.74533984 C6.57611719,2.86483594 6.64569141,3.03284766 6.64569141,3.20191406 C6.64569141,3.37093359 6.57612891,3.53894531 6.45658594,3.65851172 C6.33703125,3.77804297 6.16907812,3.84761719 5.99998828,3.84761719 C5.83092187,3.84761719 5.66296875,3.77805469 5.54342578,3.65851172 C5.42387109,3.53894531 5.35429687,3.37093359 5.35429687,3.20191406 L5.35429687,3.20191406 Z M6,9.44384766 C5.76234375,9.44384766 5.5695,9.25137891 5.5695,9.01333594 L5.5695,5.13907031 C5.5695,4.90141406 5.76235547,4.70855859 5.99998828,4.70855859 C6.23764453,4.70855859 6.4305,4.90141406 6.4305,5.13907031 L6.4305,9.01333594 C6.4305,9.25137891 6.23764453,9.44384766 5.99998828,9.44384766 L6,9.44384766 Z" id="形状" fill="#999999"></path>
            </g>
        </g>
    </g>
</svg>