<?xml version="1.0" encoding="UTF-8"?>
<svg width="80px" height="69px" viewBox="0 0 80 69" version="1.1" xmlns="http://www.w3.org/2000/svg" xmlns:xlink="http://www.w3.org/1999/xlink">
    <title>数据</title>
    <g id="-界面合集" stroke="none" stroke-width="1" fill="none" fill-rule="evenodd">
        <g id="01-首页备份-3" transform="translate(-985.000000, -190.000000)" fill-rule="nonzero">
            <g id="数据" transform="translate(750.000000, 157.000000)">
                <g transform="translate(235.000000, 33.000000)">
                    <rect id="矩形" fill="#000000" opacity="0" x="0" y="0" width="80" height="69"></rect>
                    <path d="M67.0887186,23.9894857 C69.8000822,23.9894857 72,26.2133941 72,28.9543258 L72,62.0351599 C72,64.7760916 69.8000822,67 67.0887186,67 L60.546571,67 C57.8352073,67 55.6345111,64.7760916 55.6345111,62.0351599 L55.6345111,28.9480302 C55.6345111,26.2070985 57.8344289,23.9824032 60.546571,23.9824032 L67.0887186,23.9824032 L67.0887186,23.9894857 Z M21.2726671,30.6029769 C23.9840308,30.6029769 26.1839486,32.8268853 26.1839486,35.567817 L26.1839486,62.0288644 C26.1839486,64.769796 23.9840308,66.9944914 21.2726671,66.9944914 L14.7305195,66.9944914 C12.0191559,66.9944914 9.81923812,64.770583 9.81923812,62.0288644 L9.81923812,35.5615214 C9.81923812,32.8205898 12.0191559,30.5958944 14.7305195,30.5958944 L21.2726671,30.5958944 L21.2726671,30.6029769 Z M44.1803036,37.2164681 C46.8916673,37.2164681 49.0915851,39.4403765 49.0915851,42.1813082 L49.0915851,62.0288644 C49.0915851,64.769796 46.8916673,66.9944914 44.1803036,66.9944914 L37.638156,66.9944914 C34.9267924,66.9944914 32.7260962,64.770583 32.7260962,62.0288644 L32.7260962,42.1813082 C32.7260962,39.4403765 34.9260139,37.2164681 37.638156,37.2164681 L44.1803036,37.2164681 L44.1803036,37.2164681 Z M61.1218503,5.00520894 L57.2583711,5.03117815 C55.9054139,5.03826066 54.7992274,3.93889759 54.7867721,2.56489049 C54.7735383,1.20426147 55.8672696,0.0860117094 57.2202268,0.0726336334 L67.0684787,0.000115096345 C67.7029207,-0.00606093118 68.3373626,0.236318328 68.822341,0.726585465 C69.0621055,0.968964724 69.2427074,1.24990432 69.3594759,1.54422199 C69.4692382,1.80548795 69.5408562,2.13285734 69.5408562,2.47990036 L69.5408562,12.4497148 C69.5408562,13.8174263 68.4408973,14.9293805 67.0887186,14.9293805 C65.7365398,14.9293805 64.6358025,13.8174263 64.6358025,12.4497148 L64.6358025,8.47249146 L42.6467445,30.7005582 C41.9282293,31.426909 40.8415041,31.629941 39.9159195,31.210499 L10.4599077,17.9835165 C9.22371897,17.427146 8.66089499,15.9618532 9.21126367,14.7058879 C9.76085389,13.4562182 11.2111182,12.8872565 12.4535346,13.4436271 L40.3635319,25.983606 L61.1218503,5.00520894 Z" id="形状" fill-opacity="0.0998688811" fill="#FF7474"></path>
                </g>
            </g>
        </g>
    </g>
</svg>