<?xml version="1.0" encoding="UTF-8"?>
<svg width="14px" height="13px" viewBox="0 0 14 13" version="1.1" xmlns="http://www.w3.org/2000/svg" xmlns:xlink="http://www.w3.org/1999/xlink">
    <g id="页面-1" stroke="none" stroke-width="1" fill="none" fill-rule="evenodd">
        <g id="打印模板添加" transform="translate(-913.000000, -79.000000)" fill="#000000" fill-rule="nonzero">
            <g id="硬朗商务风格图标-41" transform="translate(913.909091, 79.000000)">
                <rect id="矩形" opacity="0" x="-0.333333333" y="0" width="13" height="13"></rect>
                <path d="M1.66666667,12 L1.66666667,2 L11.6666667,2 L11.6666667,12 L1.66666667,12 Z M11.0416667,2.625 L2.29166667,2.625 L2.29166667,11.375 L11.0416667,11.375 L11.0416667,2.625 Z M5.72916667,6.0625 L4.47916667,6.0625 L4.47916667,4.8125 L5.72916667,4.8125 L5.72916667,6.0625 Z M5.72916667,9.1875 L4.47916667,9.1875 L4.47916667,7.9375 L5.72916667,7.9375 L5.72916667,9.1875 Z M8.85416667,6.0625 L7.60416667,6.0625 L7.60416667,4.8125 L8.85416667,4.8125 L8.85416667,6.0625 Z M8.85416667,9.1875 L7.60416667,9.1875 L7.60416667,7.9375 L8.85416667,7.9375 L8.85416667,9.1875 Z" id="形状"></path>
            </g>
        </g>
    </g>
</svg>