<?xml version="1.0" encoding="UTF-8"?>
<svg width="14px" height="13px" viewBox="0 0 14 13" version="1.1" xmlns="http://www.w3.org/2000/svg" xmlns:xlink="http://www.w3.org/1999/xlink">
    <g id="页面-1" stroke="none" stroke-width="1" fill="none" fill-rule="evenodd">
        <g id="打印模板添加" transform="translate(-942.000000, -79.000000)" fill="#000000" fill-rule="nonzero">
            <g id="合并" transform="translate(942.909091, 79.000000)">
                <rect id="矩形" opacity="0" x="-0.166666667" y="0" width="13" height="13"></rect>
                <path d="M6.45707071,6.95454545 L4.55176768,5.4469697 C4.51388889,5.41666667 4.45959596,5.44444444 4.45959596,5.49242424 L4.45959596,6.57070707 L2.69191919,6.57070707 L2.69191919,2.85858586 L5.26767677,2.85858586 L5.26767677,4.47474747 C5.26767677,4.50252525 5.29040404,4.52525253 5.31818182,4.52525253 L6.07575758,4.52525253 C6.10353535,4.52525253 6.12626263,4.50252525 6.12626263,4.47474747 L6.12626263,2.35353535 C6.12626263,2.15782828 5.96843434,2 5.77272727,2 L2.18686869,2 C1.99116162,2 1.83333333,2.15782828 1.83333333,2.35353535 L1.83333333,11.6464646 C1.83333333,11.8421717 1.99116162,12 2.18686869,12 L5.77272727,12 C5.96843434,12 6.12626263,11.8421717 6.12626263,11.6464646 L6.12626263,9.52525253 C6.12626263,9.49747475 6.10353535,9.47474747 6.07575758,9.47474747 L5.31818182,9.47474747 C5.29040404,9.47474747 5.26767677,9.49747475 5.26767677,9.52525253 L5.26767677,11.1414141 L2.69191919,11.1414141 L2.69191919,7.42929293 L4.45959596,7.42929293 L4.45959596,8.50757576 C4.45959596,8.55555556 4.51515152,8.58333333 4.55176768,8.5530303 L6.45707071,7.04545455 C6.48737374,7.02272727 6.48737374,6.97727273 6.45707071,6.95454545 L6.45707071,6.95454545 Z M11.479798,2 L7.89393939,2 C7.69823232,2 7.54040404,2.15782828 7.54040404,2.35353535 L7.54040404,4.47474747 C7.54040404,4.50252525 7.56313131,4.52525253 7.59090909,4.52525253 L8.34848485,4.52525253 C8.37626263,4.52525253 8.3989899,4.50252525 8.3989899,4.47474747 L8.3989899,2.85858586 L10.9747475,2.85858586 L10.9747475,6.57070707 L9.20707071,6.57070707 L9.20707071,5.49242424 C9.20707071,5.44444444 9.15277778,5.41666667 9.11489899,5.4469697 L7.20833333,6.95454545 C7.17929293,6.97727273 7.17929293,7.02146465 7.20833333,7.04419192 L9.11489899,8.5530303 C9.15151515,8.58207071 9.20707071,8.55555556 9.20707071,8.50757576 L9.20707071,7.42929293 L10.9747475,7.42929293 L10.9747475,11.1414141 L8.3989899,11.1414141 L8.3989899,9.52525253 C8.3989899,9.49747475 8.37626263,9.47474747 8.34848485,9.47474747 L7.59090909,9.47474747 C7.56313131,9.47474747 7.54040404,9.49747475 7.54040404,9.52525253 L7.54040404,11.6464646 C7.54040404,11.8421717 7.69823232,12 7.89393939,12 L11.479798,12 C11.6755051,12 11.8333333,11.8421717 11.8333333,11.6464646 L11.8333333,2.35353535 C11.8333333,2.15782828 11.6755051,2 11.479798,2 Z" id="形状"></path>
            </g>
        </g>
    </g>
</svg>