<?xml version="1.0" encoding="UTF-8"?>
<svg width="17px" height="16px" viewBox="0 0 17 16" version="1.1" xmlns="http://www.w3.org/2000/svg" xmlns:xlink="http://www.w3.org/1999/xlink">
    <g id="页面-1" stroke="none" stroke-width="1" fill="none" fill-rule="evenodd">
        <g id="打印模板添加" transform="translate(-748.000000, -79.000000)" fill-rule="nonzero">
            <g id="居中对齐" transform="translate(756.909091, 87.000000) rotate(-270.000000) translate(-756.909091, -87.000000) translate(748.909091, 79.000000)">
                <rect id="矩形" fill="#000000" opacity="0" x="0" y="0" width="16" height="16"></rect>
                <path d="M12.6861158,8.36735273 L8.04968768,8.36735273 L8.04968768,6.63420866 L10.4904884,6.63420866 C10.6325951,6.63420866 10.7481545,6.5217885 10.7481545,6.38438609 L10.7481545,3.88303762 C10.7481545,3.74407381 10.6325951,3.63321505 10.4904884,3.63321505 L8.04968768,3.63321505 L8.04968768,2.24982257 C8.04968768,2.11085877 7.93725156,2 7.79982964,2 L7.20017036,2 C7.06118683,2 6.95031232,2.11242016 6.95031232,2.24982257 L6.95031232,3.63321505 L4.50795003,3.63321505 C4.36584327,3.63321505 4.25028393,3.7456352 4.25028393,3.88303762 L4.25028393,6.3828247 C4.25028393,6.5217885 4.36584327,6.63264727 4.50795003,6.63264727 L6.94875071,6.63264727 L6.94875071,8.36735273 L2.31388416,8.36735273 C2.14054514,8.36735273 2,8.47977289 2,8.6171753 L2,11.1169624 C2,11.2559262 2.14054514,11.366785 2.31388416,11.366785 L6.95031232,11.366785 L6.95031232,12.7501774 C6.95031232,12.8891412 7.06274844,13 7.20017036,13 L7.79982964,13 C7.93881317,13 8.04968768,12.8875798 8.04968768,12.7501774 L8.04968768,11.366785 L12.6861158,11.366785 C12.8594549,11.366785 13,11.2543648 13,11.1169624 L13,8.61873669 C13,8.47977289 12.8594549,8.36735273 12.6861158,8.36735273 Z" id="路径" fill="#231815"></path>
            </g>
        </g>
    </g>
</svg>