<?xml version="1.0" encoding="UTF-8"?>
<svg width="13px" height="12px" viewBox="0 0 13 12" version="1.1" xmlns="http://www.w3.org/2000/svg" xmlns:xlink="http://www.w3.org/1999/xlink">
    <g id="页面-1" stroke="none" stroke-width="1" fill="none" fill-rule="evenodd">
        <g id="打印模板添加" transform="translate(-619.000000, -80.000000)" fill="#000000" fill-rule="nonzero">
            <g id="加粗-选中" transform="translate(619.909091, 80.000000)">
                <rect id="矩形" opacity="0" x="0" y="0" width="12" height="12"></rect>
                <path d="M0,1.49554521 C0,0.669578402 0.670885313,0 1.49554521,0 L10.5044548,0 C11.3304216,0 12,0.670885313 12,1.49554521 L12,10.5044548 C12,11.3304216 11.3291147,12 10.5044548,12 L1.49554521,12 C0.669578402,12 0,11.3291147 0,10.5044548 L0,1.49554521 Z M3.01890756,2.4180602 L3.01890756,9.58193978 L6.49047947,9.58193978 C6.8115513,9.58193978 7.12425722,9.54180645 7.42860656,9.46153845 C7.73295593,9.38127053 8.00385622,9.25752593 8.2413156,9.09030097 C8.47877497,8.9230761 8.66773628,8.70735915 8.8082052,8.44314382 C8.94867413,8.17892843 9.01890756,7.86622253 9.01890756,7.50501675 C9.01890756,7.05685395 8.910213,6.67391463 8.69282062,6.35618729 C8.47542825,6.03845995 8.14600005,5.81605414 7.70452628,5.68896321 C8.02559813,5.53511629 8.26807065,5.33779384 8.43195105,5.09698997 C8.59583145,4.85618609 8.67777045,4.55518575 8.67777045,4.19397993 C8.67777045,3.85953009 8.62258703,3.57859645 8.5122186,3.35117057 C8.40185018,3.12374468 8.24633332,2.94147226 8.0456634,2.80434783 C7.84499355,2.66722339 7.60419322,2.56856217 7.32325539,2.50836121 C7.04231753,2.44816024 6.73128384,2.4180602 6.39014502,2.4180602 L3.01890756,2.4180602 Z M4.5941584,5.31772575 L4.5941584,3.64214047 L6.06907479,3.64214047 C6.20954372,3.64214047 6.34499386,3.65384604 6.4754293,3.67725752 C6.60586474,3.70066901 6.7212482,3.74247462 6.82158315,3.80267558 C6.92191809,3.86287655 7.00218485,3.94648777 7.06238583,4.0535117 C7.12258679,4.16053566 7.15268682,4.29765803 7.15268682,4.46488295 C7.15268682,4.7658878 7.06238673,4.98327693 6.88178382,5.11705685 C6.70118091,5.25083679 6.47041399,5.31772575 6.18947612,5.31772575 L4.5941584,5.31772575 Z M4.5941584,8.35785953 L4.5941584,6.39130434 L6.30987746,6.39130434 C6.65101629,6.39130434 6.92526104,6.46989888 7.13261994,6.6270903 C7.33997884,6.78428171 7.44365673,7.0468209 7.44365673,7.41471572 C7.44365673,7.60200765 7.41188447,7.75585222 7.348339,7.87625415 C7.28479354,7.99665615 7.19951011,8.0919729 7.09248615,8.16220732 C6.98546222,8.23244182 6.86171763,8.28260857 6.7212487,8.312709 C6.58077977,8.3428095 6.43362405,8.35785953 6.27977713,8.35785953 L4.5941584,8.35785953 Z" id="形状"></path>
            </g>
        </g>
    </g>
</svg>