<?xml version="1.0" encoding="UTF-8"?>
<svg width="13px" height="12px" viewBox="0 0 13 12" version="1.1" xmlns="http://www.w3.org/2000/svg" xmlns:xlink="http://www.w3.org/1999/xlink">
    <g id="页面-1" stroke="none" stroke-width="1" fill="none" fill-rule="evenodd">
        <g id="打印模板添加" transform="translate(-675.000000, -80.000000)" fill="#000000" fill-rule="nonzero">
            <g id="下划线" transform="translate(675.909091, 80.000000)">
                <rect id="矩形" opacity="0" x="0" y="0" width="12" height="12"></rect>
                <path d="M8.76923077,5.07692307 L8.76923077,0 L10.6153846,0 L10.6153846,5.07692307 C10.6153846,7.62592961 8.54900654,9.69230769 6,9.69230769 C3.45099346,9.69230769 1.38461538,7.62592961 1.38461538,5.07692307 L1.38461538,0 L3.23076923,0 L3.23076923,5.07692307 C3.23076923,6.60632699 4.47059608,7.84615384 6,7.84615384 C7.52940392,7.84615384 8.76923077,6.60632699 8.76923077,5.07692307 Z M0.461538457,10.6153846 L11.5384615,10.6153846 L11.5384615,12 L0.461538457,12 L0.461538457,10.6153846 L0.461538457,10.6153846 Z" id="形状"></path>
            </g>
        </g>
    </g>
</svg>