<?xml version="1.0" encoding="UTF-8"?>
<svg width="12px" height="12px" viewBox="0 0 12 12" version="1.1" xmlns="http://www.w3.org/2000/svg" xmlns:xlink="http://www.w3.org/1999/xlink">
    <title>zuzhijiagou</title>
    <g id="页面-1" stroke="none" stroke-width="1" fill="none" fill-rule="evenodd" opacity="0.800000012">
        <g id="状态" transform="translate(-3295, -290)" fill="#333333" fill-rule="nonzero">
            <g id="zuzhijiagou" transform="translate(3295, 290)">
                <path d="M6.75000001,4.68292683 L5.25000001,4.68292683 C4.33873018,4.68292683 3.60000001,3.96221448 3.60000001,3.07317074 L3.60000001,1.6097561 C3.60000001,0.720712355 4.33873017,0 5.25000001,0 L6.75000001,0 C7.66126985,0 8.40000001,0.720712355 8.40000001,1.6097561 L8.40000001,3.07317074 C8.39834889,3.9615464 7.66058505,4.68131599 6.75000001,4.68292683 Z M5.25000001,0.878048793 C4.83578645,0.878048793 4.5,1.20564531 4.5,1.6097561 L4.5,3.07317074 C4.50164429,3.4766152 4.83646945,3.80327388 5.25000001,3.80487805 L6.75000001,3.80487805 C7.16353057,3.80327388 7.49835573,3.4766152 7.5,3.07317074 L7.5,1.6097561 C7.49835573,1.20631165 7.16353057,0.879652961 6.75000001,0.878048793 L5.25000001,0.878048793 Z M3.15,12 L1.65,12 C0.738730164,12 0,11.2792876 0,10.3902439 L0,8.92682927 C0,8.03778553 0.738730164,7.31707317 1.65,7.31707317 L3.15,7.31707317 C4.06126984,7.31707317 4.8,8.03778553 4.8,8.92682927 L4.8,10.3902439 C4.7983489,11.2786196 4.06058505,11.9983892 3.15,12 Z M1.65,8.19512195 C1.23578644,8.19512195 0.899999998,8.52271848 0.899999998,8.92682927 L0.899999998,10.3902439 C0.899999998,10.7943547 1.23578644,11.1219512 1.65,11.1219512 L3.15,11.1219512 C3.56353057,11.1203471 3.89835573,10.7936884 3.9,10.3902439 L3.9,8.92682927 C3.89835573,8.52338481 3.56353057,8.19672612 3.15,8.19512195 L1.65,8.19512195 Z M10.35,12 L8.85,12 C7.93873016,12 7.2,11.2792876 7.2,10.3902439 L7.2,8.92682927 C7.2,8.03778553 7.93873016,7.31707317 8.85,7.31707317 L10.35,7.31707317 C11.2612698,7.31707317 12,8.03778553 12,8.92682927 L12,10.3902439 C11.9983489,11.2786196 11.2605851,11.9983892 10.35,12 L10.35,12 Z M8.85,8.19512195 C8.43578644,8.19512195 8.10000001,8.52271848 8.10000001,8.92682927 L8.10000001,10.3902439 C8.10000001,10.7943547 8.43578644,11.1219512 8.85,11.1219512 L10.35,11.1219512 C10.7635306,11.120347 11.0983557,10.7936884 11.1,10.3902439 L11.1,8.92682927 C11.0983557,8.52338482 10.7635306,8.19672613 10.35,8.19512195 L8.85,8.19512195 Z" id="形状"></path>
                <path d="M2.85,7.70926829 L1.95,7.70926829 L1.95,6.63804879 C1.95,6.07229367 2.42010102,5.61365854 3.00000001,5.61365854 L5.55000001,5.61365854 L5.55000001,4.38731708 L6.45,4.38731708 L6.45,6.49170732 L3.00000001,6.49170732 C2.91715729,6.49170732 2.85,6.55722662 2.85,6.63804879 L2.85,7.70926829 Z" id="路径"></path>
                <path d="M10.05,7.70926829 L9.15,7.70926829 L9.15,6.63804879 C9.14692004,6.55850451 9.08153289,6.49471216 9.00000001,6.49170732 L5.55000001,6.49170732 L5.55000001,4.38731708 L6.45000001,4.38731708 L6.45000001,5.61365854 L9.00000001,5.61365854 C9.579899,5.61365854 10.05,6.07229367 10.05,6.63804879 L10.05,7.70926829 Z" id="路径"></path>
            </g>
        </g>
    </g>
</svg>