<svg width="80" height="80" viewBox="0 0 80 80" xmlns="http://www.w3.org/2000/svg"><g fill="#F4CE42" fill-rule="evenodd"><path d="M49.696 12.003h-.267.267zm-14.46-2.379l.41 1.035c.801-.332 1.27 0 1.601-.644.567.722 1.601.234 2.44.234 0 0-.487-.39-.253-.547.41.156.644 0 .722.313-.566.234-.41-.157-.644 0 .234.546.878.546 1.6.234a1.21 1.21 0 0 1 0-.644c-.234 0-.234 0-.39-.156l-.253-.567a1.171 1.171 0 0 1-1.68 0c-.234 0-.156.41-.156.41-.156-.488-.878 0-1.034.313 0-.703-.879.488-1.406.41-.195-.45-.351-.45-.351-.606 0-.156-.352-.156-.644.215h.039zm5.525 0s.157.254 0 .332a.37.37 0 0 1-.41-.195l.41-.137zm2.284-.703c-.566.235-.644 0-1.21.235.234.566.644 0 .566.722l-.488.156.234.547c.41.156.157-.39.567-.879.234.566.722.332 1.132.488.156-.41-.723-.332-.566-.722 0 0-.235 0-.235-.547zm-8.277 1.035c-.566.156-.254.566-.332.722.074.039.161.039.235 0 0-.234.175-.39 0-.624l.097-.098zm41.835 19.522c.045.681.232 1.346.547 1.952a.605.605 0 0 1 .8.098c-.234.156-.41-.098-.8.312.332.8 0 1.405.41 2.206.41 0 .644-.156.8 0-.234.156 0 .41 0 .8-1.054.469-.566 1.484-.097 2.597-.39.332.331.8-.313.956.313.41.41 0 .566.234-.156.098 0 .332 0 .41.332 0 .8-.8 1.133-.468.012-.273.065-.543.156-.8-.234.156-.41.312-.644.156l.41-.332a21.474 21.474 0 0 0-.332-4.432c-.8.313-.313-.8-1.113-.956.234-.156 0-.41.234-.566.156.644.313.41.8 0a1.21 1.21 0 0 1-.312-1.386.41.41 0 0 1-.332.156c-.156-.254 0-.41.488-.722a8.258 8.258 0 0 1-.956-2.44c-.41.331 0 .8-.332.956-.312-.41 0-.41-.156-.644a.82.82 0 0 0-.644.156.84.84 0 0 1 .39-1.074h.176a.273.273 0 0 0 0 .39c.41-.312.234-.546.488-.702-.566-.254-.332-.8-.644-1.289-.41.332-.645.157-.8.332 0-.41 0-.41.468-.722l-.313-.488c.39 0 .235-.156.39-.312a7.965 7.965 0 0 1-1.19-2.285c-.254.157-.644.157-.8.332l-.332-.41-.645.547c.332.41.567.254.723.488l-.41.332a24.597 24.597 0 0 1 1.952 4.939l.234-.156c-.41.332.566.644 0 .8.153.127.296.264.43.41.097-.117.156-.234.273 0l.156.234a.527.527 0 0 1-.39 0v.39h-.469zm1.562 3.201l.312.39-.41.41c0-.429-.156-.663 0-.82l.098.02zm-2.284-7.164c-.156-.234-.332-.41-.156-.644a.273.273 0 0 0 .39 0c-.156.136 0 .37-.234.527v.117zm-.644-1.269c-.156-.644.468-.722.956-1.132.469.624-.488.78-.976 1.093l.02.039zm1.952 5.993c.156.254.644-.156.8 0l-.488.312c0-.41-.41 0-.722-.468.273-.195.273-.195.41 0v.156z" fill-rule="nonzero"/><path d="M35.905 9.48v-.266a.394.394 0 0 0 0 .267zm-3.226 1.57a23.93 23.93 0 0 1 1.699-.41l-.43-.88c-.956.273-1.927.488-2.908.645-.157.41 0 .644-.567.879l-.234-.547-.566.234c.488.41 0 .234.234.566.254 0 .957.235 1.054-.41.488.41 1.406-.234 1.718 0v-.078zm.508-.88l.098.235c-.157.41-.8.332-.723.566-.273-.39.352-.878.625-.8zm11.46-.878c-.567.235-.88-.546-1.484 0 .488.41.722.332 1.132.488-.156.469-.41.547-.332.8a1.367 1.367 0 0 1 1.288 0 .84.84 0 0 1 .703-.565c-.39-.157-.39-.157-.234-.566-.566.253-.41-.157-.644 0a1.23 1.23 0 0 0 0 .644c-.684 0-.274-.566-.352-.8h-.078zm7.28 3.319c.235 0 .157-.234.235-.547l-.41.157-.41.156c0 .234.254.156.586.234zm.47.254c.331-.156.097-.41.487-.41 0-.41-.41 0-.488-.156 0 .156-.156 0 0 .566zm4.997-9.332l-.469.371.313.41a.508.508 0 0 0 .234-.644v-.098l-.078-.039zm-9.468 7.81c.312 0 1.034-.41 1.386 0-.39-.41 0-.645 0-.801a6.15 6.15 0 0 1-1.347.312c.195.45-.527.273 0 .566l-.04-.078zm1.757-.372h-.098.098a1.25 1.25 0 0 0 0 .84l.312-.098-.273-.644c.281.082.532.245.722.468a.703.703 0 0 0-.332.723c.254 0 .8-.313.957.234.227-.385.263-.854.097-1.269-.195.683-.8-.664-1.483-.312v.058zm10.073-5.856c-.41.097-.312.332-.234.488 0-.176.78-.195.234-.488zm-30.473 6.11l-1.035.39c0 .254.41.41.234.488a.664.664 0 0 1 .156.567l1.035-.41c0-.235-.644 0-.703-.332-.058-.332.39-.508.313-.703zm24.87-8.648l.332.41.39-.332-.214-.469c-.254.157-.8.313-.41.39h-.098zm-.644-.273c-.156-.235-.41 0-.8 0 0 .39-.41.312 0 .8l.8-.8z" fill-rule="nonzero"/><path d="M46.696 10.425l-.254-.567c-.546.235-.39-.156-.644 0-.156.39.41.157.488.39.078.235-.156.41 0 .645.234 0 0 .254.469.41.566-.234.644 0 .878 0 .234 0 .098-.644.41-.488l-.234-.547c-.215.313-.645-.175-1.035.313l-.078-.156zM59.616 5.7v.267V5.7zm.628 10.542L32.445 27.526l1.952.878 26.452-10.64-.605-1.522zm18.429 23.211c-.157-.117-.332-.195-.332-.234a.234.234 0 0 1-.157 0c.118.195.332.117.489.195-.274 0 0 .41-.332.332-.332-.078 0 .156 0 .156a.449.449 0 0 0 .351-.156h.371a.566.566 0 0 0 .468-.332l-.468.332-.39-.293zm1.034 0a.664.664 0 0 1-.156-.566c-.41.313 0 .566 0 .723 0 .156.137 0 .215-.157h-.059zM31.04 28.013l-20.674 8.434h-.156a.878.878 0 0 0 0-.39l-.8.312a.37.37 0 0 1-.157.41c.074.035.16.035.235 0l-.41.312.253.566a4.275 4.275 0 0 1-.644.235A21.689 21.689 0 0 0 9 43.748l.488-.156c.234.332-.098.722.156 1.132a.8.8 0 0 1-.098.41c.098 0 .156-.097.254-.254v.098s.156.234-.41.312c.332.41.156.645.488 1.035.312-.312-.254-.547.39-.703l.332.39.41-.312c0-.41-.41 0-.956-.332.39-.312 0-.8.156-1.19h-.156l-.156-.332h-.02v-.234c.41 0 .566.234.8 0a1.367 1.367 0 0 1-.234-1.191 1.015 1.015 0 0 1-.683-.313.351.351 0 0 0 0-.195c.156 0 .254.156.41 0a.703.703 0 0 0 0-.41c.08.036.173.036.254 0-.157-.234.234-.156.234-.566-.332-.41-.156-.644-.332-.8-.176-.157 0 0-.156 0a.351.351 0 0 0 0-.157.332.332 0 0 0 0-.253v-1.464l.254-.098 21.18-8.512-.565-1.64zM9.234 41.973h.254c0 .156-.157.156 0 .312h.117c0 .273 0 .254-.352.215a.586.586 0 0 1 .156.312c-.156-.254-.312-.488-.253-.722l.078-.117zm.91 2.596a.297.297 0 0 1-.266.312l.102-.156.164-.156zm-.012-1.718c0 .644-.332.469-.566.547a.293.293 0 0 1 .156-.313c.039-.136.234-.136.332-.136l.078-.098zm59.892-29.517c-.41 0 .235-.156-.156-.234 0 .41-.234.156-.41.312l.156.254.41-.332zm1.328 3.397a1.347 1.347 0 0 0 0-.878c0 .41 0 .41-.41.332.17.154.309.34.41.546zm-1.64-1.952a.878.878 0 0 1 1.035 0c.253-.156.41-.312.253-.547-.41.313-.8 0-1.21-.156.566.273-.468.371 0 .8l-.078-.097zM16.692 58.35a.566.566 0 0 1 .468-.331l-.723-.879c-.234.156.156.644 0 .8-.156.157-.566-.234-.8 0l.722.879c.156-.156.234-.469.41-.39l-.078-.079zM70.59 16.652c.156-.41.312 0 .41 0l-.254-.312c-.156 0-.313.234-.156.39v-.078zm-4.217-6.403l-.313-.39a1.25 1.25 0 0 1-.8.312c0 .156-.332 0 0 .566.234-.566.625-.156 1.035-.488h.078zM9.878 35.47s.332-.41.527-.273c.84-2.128.879-4.49 2.206-6.599-.332 0-.41-.234-.41-.468a.605.605 0 0 1 .234-.098c.566-.234.723-.546.488-1.113.8-.331.723-1.21 1.386-1.717-.507-.645-.156-.84-.39-1.64.195-.117.312-.41.469-.215 0 .644-.313.722 0 1.288a23.836 23.836 0 0 1 5.68-6.813c.156-.39.957-.702.957-1.269 0 .235 0 .235.41.157.8-.957 2.752-1.406 3.24-2.519 1.113-.156 2.421-1.366 3.788-1.796a.43.43 0 0 0-.196-.253l.196-.157s-.117-.117-.235 0l-.234-.273c-.234 0-.8.312-.722.566-.469-.41-1.6.644-1.952.879 0 .234.234.566 0 .644-.235.078 0-.644-.469-.41 0 .234.234.566-.332.722-.703-.332-1.952.469-2.596 1.035.234.566.41.156.488.41-.566.234-.156.41-.41.468-.332-.8-.234.098-.722-.312 0 0 .488.41.234.566l-.45-.664c-1.678.41-1.717 1.601-3.083 2.109 0 .254-.157.41 0 .644a22.02 22.02 0 0 0-4.12 5.154.586.586 0 0 0 0-.196c-.253 0 0 .645-.331.703.234.566.41.156.488.41-.567.234-.41-.156-.645 0 0 .234.469.41.235.566l-.566.235c0 .234-.157.41-.41.468.331.8.253 1.406-.235 1.6.156.41 0 .567-.156.801a1.464 1.464 0 0 0 0-.644h.234c0-.234 0-.644-.312-.8-.566.234-.254.956-.722 1.21 0 .234.566.722.312.8-.547-.722-.234.957-.8.957.332.8-.703 1.19 0 1.718-.566.234-.41-.156-.645 0l.235.546c-.566.254-.235.957-.723 1.21.488.41 0 .645.157 1.133.253-.098.41-.488.566-.254v.254c-.39.156-.547.39-.547.625 0-.234 0-.547-.156-.313.312.488-.234.645 0 1.172l.039-.254zm18.163-23.426l.103.267a.597.597 0 0 0-.267-.146h.164v-.121zm-1.843.742c0 .234 0 .644-.566.878-.195-.566.41-.566.566-.878zm51.889 27.135h-.156c-.313.355 0 .355.156 0zm-.547 6.813c.062.195.14.385.235.566l.566-.254a.625.625 0 0 0-.8-.312zM22.197 5.974a.268.268 0 0 0 0 .234.605.605 0 0 0 .24-.351h-.24v.117z" fill-rule="nonzero"/><text transform="rotate(-23 39.435 37.983)" font-family="PingFangSC-Semibold, PingFang SC" font-size="17.6" font-weight="500"><tspan x="12.935" y="44.483">未完成</tspan></text><path d="M10.034 35.412l.254.332v.469c.156-.156 0-.313 0-.644v-.157.196l-.254-.196zm68.782-4.848v-.266a.324.324 0 0 0 0 .266zM76.759 49.41c.547-.234 0-.644 0-.644s-.312 0 0 .644z" fill-rule="nonzero"/><path d="M76.916 48.804a.761.761 0 0 1 .468.41c0 .235-.156.41 0 .644.566-.234 0-.878.566-.878-.488-.41.156-.41 0-.644-.43 0-.566.234-1.034.468zm-61.65 8.57c.234-.566.234-.156.41-.332-.156-.234 0-1.034-.722-.878.234-.547-.645-1.269-.645-1.679-.32-.478-.613-.973-.878-1.484l-.566.567c.644 1.269 1.034 1.678 1.483 2.752.41 0 .645-.156.957.332l-.41.312.371.41zm-1.952-3.162l.351-.156c.39 0 .547.644.703.468-.293.566-1.054 0-.976-.312h-.078z" fill-rule="nonzero"/><path d="M13.529 53.127c0-.13 0-.209-.157-.209-.156 0-.41-.13-.644 0 .313.522.566-.13.8 0v.21zm-1.68-1.277c.391 0-.097.41.547.644l.898-.722c-.566-.645-.253-1.21-1.054-1.27.488-.722-.234-1.6-.546-2.44 0 0-.254.567-.41.313-.157-.254-.157-.644 0-.8.331.41 0 .41.156.644.41-.313.332-.957-.235-1.601-.199.102-.42.155-.644.156.156.254.156.254 0 .41l-.41.332c.592.33.863 1.037.645 1.679.11.1.279.1.39 0-.41.312.234.878.547.878-.703.156.722.644.8 1.27-.469.272-.312.526-.703.429l.02.078zm-.956-4.276l-.254-.331s.254-.157.332 0c.078.156.195.292 0 .41l-.078-.079zM61.025 6.696l-.312-.469.156-.156a.605.605 0 0 0-.8 0c.155.235.155.644.312.8.156.157.41 0 .644 0v-.175zm-9.312 69.556a.605.605 0 0 0-.8-.098c.41.488.8.488.8.098zm1.035 0a3.416 3.416 0 0 0-.625.234s.234.312.878.312c-.41-.156-.41-.156-.253-.546zM4.256 52.61l.468-.183c-.117-.251-.273.137-.468.183z" fill-rule="nonzero"/><path d="M52.709 77.052c-.157 0-.39.156-.469.469a8.863 8.863 0 0 0-.234-1.035l-.879.234h-.156c-.156-.156-.312 0-.644-.234v.488a1.19 1.19 0 0 1-.234 0 .332.332 0 0 0-.156-.312c-.41 0-.879.722-1.21.234a.625.625 0 0 0-.157.41l-.41.156c0-.156 0-.332.156-.332.098-.39-.234.156-.39 0v-.41c.156.254.41-.312.566.254.234-.156.39 0 .644-.156-.156-.254.234-.566-.097-1.054-.39.332 0 .41-.235.566-.156-.234-.41.332-.644.156a.273.273 0 0 0 0-.39 20.303 20.303 0 0 1-7.282.8l-.644.566-.312-.41c-.644.566-1.484-.546-2.362.156l-.313-.39a5.095 5.095 0 0 1-2.362.156 13.255 13.255 0 0 1-2.479-.84c-.41 0-.8 0-1.21-.155-.313-.41-.645.156-1.113-.567-1.952.157-3.65-1.366-5.447-1.366-3.182-2.108-6.247-3.221-9.077-5.857-.41 0 0 .39-.41.313a40.364 40.364 0 0 0-2.284-2.597h-.156a.332.332 0 0 0-.235 0c-.156 0-.273 0-.234-.156a.332.332 0 0 1 .39 0 40.996 40.996 0 0 1-3.943-4.841.293.293 0 0 1-.41 0c.41-.332 0-.41.234-.566-.956-.723-1.034-1.68-1.6-1.953 0-.41-.566-2.05-1.27-1.483l.391-.332c-.312-.39-.546-.644-.468-1.035-.235.156 0 .352-.196.527a.644.644 0 0 1 0 .762l-.312-.41.234-.156c-.312-.41-.41 0-.566-.235.41-.332.41 0 .644-.156-.156-.234 0-.41.254-.566-.488-1.035-.644-1.679-.956-2.44a.312.312 0 0 1-.41 0c.156.644-.41 0-.488.722l-.313-.41a.742.742 0 0 0 .235-.566c0 .137.273.137.488.137l-.274-.43c.091.134.269.176.41.098-.234-.41-.234-.41 0-.566-.312-.39-.41 0-.566-.235l.41-.41a29.907 29.907 0 0 1-1.952-10.463c.156 0 0-.234 0-.41 0-.176-.156.234 0 .41-.254.156-.644.156-.566-.234.156.234.41-.332.566-.157.156.176-.254-.175-.254-.175A4.607 4.607 0 0 0 0 41.366c.312.41 0 .8.644 1.289H.45l-.078.293c.468 2.87.8 5.466 1.581 8.14.156.157.644-.156.547.254l-.39.312c.702.879.546 2.05 1.483 2.753-.156-.234-.156-.234 0-.39a.137.137 0 0 1 .117 0c0-.41 0-.45.312-.723.157.235 0 .41-.234.879.36.233.731.448 1.113.644-.39.332-.8 0-1.035 0-.234 0 .156-.234 0-.469-.234.157-.39 0-.8.313.878 1.483 1.288 2.928 2.284 4.568.234-.156.41-.332.644-.156-.644.156-.234.566 0 1.034.254-.156.41-.312.8 0l-.644.566c.488 1.035 1.699 1.21 1.21 1.953.723.468.567.644 1.113.956 0 .8 1.21 1.952 1.953 2.753.644-.156.8 0 .8-.332 0 0 .566.254.332.41-.234.156-.41 0-.644.156.878 1.484 1.796 1.718 2.83 3.084.235-.156.41 0 .645-.156a5.368 5.368 0 0 0 2.791 2.148c.332.39 0 .39.156.644.723.468 1.699 1.19 2.362 1.679.235-.156.235-.566.41-.332-.488.722.547.644.703.898.156.254.254-.566.41-.332.156.234-.8.332-.234.566.566.234.644-.156.8 0a32.074 32.074 0 0 0 6.228 2.597c.332.068.653.18.956.331l-.156.157c.254 0 .488.234.722.312a.664.664 0 0 1 0-.39h.313l.097.156c1.37.53 2.81.853 4.276.956a.449.449 0 0 1 0-.332c.41 0 .8 0 1.112.157.04.191.093.38.156.566.723-.235 1.055-.156 1.406.156a.351.351 0 0 1 0-.41c.234 0 .39.156.547.722a9.585 9.585 0 0 1 2.616-.156c-.157-.41-.567-.41-.723-.468-.156-.059 0 0 0-.157 0-.156.156 0 .332.157v-.157c0-.156.234-.253.332-.156a.39.39 0 0 1 0 .156c0-.097 0-.097.312-.156h.098a.8.8 0 0 1 .156.469.332.332 0 0 0-.41-.156c.234.566.469.41.566.722.39-.488.879 0 1.386-.234a.78.78 0 0 1 0-.723.195.195 0 0 1 .157 0c.156 0 .234.156.41.547l.566-.234c-.157.41 0 .234.234.566a6.891 6.891 0 0 1 2.518-.41v-.879h.352l.097.156c.156 0 .313 0 .39-.156.02.13.02.261 0 .39 0 0-.702.567-.39.489.8-.332.957.234 1.386-.234a1.19 1.19 0 0 1 0-.898h-.234c.155-.03.314-.03.468 0 .157.331.567.8.254 1.132.4.195.869.195 1.27 0-.235-.566-.41-.156-.47-.41a4.51 4.51 0 0 0 1.113-.313.469.469 0 0 0 0 .547c.136-.132.295-.238.469-.312v-.235.235c.644-.332 1.366-.566 1.366-1.035l.235.547c.097 0 .097-.156.097-.39h.235c-.274-.41.195-.606.117-.801l-.04-.137zM2.284 47.828c-.082.212-.216.4-.39.547-.45-.176.156-.234.39-.566v.02zm-.761.978c.234-.157.41-.315.644-.157-.195 0-.566.314-.644.157zm.644 1.267c-.156-.234 0-.39.234-.546l.332.39c-.195.234-.195-.156-.566.156zm1.405 1.738l.157.234c-.41 0 0 .41-.235.566 0-.41-.156-.644 0-.8h.078zm7.106 12.884a.37.37 0 0 0-.39.312c-.332-.41.43-.742.39-.332v.02zm17.57 11.342c.39-.39.644-.547.8-.312-.253.546-.644.546-.82.293l.02.02zm10.874 1.952l-.313-.41c.156-.117.703 0 .313.41zm.8.898v-.246.246zm4.119-.097c.2.047.39.127.566.234v.312c-.488.254-.605 0-.644-.546h.078zm2.265-1.25h-.157c-.156 0 .332-.546.566-.312a.39.39 0 0 0-.41.234v.078zm.677.605l-.117-.058c-.189-.156 0-.332.188-.332l-.07.39zm-.033-.41c-.235 0-.39.157-.469.098v-.098l.41-.312v.312h.059zm2.772 0c-.156 0-.332 0-.41-.234-.078-.234.156-.156.234-.156.078 0 .39.312.176.39zm.84-.388h-.098c.156-.197.214-.276.41-.197a.938.938 0 0 0-.313.237v-.04zm1.951-.978l.41-.156c-.097-.156-.156-.39-.331-.313.331.313-.157.313 0 .469h-.079z" fill-rule="nonzero"/><path d="M69.322 45.759c.644 0 .8-.312.41-1.952v-.957c.156.156.312.234.566.488.702-.956.39-1.718.644-2.284-.234.156-.566-.234-.332-.41a.293.293 0 0 0 .41 0l-.41-.566a.41.41 0 0 1-.605.098.234.234 0 0 1 0-.098 30.805 30.805 0 0 0-.41-6.56c-.566.255-.332.723-.957.723a38.38 38.38 0 0 1 .41 3.904l-51.127 20.81.156.489a6.013 6.013 0 0 1-.956-1.035.742.742 0 0 0-.235.547s0-.157-.156-.235l.156-.156-.156-.234a.39.39 0 0 0 0 .41l-.234.156c.156.234.546.644.703.469-.235.566 1.054 1.366 1.405 1.717.234-.156.41-.312.644-.156.235.156-.644.156-.234.566.234-.156.39-.312.8 0-.097.8 1.035 1.68 1.718 2.128.39-.332 0-.41.235-.566.332.41.41 0 .566.234-.644.567.156.235 0 .8 0 0 .254-.565.41-.312l-.41.313c.898 1.483 1.952 1.21 2.928 2.284.234-.156.41 0 .644-.156.469.312.957.566 1.386.8-.17.123-.354.227-.546.312.703.957 1.6.898 1.952 1.289a.312.312 0 0 0 .156-.332c0 .254 0 .566.156.488 0-.234.41-.488.566-.234.157.254-.234 0-.156.39l.469-.195v.117a.215.215 0 0 0 .175-.273h-.117v-.274c0-.078 0 0-.156 0v-.253c.097.012.19.045.273.097 0 0 0-.097.118-.156l.8.234c.234.567.39.157.468.41 0 0 .157 0 .157-.156s0 .156.156.313c.156.156.37.117.566 0 .195-.118.917.234 1.327.39-.234-.547-.41-.156-.488-.39l.567-.254c.234.566.488.41.566.722.156 0 .156-.156.156-.234 0-.078 0 0 .156 0 .254.16.522.297.8.41.313.39 1.035-.098 1.367.312.156 0 .312-.41.468-.566-.156.332 0 .254.235.488.566-.234.644 0 .898 0v-.156a.195.195 0 0 1 .234.176.82.82 0 0 1 .41-.157.625.625 0 0 0 .02.742 2.343 2.343 0 0 1 1.268 0c.566-.234.157-.41.41-.468.235.546.41.156.469.39 1.815-.468 4.04-.312 5.856-.878.41-.157.8-.235 1.27-.39.155.155.331.233.487.155.156-.078.156-.156.156-.332 0-.175.157 0 .313 0l.097.235a3.904 3.904 0 0 1 1.953-.469c1.034-.41 2.206-1.21 3.904-1.815.41-.469 1.6-.645 1.6-1.27 0 0 0 .235.391.157a17.94 17.94 0 0 0 4.451-3.904c.566-.235 1.406-.879 1.484-1.484 0 0 0 .254.41.156a18.35 18.35 0 0 0 2.42-3.709c0-.234-.546.234-.39-.156.644 0 .703-.566.547-.879l.253.567c.235-.098 0-.898.8-.957a.43.43 0 0 1-.253-.547c.722.313.254-.956 1.132-1.034l-.234-.566c.8-.957.8-2.44 1.679-3.397-.41-1.054.41-1.367 0-2.128l.566-.234c-.41-.527 0-1.25-.8-1.562h.039zm.566-5.427s.178 0 .266.156l-.266.234v-.39zm0 1.562s.379 0 .233.156l-.233.234v-.39zM17.92 60.205c.16-.039.328-.039.488 0v.156h.156l.234.234c-.39.41-.566-.156-.956-.234l.078-.156zm10.535 7.724l-.267-.267h.267v.267zm3.735 1.269v-.267h.332l-.332.267zm.091-.423a.539.539 0 0 1 0-.41v.332c0 .078 0 0-.266 0l.266.078zm3.716.683v-.156s0-.156 0 0a.35.35 0 0 1 .267 0s0 .137-.178.234l-.089-.078zm14.915-1.516c.156 0 .41-.22.468-.138-.096.163-.24.255-.39.248l-.078-.11zm3.904-1.822l.197.527c0-.215-.432-.37-.197-.527zm9.605-9.35c.41-.47.41.155.488.41.078.253-.313-.138-.488-.41zm1.737-2.48c.41.156.234 0 .566-.234l.234.566c-.175-.332-.722-.098-.8-.332zm.8-.312c.235 0 0-.645.313-.723l.254.566-.567.157zm1.953-7.087c0-.234-.645 0-.879.098a28.306 28.306 0 0 1-3.65 8.101v.235c-.879.097-1.133 1.054-1.406 1.717-1.19.8-1.952 2.616-3.397 3.495 0 .234.488.39.235.546-.39-.156-1.386.898-1.27 1.406-.234 0 0-.878-.487-.41-.488.469-1.386.879-1.718 1.6-.235-.565-.566.235-.723.567-1.386.234-2.596 1.679-4.548 2.108a.37.37 0 0 1-.156.41.39.39 0 0 1 .156-.41 8.648 8.648 0 0 0-2.85 1.289h-.235l-.156-.41c-.566.234-1.034.41-1.405.234-.176.172-.287.4-.313.644h-.156a1.25 1.25 0 0 0 0-.468 6.384 6.384 0 0 1-1.718 0c0 .234.469.41.234.566-.488-.41-.956-.234-1.6-.234 0 .234.41.39.234.468h-.156a.156.156 0 0 0 0-.195c-.879 0-1.386.234-1.952.234-.098 0-.098 0-.098.156h-.156a.547.547 0 0 0-.39 0h-.625a8.57 8.57 0 0 1-2.636-.117v.156h-.722a.722.722 0 0 0-.957 0c-.546-.644-1.347-.331-2.108-.8a3.26 3.26 0 0 0-.312.41h-.488c-.157 0 .156 0 .234-.156a21.708 21.708 0 0 1-8.121-3.475c-.39 0-.957-.703-1.464-.547.234-.156.234-.156 0-.41-1.133-.566-2.128-2.206-3.319-2.362a4.685 4.685 0 0 0-1.035-1.269l50.054-20.302a26.53 26.53 0 0 1-.703 5.27c.293.82.84 1.465.684 1.855h.078zM54.089 76.135c.297-.156.115-.41.115-.8a.624.624 0 0 0-.115.8zm-26.036 1.367v.246a.69.69 0 0 1 .566 0c-.176-.43-.566 0-.644-.266l.078.02zm42.713-13.354l-.488.274.234.566.567-.254c-.098-.332-.098-.957-.274-.566l-.039-.02zM54.505 74.417l-.41.312.312.41c.234-.215.469-.37 0-.722h.098zm16.261-11.713l.41 1.034c.234 0 .156-.41.313-.722-.332-.156-.215-.547-.723-.312zm-4.529 5.856c.156.156 0 .8.41.41a.39.39 0 0 0-.351-.41h-.059z" fill-rule="nonzero"/><path d="M68.111 66.764c.14.259.435.394.723.332l-.235-.722-.488.39zm-40 10.867a.217.217 0 0 0 0-.266v.266zM70.278 40.24c0 .3.234 0 .39 0 .157 0-.156-.3-.39 0zM64.91 68.97c-.156.41-.156.41 0 .644l.566-.234v.234a.625.625 0 0 0 .312-.722h-.878v.078zm-9.956 6.481c.644-.156 0-.8-.157-.644.235.234 0 .39.157.644zm.878.157h-.234l.234.566c.156-.41 0 .234.234-.098-.39-.156-.136-.312-.234-.546v.078zm-1.308-.078a.722.722 0 0 1-.234.956c0 .234.234.566.468.41-.234-.566.332-.722.488-1.132-.41.566-.156-.469-.722-.234zm5.74-2.929c-.235 0 0-.234-.645 0 .469.41 0 .644.157 1.113l.566-.234a.683.683 0 0 1 0-.8l-.078-.079zM37.57 2.128c.421 0 0-.234 0-.39-.106.127-.106.263 0 .39zm.054-.32a.332.332 0 0 1 0-.266v.267zM75.04 21.846c.157-.156.547-.234.157-.39-.157.156 0 .234-.157.39zM49.39 3.293c.058.15.185.233.312.204 0 0 0-.408-.312-.204zm1.054-1.731l-.39.332.156.234c.625-.117.78-.215.215-.547l.02-.02zm24.408 20.582c.221 0 .221 0 .221-.188 0-.189-.398 0-.22.188zM1.132 38.458c.156-.41-.41-1.054 0-1.289.04-.078-.351-.273-.488-.468.028.253.028.508 0 .761.234-.097.488.39.332.8-.156 0-.254-.253-.488-.156a.547.547 0 0 0 .703.352h-.059zm71.098 22.06c0 .644 0 .878.469.39l-.234-.547-.235.156zM.957 40.331a.644.644 0 0 0 .331-.722c-.566.156-.722.566-.331.722z" fill-rule="nonzero"/><path d="M.722 33.519c.645 0-.234-.547.566-.234 0 .234 0 .644.157 1.132 0 0 .878.546.312.8.156-.41-.234-.566-.312-.8l-.8.312v.41c.233 0 .273.156.194.547.567-.235 0-.645.332-.703l.235.547-.567.156-.195-.547c.04.468.04.938 0 1.406v.234-.215c.117.156.605 0 .45.371.39.156-.098-.254.155-.41l.39.156c-.233 0 .255.566-.39.469 0 .254-.156.41-.097.644.254 0 .488.41.956.254-.234-.566-.39-.156-.468-.41.234 0-.234-.566 0-.644 0 0 0 .234.41.156.017-2.43.446-4.84 1.269-7.126l-.313-.8.566-.234c-.331-.8.957-1.27.547-2.362l.566-.235a4.568 4.568 0 0 1 .566-2.342c.377-.835.841-1.627 1.386-2.362.157-.41.332-.723.488-1.113.567-.254 0-.644.8-.957a4.06 4.06 0 0 1 .313-.937c-.468-.39-.312-.702 0-.878.116.213.195.444.234.683v.117-.117c.723-1.366 2.09-2.362 2.519-3.67 2.81-2.401 4.763-5.056 8.16-7.008.156-.41-.41-.156-.234-.566.956-.41 2.05-.879 3.162-1.386 0-.332-.098-.645.234-.567.332.078 0 .313 0 .41a39.961 39.961 0 0 1 5.857-2.46.351.351 0 0 1 .156-.39c.254.547.41.156.488.39.957-.702 1.952-.468 2.265-.956.41.156 2.127.098 1.815-.703l.234.547.39-.176c.121.039.251.039.372 0a.957.957 0 0 0-.313.098.527.527 0 0 1-.39-.274l.468-.234.196.488a.605.605 0 0 1 .37 0c0-.234-.41-.156-.487-.41.566-.234.156-.41.41-.468.234.546-.157.39 0 .644.234 0 .39.156.468.39 1.132-.156 1.718 0 2.616-.156a.312.312 0 0 1 .156-.39c-.644-.098.156-.41-.566-.722l.468-.157.254.235.235.156c-.118 0-.157.195-.235.351h.41s-.234 0-.156.41c.234-.097.234-.097.41.156.566-.253.156-.41.41-.488l.156.566A30.395 30.395 0 0 1 49.45 3.26c0-.234 0-.644.39-.468-.234 0 .156.468 0 .644s.156 0 .254 0a5.134 5.134 0 0 0-.605-2.148c-.567.235-.723-.331-1.406.235l-.234-.566c-2.83-.313-5.427-.8-8.2-.957-.234 0 0 .644-.39.488L39.043 0c-1.034.41-2.108 0-3.064.644.312 0 .312 0 .39.156.078.157 0 0-.156 0 .488 0 .488 0 .722.567-.234 0-.41-.157-.761-.45h.117-.156c-.41.332-.8.567-.879.899a.82.82 0 0 1 0-.645c.098-.095.21-.174.332-.234h.156c-.097-.254.156-.41-.097-.898-1.68.41-3.143.41-5.037.898.156.234.254.469 0 .547 0-.645-.468-.39-.957-.235.098.235.254.567-.312.723l-.215-.684c-1.112.157-1.6 1.27-2.186.567-.722.546-.8.312-1.21.8-.723-.332-2.206.547-3.241 1.035 0 .644-.312.722 0 .878 0 0-.39.488-.547.234-.156-.253.157-.39 0-.644a28.306 28.306 0 0 0-3.904 1.816c.098.234-.156.39 0 .644a5.017 5.017 0 0 0-2.752 1.952c-.567.254-.41-.156-.645 0-.722.566-1.6 1.288-2.284 1.796 0 .254.488.41.235.566-.547-.722-.8.332-1.035.41-.234.078.488.41.234.566-.254.156 0-.898-.468-.41-.469.488 0 .645-.332.723a37.911 37.911 0 0 0-9.175 15.344c0 .253.644 0 .722.332-.488.234-.098.39-.41.468 0-.234-.156-.468-.41-.39.156.156.332.468.156.546a.215.215 0 0 1-.234 0c.018.11.018.222 0 .332 0 .234-.41.469-.313.722l.235.469s-.566.234-.41.488a1.25 1.25 0 0 1 0 .878c-.39.469-.156.41-.313.723a1.19 1.19 0 0 1-.41.468c-.117.371.274.527.118.84l.175.078z" fill-rule="nonzero"/></g></svg>