<?xml version="1.0" encoding="UTF-8"?>
<svg width="12px" height="12px" viewBox="0 0 12 12" version="1.1" xmlns="http://www.w3.org/2000/svg" xmlns:xlink="http://www.w3.org/1999/xlink">
    <title></title>
    <g id="-界面合集" stroke="none" stroke-width="1" fill="none" fill-rule="evenodd">
        <g id="资源视图" transform="translate(-402.000000, -174.000000)" fill="#999999" fill-rule="nonzero" stroke="#999999" stroke-width="0.1">
            <g id="打印二维码备份-2" transform="translate(408.000000, 180.000000) rotate(-360.000000) translate(-408.000000, -180.000000) translate(402.000000, 174.000000)">
                <path d="M10.6382353,7.20005504 C11.4108126,6.66044313 11.5873087,6.70129483 11.7157532,6.78745737 C11.8439679,6.87346571 11.9260187,6.99591904 11.9451822,7.13335747 L11.9451822,7.13335747 L11.95,7.20004728 L11.95,9.90006501 C11.95,10.0385587 11.8883838,10.1657128 11.7870936,10.2625356 C11.6831099,10.3619331 11.5374894,10.4295183 11.3741664,10.4459335 L11.3741664,10.4459335 L11.2941176,10.450069 L7.21587015,10.450069 L7.87843922,11.0139674 C7.99299772,11.111352 8.05674688,11.2371062 8.06629317,11.3661545 C8.07580072,11.494679 8.03140345,11.6257751 7.93473539,11.7318558 L7.93473539,11.7318558 L7.87844275,11.7861793 C7.76092163,11.8860635 7.60875251,11.9405772 7.45334176,11.9488834 C7.29755042,11.9572101 7.13819375,11.9191152 7.00907256,11.8340883 L7.00907256,11.8340883 L6.94508842,11.7861808 L5.18038431,10.2861724 C5.06582581,10.1887879 5.00207664,10.0630337 4.99253035,9.93398538 C4.9830228,9.80546085 5.02742007,9.67436474 5.12408812,9.56828412 L5.12408812,9.56828412 L5.18038255,9.51395909 L6.94502457,8.01400341 C7.06825931,7.90960821 7.22870428,7.85530342 7.39074473,7.85109755 C7.55298624,7.84688646 7.71720969,7.89289088 7.84785636,7.99081107 C7.97524884,8.08629223 8.0489614,8.21528083 8.06400436,8.34950821 C8.07895431,8.48290557 8.03571078,8.62067068 7.93473539,8.73183606 L7.93473539,8.73183606 L7.87844098,8.78616109 L7.21503359,9.35006108 L10.6375126,9.35006108 Z M9.88235294,0.05 C10.2445073,0.05 10.5920699,0.171826076 10.8482388,0.389571035 C11.1011092,0.604512253 11.2441176,0.895769388 11.2441176,1.20000789 L11.2441176,1.20000789 L11.2441176,4.90560036 C10.934677,5.39547688 10.7722911,5.4699444 10.5882353,5.4699444 L10.5882353,5.4699444 L9.92992028,1.15000789 L1.3617647,1.15000789 L1.3617647,10.250067 L2.8235229,10.250067 C3.15475545,11.2338223 3.00747128,11.3500749 2.8235294,11.3500749 L2.8235294,11.3500749 L1.4117647,11.3500749 C1.03469101,11.3500749 0.693070597,11.2206182 0.445878852,11.0105038 C0.201870012,10.803095 0.05,10.5168389 0.05,10.200067 L0.05,10.200067 L0.05,1.20000789 C0.05,0.895769388 0.193008488,0.604512253 0.445878846,0.389571035 C0.702047701,0.171826076 1.04961035,0.05 1.4117647,0.05 L1.4117647,0.05 Z" id="形状"></path>
            </g>
        </g>
    </g>
</svg>