<?xml version="1.0" encoding="UTF-8"?>
<svg width="12px" height="12px" viewBox="0 0 12 12" version="1.1" xmlns="http://www.w3.org/2000/svg" xmlns:xlink="http://www.w3.org/1999/xlink">
    <title>置顶</title>
    <g id="-界面合集" stroke="none" stroke-width="1" fill="none" fill-rule="evenodd">
        <g id="生产进度" transform="translate(-1264.000000, -447.000000)" fill-rule="nonzero">
            <g id="编组-37" transform="translate(962.500000, 336.000000)">
                <g id="置顶" transform="translate(301.500000, 111.000000)">
                    <rect id="矩形" fill="#000000" opacity="0" x="0" y="0" width="12" height="12"></rect>
                    <path d="M10.8715,4.406 L7.5945,1.129 C7.51166873,1.04610016 7.39918913,0.999668582 7.282,0.999998234 C7.16481087,0.999668585 7.05233127,1.04610016 6.9695,1.129 L4.827,3.273 C4.66448048,3.25468758 4.50104764,3.2456729 4.3375,3.246 C3.33938897,3.24448659 2.37065486,3.58368464 1.5915,4.2075 C1.49361079,4.28609886 1.43376258,4.40261569 1.42689402,4.5279668 C1.42002547,4.65331791 1.46678463,4.77567623 1.5555,4.8645 L3.972,7.281 L1.107,10.143 C1.0720222,10.1778189 1.0504254,10.2238449 1.046,10.273 L1.001,10.768 C0.995509851,10.8274336 1.01532781,10.8864282 1.05558624,10.9304936 C1.09584467,10.9745589 1.15281344,10.9996123 1.2125,10.9995004 C1.21900001,10.9995004 1.2255,10.9995004 1.2325,10.998 L1.7275,10.953 C1.77672099,10.9484393 1.82275548,10.9266614 1.8575,10.8915 L4.722,8.027 L7.1385,10.4435 C7.22133127,10.5263998 7.33381087,10.5728314 7.451,10.5725 C7.58496389,10.5728118 7.71177271,10.5120761 7.7955,10.4075 C8.52452541,9.49545621 8.8604272,8.33068482 8.729,7.1705 L10.8715,5.028 C11.0428862,4.85608456 11.0428862,4.57791545 10.8715,4.406 Z M8.0505,6.496 L7.725,6.822 L7.775,7.2795 C7.85437449,7.98715727 7.71327962,8.70206122 7.371,9.3265 L2.6755,4.628 C3.29935407,4.28459035 4.01440896,4.14325651 4.722,4.2235 L5.1795,4.274 L5.5055,3.9485 L7.2835,2.1705 L9.83,4.717 L8.0505,6.4965 L8.0505,6.496 Z" id="形状" fill="#D6D6D6"></path>
                </g>
            </g>
        </g>
    </g>
</svg>