<?xml version="1.0" encoding="UTF-8"?>
<svg width="12px" height="15px" viewBox="0 0 12 15" version="1.1" xmlns="http://www.w3.org/2000/svg" xmlns:xlink="http://www.w3.org/1999/xlink">
    <!-- Generator: Sketch 55.2 (78181) - https://sketchapp.com -->
    <title>删除备份 8</title>
    <desc>Created with Sketch.</desc>
    <defs>
        <rect id="path-1" x="0" y="0" width="16" height="16"></rect>
    </defs>
    <g id="3.0" stroke="none" stroke-width="1" fill="none" fill-rule="evenodd">
        <g id="02-高级排程（自制工单）(鼠标触屏上一页图标-)" transform="translate(-1630.000000, -737.000000)">
            <g id="锁定打开" transform="translate(1628.000000, 737.000000)">
                <mask id="mask-2" fill="white">
                    <use xlink:href="#path-1"></use>
                </mask>
                <g id="矩形"></g>
                <g id="suoding-3" stroke-width="1" fill-rule="evenodd" mask="url(#mask-2)" fill="#919398">
                    <g transform="translate(2.000000, 1.000000)" fill-rule="nonzero">
                        <path d="M5.94551282,10.9647115 C5.8220163,10.9638982 5.70390128,10.9140579 5.61715311,10.8261557 C5.53040493,10.7382534 5.48212996,10.6194901 5.48294871,10.4959936 L5.48294871,8.79342949 C5.48294871,8.53496795 5.6901282,8.32471154 5.94551282,8.32471154 C6.20089744,8.32471154 6.40807693,8.53496795 6.40807693,8.79342949 L6.40807693,10.4959936 C6.40889568,10.6194901 6.36062071,10.7382534 6.27387254,10.8261557 C6.18712436,10.9140579 6.06900934,10.9638982 5.94551282,10.9647115 Z M2.07782052,5.33086538 L9.78346153,5.33086538 L11.1085897,5.33086538 C11.5365888,5.33425177 11.8811212,5.68337181 11.8789427,6.1113782 L11.8789427,13.1821474 C11.8802108,13.3877936 11.7998245,13.5855586 11.6553724,13.7319341 C11.5109204,13.8783096 11.3142359,13.9613047 11.1085897,13.9626603 L0.783461538,13.9626603 C0.357820509,13.9626603 0.0131085976,13.6129167 0.0131085976,13.1821474 L0.0131085976,6.1113782 C0.0118405339,5.90573206 0.0922267674,5.70796706 0.236678834,5.56159153 C0.381130901,5.415216 0.577815344,5.33222098 0.783461538,5.33086538 L2.07782052,5.33086538 Z M10.9537197,12.7144551 L10.9537197,6.57701924 C10.9537197,6.4036859 10.8152564,6.26419872 10.645,6.26419872 L1.245,6.26419872 C1.0747436,6.26419872 0.936280304,6.40471154 0.936280304,6.57701924 L0.936280304,12.7144551 C0.935713203,12.8856902 1.07376772,13.0251207 1.245,13.02625 L10.645,13.02625 C10.8162323,13.0251207 10.9542868,12.8856902 10.9537197,12.7144551 Z" id="" stroke="none"></path>
                        <path d="M2.8913255,5.48571427 L2.8913255,4.25326633 C2.8913255,2.41550611 4.38680289,0.906245509 6.22571173,0.891313709 L6.24983233,0.891313709 C7.14229465,0.89935391 8.05658036,1.30825556 8.55277561,1.83661162 C8.66533843,1.95376883 8.75952363,1.97903803 8.89276126,1.97903803 C9.13780853,1.97903885 9.33663631,1.78072484 9.33726952,1.53567839 C9.33726952,1.43115578 9.29132552,1.30480977 9.18565429,1.20717874 C8.40809587,0.444933961 7.36618666,0.0124511144 6.27739873,0 L6.19814532,0 C5.0832843,0.0116352285 4.01817114,0.463276234 3.23475696,1.25656855 C2.4416204,2.05143724 1.99736112,3.12923091 2,4.25211773 L2,5.48571427 L2.8913255,5.48571427 Z" id="路径" stroke="#919398" stroke-width="0.2"></path>
                    </g>
                </g>
            </g>
        </g>
    </g>
</svg>