<?xml version="1.0" encoding="UTF-8"?>
<svg width="12px" height="12px" viewBox="0 0 12 12" version="1.1" xmlns="http://www.w3.org/2000/svg" xmlns:xlink="http://www.w3.org/1999/xlink">
    <title></title>
    <g id="-界面合集" stroke="none" stroke-width="1" fill="none" fill-rule="evenodd">
        <g id="资源视图" transform="translate(-316.000000, -174.000000)" fill="#999999">
            <g id="打印二维码备份-6" transform="translate(322.000000, 180.000000) rotate(-360.000000) translate(-322.000000, -180.000000) translate(316.000000, 174.000000)">
                <g id="编组" transform="translate(1.000000, 0.000000)">
                    <path d="M1.00923947,10.9854868 L9.14460669,10.9854868 L9.14460669,6.26067352 L1.00923947,6.26067352 L1.00923947,10.9854868 Z M8.81817379,5.24616035 L1.33578451,5.24616035 L0,5.24616035 L0,12 L10.1538462,12 L10.1538462,5.24616035 L8.81817379,5.24616035 Z M4.62841706,8.94754403 L4.62841706,9.57642948 C4.62841706,9.8254361 4.82925571,10.0273242 5.07696793,10.0273242 C5.32468015,10.0273242 5.52551881,9.8254361 5.52551881,9.57642948 L5.52551881,8.94754403 C5.79341582,8.79153445 5.97406968,8.50093279 5.97406968,8.1673834 C5.97406968,7.66937016 5.57239237,7.26559391 5.07696793,7.26559391 C4.58154349,7.26559391 4.17986618,7.66937016 4.17986618,8.1673834 C4.17986618,8.50093279 4.36052005,8.79153445 4.62841706,8.94754403" id="Combined-Shape"></path>
                    <path d="M1.8913255,5.48571427 L1.8913255,4.25326633 C1.8913255,2.41550611 3.38680289,0.906245509 5.22571173,0.891313709 L5.24983233,0.891313709 C6.14229465,0.89935391 7.05658036,1.30825556 7.55277561,1.83661162 C7.66533843,1.95376883 7.75952363,1.97903803 7.89276126,1.97903803 C8.13780853,1.97903885 8.33663631,1.78072484 8.33726952,1.53567839 C8.33726952,1.43115578 8.29132552,1.30480977 8.18565429,1.20717874 C7.40809587,0.444933961 6.36618666,0.0124511144 5.27739873,0 L5.19814532,0 C4.0832843,0.0116352285 3.01817114,0.463276234 2.23475696,1.25656855 C1.4416204,2.05143724 0.997361122,3.12923091 1,4.25211773 L1,5.48571427 L1.8913255,5.48571427 Z" id="路径" stroke="#999999" stroke-width="0.2" fill-rule="nonzero"></path>
                </g>
            </g>
        </g>
    </g>
</svg>