<?xml version="1.0" encoding="UTF-8"?>
<svg width="92px" height="92px" viewBox="0 0 92 92" version="1.1" xmlns="http://www.w3.org/2000/svg" xmlns:xlink="http://www.w3.org/1999/xlink">
    <title>正确</title>
    <g id="-界面合集" stroke="none" stroke-width="1" fill="none" fill-rule="evenodd">
        <g id="导入数据-导入成功" transform="translate(-684.000000, -400.000000)">
            <g id="编组-2" transform="translate(361.000000, 127.000000)">
                <g id="正确" transform="translate(323.000000, 273.000000)">
                    <rect id="矩形" fill="#000000" fill-rule="nonzero" opacity="0" x="11" y="12" width="75" height="75"></rect>
                    <path d="M60.2939833,33.8337962 L43.5266714,51.1437551 C43.1488078,51.5340798 42.6361798,51.7533814 42.101641,51.7533814 C41.5671021,51.7533814 41.0544741,51.5340798 40.6766105,51.1437551 L31.7060168,41.8828426 C31.1891505,41.3489859 30.4879766,41.0490463 29.7568372,41.0490463 C29.0256979,41.0490463 28.324524,41.3489859 27.8076577,41.8828426 C27.2905369,42.4164364 27,43.1403027 27,43.8951041 C27,44.6499056 27.2905369,45.3737719 27.8076577,45.9073657 L37.6968774,56.116634 C40.1296651,58.6277887 44.0736169,58.6277887 46.5064045,56.116634 L64.1923423,37.8583194 C64.7094631,37.3247255 65,36.6008593 65,35.8460578 C65,35.0912563 64.7094631,34.3673901 64.1923423,33.8337962 C63.675476,33.2999396 62.9743021,33 62.2431628,33 C61.5120235,33 60.8108496,33.2999396 60.2939833,33.8337962 L60.2939833,33.8337962 Z" id="路径" fill="#2BC048" fill-rule="nonzero"></path>
                    <circle id="椭圆形" stroke="#2BC048" stroke-width="5" cx="46" cy="46" r="43.5"></circle>
                </g>
            </g>
        </g>
    </g>
</svg>