<?xml version="1.0" encoding="UTF-8"?>
<svg width="89px" height="110px" viewBox="0 0 89 110" version="1.1" xmlns="http://www.w3.org/2000/svg" xmlns:xlink="http://www.w3.org/1999/xlink">
    <!-- Generator: Sketch 55.2 (78181) - https://sketchapp.com -->
    <title>失败</title>
    <desc>Created with Sketch.</desc>
    <g id="3.0" stroke="none" stroke-width="1" fill="none" fill-rule="evenodd">
        <g id="04-点击无效工序-会出现无需进行工序设置的提醒" transform="translate(-1026.000000, -854.000000)">
            <g id="提示的缺省页" transform="translate(1010.000000, 844.000000)">
                <g id="shangchuanshibai-4" transform="translate(16.000000, 10.000000)">
                    <path d="M63.2900353,109.992667 C49.6250378,109.992667 38.5473686,98.9149975 38.5473686,85.25 C38.5473686,71.5850025 49.6250378,60.5073334 63.2900353,60.5073334 C76.9550327,60.5073334 88.0327019,71.5850025 88.0327019,85.25 C88.0327019,98.9149975 76.9550327,109.992667 63.2900353,109.992667 L63.2900353,109.992667 Z" id="路径" fill="#E0E0E0" fill-rule="nonzero"></path>
                    <g id="编组" transform="translate(60.000000, 69.000000)" fill="#FFFFFF">
                        <path d="M3.56793755,0.000949668058 C2.50736614,0.000949668058 1.62965186,0.387997293 0.934794697,1.16514017 C0.250977256,1.91115444 -0.0826525207,2.91315216 0.01746134,3.92018781 L1.42546136,19.5940925 C1.48458111,20.1230022 1.73365188,20.6124804 2.12641377,20.9716164 C2.51650902,21.3190449 2.9980328,21.4897116 3.56793755,21.4897116 C4.09583987,21.5060491 4.61016301,21.3208056 5.00641377,20.9716164 C5.40030281,20.61296 5.65048613,20.1234238 5.71041375,19.5940925 L7.11841377,3.92018781 C7.21852763,2.91315216 6.88489785,1.91115444 6.20108041,1.16514017 C5.54079739,0.403956416 4.57531283,-0.0229129217 3.56793755,0.000949668058 L3.56793755,0.000949668058 Z" id="路径"></path>
                        <path d="M3.56793755,31.3487592 C4.46698516,31.3060926 5.21365184,31.0013307 5.80184234,30.4314259 C6.39730971,29.8549755 6.72066763,29.053225 6.69174707,28.2249497 C6.71740381,27.3891372 6.39643201,26.5798938 5.80485645,25.9888954 C5.21328089,25.397897 4.40372459,25.0777152 3.56793755,25.1041878 C2.73215052,25.0777152 1.92259422,25.397897 1.33101866,25.9888954 C0.7394431,26.5798938 0.418471297,27.3891372 0.444128036,28.2249497 C0.444128036,29.1239973 0.742794697,29.8584735 1.33403277,30.4314259 C1.92527084,31.0013306 2.66888989,31.3060925 3.56793755,31.3457116 L3.56793755,31.3487592 Z" id="路径"></path>
                    </g>
                    <path d="M66.0327019,49.5 C66.0327127,46.4681523 63.5792054,44.0080849 60.5473685,44 L16.5473685,44 C13.5057523,44 11.0400353,46.4657171 11.0400353,49.5073333 C11.0400353,52.5489495 13.5057523,55.0146666 16.5473685,55.0146666 L60.5473685,55.0146666 C51.9346547,55.034852 43.8336057,59.1071097 38.6793685,66.0073334 L16.5473685,66.0073334 C13.5098025,66.0073335 11.0473688,68.4697673 11.0473688,71.5073334 C11.0473688,74.5448994 13.5098025,77.0073332 16.5473685,77.0073334 L33.5973685,77.0073334 C33.2294214,78.812661 33.0427169,80.6502265 33.0400353,82.4926666 C33.0400353,88.7186666 35.1960353,94.402 38.6720353,99 L11.0473685,99 C4.96986246,98.995955 0.0440801644,94.0701727 0.0400352734,87.9926666 L0.0400352734,11.0073334 C0.0400352734,4.93533337 4.97536854,0 11.0473685,0 L44.0400353,0 L44.0400353,22 C44.0400353,28.072 48.9753686,33.0073334 55.0473685,33.0073334 L77.0473685,33.0073334 L77.0473685,60.6393334 C72.3109728,57.0086592 66.5151746,55.0303601 60.5473685,55.0073334 C63.58207,54.9992435 66.036759,52.5347095 66.0327019,49.5 Z" id="路径" fill="#E0E0E0" fill-rule="nonzero"></path>
                    <path d="M49.5400353,16.5146666 L49.5400353,0 L77.0400353,27.5 L60.5473685,27.5 C54.4750965,27.5040535 49.5481303,22.5869346 49.5400353,16.5146666 Z" id="路径" fill="#E0E0E0" fill-rule="nonzero"></path>
                </g>
            </g>
        </g>
    </g>
</svg>