<?xml version="1.0" encoding="UTF-8"?>
<svg width="12px" height="12px" viewBox="0 0 12 12" version="1.1" xmlns="http://www.w3.org/2000/svg" xmlns:xlink="http://www.w3.org/1999/xlink">
    <title>用户</title>
    <g id="-界面合集" stroke="none" stroke-width="1" fill="none" fill-rule="evenodd">
        <g id="01-用户清单-列表" transform="translate(-784.000000, -174.000000)" fill-rule="nonzero">
            <g id="用户" transform="translate(784.000000, 174.000000)">
                <rect id="矩形" fill="#000000" opacity="0" x="0" y="0" width="12" height="12"></rect>
                <path d="M5.7,6.52795031 C6.54,5.9689441 7.14000001,5.03726707 7.14000001,3.98136645 C7.14000001,2.30434782 5.82,1 4.19999999,1 C2.57999998,1 1.19999999,2.30434783 1.2,3.98136645 C1.2,5.09937887 1.80000001,6.03105589 2.64,6.52795031 C1.08,7.14906832 0,8.63975154 0,10.4409938 C0,10.7515528 0.240000003,10.9378882 0.479999992,10.9378882 C0.719999982,10.9378882 0.959999997,10.689441 0.959999997,10.4409938 C0.959999997,8.63975156 2.4,7.21118012 4.14,7.21118012 C5.88,7.21118012 7.32,8.63975154 7.32,10.4409938 C7.32,10.7515528 7.56,10.9378882 7.80000001,10.9378882 C8.04000001,10.9378882 8.28000001,10.689441 8.28,10.4409938 C8.33999999,8.70186335 7.2,7.14906832 5.7,6.52795031 Z M4.14,5.9689441 C3.06,5.9689441 2.21999999,5.09937888 2.21999999,3.98136645 C2.21999999,2.86335402 3.11999999,1.99378882 4.14,1.99378882 C5.21999999,1.99378882 6.05999999,2.86335403 6.05999999,3.98136645 C6.05999999,5.09937887 5.21999999,5.9689441 4.14,5.9689441 L4.14,5.9689441 Z M10.08,7.33540372 C10.68,6.83850931 11.04,6.0931677 11.04,5.34782608 C11.04,3.98136645 9.96,2.86335403 8.64,2.86335403 C8.4,2.86335403 8.16,2.92546582 7.86,3.04968944 L7.80000001,3.04968944 C7.80000001,3.04968944 7.74000001,3.11180124 7.68000001,3.11180124 C7.50000001,3.23602484 7.38,3.42236024 7.38,3.60869565 C7.38,3.91925465 7.62,4.16770186 7.92000001,4.16770186 C7.98,4.16770186 8.04000001,4.10559007 8.1,4.10559005 C8.22,4.04347826 8.4,4.04347826 8.52,4.04347826 C9.3,4.04347826 9.9,4.66459628 9.90000001,5.40993789 C9.90000001,6.2173913 9.3,6.83850931 8.58000001,6.83850931 C8.22,6.83850931 7.98,7.08695652 7.98,7.45962733 C7.98,7.77018633 8.28,8.08074535 8.58000001,8.08074533 L8.64,8.08074533 C9.90000001,8.08074533 10.92,9.13664596 10.92,10.4409938 C10.92,10.7515528 11.16,11 11.46,11 C11.76,11 12,10.7515528 12,10.4409938 C12,9.07453416 11.28,7.83229814 10.08,7.33540372 L10.08,7.33540372 Z" id="形状" fill="#949496"></path>
            </g>
        </g>
    </g>
</svg>