<?xml version="1.0" encoding="UTF-8"?>
<svg width="17px" height="17px" viewBox="0 0 17 17" version="1.1" xmlns="http://www.w3.org/2000/svg" xmlns:xlink="http://www.w3.org/1999/xlink">
    <title>账号</title>
    <g id="组件控件" stroke="none" stroke-width="1" fill="none" fill-rule="evenodd" fill-opacity="0.7">
        <g id="01-手机号登录" transform="translate(-985.000000, -339.000000)" fill="#000000">
            <g id="账号" transform="translate(985.000000, 339.000000)">
                <path d="M1.94280976,15.561976 C2.10749268,14.0018798 2.80306341,12.5644949 3.86702439,11.4835802 C5.21352195,12.5644949 6.87330732,13.1063104 8.53527805,13.1063104 C10.1789854,13.1063104 11.8237854,12.5766382 13.1663805,11.5190515 C14.2109854,12.5961314 14.8943805,14.0186567 15.0573463,15.561976 L1.94280976,15.561976 Z M4.64158049,5.38763675 C4.64158049,3.20982932 6.37239024,1.43802399 8.5,1.43802399 C10.6276098,1.43802399 12.3585756,3.20982932 12.3585756,5.38763675 C12.3585756,6.70966014 11.7156098,7.93821196 10.6385366,8.67448024 L9.492,9.45788376 L10.7851122,9.94681191 C11.2288976,10.1145814 11.6473951,10.3290067 12.0363902,10.5832174 C9.94483902,12.047765 7.08060488,12.0392966 5.00419512,10.5584514 C5.38195122,10.3154254 5.7864,10.1088293 6.2148878,9.94681191 L7.508,9.45788376 L6.36161951,8.67448024 C5.28454634,7.93821196 4.64158049,6.70966014 4.64158049,5.38763675 L4.64158049,5.38763675 Z M12.3248585,9.08799203 C13.2400585,8.09831197 13.7634537,6.781082 13.7634537,5.38763675 C13.7634537,2.41683898 11.402322,0 8.5,0 C5.59783415,0 3.23670244,2.41683898 3.23670244,5.38763675 C3.23670244,6.781082 3.76009756,8.09831197 4.67514146,9.08799203 C2.1384,10.5065228 0.5,13.26673 0.5,16.280988 L0.5,17 L16.5,17 L16.5,16.280988 C16.5,13.26673 14.8617561,10.5065228 12.3248585,9.08799203 L12.3248585,9.08799203 Z" id="Fill-4"></path>
            </g>
        </g>
    </g>
</svg>