<?xml version="1.0" encoding="UTF-8"?>
<svg width="12px" height="12px" viewBox="0 0 12 12" version="1.1" xmlns="http://www.w3.org/2000/svg" xmlns:xlink="http://www.w3.org/1999/xlink">
    <title></title>
    <g id="-界面合集" stroke="none" stroke-width="1" fill="none" fill-rule="evenodd">
        <g id="04-自制工单-面向销售订单备份" transform="translate(-147.000000, -701.000000)" fill="#A186FF">
            <g id="编组-4备份-6" transform="translate(135.000000, 629.000000)">
                <g id="编组-3备份-2" transform="translate(12.000000, 72.000000)">
                    <rect id="矩形" fill-opacity="0.2" x="0" y="0" width="12" height="12" rx="2"></rect>
                    <path d="M9.43632037,10.8366682 C10.0947735,10.8366682 10.424,10.4457117 10.424,9.68437529 L10.424,1.464 L9.46718535,1.464 L9.46718535,9.45803204 C9.46718535,9.80783524 9.3437254,9.98273684 9.10709382,9.98273684 C8.72642563,9.98273684 8.33546911,9.95187185 7.92393593,9.91071854 L8.11941419,10.8366682 L9.43632037,10.8366682 Z M6.93625629,2.61629291 L6.93625629,1.75207323 L1.432,1.75207323 L1.432,2.61629291 L6.93625629,2.61629291 Z M8.41777574,8.69669565 L8.41777574,2.43110297 L7.47124943,2.43110297 L7.47124943,8.69669565 L8.41777574,8.69669565 Z M6.39097483,5.56904348 L6.39097483,3.14099771 L2.04929977,3.14099771 L2.04929977,5.56904348 L6.39097483,5.56904348 Z M5.46502517,4.78713043 L2.9649611,4.78713043 L2.9649611,3.91262243 L5.46502517,3.91262243 L5.46502517,4.78713043 Z M2.55342792,10.9395515 L2.55342792,10.5280183 L5.85598169,10.5280183 L5.85598169,10.9395515 L6.77164302,10.9395515 L6.77164302,6.14518993 L1.63776659,6.14518993 L1.63776659,10.9395515 L2.55342792,10.9395515 Z M3.75716247,7.91478261 L2.55342792,7.91478261 L2.55342792,6.99912128 L3.75716247,6.99912128 L3.75716247,7.91478261 Z M5.85598169,7.91478261 L4.64195881,7.91478261 L4.64195881,6.99912128 L5.85598169,6.99912128 L5.85598169,7.91478261 Z M3.75716247,9.68437529 L2.55342792,9.68437529 L2.55342792,8.71727231 L3.75716247,8.71727231 L3.75716247,9.68437529 Z M5.85598169,9.68437529 L4.64195881,9.68437529 L4.64195881,8.71727231 L5.85598169,8.71727231 L5.85598169,9.68437529 Z" id="副" fill-rule="nonzero"></path>
                </g>
            </g>
        </g>
    </g>
</svg>