<?xml version="1.0" encoding="UTF-8"?>
<svg width="30px" height="39px" viewBox="0 0 30 39" version="1.1" xmlns="http://www.w3.org/2000/svg" xmlns:xlink="http://www.w3.org/1999/xlink">
    <!-- Generator: Sketch 55.2 (78181) - https://sketchapp.com -->
    <title>编组备份</title>
    <desc>Created with Sketch.</desc>
    <g id="3.0" stroke="none" stroke-width="1" fill="none" fill-rule="evenodd">
        <g id="03-新增作业文件" transform="translate(-350.000000, -387.000000)">
            <g id="编组备份" transform="translate(350.000000, 387.000000)">
                <path d="M29.7222222,9.02911298 L20.9958196,0.277777778 L4.44444444,0.277777778 C2.14325799,0.277777778 0.277777778,2.14325799 0.277777778,4.44444444 L0.277777778,34.5555556 C0.277777778,36.856742 2.14325799,38.7222222 4.44444444,38.7222222 L25.5555556,38.7222222 C27.856742,38.7222222 29.7222222,36.856742 29.7222222,34.5555556 L29.7222222,9.02911298 Z" id="矩形备份" stroke="#EF8D52" stroke-width="0.555555556" fill="#F2A778"></path>
                <path d="M21.1111111,0 L30,8.91428571 L23.3333333,8.91428571 C22.1060339,8.91428571 21.1111111,7.91936294 21.1111111,6.69206349 L21.1111111,0 Z" id="矩形" fill-opacity="0.398492133" fill="#FFFFFF"></path>
                <g id="编组-3" transform="translate(5.000000, 16.157143)">
                    <path d="M15,4.85720308 L15,10.7427969 L19.8238663,12.3553465 C19.8806497,12.3743284 19.940128,12.3840065 20,12.3840065 C20.3068249,12.3840065 20.5555556,12.1352759 20.5555556,11.828451 L20.5555556,3.77154901 C20.5555556,3.71167702 20.5458774,3.65219867 20.5268955,3.59541536 C20.4296196,3.30441899 20.1148627,3.14737754 19.8238663,3.24465347 L15,4.85720308 Z" id="矩形备份-4" stroke="#FFFFFF" stroke-width="1.11111111"></path>
                    <path d="M11.6666667,4.86513592 L11.6666667,9.62057837 C11.6666667,10.2342281 11.1692053,10.7316895 10.5555556,10.7316895 C10.3356958,10.7316895 10.1207781,10.666463 9.93800449,10.5442659 L6.38158386,8.16654463 C5.87144534,7.8254806 5.73438339,7.13544459 6.07544743,6.62530608 C6.15643253,6.50417452 6.26045229,6.40015475 6.38158386,6.31916965 L9.93800449,3.94144843 C10.448143,3.60038439 11.138179,3.73744634 11.479243,4.24758485 C11.6014402,4.43035842 11.6666667,4.64527613 11.6666667,4.86513592 Z" id="矩形备份-6" fill="#FFFFFF" transform="translate(8.333333, 7.242857) scale(-1, 1) translate(-8.333333, -7.242857) "></path>
                    <rect id="矩形" stroke="#FFFFFF" stroke-width="1.11111111" x="0" y="0" width="15" height="14.4857143" rx="1.11111111"></rect>
                </g>
            </g>
        </g>
    </g>
</svg>