<?xml version="1.0" encoding="UTF-8"?>
<svg width="16px" height="16px" viewBox="0 0 16 16" version="1.1" xmlns="http://www.w3.org/2000/svg" xmlns:xlink="http://www.w3.org/1999/xlink">
    <title>文件-2备份 2</title>
    <g id="-界面合集" stroke="none" stroke-width="1" fill="none" fill-rule="evenodd">
        <g id="02-新增作业文件" transform="translate(-110.000000, -533.000000)" fill-rule="nonzero">
            <g id="文件-2备份-2" transform="translate(110.000000, 533.000000)">
                <rect id="矩形" fill="#000000" opacity="0" x="0" y="0" width="16" height="16"></rect>
                <path d="M8.83172221,5.14789236 C8.83172221,5.35118692 8.90176488,5.5254394 9.04526692,5.66552472 C9.18876896,5.80902676 9.36131308,5.87906943 9.56289929,5.87906943 L13.7125,5.87906943 L13.7125,13.9339757 C13.7125,14.1372703 13.6424573,14.3115228 13.4989553,14.4516081 C13.3571616,14.5968185 13.1846175,14.6668611 12.9813229,14.6668611 L2.73117707,14.6668611 C2.52788251,14.6668611 2.35363003,14.5968185 2.21354471,14.4533164 C2.07004266,14.3098144 2,14.1372703 2,13.9356841 L2,1.73117707 C2,1.52788251 2.07004266,1.35363003 2.21354471,1.21354471 C2.35704675,1.07004266 2.52959087,1 2.73117707,1 L8.83343057,1 L8.83172221,5.14789236 Z M9.80719443,4.90530557 L9.80719443,1.3023793 C9.91994603,1.37242197 10.010489,1.44588134 10.08224,1.51592401 L13.1948676,4.62855163 C13.2649103,4.6985943 13.3383697,4.79084561 13.4084123,4.90359721 L9.80719443,4.90530557 Z" id="形状" fill="#FFA36E"></path>
                <g id="视频播放" transform="translate(4.000000, 7.000000)">
                    <rect id="矩形" fill="#000000" opacity="0" x="0" y="0" width="6" height="6"></rect>
                    <path d="M3.16270588,0.295411764 C4.72209812,0.295411764 5.9862353,1.55954894 5.9862353,3.11894118 C5.9862353,4.67833341 4.72209812,5.94247059 3.16270588,5.94247059 C1.60331365,5.94247059 0.339176473,4.67833341 0.339176473,3.11894118 C0.339176473,1.55954894 1.60331365,0.295411764 3.16270588,0.295411764 Z M2.6897647,1.88682348 C2.50647894,1.88682348 2.35784184,2.03530257 2.35764693,2.21858824 L2.35764693,4.01894118 C2.35753714,4.14411031 2.42781021,4.25871011 2.53941988,4.31537233 C2.65102954,4.37203456 2.78501685,4.36113408 2.886,4.28717647 L4.14282353,3.36741176 C4.22928946,3.30419492 4.27995931,3.2031573 4.27892526,3.09605164 C4.2778592,2.98894598 4.22521815,2.88892121 4.13752941,2.82741176 L2.88,1.94682353 C2.82413555,1.90773424 2.75759393,1.88678595 2.68941176,1.88682348 L2.6897647,1.88682348 Z" id="形状" fill="#FFFFFF"></path>
                </g>
            </g>
        </g>
    </g>
</svg>