<?xml version="1.0" encoding="UTF-8"?>
<svg width="13px" height="13px" viewBox="0 0 13 13" version="1.1" xmlns="http://www.w3.org/2000/svg" xmlns:xlink="http://www.w3.org/1999/xlink">
    <g id="页面-1" stroke="none" stroke-width="1" fill="none" fill-rule="evenodd">
        <g id="打印模板添加" transform="translate(-1238.000000, -18.000000)">
            <g id="预览" transform="translate(1238.000000, 18.000000)">
                <rect id="矩形" x="0" y="0" width="13" height="13"></rect>
                <path d="M6.5,2.5 C8.62572865,2.5 10.6143029,3.69998614 12.3971454,6.10000219 C12.5342849,6.30000474 12.5342849,6.63332288 12.3971454,6.89999781 C10.6143029,9.29999927 8.62574365,10.5 6.5,10.5 C4.37430136,10.5 2.38574215,9.29999927 0.602854571,6.89999781 C0.465715143,6.69998067 0.465715143,6.36664795 0.602854571,6.10000219 C2.38574215,3.69998614 4.37431636,2.5 6.5,2.5 Z M6.5,3.16665087 C4.58003301,3.16665087 2.79714543,4.23330684 1.15142729,6.50002188 C2.79713043,8.76666399 4.58003301,9.83334913 6.5,9.83334913 C8.420027,9.83334913 10.2028546,8.76666399 11.8485727,6.50002188 C10.2028696,4.23332142 8.420027,3.16665087 6.5,3.16665087 Z M6.5,4.50001094 C7.66572264,4.50001094 8.55715143,5.36666436 8.55715143,6.50002188 C8.55715143,7.63330647 7.66572264,8.49997447 6.5,8.49997447 C5.33430736,8.49997447 4.44289358,7.63330647 4.44289358,6.50002188 C4.44289358,5.36666436 5.33430736,4.50001094 6.5,4.50001094 Z M6.5,5.1666618 C5.74571064,5.1666618 5.12859072,5.76668405 5.12859072,6.50002188 C5.12859072,7.23330137 5.74569564,7.83332361 6.5,7.83332361 C7.25430436,7.83332361 7.87145429,7.23330137 7.87145429,6.50002188 C7.87145429,5.76668405 7.25428936,5.1666618 6.5,5.1666618 Z" id="形状结合" fill="#326FFF" fill-rule="nonzero"></path>
            </g>
        </g>
    </g>
</svg>