<?xml version="1.0" encoding="UTF-8"?>
<svg width="16px" height="16px" viewBox="0 0 16 16" version="1.1" xmlns="http://www.w3.org/2000/svg" xmlns:xlink="http://www.w3.org/1999/xlink">
    <title>查看</title>
    <g id="查看" stroke="none" stroke-width="1" fill="none" fill-rule="evenodd">
        <g id="编组-3">
            <g id="矩形">
                <rect x="0" y="0" width="16" height="16"></rect>
            </g>
            <path d="M8.5,4.19166667 C6.583082,4.19166667 4.06717738,6.04921254 2.42916574,8.49994667 C4.06715022,10.9507525 6.58305978,12.8083333 8.5,12.8083333 C10.4169402,12.8083333 12.9328498,10.9507525 14.5708343,8.49994667 C12.9328226,6.04921254 10.416918,4.19166667 8.5,4.19166667 Z M8.5,14 C5.67604524,14 2.60389443,11.2316128 1,8.49993177 C2.60389443,5.76838723 5.67604524,3 8.5,3 C11.3239548,3 14.3961056,5.76838723 16,8.49993177 C14.3961056,11.2316128 11.3239548,14 8.5,14 Z M8.5,10.5166667 C9.6390873,10.5166667 10.5625,9.61377425 10.5625,8.5 C10.5625,7.38622575 9.6390873,6.48333333 8.5,6.48333333 C7.3609127,6.48333333 6.4375,7.38622575 6.4375,8.5 C6.4375,9.61377425 7.3609127,10.5166667 8.5,10.5166667 Z M8.5,11.7083333 C6.68781566,11.7083333 5.21875,10.2719136 5.21875,8.5 C5.21875,6.72808643 6.68781566,5.29166667 8.5,5.29166667 C10.3121843,5.29166667 11.78125,6.72808643 11.78125,8.5 C11.78125,10.2719136 10.3121843,11.7083333 8.5,11.7083333 Z" id="查看同源" fill-opacity="0.5" fill="#000000" fill-rule="nonzero"></path>
        </g>
    </g>
</svg>