<?xml version="1.0" encoding="UTF-8"?>
<svg width="12px" height="12px" viewBox="0 0 12 12" version="1.1" xmlns="http://www.w3.org/2000/svg" xmlns:xlink="http://www.w3.org/1999/xlink">
    <title>运行中</title>
    <g id="页面-1" stroke="none" stroke-width="1" fill="none" fill-rule="evenodd">
        <g id="01-发货任务" transform="translate(-1167.000000, -341.000000)" fill="#63C7ED">
            <g id="编组-6" transform="translate(1154.000000, 300.000000)">
                <g id="编组-11备份-2" transform="translate(13.000000, 41.000000)">
                    <path d="M6,0 C9.3137085,0 12,2.6862915 12,6 C12,9.3137085 9.3137085,12 6,12 C2.6862915,12 0,9.3137085 0,6 C0,2.6862915 2.6862915,0 6,0 Z M3.13827079,5.14285714 C2.66488386,5.14285714 2.28112793,5.52661307 2.28112793,6 C2.28112793,6.47338693 2.66488386,6.85714286 3.13827079,6.85714286 C3.61165772,6.85714286 3.99541364,6.47338693 3.99541364,6 C3.99541364,5.52661307 3.61165772,5.14285714 3.13827079,5.14285714 Z M6,5.14285714 C5.52661307,5.14285714 5.14285714,5.52661307 5.14285714,6 C5.14285714,6.47338693 5.52661307,6.85714286 6,6.85714286 C6.47338693,6.85714286 6.85714286,6.47338693 6.85714286,6 C6.85714286,5.52661307 6.47338693,5.14285714 6,5.14285714 Z M8.87240165,5.14285714 C8.39901472,5.14285714 8.01525879,5.52661307 8.01525879,6 C8.01525879,6.47338693 8.39901472,6.85714286 8.87240165,6.85714286 C9.34578857,6.85714286 9.7295445,6.47338693 9.7295445,6 C9.7295445,5.52661307 9.34578857,5.14285714 8.87240165,5.14285714 Z" id="运行中"></path>
                </g>
            </g>
        </g>
    </g>
</svg>