<?xml version="1.0" encoding="UTF-8"?>
<svg width="14px" height="14px" viewBox="0 0 14 14" version="1.1" xmlns="http://www.w3.org/2000/svg" xmlns:xlink="http://www.w3.org/1999/xlink">
    <title></title>
    <g id="-界面合集" stroke="none" stroke-width="1" fill="none" fill-rule="evenodd">
        <g id="01-高级排程" transform="translate(-609.000000, -329.000000)" fill="#FF9834">
            <g id="编组-2" transform="translate(609.000000, 329.002400)">
                <path d="M13.4288,4.2686 C13.076,3.4356 12.5734,2.6894 11.9308,2.0468 C11.2896,1.4056 10.542,0.9002 9.709,0.5488 C8.8466,0.1848 7.9324,6.88042216e-13 6.9888,6.88042216e-13 C6.0452,6.88042216e-13 5.1296,0.1848 4.2686,0.5488 C3.437,0.9002 2.6894,1.4056 2.0468,2.0468 C1.4042,2.6894 0.9002,3.4356 0.5488,4.2686 C0.1848,5.131 -5.67634828e-12,6.0466 -5.67634828e-12,6.9888 C-5.67634828e-12,7.9324 0.1848,8.848 0.5488,9.709 C0.9002,10.5406 1.4042,11.2882 2.0468,11.9308 C2.688,12.572 3.4356,13.0774 4.2686,13.4288 C5.131,13.7928 6.0452,13.9776 6.9888,13.9776 C7.9324,13.9776 8.848,13.7928 9.709,13.4288 C10.5406,13.0774 11.2882,12.5734 11.9308,11.9308 C12.5734,11.2896 13.076,10.542 13.4288,9.709 C13.7928,8.8466 13.9776,7.9324 13.9776,6.9888 C13.9776,6.0452 13.7928,5.1296 13.4288,4.2686 Z M12.5328,9.331 C12.2304,10.0478 11.7964,10.6904 11.2434,11.2434 C10.6946,11.7922 10.0464,12.2304 9.331,12.5328 C8.589,12.8464 7.8008,13.006 6.9888,13.006 C6.1768,13.006 5.3886,12.8464 4.6466,12.5328 C3.9298,12.2304 3.2872,11.7964 2.7342,11.2434 C2.1854,10.6946 1.7472,10.045 1.4448,9.331 C1.1312,8.589 0.9716,7.8008 0.9716,6.9888 C0.9716,6.1768 1.1312,5.3886 1.4448,4.6466 C1.7472,3.9312 2.1854,3.2816 2.7342,2.7342 C3.2816,2.1854 3.9312,1.7472 4.6466,1.4448 C5.3886,1.1312 6.1768,0.9716 6.9888,0.9716 C7.8008,0.9716 8.589,1.1312 9.331,1.4448 C10.0478,1.7472 10.6904,2.1812 11.2434,2.7342 C11.7936,3.2816 12.2304,3.9312 12.5328,4.6466 C12.8464,5.3886 13.006,6.1768 13.006,6.9888 C13.006,7.8008 12.8464,8.589 12.5328,9.331 Z" id="形状"></path>
                <path d="M7.581,8.0626 C7.5404,8.5008 7.2618,8.7066 6.9874,8.7066 C6.783,8.7066 6.9874,8.7066 6.9874,8.7066 C6.7256,8.6576 6.5226,8.5456 6.4344,8.1018 L6.0746,3.955 C6.0746,3.5378 6.5814,3.1696 7.0112,3.1696 C7.441,3.1696 7.9044,3.5546 7.9044,3.9718 L7.581,8.0626 L7.581,8.0626 Z M6.9888,9.2498 C6.559,9.2498 6.2104,9.5984 6.2104,10.0282 C6.2104,10.458 6.559,10.808 6.9888,10.808 C7.4186,10.808 7.7672,10.4594 7.7672,10.0282 C7.7672,9.5984 7.4186,9.2498 6.9888,9.2498 Z" id="形状"></path>
            </g>
        </g>
    </g>
</svg>