<?xml version="1.0" encoding="UTF-8"?>
<svg width="13px" height="12px" viewBox="0 0 13 12" version="1.1" xmlns="http://www.w3.org/2000/svg" xmlns:xlink="http://www.w3.org/1999/xlink">
    <title>提示</title>
    <g id="-界面合集" stroke="none" stroke-width="1" fill="none" fill-rule="evenodd">
        <g id="01-角色权限-工厂建模" transform="translate(-799.000000, -190.000000)" fill-rule="nonzero">
            <g id="编组-4备份" transform="translate(605.000000, 178.000000)">
                <g id="提示" transform="translate(194.500000, 12.000000)">
                    <rect id="矩形" fill="#000000" opacity="0" x="0" y="0" width="12" height="12"></rect>
                    <path d="M6,0 C2.6862915,0 0,2.6862915 0,6 C0,9.3137085 2.6862915,12 6,12 C9.3137085,12 12,9.3137085 12,6 C12,4.40870106 11.367859,2.88257758 10.2426407,1.75735931 C9.11742242,0.632141042 7.59129894,0 6,0 Z M6,10.516 C5.51464531,10.516 5.07708176,10.2236294 4.89134456,9.77522011 C4.70560736,9.32681085 4.80827427,8.81066945 5.15147186,8.46747186 C5.49466946,8.12427426 6.01081085,8.02160736 6.45922012,8.20734456 C6.90762939,8.39308176 7.2,8.8306453 7.2,9.316 C7.2,9.9787417 6.6627417,10.516 6,10.516 L6,10.516 Z M6,7.458 C5.2,7.458 4.558,3.72 4.558,2.924 C4.558,2.12760539 5.20360539,1.482 6,1.482 C6.79639461,1.482 7.442,2.12760539 7.442,2.924 C7.442,3.72 6.8,7.458 6,7.458 Z" id="形状" fill="#FF7474"></path>
                </g>
            </g>
        </g>
    </g>
</svg>