<?xml version="1.0" encoding="UTF-8"?>
<svg width="12px" height="12px" viewBox="0 0 12 12" version="1.1" xmlns="http://www.w3.org/2000/svg" xmlns:xlink="http://www.w3.org/1999/xlink">
    <title>已回撤</title>
    <g id="-界面合集" stroke="none" stroke-width="1" fill="none" fill-rule="evenodd">
        <g id="02-生产工单备份" transform="translate(-803.000000, -463.000000)">
            <g id="编组-5" transform="translate(789.000000, 337.000000)">
                <g id="编组-23" transform="translate(14.000000, 126.000000)">
                    <circle id="椭圆形" fill="#A186FF" cx="6" cy="6" r="6"></circle>
                    <path d="M8.1500128,5.80509396 C7.40697325,5.17176344 6.48761921,4.83398717 5.42973239,4.80232064 L5.42973239,3.71510325 C5.42973239,3.63065918 5.36676293,3.55677062 5.2786057,3.51454859 C5.17785457,3.48288206 5.07710344,3.50399308 5.0015401,3.56732613 L2.57091917,5.66787236 C2.48276194,5.75231642 2.47016805,5.87898253 2.57091917,5.96342659 L5.01413399,8.18008341 C5.08969733,8.24341646 5.19044846,8.26452748 5.29119959,8.23286096 C5.39195072,8.20119444 5.45492017,8.12730587 5.45492017,8.03230629 L5.45492017,6.87120034 C5.97126969,6.80786729 6.53799477,6.82897831 7.12990765,6.93453339 C7.7470083,7.04008848 8.46486007,7.51508637 9.27086908,8.34897155 C9.29605686,8.37008257 9.33383853,8.39119359 9.37162021,8.39119359 C9.38421411,8.39119359 9.40940189,8.39119359 9.42199577,8.38063808 C9.47237134,8.35952706 9.51015301,8.31730503 9.49755912,8.27508299 C9.3842141,7.29342069 8.93083403,6.4595355 8.1500128,5.80509396 L8.1500128,5.80509396 Z" id="路径" fill="#FFFFFF" fill-rule="nonzero"></path>
                </g>
            </g>
        </g>
    </g>
</svg>