<?xml version="1.0" encoding="UTF-8"?>
<svg width="14px" height="14px" viewBox="0 0 14 14" version="1.1" xmlns="http://www.w3.org/2000/svg" xmlns:xlink="http://www.w3.org/1999/xlink">
    <!-- Generator: Sketch 55.2 (78181) - https://sketchapp.com -->
    <title>单行文本</title>
    <desc>Created with Sketch.</desc>
    <g id="页面1" stroke="none" stroke-width="1" fill="none" fill-rule="evenodd">
        <g id="02-表单模板" transform="translate(-54.000000, -301.000000)">
            <g id="单行文本" transform="translate(54.000000, 301.000000)">
                <rect id="矩形" x="0" y="0" width="14" height="14"></rect>
                <rect id="矩形" x="0" y="0" width="14" height="14"></rect>
                <g id="xialakuang" fill="#919CAE" fill-rule="nonzero">
                    <path d="M12,0 L2,0 C0.900005859,0 0,0.900005859 0,2 L0,12 C0,13.0999941 0.900005859,14 2,14 L12,14 C13.0999941,14 14,13.0999941 14,12 L14,2 C14,0.900005859 13.0999941,0 12,0 Z M13.000002,12.000002 C13.000002,12.500002 12.6,13.000002 12.000002,13.000002 L2.00000195,13.000002 C1.50000195,13.000002 1.00000195,12.6 1.00000195,12.000002 L1.00000195,2.00000195 C1.00000195,1.50000195 1.4,1.00000195 2.00000195,1.00000195 L12.000002,1.00000195 C12.500002,1.00000195 13.000002,1.4 13.000002,2.00000195 L13.000002,12.000002 Z" id="形状"></path>
                    <path d="M10.199998,5.20000195 L7,8.70000195 L3.80000195,5.20000195 C3.59999609,4.99999609 3.29999414,4.99999609 3.10000195,5.20000195 C3.00000586,5.39999414 3.00000586,5.69999609 3.10000195,5.90000195 L6.60000195,9.8 C6.79999414,9.89999609 6.90000391,10.0000059 7,10.0000059 C7.09999609,10.0000059 7.20000586,9.89999609 7.30000195,9.8 L10.800002,5.90000195 C10.9999941,5.69999609 10.905043,5.32254909 10.800002,5.20000195 C10.6949609,5.07745481 10.4000039,4.9 10.199998,5.20000195 Z" id="路径"></path>
                </g>
            </g>
        </g>
    </g>
</svg>